<svg id="Layer_1" data-name="Layer 1" xmlns="http://www.w3.org/2000/svg" viewBox="0 0 906.84 628.93"><defs><style>.cls-1{fill:#2668ad;}.cls-2,.cls-26,.cls-29,.cls-3,.cls-30,.cls-31,.cls-32,.cls-33,.cls-34,.cls-35,.cls-36{fill:none;}.cls-2,.cls-26{stroke:#fdfefe;}.cls-2,.cls-26,.cls-29,.cls-3,.cls-30,.cls-31,.cls-32,.cls-33,.cls-34,.cls-35,.cls-36,.cls-4,.cls-5,.cls-6{stroke-miterlimit:10;}.cls-2{stroke-width:0.26px;}.cls-3{stroke:#fff;}.cls-24,.cls-27,.cls-4,.cls-6{fill:#fff;}.cls-4,.cls-5,.cls-6{stroke:#515354;}.cls-4{stroke-width:2px;}.cls-5{fill:#d8e6ea;}.cls-5,.cls-6{stroke-width:0.75px;}.cls-7{font-size:15px;fill:#515354;}.cls-24,.cls-27,.cls-7{font-family:MyriadPro-Regular, Myriad Pro;}.cls-8{letter-spacing:0em;}.cls-9{letter-spacing:-0.01em;}.cls-10{letter-spacing:-0.03em;}.cls-11{letter-spacing:-0.01em;}.cls-12{letter-spacing:0em;}.cls-13{letter-spacing:0.02em;}.cls-14{letter-spacing:-0.01em;}.cls-15{letter-spacing:-0.04em;}.cls-16{letter-spacing:-0.01em;}.cls-17{letter-spacing:0.01em;}.cls-18{letter-spacing:0em;}.cls-19{letter-spacing:-0.01em;}.cls-20{letter-spacing:-0.01em;}.cls-21{letter-spacing:-0.02em;}.cls-22{letter-spacing:0em;}.cls-23{letter-spacing:-0.03em;}.cls-24{font-size:18.57px;}.cls-25{fill:#150c0a;}.cls-26{stroke-width:0.44px;}.cls-27{font-size:17.81px;}.cls-28{fill:#f05455;}.cls-29,.cls-30,.cls-31,.cls-32,.cls-33,.cls-34,.cls-35,.cls-36{stroke:#f05455;}.cls-30{stroke-dasharray:5.16 5.16;}.cls-31{stroke-dasharray:4.17 4.17;}.cls-32{stroke-dasharray:3.89 3.89;}.cls-33{stroke-dasharray:3.84 3.84;}.cls-34{stroke-dasharray:3.84 3.84;}.cls-35{stroke-dasharray:2.41 2.41;}.cls-36{stroke-dasharray:3.16 3.16;}</style></defs><title>35th strett market</title><ellipse class="cls-1" cx="572.89" cy="625.63" rx="3.01" ry="2.8"/><polyline class="cls-2" points="572.36 624.22 572.36 625.62 574.14 625.62 574.75 626.76 575.22 626.54"/><path class="cls-2" d="M571.9,625.35s-1.14,1-.11,1.81c1.28,1,2-.84,2-.84"/><line class="cls-2" x1="572.35" y1="625.18" x2="573.44" y2="625.18"/><ellipse class="cls-2" cx="572.44" cy="623.78" rx="0.46" ry="0.43"/><polygon class="cls-3" points="36.98 207.26 26.24 344.1 40.57 345.37 40.57 341.89 49.31 343.47 49.31 346.63 60.37 346.63 63.53 319.14 66.37 319.77 70.8 299.23 124.84 304.28 127.68 303.97 127.68 299.54 70.48 294.26 76.07 230.06 71.85 200.55 36.98 207.26"/><line class="cls-3" x1="39.73" y1="280.24" x2="39.73" y2="206.73"/><polygon class="cls-3" points="33.71 298.13 32.94 304.12 36.16 304.12 36.16 302.58 36.16 298.9 33.71 298.13"/><polyline class="cls-3" points="29.94 296.96 43.84 298.06 43.84 300.2 36.16 299.9"/><polyline class="cls-3" points="29.3 305.12 39.73 303.89 39.73 306.04 47.06 306.04 46.14 313.41 50.44 313.41 49.37 331.37 61.93 333.04"/><path class="cls-4" d="M99.34,158.72s224.81,16.22,256.4-47.33S489.12,28.92,542.33,42.44,614.48-.83,634.76.52,697-13,682.08,122.21c0,0,0,42.92,58.14,38.36S916,123,906.52,190.89s-12,113.85.54,157.11-68.14,66.26-142.5,40.57-187.94,2.7-204.16,23-60.27,46-198.47,32.45-191.45,12.17-191.45,12.17-129.11,46-121-33.8S-87.24,196.57,99.34,158.72Z"/><path class="cls-5" d="M575.34,104.88l4.71-31.94-49.94-1.28-1.71,6,3.43.43-.65,7.5L528.4,86v14.15H523v63.22l-74.81-2.78,1.72-65h2.14l.22-28.72s-1.72-2.78-.65-4.71,5.58,0,5.58,0l1.5-2.57,30.43,1.71V57.94l96.45,1.93V65l9.65.43-6,38.58-7.08-.85-1.07,2.35Z"/><polygon class="cls-6" points="515.88 79.29 501.73 78 501.73 73.93 485.01 72.64 483.08 77.14 466.14 75.97 466.14 95.16 462.7 95.16 462.7 149.19 507.95 150.69 510.09 111.67 514.6 110.6 515.88 79.29"/><polygon class="cls-5" points="535.26 129.72 535.26 149.8 565.89 150.69 565.89 130.23 535.26 129.72"/><polygon class="cls-5" points="405.44 129.4 405.44 161.08 419.12 160.82 419.12 158.23 435.93 158.6 435.93 129.4 425.03 129.4 424.47 126.26 422.26 126.26 422.07 129.59 417.82 129.59 417.82 126.26 415.05 126.26 414.86 129.59 405.44 129.4"/><path class="cls-5" d="M388.71,186.27s20.2,17.24,41.63,26.85l-13.8,30,16.26,38.67h-3.94l1,19.21h-34v6.4H385.51V288.73l3.69.89-.49-23.79-7.88,3.45V272l-6.41-.25v45h-47.5l-.41,15h-2.57V313.58h-4.51v-9.93h4.23v-20.5h-4.23v-9.74h4.05v-2.76H304.91v-2.2h15.81v-4.32H324V228.46l3.22-2.29-.19-7.17h3.77s11-13.05,26.2-13.33l13,7.26V219h3.58v10h2.3v23.53h2.48v5.24l7.54-3.68v-2.39h3.22Z"/><polygon class="cls-5" points="295.95 240.52 295.95 214.57 279.61 214.57 279.61 237.99 285.84 237.99 285.84 241.02 274.98 241.02 274.98 268.82 269.75 268.82 269.75 252.48 270.85 252.48 270.85 250.96 269.75 250.96 269.75 248.18 271.27 248.18 271.27 245.57 269.25 245.57 269.25 238.24 271.19 238.24 271.19 230.58 269.25 230.58 269.25 225.27 271.61 225.27 271.61 217.6 269.67 217.6 269.67 204.88 297.72 204.88 297.72 179.61 239.68 179.61 239.68 220.22 234.88 220.22 234.88 214.57 224.77 214.57 224.77 209.94 234.46 209.94 234.46 178.69 211.72 178.69 211.72 209.77 221.82 209.77 221.82 214.4 211.72 214.4 211.72 220.13 206.92 220.13 206.92 181.81 189.73 181.81 189.73 212.8 168.59 212.8 168.59 229.73 168.59 266.24 179.62 266.24 179.62 299.67 205.46 299.67 205.46 301.97 209.33 301.97 209.33 303.11 210.51 303.11 210.51 298.5 208.77 298.5 208.77 291.99 206.47 291.99 206.47 286.13 252.27 286.13 252.27 294.15 250.43 294.15 250.43 298.21 251.59 298.21 251.59 301.59 249.37 301.59 249.37 332.7 252.07 332.7 252.07 343.33 221.83 343.33 221.83 332.02 206.21 332.02 205.98 306.44 215.83 306.44 215.83 303.5 177.23 303.5 177.23 293.54 173.27 293.54 173.27 290.01 150.3 290.01 150.3 285.73 128.11 285.73 128.11 302.14 133.89 302.14 133.89 314.7 145.77 314.7 143.39 317.98 146 321.15 148.37 317.98 148.37 330.43 160.6 330.43 157.99 333.38 160.6 335.3 163.43 332.92 163.43 345.26 175.88 345.26 173.73 348.09 175.76 350.35 179.04 348.31 179.04 360.43 190.82 360.43 190.82 364.05 195.46 364.05 195.46 360.65 198.74 360.65 198.74 364.05 215.26 364.05 215.26 357.82 252.16 357.82 252.16 371.63 281.93 371.63 281.93 342.77 272.19 342.77 272.19 338.13 323.8 338.13 355.54 338.13 357.35 345.05 360.65 344.9 384.11 344.9 384.11 366.85 402 366.85 402 377.07 405.9 377.07 405.9 367.15 413.87 363.69 413.87 333.03 413.87 328.97 406.35 326.41 356.3 326.41 356.45 333.78 266.85 333.78 266.85 331.97 298.72 331.97 298.72 302.36 270.99 302.36 270.99 298.75 285.64 298.75 285.64 285.07 291.81 285.07 291.81 272.14 304.58 272.14 304.58 240.72 295.95 240.52"/><polygon class="cls-5" points="172.95 405.88 169.26 412.89 178.24 417.81 176.27 421.37 161.02 413.62 157.33 421.37 169.26 427.77 167.79 431.34 165.57 431.34 161.02 440.44 182.06 451.63 187.34 442.16 177.63 436.87 179.47 433.31 194.36 440.32 198.42 433.18 188.57 427.89 190.54 423.96 192.14 424.69 195.96 417.93 172.95 405.88"/><path class="cls-5" d="M228.23,397.61l-17.59-10.34s-8.6-6.18-3.76-14.91,40.42-4.3,40.42-4.3v15.58l-3.76-.13-.27-1.24H227.69l-.4,10.1h1.34Z"/><polygon class="cls-5" points="324.57 333.39 324.57 338.14 323.25 338.14 323.25 344.33 324.57 344.33 324.57 400.1 330.89 400.1 330.89 401.95 335.64 401.95 335.64 400.76 344.47 400.76 344.47 338.93 336.3 333.39 324.57 333.39"/><polygon class="cls-5" points="352.25 377.82 352.25 415.26 416.86 415.26 416.86 377.29 371.63 377.29 371.63 375.45 364.12 375.45 364.12 372.81 352.25 374.39 344.47 374.26 344.47 377.69 352.25 377.82"/><polygon class="cls-5" points="413.68 334.45 413.68 338.32 451 338.32 451 352.06 501.83 352.06 503.82 355.2 509.06 355.2 509.06 352.26 513.88 352.26 513.88 353.63 544.8 353.63 544.8 356.46 578.13 356.46 578.13 343.67 596.89 343.67 596.89 348.49 603.5 348.49 603.5 351.22 617.75 351.22 617.75 353.52 662.93 353.52 662.93 340.94 642.8 340.94 642.8 314.85 604.23 314.85 604.23 317.57 597.11 317.57 597.11 341.05 580.34 341.05 580.34 321.24 540.82 321.24 540.82 323.55 515.98 323.55 515.98 330.05 514.2 330.05 514.2 332.88 509.17 332.88 509.17 330.46 502.77 330.46 502.77 333.71 458.75 333.71 458.75 331.51 451.31 331.51 451.31 334.76 413.68 334.45"/><polygon class="cls-5" points="818.51 289.33 818.51 317.5 836.24 316.34 844.03 316.83 845.03 302.25 841.71 301.59 842.04 293.97 828.29 292.64 827.96 290.06 818.51 289.33"/><polygon class="cls-5" points="835.58 205.66 831.77 204.66 831.77 216.76 823.98 220.57 820.84 220.57 818.51 217.75 818.51 208.14 821 204.66 822.82 186.27 827.96 186.27 828.13 190.25 833.76 190.25 833.76 200.02 832.76 202.01 835.58 202.18 836.74 195.88 881.48 200.19 877.67 262.16 831.77 258.84 835.58 205.66"/><path class="cls-5" d="M515.55,75.12V72.54s-4.13-2.06-1.55-6c0,0,1.89-2.06,3.61-1.2V57.94"/><line class="cls-5" x1="513.15" y1="102.6" x2="522.07" y2="102.6"/><polyline class="cls-5" points="462.3 146.92 455.94 146.92 454.05 144.17 448.04 144.17"/><polyline class="cls-5" points="191.49 234.97 195.25 234.97 195.25 254.46 178.87 254.46 178.87 267.08"/><polyline class="cls-5" points="205.44 285.46 205.44 222.53 205.44 219.47"/><line class="cls-5" x1="238.33" y1="222.53" x2="205.44" y2="222.53"/><polyline class="cls-5" points="233.61 229.6 216 229.6 216 222.53 216 233.54 208.76 233.54 208.76 245.81 215.53 245.81"/><rect class="cls-5" x="275.3" y="246.59" width="8.81" height="6.68"/><rect class="cls-5" x="267.12" y="273.49" width="8.18" height="7.71"/><polyline class="cls-5" points="291.66 271.45 291.66 240.62 295.27 240.62"/><polyline class="cls-5" points="285.05 284.66 269.79 284.66 269.79 306.37 267.12 306.37 267.12 308.88 284.11 308.88 284.11 306.84 286.31 306.84 286.31 300.86"/><polyline class="cls-5" points="257.05 301.02 257.05 285.44 252.02 285.44"/><line class="cls-5" x1="284.11" y1="337.04" x2="284.11" y2="333.58"/><rect class="cls-5" x="254.53" y="336.41" width="5.98" height="8.18"/><line class="cls-5" x1="271.21" y1="342.07" x2="261.14" y2="342.07"/><polyline class="cls-5" points="251.07 356.23 251.07 342.07 254.53 342.07"/><rect class="cls-5" x="202.63" y="348.36" width="4.25" height="1.89"/><polyline class="cls-5" points="197.91 359.53 197.91 347.1 196.34 347.1 196.34 343.49 204.75 343.49 204.75 331.37"/><polygon class="cls-5" points="194.61 317.06 201.53 317.06 201.53 305.11 189.73 305.11 189.73 306.68 185.48 306.68 185.48 312.81 190.04 312.81 194.61 317.06"/><polygon class="cls-5" points="194.29 320.36 194.61 317.06 190.04 312.81 185.48 312.81 169.75 312.81 169.75 317.85 188.94 336.41 192.72 336.41 192.72 319.89 194.29 320.36"/><polyline class="cls-5" points="176.67 302.27 176.67 305.74 160.79 305.74 159.21 307.31 159.21 314.39 162.99 318.95 169.75 317.85 174.71 322.64 173.84 326.18 180.45 332.79 185.2 332.79 188.94 336.41 188.94 344.59 192.88 348.36 196.34 347.1 197.44 350.25 192.56 350.25 192.43 348.36"/><polyline class="cls-5" points="197.01 356.23 194.61 356.23 191.82 356.23 189.01 356.23"/><rect class="cls-5" x="191.82" y="356.23" width="2.79" height="7.58"/><polygon class="cls-5" points="175.11 350.25 172.58 347.52 175.11 345.45 175.11 336.41 181.29 336.41 185.48 341.21 185.48 347.52 177.89 347.04 175.11 350.25"/><polygon class="cls-5" points="160.57 335.53 158.04 332.81 160.57 330.73 160.57 321.69 166.74 321.69 170.94 326.49 170.94 332.81 163.35 332.32 160.57 335.53"/><polygon class="cls-5" points="145.46 320.94 142.93 318.21 145.46 316.14 145.46 307.1 151.64 307.1 155.83 311.9 155.83 318.21 148.24 317.73 145.46 320.94"/><polygon class="cls-5" points="170.94 301.72 170.94 292.94 176.32 292.94 176.67 305.74 170.94 305.74 170.94 304.05 168.83 303.79 168.83 301.46 170.94 301.72"/><polygon class="cls-5" points="164.49 298.49 164.49 291 156.56 291 156.56 299.34 164.49 298.49"/><polygon class="cls-5" points="142.23 295.17 142.23 287 133.84 287 133.84 295.78 142.23 295.17"/><rect class="cls-5" x="127.64" y="298.75" width="6.2" height="3.52"/><line class="cls-5" x1="176.97" y1="416.97" x2="188.9" y2="423.63"/><line class="cls-5" x1="178.34" y1="432.23" x2="167.21" y2="426.73"/><line class="cls-5" x1="176.16" y1="436.02" x2="165.49" y2="430.86"/><polygon class="cls-5" points="340.39 275.97 340.39 285.55 350.8 285.55 350.8 275.31 340.39 275.97"/><polygon class="cls-5" points="326.68 226.9 326.68 249.94 355.43 249.94 355.43 265.89 362.04 265.89 362.04 248.87 366.66 248.87 366.66 218.63 359.23 218.63 359.23 208.72 351.46 208.72 351.46 217.81 346.67 217.81 346.67 221.61 339.07 221.61 339.07 226.4 326.68 226.9"/><path class="cls-5" d="M332,340.58s-8.59-.17-5.78,14.21S332,367.68,332,367.68s7.27,1.2,7.44-13.53S332,340.58,332,340.58Z"/><polyline class="cls-5" points="383.52 326.86 383.52 337.93 404.17 337.93 404.17 331.65 405.29 332.77 405.29 326.86"/><line class="cls-5" x1="412.1" y1="334.3" x2="412.1" y2="336.45"/><line class="cls-5" x1="354.6" y1="334.3" x2="354.6" y2="336.45"/><rect class="cls-5" x="365.67" y="377.59" width="5.12" height="5.12"/><polygon class="cls-5" points="380.71 378.75 380.71 401.55 397.73 401.55 397.73 409.65 401.69 409.65 401.69 381.89 398.06 381.89 398.06 378.75 380.71 378.75"/><line class="cls-5" x1="449.45" y1="334.3" x2="449.45" y2="337.93"/><polygon class="cls-5" points="512.24 336.45 507.28 336.12 507.28 344.21 505.13 344.21 505.13 352.47 513.06 352.47 512.24 336.45"/><line class="cls-5" x1="513.06" y1="333.14" x2="513.06" y2="337.93"/><polygon class="cls-5" points="543.8 335.54 543.8 355.12 577.34 355.12 577.34 341.07 568.09 341.07 568.09 334.3 543.8 335.54"/><text class="cls-7" transform="translate(543.4 69.66)">R</text><text class="cls-7" transform="translate(465.34 72.66)">R</text><text class="cls-7" transform="translate(482.43 161.04)">R</text><text class="cls-7" transform="translate(544.63 145.77)">G</text><text class="cls-7" transform="translate(415.05 151.22)">F</text><text class="cls-7" transform="translate(395.87 256.12)">E</text><text class="cls-7" transform="translate(338.4 244.85)">H</text><text class="cls-7" transform="translate(334.04 304.5)">D</text><text class="cls-7" transform="translate(246.38 244.85)">A</text><text class="cls-7" transform="translate(260.75 364.51)">C</text><text class="cls-7" transform="translate(140.4 304.5)">B</text><text class="cls-7" transform="translate(213.96 382.88)">K</text><text class="cls-7" transform="translate(172.77 432.53)">M</text><text class="cls-7" transform="translate(329.76 359.06)">J</text><text class="cls-7" transform="translate(364.22 404.88)">T</text><text class="cls-7" transform="translate(519.89 345.23)">P</text><text class="cls-7" transform="translate(385.44 359.05)">N</text><text class="cls-7" transform="translate(611.19 340.51)">S</text><text class="cls-7" transform="translate(826.54 310.33)">V</text><text class="cls-7" transform="translate(821.81 208.59)">Z</text><polygon class="cls-5" points="43.14 205.12 32.39 341.96 46.73 343.22 46.73 339.75 55.46 341.33 55.46 344.49 66.52 344.49 69.68 316.99 72.53 317.62 76.95 297.08 131 302.14 133.84 301.82 133.84 297.4 76.64 292.12 82.22 227.91 78.01 198.4 43.14 205.12"/><line class="cls-5" x1="45.89" y1="278.1" x2="45.89" y2="204.59"/><polygon class="cls-5" points="39.86 295.99 39.09 301.97 42.32 301.97 42.32 300.44 42.32 296.75 39.86 295.99"/><polyline class="cls-5" points="36.09 294.82 49.99 295.91 49.99 298.06 42.32 297.75"/><polyline class="cls-5" points="35.45 302.97 45.89 301.75 45.89 303.89 53.22 303.89 52.3 311.26 56.59 311.26 55.52 329.22 68.09 330.89"/><text class="cls-7" transform="translate(51.77 266.05)"><tspan class="cls-8">C</tspan><tspan x="8.76" y="0">A</tspan></text><text class="cls-7" transform="translate(721.03 477.83)">1.<tspan class="cls-9" x="10.8" y="0">T</tspan><tspan x="18.15" y="0">he </tspan><tspan class="cls-10" x="37.17" y="0">F</tspan><tspan x="44.08" y="0">ix</tspan><tspan x="0" y="18">2.</tspan><tspan class="cls-11" x="10.8" y="18">T</tspan><tspan class="cls-12" x="18.07" y="18">im Ho</tspan><tspan class="cls-13" x="55.29" y="18">r</tspan><tspan class="cls-14" x="60.55" y="18">t</tspan><tspan x="65.43" y="18">ons</tspan><tspan x="0" y="36">3.</tspan><tspan x="0" y="54">4.</tspan><tspan class="cls-15" x="10.8" y="54"> </tspan><tspan class="cls-16" x="13.36" y="54">T</tspan><tspan x="20.71" y="54">he </tspan><tspan class="cls-17" x="39.73" y="54">M</tspan><tspan class="cls-12" x="51.88" y="54">a</tspan><tspan class="cls-8" x="59.11" y="54">r</tspan><tspan x="64.08" y="54">ketpla</tspan><tspan class="cls-14" x="102.9" y="54">c</tspan><tspan x="109.53" y="54">e</tspan><tspan x="0" y="72">5. </tspan><tspan class="cls-18" x="13.98" y="72">S</tspan><tspan x="21.33" y="72">ta</tspan><tspan class="cls-8" x="33.52" y="72">r</tspan><tspan x="38.49" y="72">bucks</tspan><tspan x="0" y="90">6. Bits and </tspan><tspan class="cls-8" x="66.9" y="90">B</tspan><tspan class="cls-12" x="75.09" y="90">y</tspan><tspan class="cls-14" x="82.15" y="90">t</tspan><tspan x="87.03" y="90">es</tspan><tspan x="0" y="108">7. 35th </tspan><tspan class="cls-18" x="45.84" y="108">S</tspan><tspan x="53.19" y="108">t</tspan><tspan class="cls-19" x="58.15" y="108">r</tspan><tspan class="cls-12" x="62.91" y="108">eet </tspan><tspan class="cls-17" x="86.08" y="108">M</tspan><tspan class="cls-12" x="98.23" y="108">a</tspan><tspan class="cls-8" x="105.46" y="108">r</tspan><tspan x="110.43" y="108">ket </tspan><tspan class="cls-9" x="133.12" y="108">C</tspan><tspan class="cls-12" x="141.72" y="108">a</tspan><tspan class="cls-20" x="148.95" y="108">f</tspan><tspan class="cls-12" x="153.13" y="108">e</tspan></text><text class="cls-7" transform="translate(734.23 514.41)"><tspan class="cls-21">P</tspan><tspan class="cls-22" x="7.61" y="0">o</tspan><tspan class="cls-13" x="15.84" y="0">r</tspan><tspan x="21.1" y="0">table </tspan><tspan class="cls-23" x="56.07" y="0">F</tspan><tspan x="62.91" y="0">east</tspan></text><rect x="391.49" y="229.31" width="2.24" height="1.26" rx="0.51"/><rect x="392.9" y="238.88" width="3.08" height="1.26" rx="0.51"/><path d="M416,228.33c-10.27,2.54-6.46,13.42-12.43,15.55a11.87,11.87,0,0,0,10.68-3.82C417.47,236.24,417.81,231.16,416,228.33Z"/><path d="M404.89,227.63H393.31a.45.45,0,0,0-.45.45v.35a.46.46,0,0,0,.45.46H402a1,1,0,0,1,.08.42h-6.12a.45.45,0,0,0-.45.45v.35a.46.46,0,0,0,.45.46h5.88c-.17.23-.33.48-.48.73h-3.47a.45.45,0,0,0-.45.45v.35a.46.46,0,0,0,.45.46h2.82a12.57,12.57,0,0,0-1,4.43h-3.95a.45.45,0,0,0-.45.45v.35a.46.46,0,0,0,.45.46h4c0,.21,0,.42.05.63h-1.89a.45.45,0,0,0-.45.45v.35a.46.46,0,0,0,.45.46h1.72a1.52,1.52,0,0,1-.08.9h-5.32a.45.45,0,0,0-.45.45v.35a.46.46,0,0,0,.45.46h6.66a3.08,3.08,0,0,0,.7.77,3.9,3.9,0,0,0,.73.43c6.68-1.47,3.24-13.19,12.81-16.06C412.19,225.08,408.19,225.4,404.89,227.63Z"/><text class="cls-24" transform="translate(403.98 241.13)">5</text><rect x="348.71" y="283.93" width="2.24" height="1.26" rx="0.51"/><rect x="350.12" y="293.5" width="3.08" height="1.26" rx="0.51"/><path d="M373.18,283c-10.27,2.54-6.46,13.42-12.43,15.55a11.87,11.87,0,0,0,10.68-3.82C374.69,290.86,375,285.78,373.18,283Z"/><path d="M362.11,282.25H350.53a.45.45,0,0,0-.45.45v.36a.45.45,0,0,0,.45.45h8.67a1,1,0,0,1,.08.42h-6.12a.45.45,0,0,0-.45.45v.35a.46.46,0,0,0,.45.46H359c-.17.23-.33.48-.48.73h-3.47a.45.45,0,0,0-.45.45v.36a.45.45,0,0,0,.45.45h2.82a12.57,12.57,0,0,0-1,4.43H353a.45.45,0,0,0-.45.45v.36a.45.45,0,0,0,.45.45h4c0,.21,0,.42.05.63h-1.89a.45.45,0,0,0-.45.45v.36a.45.45,0,0,0,.45.45h1.72a1.52,1.52,0,0,1-.08.9h-5.32a.45.45,0,0,0-.45.45v.35a.46.46,0,0,0,.45.46h6.66a3.08,3.08,0,0,0,.7.77,3.9,3.9,0,0,0,.73.43c6.68-1.47,3.24-13.19,12.81-16.06C369.41,279.7,365.41,280,362.11,282.25Z"/><text class="cls-24" transform="translate(361.2 295.75)">4</text><rect class="cls-25" x="198.41" y="232.95" width="2.24" height="1.26" rx="0.51"/><rect class="cls-25" x="199.81" y="242.52" width="3.08" height="1.26" rx="0.51"/><path d="M222.87,232c-10.27,2.54-6.45,13.42-12.42,15.55a11.88,11.88,0,0,0,10.68-3.82C224.38,239.88,224.72,234.8,222.87,232Z"/><path d="M211.8,231.27H200.23a.45.45,0,0,0-.45.45v.35a.46.46,0,0,0,.45.46h8.67a1.2,1.2,0,0,1,.07.42h-6.12a.45.45,0,0,0-.45.45v.35a.46.46,0,0,0,.45.46h5.88c-.17.23-.33.48-.48.73h-3.46a.46.46,0,0,0-.46.45v.35a.47.47,0,0,0,.46.46h2.82a12.58,12.58,0,0,0-1,4.43h-4a.45.45,0,0,0-.45.45v.35a.46.46,0,0,0,.45.46h4c0,.21,0,.42,0,.63h-1.88a.46.46,0,0,0-.46.45v.35a.47.47,0,0,0,.46.46h1.71a1.59,1.59,0,0,1-.07.9H201.1a.45.45,0,0,0-.45.45v.35a.46.46,0,0,0,.45.46h6.66a3.29,3.29,0,0,0,.7.77,4,4,0,0,0,.74.43c6.68-1.47,3.24-13.19,12.8-16.06C219.1,228.72,215.1,229,211.8,231.27Z"/><text class="cls-24" transform="translate(210.89 244.77)">2</text><rect x="172.82" y="320.64" width="2.24" height="1.26" rx="0.51"/><rect x="174.23" y="330.22" width="3.08" height="1.26" rx="0.51"/><path d="M197.28,319.67c-10.26,2.53-6.45,13.41-12.42,15.54a11.88,11.88,0,0,0,10.68-3.81C198.8,327.58,199.14,322.49,197.28,319.67Z"/><path d="M186.22,319H174.64a.45.45,0,0,0-.45.45v.35a.45.45,0,0,0,.45.45h8.67a1.63,1.63,0,0,1,.08.42h-6.12a.47.47,0,0,0-.46.46v.35a.46.46,0,0,0,.46.45h5.88c-.17.24-.33.49-.48.74H179.2a.45.45,0,0,0-.45.45v.35a.45.45,0,0,0,.45.45H182a12.62,12.62,0,0,0-1,4.44h-3.95a.46.46,0,0,0-.46.45v.35a.46.46,0,0,0,.46.45h4c0,.22,0,.43.05.64H179.2a.45.45,0,0,0-.45.45V331a.45.45,0,0,0,.45.45h1.72a1.51,1.51,0,0,1-.08.9h-5.32a.46.46,0,0,0-.45.46v.35a.45.45,0,0,0,.45.45h6.65a3.34,3.34,0,0,0,.7.78,3.49,3.49,0,0,0,.74.42c6.68-1.46,3.24-13.18,12.81-16.05C193.51,316.42,189.51,316.74,186.22,319Z"/><text class="cls-24" transform="translate(185.3 332.46)">3</text><rect x="32.39" y="265.83" width="2.24" height="1.26" rx="0.51"/><rect x="33.8" y="275.4" width="3.08" height="1.26" rx="0.51"/><path d="M56.85,264.85c-10.26,2.54-6.45,13.42-12.42,15.55a11.88,11.88,0,0,0,10.68-3.82C58.36,272.77,58.71,267.68,56.85,264.85Z"/><path d="M45.79,264.15H34.21a.45.45,0,0,0-.45.45V265a.45.45,0,0,0,.45.45h8.67a1.49,1.49,0,0,1,.08.42H36.84a.46.46,0,0,0-.46.45v.35a.47.47,0,0,0,.46.46h5.88c-.17.23-.33.48-.48.73H38.77a.45.45,0,0,0-.45.45v.36a.45.45,0,0,0,.45.45h2.82a12.62,12.62,0,0,0-1,4.43h-4a.46.46,0,0,0-.46.45v.36a.46.46,0,0,0,.46.45h4c0,.21,0,.42.06.63H38.77a.45.45,0,0,0-.45.45v.36a.45.45,0,0,0,.45.45h1.72a1.52,1.52,0,0,1-.08.9H35.09a.46.46,0,0,0-.46.45v.35a.47.47,0,0,0,.46.46h6.65a3.1,3.1,0,0,0,.7.77,4,4,0,0,0,.74.43C49.86,278.55,46.42,266.83,56,264,53.08,261.6,49.08,261.92,45.79,264.15Z"/><text class="cls-24" transform="translate(44.87 277.65)">1</text><ellipse class="cls-1" cx="398.93" cy="416.99" rx="5.14" ry="4.8"/><polyline class="cls-26" points="398.01 414.58 398.01 416.98 401.07 416.98 402.11 418.93 402.92 418.55"/><path class="cls-26" d="M397.23,416.52s-2,1.71-.18,3.08c2.19,1.71,3.48-1.44,3.48-1.44"/><line class="cls-26" x1="398.01" y1="416.23" x2="399.86" y2="416.23"/><ellipse class="cls-26" cx="398.15" cy="413.83" rx="0.78" ry="0.73"/><ellipse class="cls-1" cx="410.72" cy="394.04" rx="5.14" ry="4.8"/><polyline class="cls-26" points="409.8 391.63 409.8 394.03 412.86 394.03 413.9 395.98 414.7 395.61"/><path class="cls-26" d="M409,393.57s-1.94,1.71-.18,3.08c2.2,1.71,3.48-1.43,3.48-1.43"/><line class="cls-26" x1="409.8" y1="393.28" x2="411.65" y2="393.28"/><ellipse class="cls-26" cx="409.94" cy="390.88" rx="0.78" ry="0.73"/><ellipse class="cls-1" cx="402.92" cy="367.72" rx="5.14" ry="4.8"/><polyline class="cls-26" points="402 365.31 402 367.71 405.05 367.71 406.1 369.66 406.9 369.29"/><path class="cls-26" d="M401.21,367.25s-1.95,1.71-.18,3.09c2.19,1.7,3.48-1.44,3.48-1.44"/><line class="cls-26" x1="402" y1="366.96" x2="403.85" y2="366.96"/><ellipse class="cls-26" cx="402.14" cy="364.57" rx="0.78" ry="0.73"/><ellipse class="cls-1" cx="445.1" cy="350.03" rx="5.14" ry="4.8"/><polyline class="cls-26" points="444.18 347.62 444.18 350.02 447.23 350.02 448.28 351.97 449.08 351.6"/><path class="cls-26" d="M443.39,349.56s-1.95,1.71-.18,3.09c2.19,1.7,3.48-1.44,3.48-1.44"/><line class="cls-26" x1="444.18" y1="349.27" x2="446.03" y2="349.27"/><ellipse class="cls-26" cx="444.32" cy="346.88" rx="0.78" ry="0.73"/><ellipse class="cls-1" cx="468.75" cy="357.95" rx="5.14" ry="4.8"/><polyline class="cls-26" points="467.83 355.54 467.83 357.94 470.89 357.94 471.93 359.89 472.74 359.51"/><path class="cls-26" d="M467.05,357.48s-1.95,1.71-.18,3.08c2.19,1.71,3.47-1.43,3.47-1.43"/><line class="cls-26" x1="467.83" y1="357.19" x2="469.68" y2="357.19"/><ellipse class="cls-26" cx="467.97" cy="354.79" rx="0.78" ry="0.73"/><ellipse class="cls-1" cx="445.1" cy="328.61" rx="5.14" ry="4.8"/><polyline class="cls-26" points="444.18 326.2 444.18 328.6 447.23 328.6 448.28 330.55 449.08 330.18"/><path class="cls-26" d="M443.39,328.14s-1.95,1.71-.18,3.09c2.19,1.7,3.48-1.44,3.48-1.44"/><line class="cls-26" x1="444.18" y1="327.85" x2="446.03" y2="327.85"/><ellipse class="cls-26" cx="444.32" cy="325.46" rx="0.78" ry="0.73"/><ellipse class="cls-1" cx="391.2" cy="331.69" rx="5.14" ry="4.8"/><polyline class="cls-26" points="390.28 329.28 390.28 331.68 393.34 331.68 394.38 333.63 395.19 333.25"/><path class="cls-26" d="M389.5,331.22s-1.95,1.71-.18,3.08c2.19,1.71,3.47-1.44,3.47-1.44"/><line class="cls-26" x1="390.28" y1="330.93" x2="392.13" y2="330.93"/><ellipse class="cls-26" cx="390.42" cy="328.53" rx="0.78" ry="0.73"/><ellipse class="cls-1" cx="555.71" cy="321.9" rx="5.14" ry="4.8"/><polyline class="cls-26" points="554.79 319.5 554.79 321.9 557.85 321.9 558.89 323.85 559.7 323.47"/><path class="cls-26" d="M554,321.44s-2,1.7-.18,3.08c2.19,1.7,3.48-1.44,3.48-1.44"/><line class="cls-26" x1="554.79" y1="321.15" x2="556.64" y2="321.15"/><ellipse class="cls-26" cx="554.93" cy="318.75" rx="0.78" ry="0.73"/><ellipse class="cls-1" cx="626.19" cy="317.5" rx="5.14" ry="4.8"/><polyline class="cls-26" points="625.27 315.09 625.27 317.49 628.33 317.49 629.37 319.44 630.17 319.06"/><path class="cls-26" d="M624.48,317s-1.94,1.71-.18,3.08c2.2,1.71,3.48-1.44,3.48-1.44"/><line class="cls-26" x1="625.27" y1="316.74" x2="627.12" y2="316.74"/><ellipse class="cls-26" cx="625.41" cy="314.34" rx="0.78" ry="0.73"/><ellipse class="cls-1" cx="813.37" cy="303.41" rx="5.14" ry="4.8"/><polyline class="cls-26" points="812.45 301.01 812.45 303.4 815.51 303.4 816.55 305.36 817.36 304.98"/><path class="cls-26" d="M811.67,303s-1.95,1.7-.18,3.08c2.19,1.7,3.48-1.44,3.48-1.44"/><line class="cls-26" x1="812.45" y1="302.66" x2="814.3" y2="302.66"/><ellipse class="cls-26" cx="812.59" cy="300.26" rx="0.78" ry="0.73"/><ellipse class="cls-1" cx="578.12" cy="343.5" rx="5.14" ry="4.8"/><polyline class="cls-26" points="577.2 341.09 577.2 343.49 580.25 343.49 581.3 345.44 582.1 345.06"/><path class="cls-26" d="M576.41,343s-1.95,1.71-.18,3.08c2.19,1.71,3.48-1.44,3.48-1.44"/><line class="cls-26" x1="577.2" y1="342.74" x2="579.05" y2="342.74"/><ellipse class="cls-26" cx="577.34" cy="340.34" rx="0.78" ry="0.73"/><ellipse class="cls-1" cx="350.96" cy="409.65" rx="5.14" ry="4.8"/><polyline class="cls-26" points="350.04 407.24 350.04 409.64 353.09 409.64 354.14 411.59 354.94 411.21"/><path class="cls-26" d="M349.25,409.18s-1.95,1.71-.18,3.08c2.19,1.71,3.48-1.44,3.48-1.44"/><line class="cls-26" x1="350.04" y1="408.89" x2="351.88" y2="408.89"/><ellipse class="cls-26" cx="350.18" cy="406.49" rx="0.78" ry="0.73"/><ellipse class="cls-1" cx="322.05" cy="401.95" rx="5.14" ry="4.8"/><polyline class="cls-26" points="321.13 399.54 321.13 401.94 324.19 401.94 325.23 403.89 326.04 403.51"/><path class="cls-26" d="M320.35,401.48s-2,1.71-.18,3.08c2.19,1.71,3.47-1.43,3.47-1.43"/><line class="cls-26" x1="321.13" y1="401.19" x2="322.98" y2="401.19"/><ellipse class="cls-26" cx="321.27" cy="398.79" rx="0.78" ry="0.73"/><ellipse class="cls-1" cx="239.7" cy="374.46" rx="5.14" ry="4.8"/><polyline class="cls-26" points="238.78 372.05 238.78 374.45 241.84 374.45 242.88 376.4 243.69 376.02"/><path class="cls-26" d="M238,374s-1.94,1.71-.17,3.08c2.19,1.71,3.47-1.44,3.47-1.44"/><line class="cls-26" x1="238.78" y1="373.7" x2="240.63" y2="373.7"/><ellipse class="cls-26" cx="238.92" cy="371.3" rx="0.78" ry="0.73"/><ellipse class="cls-1" cx="210.45" cy="391.76" rx="5.14" ry="4.8"/><polyline class="cls-26" points="209.53 389.36 209.53 391.76 212.58 391.76 213.63 393.71 214.43 393.33"/><path class="cls-26" d="M208.74,391.3s-2,1.71-.18,3.08c2.19,1.7,3.48-1.44,3.48-1.44"/><line class="cls-26" x1="209.53" y1="391.01" x2="211.38" y2="391.01"/><ellipse class="cls-26" cx="209.67" cy="388.61" rx="0.78" ry="0.73"/><ellipse class="cls-1" cx="184.86" cy="365.3" rx="5.14" ry="4.8"/><polyline class="cls-26" points="183.94 362.89 183.94 365.29 186.99 365.29 188.04 367.24 188.84 366.86"/><path class="cls-26" d="M183.15,364.83s-2,1.71-.18,3.08c2.19,1.71,3.48-1.44,3.48-1.44"/><line class="cls-26" x1="183.94" y1="364.54" x2="185.79" y2="364.54"/><ellipse class="cls-26" cx="184.08" cy="362.14" rx="0.78" ry="0.73"/><ellipse class="cls-1" cx="47.5" cy="345.65" rx="5.14" ry="4.8"/><polyline class="cls-26" points="46.58 343.24 46.58 345.64 49.64 345.64 50.69 347.59 51.49 347.21"/><path class="cls-26" d="M45.8,345.18s-1.95,1.71-.18,3.08c2.19,1.71,3.48-1.44,3.48-1.44"/><line class="cls-26" x1="46.58" y1="344.89" x2="48.43" y2="344.89"/><ellipse class="cls-26" cx="46.73" cy="342.49" rx="0.78" ry="0.73"/><ellipse class="cls-1" cx="51.77" cy="222.53" rx="5.14" ry="4.8"/><polyline class="cls-26" points="50.85 220.12 50.85 222.52 53.91 222.52 54.95 224.47 55.76 224.09"/><path class="cls-26" d="M50.06,222.06s-1.94,1.71-.18,3.08c2.2,1.71,3.48-1.43,3.48-1.43"/><line class="cls-26" x1="50.85" y1="221.77" x2="52.7" y2="221.77"/><ellipse class="cls-26" cx="50.99" cy="219.37" rx="0.78" ry="0.73"/><ellipse class="cls-1" cx="191.82" cy="236.18" rx="5.14" ry="4.8"/><polyline class="cls-26" points="190.9 233.78 190.9 236.18 193.95 236.18 195 238.13 195.8 237.75"/><path class="cls-26" d="M190.11,235.72s-2,1.71-.18,3.08c2.19,1.7,3.48-1.44,3.48-1.44"/><line class="cls-26" x1="190.9" y1="235.43" x2="192.74" y2="235.43"/><ellipse class="cls-26" cx="191.04" cy="233.03" rx="0.78" ry="0.73"/><ellipse class="cls-1" cx="354.94" cy="208.59" rx="5.14" ry="4.8"/><polyline class="cls-26" points="354.02 206.18 354.02 208.58 357.07 208.58 358.12 210.53 358.93 210.15"/><path class="cls-26" d="M353.23,208.12s-1.94,1.71-.17,3.08c2.19,1.71,3.47-1.43,3.47-1.43"/><line class="cls-26" x1="354.02" y1="207.83" x2="355.87" y2="207.83"/><ellipse class="cls-26" cx="354.16" cy="205.43" rx="0.78" ry="0.73"/><ellipse class="cls-1" cx="402.92" cy="203.79" rx="5.14" ry="4.8"/><polyline class="cls-26" points="402 201.38 402 203.78 405.06 203.78 406.1 205.73 406.91 205.36"/><path class="cls-26" d="M401.22,203.32s-2,1.71-.18,3.09c2.19,1.7,3.48-1.44,3.48-1.44"/><line class="cls-26" x1="402" y1="203.03" x2="403.85" y2="203.03"/><ellipse class="cls-26" cx="402.14" cy="200.64" rx="0.78" ry="0.73"/><ellipse class="cls-1" cx="453.31" cy="168" rx="5.14" ry="4.8"/><polyline class="cls-26" points="452.39 165.6 452.39 168 455.44 168 456.49 169.95 457.29 169.57"/><path class="cls-26" d="M451.6,167.54s-2,1.71-.18,3.08c2.19,1.7,3.48-1.44,3.48-1.44"/><line class="cls-26" x1="452.39" y1="167.25" x2="454.24" y2="167.25"/><ellipse class="cls-26" cx="452.53" cy="164.85" rx="0.78" ry="0.73"/><ellipse class="cls-1" cx="501.73" cy="77.08" rx="5.14" ry="4.8"/><polyline class="cls-26" points="500.81 74.67 500.81 77.08 503.86 77.08 504.91 79.02 505.71 78.65"/><path class="cls-26" d="M500,76.61s-1.95,1.71-.18,3.09c2.19,1.7,3.48-1.44,3.48-1.44"/><line class="cls-26" x1="500.81" y1="76.32" x2="502.66" y2="76.32"/><ellipse class="cls-26" cx="500.95" cy="73.93" rx="0.78" ry="0.73"/><path d="M405.35,388.35c-8.86,2.18-5.57,11.58-10.72,13.42a10.23,10.23,0,0,0,9.21-3.3C406.66,395.18,407,390.78,405.35,388.35Z"/><path d="M395.8,387.74h-10a.39.39,0,0,0-.39.39v.31a.4.4,0,0,0,.39.39h7.49a1.09,1.09,0,0,1,.06.36h-5.28a.38.38,0,0,0-.39.39v.3a.38.38,0,0,0,.39.39h5.08c-.15.21-.29.42-.42.64h-3a.38.38,0,0,0-.39.39v.3a.38.38,0,0,0,.39.39h2.44a10.78,10.78,0,0,0-.86,3.83h-3.41a.38.38,0,0,0-.39.39v.31a.39.39,0,0,0,.39.39h3.41c0,.18,0,.36.05.54h-1.63a.39.39,0,0,0-.39.39v.31a.39.39,0,0,0,.39.39h1.48a1.31,1.31,0,0,1-.06.77h-4.6a.39.39,0,0,0-.39.39V400a.38.38,0,0,0,.39.39h5.75a2.63,2.63,0,0,0,.6.67,3.26,3.26,0,0,0,.64.37c5.76-1.27,2.8-11.38,11.05-13.86C402.1,385.54,398.64,385.82,395.8,387.74Z"/><text class="cls-27" transform="translate(393.95 399.36)">6</text><circle class="cls-28" cx="388.57" cy="340.12" r="6.4"/><line class="cls-29" x1="389.64" y1="339.08" x2="391.64" y2="339.11"/><line class="cls-30" x1="396.8" y1="339.18" x2="404.54" y2="339.29"/><polyline class="cls-29" points="407.13 339.33 409.13 339.35 409.31 337.36"/><polyline class="cls-31" points="409.71 333.21 410.86 321.13 444.63 292.67"/><polyline class="cls-29" points="446.23 291.32 447.75 290.04 446.86 288.25"/><polyline class="cls-32" points="445.13 284.76 428.67 251.69 425.25 244.68"/><polyline class="cls-29" points="424.4 242.93 423.53 241.13 424.35 239.31"/><line class="cls-33" x1="425.94" y1="235.81" x2="456.83" y2="167.69"/><polyline class="cls-29" points="457.63 165.94 458.45 164.12 460.45 164.22"/><line class="cls-34" x1="464.28" y1="164.4" x2="485.38" y2="165.41"/><polyline class="cls-29" points="487.3 165.5 489.3 165.6 489.3 163.6"/><line class="cls-35" x1="489.29" y1="161.19" x2="489.29" y2="157.57"/><polyline class="cls-29" points="489.3 156.37 489.3 154.37 491.3 154.37"/><line class="cls-36" x1="494.46" y1="154.37" x2="505.52" y2="154.37"/><line class="cls-29" x1="507.1" y1="154.37" x2="509.1" y2="154.37"/><rect x="489.69" y="149.02" width="2.24" height="1.26" rx="0.51"/><rect x="491.09" y="158.59" width="3.08" height="1.26" rx="0.51"/><path d="M514.15,148c-10.27,2.54-6.46,13.42-12.42,15.55a11.85,11.85,0,0,0,10.67-3.82C515.66,156,516,150.87,514.15,148Z"/><path d="M503.08,147.34H491.51a.45.45,0,0,0-.45.45v.36a.45.45,0,0,0,.45.45h8.67a1.23,1.23,0,0,1,.07.42h-6.12a.45.45,0,0,0-.45.45v.36a.45.45,0,0,0,.45.45H500c-.17.24-.33.48-.48.73h-3.47a.45.45,0,0,0-.45.45v.36a.45.45,0,0,0,.45.45h2.83a12.42,12.42,0,0,0-1,4.43h-3.95a.45.45,0,0,0-.45.45v.36a.45.45,0,0,0,.45.45h4c0,.21,0,.42.05.63h-1.89a.45.45,0,0,0-.45.45v.36a.45.45,0,0,0,.45.45h1.72a1.59,1.59,0,0,1-.07.9h-5.33a.45.45,0,0,0-.45.45v.36a.45.45,0,0,0,.45.45H499a2.92,2.92,0,0,0,.7.77,3.51,3.51,0,0,0,.74.43c6.68-1.47,3.24-13.19,12.8-16.05C510.38,144.79,506.38,145.12,503.08,147.34Z"/><text class="cls-24" transform="translate(502.17 160.84)">7</text></svg>