<svg id="Layer_1" data-name="Layer 1" xmlns="http://www.w3.org/2000/svg" viewBox="0 0 906.84 628.93"><defs><style>.cls-1{fill:#2668ad;}.cls-2,.cls-26,.cls-29,.cls-3,.cls-30,.cls-31,.cls-32,.cls-33,.cls-34{fill:none;}.cls-2,.cls-26{stroke:#fdfefe;}.cls-2,.cls-26,.cls-29,.cls-3,.cls-30,.cls-31,.cls-32,.cls-33,.cls-34,.cls-4,.cls-5,.cls-6{stroke-miterlimit:10;}.cls-2{stroke-width:0.26px;}.cls-3{stroke:#fff;}.cls-24,.cls-27,.cls-4,.cls-6{fill:#fff;}.cls-4,.cls-5,.cls-6{stroke:#515354;}.cls-4{stroke-width:2px;}.cls-5{fill:#d8e6ea;}.cls-5,.cls-6{stroke-width:0.75px;}.cls-7{font-size:15px;fill:#515354;}.cls-24,.cls-27,.cls-7{font-family:MyriadPro-Regular, Myriad Pro;}.cls-8{letter-spacing:0em;}.cls-9{letter-spacing:-0.01em;}.cls-10{letter-spacing:-0.03em;}.cls-11{letter-spacing:-0.01em;}.cls-12{letter-spacing:0em;}.cls-13{letter-spacing:0.02em;}.cls-14{letter-spacing:-0.01em;}.cls-15{letter-spacing:-0.04em;}.cls-16{letter-spacing:-0.01em;}.cls-17{letter-spacing:0.01em;}.cls-18{letter-spacing:0em;}.cls-19{letter-spacing:-0.01em;}.cls-20{letter-spacing:-0.01em;}.cls-21{letter-spacing:-0.02em;}.cls-22{letter-spacing:0em;}.cls-23{letter-spacing:-0.03em;}.cls-24{font-size:18.57px;}.cls-25{fill:#150c0a;}.cls-26{stroke-width:0.44px;}.cls-27{font-size:17.81px;}.cls-28{fill:#f05455;}.cls-29,.cls-30,.cls-31,.cls-32,.cls-33,.cls-34{stroke:#f05455;}.cls-30{stroke-dasharray:5.16 5.16;}.cls-31{stroke-dasharray:4.17 4.17;}.cls-32{stroke-dasharray:4.31 4.31;}.cls-33{stroke-dasharray:3.34 3.34;}.cls-34{stroke-dasharray:3.39 3.39;}</style></defs><title>The market place</title><ellipse class="cls-1" cx="568.59" cy="626.45" rx="3.01" ry="2.8"/><polyline class="cls-2" points="568.05 625.05 568.05 626.45 569.84 626.45 570.45 627.59 570.92 627.37"/><path class="cls-2" d="M567.59,626.18s-1.14,1-.1,1.8c1.28,1,2-.84,2-.84"/><line class="cls-2" x1="568.05" y1="626.01" x2="569.13" y2="626.01"/><ellipse class="cls-2" cx="568.13" cy="624.61" rx="0.46" ry="0.43"/><polygon class="cls-3" points="32.68 208.09 21.93 344.93 36.27 346.19 36.27 342.72 45 344.3 45 347.46 56.06 347.46 59.22 319.96 62.07 320.59 66.49 300.05 120.53 305.11 123.38 304.79 123.38 300.37 66.18 295.09 71.76 230.88 67.55 201.37 32.68 208.09"/><line class="cls-3" x1="35.43" y1="281.07" x2="35.43" y2="207.56"/><polygon class="cls-3" points="29.4 298.95 28.63 304.94 31.86 304.94 31.86 303.41 31.86 299.72 29.4 298.95"/><polyline class="cls-3" points="25.63 297.79 39.53 298.88 39.53 301.03 31.86 300.72"/><polyline class="cls-3" points="24.99 305.94 35.43 304.71 35.43 306.86 42.76 306.86 41.84 314.23 46.13 314.23 45.06 332.19 57.63 333.86"/><path class="cls-4" d="M95,159.54s224.81,16.23,256.4-47.32S484.81,29.74,538,43.26,610.17,0,630.45,1.35,692.65-12.17,677.78,123c0,0,0,42.91,58.14,38.35s175.76-37.56,166.3,30.32-12,113.85.54,157.12-68.14,66.25-142.51,40.56-187.93,2.71-204.16,23-60.26,46-198.46,32.45S166.17,457,166.17,457s-129.11,46-121-33.81S-91.55,197.4,95,159.54Z"/><path class="cls-5" d="M571,105.71l4.72-31.94-49.94-1.29-1.72,6,3.43.42-.64,7.51-2.79.42V101h-5.36v63.23l-74.8-2.79,1.71-64.94h2.15L448,67.77s-1.71-2.79-.64-4.72,5.57,0,5.57,0l1.5-2.57,30.44,1.72V58.77l96.45,1.93v5.14l9.64.43-6,38.58-7.07-.86-1.07,2.36Z"/><polygon class="cls-6" points="511.58 80.11 497.43 78.83 497.43 74.75 480.7 73.47 478.77 77.97 461.83 76.79 461.83 95.98 458.4 95.98 458.4 150.02 503.64 151.52 505.79 112.49 510.29 111.42 511.58 80.11"/><polygon class="cls-5" points="530.95 130.55 530.95 150.63 561.58 151.52 561.58 131.06 530.95 130.55"/><polygon class="cls-5" points="401.13 130.23 401.13 161.9 414.81 161.64 414.81 159.06 431.63 159.42 431.63 130.23 420.72 130.23 420.17 127.09 417.95 127.09 417.77 130.41 413.52 130.41 413.52 127.09 410.74 127.09 410.56 130.41 401.13 130.23"/><path class="cls-5" d="M384.41,188.09S404.6,205.34,426,214.94L412.24,245l16.25,38.67h-3.94l1,19.22h-34v6.4H381.2V290.56l3.7.89-.49-23.8-7.89,3.45v2.71l-6.4-.25v45H322.61l-.4,15h-2.58V315.4h-4.5v-9.92h4.23V285h-4.23v-9.74h4v-2.76H300.61v-2.21h15.81V266h3.3V230.29l3.22-2.3-.18-7.17h3.77s11-13,26.19-13.32l13,7.26v6.06h3.59v10h2.29v23.53h2.49v5.24l7.53-3.68v-2.38h3.22Z"/><polygon class="cls-5" points="291.65 241.34 291.65 215.4 275.31 215.4 275.31 238.81 281.54 238.81 281.54 241.85 270.67 241.85 270.67 269.64 265.45 269.64 265.45 253.3 266.55 253.3 266.55 251.79 265.45 251.79 265.45 249.01 266.97 249.01 266.97 246.4 264.94 246.4 264.94 239.07 266.88 239.07 266.88 231.4 264.94 231.4 264.94 226.09 267.3 226.09 267.3 218.43 265.37 218.43 265.37 205.71 293.42 205.71 293.42 180.44 235.38 180.44 235.38 221.04 230.58 221.04 230.58 215.4 220.47 215.4 220.47 210.76 230.16 210.76 230.16 179.51 207.41 179.51 207.41 210.6 217.52 210.6 217.52 215.23 207.41 215.23 207.41 220.96 202.61 220.96 202.61 182.63 185.43 182.63 185.43 213.63 164.28 213.63 164.28 230.56 164.28 267.06 175.32 267.06 175.32 300.5 201.15 300.5 201.15 302.79 205.02 302.79 205.02 303.93 206.2 303.93 206.2 299.33 204.46 299.33 204.46 292.81 202.16 292.81 202.16 286.95 247.96 286.95 247.96 294.97 246.13 294.97 246.13 299.03 247.28 299.03 247.28 302.41 245.06 302.41 245.06 333.53 247.77 333.53 247.77 344.16 217.52 344.16 217.52 332.84 201.9 332.84 201.68 307.26 211.52 307.26 211.52 304.32 172.93 304.32 172.93 294.36 168.97 294.36 168.97 290.84 145.99 290.84 145.99 286.55 123.81 286.55 123.81 302.96 129.58 302.96 129.58 315.53 141.47 315.53 139.09 318.81 141.69 321.98 144.07 318.81 144.07 331.26 156.29 331.26 153.69 334.2 156.29 336.12 159.12 333.75 159.12 346.08 171.57 346.08 169.42 348.91 171.46 351.18 174.74 349.14 174.74 361.25 186.51 361.25 186.51 364.87 191.15 364.87 191.15 361.48 194.43 361.48 194.43 364.87 210.96 364.87 210.96 358.65 247.85 358.65 247.85 372.45 277.62 372.45 277.62 343.59 267.89 343.59 267.89 338.95 319.5 338.95 351.24 338.95 353.04 345.88 356.35 345.73 379.8 345.73 379.8 367.68 397.69 367.68 397.69 377.9 401.6 377.9 401.6 367.98 409.57 364.52 409.57 333.85 409.57 329.79 402.05 327.24 351.99 327.24 352.14 334.6 262.55 334.6 262.55 332.8 294.42 332.8 294.42 303.19 266.69 303.19 266.69 299.58 281.34 299.58 281.34 285.9 287.5 285.9 287.5 272.97 300.28 272.97 300.28 241.55 291.65 241.34"/><polygon class="cls-5" points="168.65 406.7 164.96 413.71 173.94 418.63 171.97 422.2 156.72 414.45 153.03 422.2 164.96 428.6 163.48 432.16 161.27 432.16 156.72 441.26 177.75 452.46 183.04 442.99 173.32 437.7 175.17 434.13 190.05 441.14 194.11 434.01 184.27 428.72 186.24 424.78 187.84 425.52 191.65 418.75 168.65 406.7"/><path class="cls-5" d="M223.93,398.43l-17.6-10.34s-8.59-6.18-3.76-14.9,40.43-4.3,40.43-4.3v15.58l-3.77-.14L239,383.1H223.39l-.4,10.1h1.34Z"/><polygon class="cls-5" points="320.26 334.22 320.26 338.96 318.94 338.96 318.94 345.16 320.26 345.16 320.26 400.93 326.59 400.93 326.59 402.77 331.34 402.77 331.34 401.59 340.17 401.59 340.17 339.75 332 334.22 320.26 334.22"/><polygon class="cls-5" points="347.95 378.65 347.95 416.09 412.55 416.09 412.55 378.12 367.33 378.12 367.33 376.27 359.81 376.27 359.81 373.64 347.95 375.22 340.17 375.09 340.17 378.51 347.95 378.65"/><polygon class="cls-5" points="409.38 335.27 409.38 339.15 446.69 339.15 446.69 352.88 497.52 352.88 499.52 356.03 504.76 356.03 504.76 353.09 509.58 353.09 509.58 354.45 540.5 354.45 540.5 357.28 573.83 357.28 573.83 344.5 592.59 344.5 592.59 349.32 599.19 349.32 599.19 352.04 613.45 352.04 613.45 354.35 658.62 354.35 658.62 341.77 638.5 341.77 638.5 315.67 599.93 315.67 599.93 318.4 592.8 318.4 592.8 341.88 576.03 341.88 576.03 322.07 536.51 322.07 536.51 324.37 511.68 324.37 511.68 330.87 509.89 330.87 509.89 333.7 504.86 333.7 504.86 331.29 498.47 331.29 498.47 334.54 454.45 334.54 454.45 332.34 447 332.34 447 335.59 409.38 335.27"/><polygon class="cls-5" points="814.21 290.15 814.21 318.32 831.94 317.16 839.73 317.66 840.72 303.08 837.41 302.42 837.74 294.79 823.99 293.47 823.65 290.88 814.21 290.15"/><polygon class="cls-5" points="831.28 206.48 827.47 205.49 827.47 217.58 819.68 221.39 816.53 221.39 814.21 218.58 814.21 208.97 816.7 205.49 818.52 187.09 823.65 187.09 823.82 191.07 829.45 191.07 829.45 200.85 828.46 202.84 831.28 203 832.44 196.71 877.17 201.01 873.36 262.98 827.47 259.67 831.28 206.48"/><path class="cls-5" d="M511.24,75.94V73.37s-4.12-2.06-1.55-6c0,0,1.89-2.07,3.61-1.21V58.77"/><line class="cls-5" x1="508.85" y1="103.43" x2="517.77" y2="103.43"/><polyline class="cls-5" points="457.99 147.74 451.64 147.74 449.75 145 443.74 145"/><polyline class="cls-5" points="187.18 235.8 190.95 235.8 190.95 255.28 174.56 255.28 174.56 267.91"/><polyline class="cls-5" points="201.13 286.29 201.13 223.35 201.13 220.3"/><line class="cls-5" x1="234.03" y1="223.35" x2="201.13" y2="223.35"/><polyline class="cls-5" points="229.31 230.43 211.69 230.43 211.69 223.35 211.69 234.36 204.46 234.36 204.46 246.63 211.22 246.63"/><rect class="cls-5" x="270.99" y="247.42" width="8.81" height="6.68"/><rect class="cls-5" x="262.81" y="274.32" width="8.18" height="7.71"/><polyline class="cls-5" points="287.35 272.27 287.35 241.44 290.97 241.44"/><polyline class="cls-5" points="280.74 285.48 265.49 285.48 265.49 307.19 262.81 307.19 262.81 309.71 279.8 309.71 279.8 307.66 282 307.66 282 301.69"/><polyline class="cls-5" points="252.75 301.84 252.75 286.27 247.71 286.27"/><line class="cls-5" x1="279.8" y1="337.86" x2="279.8" y2="334.4"/><rect class="cls-5" x="250.23" y="337.23" width="5.98" height="8.18"/><line class="cls-5" x1="266.9" y1="342.9" x2="256.84" y2="342.9"/><polyline class="cls-5" points="246.77 357.05 246.77 342.9 250.23 342.9"/><rect class="cls-5" x="198.32" y="349.19" width="4.25" height="1.89"/><polyline class="cls-5" points="193.6 360.36 193.6 347.93 192.03 347.93 192.03 344.31 200.45 344.31 200.45 332.2"/><polygon class="cls-5" points="190.3 317.89 197.22 317.89 197.22 305.93 185.42 305.93 185.42 307.5 181.18 307.5 181.18 313.64 185.74 313.64 190.3 317.89"/><polygon class="cls-5" points="189.99 321.19 190.3 317.89 185.74 313.64 181.18 313.64 165.45 313.64 165.45 318.67 184.64 337.23 188.41 337.23 188.41 320.72 189.99 321.19"/><polyline class="cls-5" points="172.37 303.1 172.37 306.56 156.48 306.56 154.91 308.13 154.91 315.21 158.68 319.77 165.45 318.67 170.4 323.47 169.54 327.01 176.14 333.62 180.9 333.62 184.64 337.23 184.64 345.41 188.57 349.19 192.03 347.93 193.13 351.07 188.26 351.07 188.13 349.19"/><polyline class="cls-5" points="192.71 357.05 190.3 357.05 187.51 357.05 184.7 357.05"/><rect class="cls-5" x="187.51" y="357.05" width="2.79" height="7.58"/><polygon class="cls-5" points="170.81 351.07 168.28 348.35 170.81 346.28 170.81 337.23 176.98 337.23 181.18 342.03 181.18 348.35 173.59 347.87 170.81 351.07"/><polygon class="cls-5" points="156.26 336.36 153.74 333.63 156.26 331.56 156.26 322.51 162.44 322.51 166.63 327.31 166.63 333.63 159.04 333.15 156.26 336.36"/><polygon class="cls-5" points="141.16 321.76 138.63 319.04 141.16 316.97 141.16 307.92 147.33 307.92 151.53 312.72 151.53 319.04 143.94 318.56 141.16 321.76"/><polygon class="cls-5" points="166.63 302.55 166.63 293.77 172.01 293.77 172.37 306.56 166.63 306.56 166.63 304.87 164.53 304.61 164.53 302.29 166.63 302.55"/><polygon class="cls-5" points="160.18 299.32 160.18 291.83 152.26 291.83 152.26 300.16 160.18 299.32"/><polygon class="cls-5" points="137.93 296 137.93 287.83 129.53 287.83 129.53 296.61 137.93 296"/><rect class="cls-5" x="123.34" y="299.58" width="6.2" height="3.52"/><line class="cls-5" x1="172.66" y1="417.8" x2="184.6" y2="424.45"/><line class="cls-5" x1="174.04" y1="433.06" x2="162.91" y2="427.55"/><line class="cls-5" x1="171.86" y1="436.85" x2="161.19" y2="431.68"/><polygon class="cls-5" points="336.09 276.8 336.09 286.38 346.5 286.38 346.5 276.13 336.09 276.8"/><polygon class="cls-5" points="322.37 227.72 322.37 250.76 351.12 250.76 351.12 266.72 357.73 266.72 357.73 249.7 362.36 249.7 362.36 219.46 354.92 219.46 354.92 209.54 347.16 209.54 347.16 218.63 342.37 218.63 342.37 222.43 334.76 222.43 334.76 227.22 322.37 227.72"/><path class="cls-5" d="M327.66,341.4s-8.59-.16-5.78,14.21,5.78,12.89,5.78,12.89,7.27,1.2,7.43-13.53S327.66,341.4,327.66,341.4Z"/><polyline class="cls-5" points="379.21 327.69 379.21 338.76 399.87 338.76 399.87 332.48 400.98 333.6 400.98 327.69"/><line class="cls-5" x1="407.8" y1="335.12" x2="407.8" y2="337.27"/><line class="cls-5" x1="350.3" y1="335.12" x2="350.3" y2="337.27"/><rect class="cls-5" x="361.37" y="378.42" width="5.12" height="5.12"/><polygon class="cls-5" points="376.4 379.57 376.4 402.38 393.42 402.38 393.42 410.47 397.39 410.47 397.39 382.71 393.75 382.71 393.75 379.57 376.4 379.57"/><line class="cls-5" x1="445.14" y1="335.12" x2="445.14" y2="338.76"/><polygon class="cls-5" points="507.93 337.27 502.97 336.94 502.97 345.04 500.83 345.04 500.83 353.3 508.76 353.3 507.93 337.27"/><line class="cls-5" x1="508.76" y1="333.97" x2="508.76" y2="338.76"/><polygon class="cls-5" points="539.49 336.36 539.49 355.94 573.03 355.94 573.03 341.9 563.78 341.9 563.78 335.12 539.49 336.36"/><text class="cls-7" transform="translate(539.09 70.49)">R</text><text class="cls-7" transform="translate(461.03 73.49)">R</text><text class="cls-7" transform="translate(478.13 161.87)">R</text><text class="cls-7" transform="translate(540.32 146.59)">G</text><text class="cls-7" transform="translate(410.75 152.05)">F</text><text class="cls-7" transform="translate(391.56 256.95)">E</text><text class="cls-7" transform="translate(334.1 245.67)">H</text><text class="cls-7" transform="translate(329.73 305.32)">D</text><text class="cls-7" transform="translate(242.08 245.67)">A</text><text class="cls-7" transform="translate(256.44 365.34)">C</text><text class="cls-7" transform="translate(136.1 305.32)">B</text><text class="cls-7" transform="translate(209.66 383.7)">K</text><text class="cls-7" transform="translate(168.47 433.35)">M</text><text class="cls-7" transform="translate(325.46 359.88)">J</text><text class="cls-7" transform="translate(359.92 405.71)">T</text><text class="cls-7" transform="translate(515.59 346.06)">P</text><text class="cls-7" transform="translate(381.13 359.88)">N</text><text class="cls-7" transform="translate(606.88 341.33)">S</text><text class="cls-7" transform="translate(822.23 311.15)">V</text><text class="cls-7" transform="translate(817.5 209.41)">Z</text><polygon class="cls-5" points="38.83 205.94 28.09 342.78 42.42 344.05 42.42 340.57 51.16 342.15 51.16 345.31 62.22 345.31 65.38 317.82 68.22 318.45 72.65 297.91 126.69 302.96 129.53 302.65 129.53 298.22 72.33 292.94 77.92 228.74 73.7 199.23 38.83 205.94"/><line class="cls-5" x1="41.58" y1="278.92" x2="41.58" y2="205.41"/><polygon class="cls-5" points="35.56 296.81 34.79 302.8 38.01 302.8 38.01 301.26 38.01 297.58 35.56 296.81"/><polyline class="cls-5" points="31.79 295.64 45.69 296.74 45.69 298.89 38.01 298.58"/><polyline class="cls-5" points="31.15 303.8 41.58 302.57 41.58 304.72 48.91 304.72 47.99 312.09 52.29 312.09 51.22 330.05 63.78 331.72"/><text class="cls-7" transform="translate(47.47 266.87)"><tspan class="cls-8">C</tspan><tspan x="8.76" y="0">A</tspan></text><text class="cls-7" transform="translate(716.73 478.65)">1.<tspan class="cls-9" x="10.8" y="0">T</tspan><tspan x="18.15" y="0">he </tspan><tspan class="cls-10" x="37.17" y="0">F</tspan><tspan x="44.08" y="0">ix</tspan><tspan x="0" y="18">2.</tspan><tspan class="cls-11" x="10.8" y="18">T</tspan><tspan class="cls-12" x="18.07" y="18">im Ho</tspan><tspan class="cls-13" x="55.29" y="18">r</tspan><tspan class="cls-14" x="60.55" y="18">t</tspan><tspan x="65.43" y="18">ons</tspan><tspan x="0" y="36">3.</tspan><tspan x="0" y="54">4.</tspan><tspan class="cls-15" x="10.8" y="54"> </tspan><tspan class="cls-16" x="13.36" y="54">T</tspan><tspan x="20.71" y="54">he </tspan><tspan class="cls-17" x="39.73" y="54">M</tspan><tspan class="cls-12" x="51.88" y="54">a</tspan><tspan class="cls-8" x="59.11" y="54">r</tspan><tspan x="64.08" y="54">ketpla</tspan><tspan class="cls-14" x="102.9" y="54">c</tspan><tspan x="109.53" y="54">e</tspan><tspan x="0" y="72">5. </tspan><tspan class="cls-18" x="13.98" y="72">S</tspan><tspan x="21.33" y="72">ta</tspan><tspan class="cls-8" x="33.52" y="72">r</tspan><tspan x="38.49" y="72">bucks</tspan><tspan x="0" y="90">6. Bits and </tspan><tspan class="cls-8" x="66.9" y="90">B</tspan><tspan class="cls-12" x="75.09" y="90">y</tspan><tspan class="cls-14" x="82.15" y="90">t</tspan><tspan x="87.03" y="90">es</tspan><tspan x="0" y="108">7. 35th </tspan><tspan class="cls-18" x="45.84" y="108">S</tspan><tspan x="53.19" y="108">t</tspan><tspan class="cls-19" x="58.15" y="108">r</tspan><tspan class="cls-12" x="62.91" y="108">eet </tspan><tspan class="cls-17" x="86.08" y="108">M</tspan><tspan class="cls-12" x="98.23" y="108">a</tspan><tspan class="cls-8" x="105.46" y="108">r</tspan><tspan x="110.43" y="108">ket </tspan><tspan class="cls-9" x="133.12" y="108">C</tspan><tspan class="cls-12" x="141.72" y="108">a</tspan><tspan class="cls-20" x="148.95" y="108">f</tspan><tspan class="cls-12" x="153.13" y="108">e</tspan></text><text class="cls-7" transform="translate(729.92 515.24)"><tspan class="cls-21">P</tspan><tspan class="cls-22" x="7.61" y="0">o</tspan><tspan class="cls-13" x="15.84" y="0">r</tspan><tspan x="21.1" y="0">table </tspan><tspan class="cls-23" x="56.07" y="0">F</tspan><tspan x="62.91" y="0">east</tspan></text><rect x="485.38" y="149.84" width="2.24" height="1.26" rx="0.51"/><rect x="486.79" y="159.41" width="3.08" height="1.26" rx="0.51"/><path d="M509.84,148.87c-10.26,2.53-6.45,13.41-12.42,15.54a11.88,11.88,0,0,0,10.68-3.81C511.36,156.78,511.7,151.69,509.84,148.87Z"/><path d="M498.78,148.16H487.2a.46.46,0,0,0-.45.46V149a.45.45,0,0,0,.45.45h8.67a1.3,1.3,0,0,1,.08.42h-6.12a.47.47,0,0,0-.46.46v.35a.46.46,0,0,0,.46.45h5.88c-.17.24-.33.49-.48.73h-3.47a.46.46,0,0,0-.45.46v.35a.45.45,0,0,0,.45.45h2.82a12.62,12.62,0,0,0-1,4.43h-3.95a.47.47,0,0,0-.46.46v.35a.46.46,0,0,0,.46.45h4a6.19,6.19,0,0,0,0,.63h-1.89a.46.46,0,0,0-.45.46v.35a.45.45,0,0,0,.45.45h1.72a1.51,1.51,0,0,1-.08.9h-5.32a.46.46,0,0,0-.45.46v.35a.45.45,0,0,0,.45.45h6.65a3.34,3.34,0,0,0,.7.78,3.49,3.49,0,0,0,.74.42c6.68-1.46,3.24-13.18,12.81-16.05C506.07,145.62,502.07,145.94,498.78,148.16Z"/><text class="cls-24" transform="translate(497.86 161.66)">7</text><rect x="344.41" y="284.75" width="2.24" height="1.26" rx="0.51"/><rect x="345.82" y="294.32" width="3.08" height="1.26" rx="0.51"/><path d="M368.87,283.78c-10.26,2.53-6.45,13.41-12.42,15.54a11.89,11.89,0,0,0,10.68-3.81C370.38,291.69,370.72,286.6,368.87,283.78Z"/><path d="M357.8,283.07H346.23a.46.46,0,0,0-.45.46v.35a.45.45,0,0,0,.45.45h8.67a1.28,1.28,0,0,1,.07.42h-6.12a.45.45,0,0,0-.45.45v.36a.45.45,0,0,0,.45.45h5.89a8.46,8.46,0,0,0-.49.73h-3.46a.47.47,0,0,0-.46.46v.35a.46.46,0,0,0,.46.45h2.82a12.86,12.86,0,0,0-1,4.43h-3.95a.46.46,0,0,0-.45.46v.35a.45.45,0,0,0,.45.45h4c0,.22,0,.43.05.63h-1.88a.47.47,0,0,0-.46.46v.35a.46.46,0,0,0,.46.45h1.71a1.59,1.59,0,0,1-.07.9H347.1a.45.45,0,0,0-.45.45v.36a.45.45,0,0,0,.45.45h6.66a3.34,3.34,0,0,0,.7.78,3.49,3.49,0,0,0,.74.42c6.68-1.46,3.24-13.18,12.8-16.05C365.1,280.53,361.1,280.85,357.8,283.07Z"/><text class="cls-24" transform="translate(356.89 296.57)">4</text><rect class="cls-25" x="194.1" y="233.77" width="2.24" height="1.26" rx="0.51"/><rect class="cls-25" x="195.51" y="243.34" width="3.08" height="1.26" rx="0.51"/><path d="M218.57,232.8c-10.27,2.53-6.46,13.41-12.43,15.54a11.88,11.88,0,0,0,10.68-3.81C220.08,240.71,220.42,235.62,218.57,232.8Z"/><path d="M207.5,232.09H195.92a.45.45,0,0,0-.45.45v.36a.45.45,0,0,0,.45.45h8.67a1,1,0,0,1,.08.42h-6.12a.45.45,0,0,0-.45.45v.36a.45.45,0,0,0,.45.45h5.88c-.17.24-.33.48-.48.73h-3.47a.46.46,0,0,0-.45.46v.35a.45.45,0,0,0,.45.45h2.82a12.62,12.62,0,0,0-1,4.43h-3.95a.45.45,0,0,0-.45.45v.36a.45.45,0,0,0,.45.45h4c0,.22,0,.43.05.63h-1.89a.46.46,0,0,0-.45.46v.35a.45.45,0,0,0,.45.45h1.72a1.51,1.51,0,0,1-.08.9H196.8a.45.45,0,0,0-.45.45v.36a.45.45,0,0,0,.45.45h6.65a3.58,3.58,0,0,0,.7.78,3.76,3.76,0,0,0,.74.42c6.68-1.47,3.24-13.18,12.81-16.05C214.79,229.55,210.8,229.87,207.5,232.09Z"/><text class="cls-24" transform="translate(206.58 245.59)">2</text><rect x="168.52" y="321.47" width="2.24" height="1.26" rx="0.51"/><rect x="169.92" y="331.04" width="3.08" height="1.26" rx="0.51"/><path d="M193,320.49c-10.27,2.54-6.46,13.42-12.42,15.55a11.87,11.87,0,0,0,10.67-3.81C194.49,328.41,194.83,323.32,193,320.49Z"/><path d="M181.91,319.79H170.34a.46.46,0,0,0-.46.45v.36a.46.46,0,0,0,.46.45H179a1.23,1.23,0,0,1,.07.42H173a.45.45,0,0,0-.45.45v.36a.45.45,0,0,0,.45.45h5.88c-.17.24-.33.48-.48.73h-3.47a.45.45,0,0,0-.45.45v.36a.45.45,0,0,0,.45.45h2.83a12.42,12.42,0,0,0-1,4.43h-3.95a.45.45,0,0,0-.45.45V330a.45.45,0,0,0,.45.45h4c0,.21,0,.42.05.63h-1.89a.45.45,0,0,0-.45.45v.36a.45.45,0,0,0,.45.45h1.72a1.59,1.59,0,0,1-.07.9h-5.33a.45.45,0,0,0-.45.45V334a.45.45,0,0,0,.45.45h6.66a2.92,2.92,0,0,0,.7.77,3.51,3.51,0,0,0,.74.43c6.67-1.47,3.24-13.18,12.8-16.05C189.21,317.25,185.21,317.57,181.91,319.79Z"/><text class="cls-24" transform="translate(181 333.29)">3</text><rect x="28.09" y="266.65" width="2.24" height="1.26" rx="0.51"/><rect x="29.49" y="276.22" width="3.08" height="1.26" rx="0.51"/><path d="M52.55,265.68c-10.27,2.53-6.46,13.41-12.42,15.54a11.87,11.87,0,0,0,10.67-3.81C54.06,273.59,54.4,268.5,52.55,265.68Z"/><path d="M41.48,265H29.91a.47.47,0,0,0-.46.46v.35a.46.46,0,0,0,.46.45h8.67a1.28,1.28,0,0,1,.07.42H32.53a.46.46,0,0,0-.45.46v.35a.45.45,0,0,0,.45.45h5.88c-.17.24-.33.48-.48.73H34.46a.46.46,0,0,0-.45.46v.35a.45.45,0,0,0,.45.45h2.83a12.42,12.42,0,0,0-1,4.43H32.34a.46.46,0,0,0-.45.46v.35a.45.45,0,0,0,.45.45h4c0,.22,0,.43.05.63H34.46a.46.46,0,0,0-.45.46V277a.45.45,0,0,0,.45.45h1.72a1.51,1.51,0,0,1-.08.9H30.78a.46.46,0,0,0-.45.46v.35a.45.45,0,0,0,.45.45h6.66a3.14,3.14,0,0,0,.7.78,3.67,3.67,0,0,0,.73.42c6.68-1.46,3.25-13.18,12.81-16C48.78,262.43,44.78,262.75,41.48,265Z"/><text class="cls-24" transform="translate(40.57 278.47)">1</text><ellipse class="cls-1" cx="394.63" cy="417.81" rx="5.14" ry="4.8"/><polyline class="cls-26" points="393.71 415.4 393.71 417.8 396.76 417.8 397.81 419.75 398.61 419.38"/><path class="cls-26" d="M392.92,417.34s-1.95,1.71-.18,3.09c2.19,1.7,3.48-1.44,3.48-1.44"/><line class="cls-26" x1="393.71" y1="417.05" x2="395.56" y2="417.05"/><ellipse class="cls-26" cx="393.85" cy="414.66" rx="0.78" ry="0.73"/><ellipse class="cls-1" cx="406.41" cy="394.86" rx="5.14" ry="4.8"/><polyline class="cls-26" points="405.49 392.46 405.49 394.86 408.55 394.86 409.6 396.81 410.4 396.43"/><path class="cls-26" d="M404.71,394.4s-1.95,1.7-.18,3.08c2.19,1.7,3.48-1.44,3.48-1.44"/><line class="cls-26" x1="405.49" y1="394.11" x2="407.34" y2="394.11"/><ellipse class="cls-26" cx="405.64" cy="391.71" rx="0.78" ry="0.73"/><ellipse class="cls-1" cx="398.61" cy="368.55" rx="5.14" ry="4.8"/><polyline class="cls-26" points="397.69 366.14 397.69 368.54 400.75 368.54 401.79 370.49 402.6 370.11"/><path class="cls-26" d="M396.91,368.08s-2,1.71-.18,3.08c2.19,1.7,3.48-1.44,3.48-1.44"/><line class="cls-26" x1="397.69" y1="367.79" x2="399.54" y2="367.79"/><ellipse class="cls-26" cx="397.83" cy="365.39" rx="0.78" ry="0.73"/><ellipse class="cls-1" cx="440.79" cy="350.86" rx="5.14" ry="4.8"/><polyline class="cls-26" points="439.87 348.45 439.87 350.85 442.93 350.85 443.97 352.8 444.78 352.42"/><path class="cls-26" d="M439.09,350.39s-1.95,1.71-.18,3.08c2.19,1.71,3.48-1.44,3.48-1.44"/><line class="cls-26" x1="439.87" y1="350.1" x2="441.72" y2="350.1"/><ellipse class="cls-26" cx="440.01" cy="347.7" rx="0.78" ry="0.73"/><ellipse class="cls-1" cx="464.45" cy="358.77" rx="5.14" ry="4.8"/><polyline class="cls-26" points="463.53 356.37 463.53 358.77 466.58 358.77 467.63 360.72 468.43 360.34"/><path class="cls-26" d="M462.74,358.31s-1.95,1.71-.18,3.08c2.19,1.7,3.48-1.44,3.48-1.44"/><line class="cls-26" x1="463.53" y1="358.02" x2="465.38" y2="358.02"/><ellipse class="cls-26" cx="463.67" cy="355.62" rx="0.78" ry="0.73"/><ellipse class="cls-1" cx="440.79" cy="329.43" rx="5.14" ry="4.8"/><polyline class="cls-26" points="439.87 327.03 439.87 329.43 442.93 329.43 443.97 331.38 444.78 331"/><path class="cls-26" d="M439.09,329s-1.95,1.71-.18,3.08c2.19,1.7,3.48-1.44,3.48-1.44"/><line class="cls-26" x1="439.87" y1="328.68" x2="441.72" y2="328.68"/><ellipse class="cls-26" cx="440.01" cy="326.28" rx="0.78" ry="0.73"/><ellipse class="cls-1" cx="386.9" cy="332.51" rx="5.14" ry="4.8"/><polyline class="cls-26" points="385.98 330.11 385.98 332.5 389.03 332.5 390.08 334.45 390.88 334.08"/><path class="cls-26" d="M385.19,332s-1.95,1.71-.18,3.09c2.19,1.7,3.48-1.44,3.48-1.44"/><line class="cls-26" x1="385.98" y1="331.75" x2="387.83" y2="331.75"/><ellipse class="cls-26" cx="386.12" cy="329.36" rx="0.78" ry="0.73"/><ellipse class="cls-1" cx="551.41" cy="322.73" rx="5.14" ry="4.8"/><polyline class="cls-26" points="550.49 320.32 550.49 322.72 553.54 322.72 554.59 324.67 555.39 324.3"/><path class="cls-26" d="M549.7,322.26s-1.94,1.71-.18,3.09c2.19,1.7,3.48-1.44,3.48-1.44"/><line class="cls-26" x1="550.49" y1="321.97" x2="552.34" y2="321.97"/><ellipse class="cls-26" cx="550.63" cy="319.58" rx="0.78" ry="0.73"/><ellipse class="cls-1" cx="621.88" cy="318.32" rx="5.14" ry="4.8"/><polyline class="cls-26" points="620.97 315.92 620.97 318.31 624.02 318.31 625.07 320.26 625.87 319.89"/><path class="cls-26" d="M620.18,317.85s-1.95,1.71-.18,3.09c2.19,1.7,3.48-1.44,3.48-1.44"/><line class="cls-26" x1="620.96" y1="317.57" x2="622.81" y2="317.57"/><ellipse class="cls-26" cx="621.11" cy="315.17" rx="0.78" ry="0.73"/><ellipse class="cls-1" cx="809.07" cy="304.24" rx="5.14" ry="4.8"/><polyline class="cls-26" points="808.15 301.83 808.15 304.23 811.2 304.23 812.25 306.18 813.05 305.81"/><path class="cls-26" d="M807.36,303.77s-2,1.71-.18,3.09c2.19,1.7,3.48-1.44,3.48-1.44"/><line class="cls-26" x1="808.15" y1="303.48" x2="810" y2="303.48"/><ellipse class="cls-26" cx="808.29" cy="301.08" rx="0.78" ry="0.73"/><ellipse class="cls-1" cx="573.81" cy="344.32" rx="5.14" ry="4.8"/><polyline class="cls-26" points="572.89 341.91 572.89 344.31 575.95 344.31 576.99 346.26 577.8 345.89"/><path class="cls-26" d="M572.11,343.85s-2,1.71-.18,3.09c2.19,1.7,3.48-1.44,3.48-1.44"/><line class="cls-26" x1="572.89" y1="343.56" x2="574.74" y2="343.56"/><ellipse class="cls-26" cx="573.03" cy="341.17" rx="0.78" ry="0.73"/><ellipse class="cls-1" cx="346.65" cy="410.47" rx="5.14" ry="4.8"/><polyline class="cls-26" points="345.73 408.06 345.73 410.46 348.79 410.46 349.83 412.41 350.63 412.04"/><path class="cls-26" d="M345,410s-1.95,1.71-.18,3.09c2.19,1.7,3.47-1.44,3.47-1.44"/><line class="cls-26" x1="345.73" y1="409.71" x2="347.58" y2="409.71"/><ellipse class="cls-26" cx="345.87" cy="407.32" rx="0.78" ry="0.73"/><ellipse class="cls-1" cx="317.75" cy="402.77" rx="5.14" ry="4.8"/><polyline class="cls-26" points="316.83 400.37 316.83 402.77 319.88 402.77 320.93 404.72 321.73 404.34"/><path class="cls-26" d="M316,402.31s-2,1.71-.18,3.08c2.19,1.7,3.48-1.44,3.48-1.44"/><line class="cls-26" x1="316.83" y1="402.02" x2="318.68" y2="402.02"/><ellipse class="cls-26" cx="316.97" cy="399.62" rx="0.78" ry="0.73"/><ellipse class="cls-1" cx="235.4" cy="375.28" rx="5.14" ry="4.8"/><polyline class="cls-26" points="234.47 372.88 234.47 375.27 237.53 375.27 238.58 377.22 239.38 376.85"/><path class="cls-26" d="M233.69,374.81s-1.95,1.71-.18,3.09c2.19,1.7,3.48-1.44,3.48-1.44"/><line class="cls-26" x1="234.47" y1="374.53" x2="236.32" y2="374.53"/><ellipse class="cls-26" cx="234.62" cy="372.13" rx="0.78" ry="0.73"/><ellipse class="cls-1" cx="206.14" cy="392.59" rx="5.14" ry="4.8"/><polyline class="cls-26" points="205.22 390.18 205.22 392.58 208.28 392.58 209.32 394.53 210.13 394.16"/><path class="cls-26" d="M204.44,392.12s-1.95,1.71-.18,3.09c2.19,1.7,3.48-1.44,3.48-1.44"/><line class="cls-26" x1="205.22" y1="391.83" x2="207.07" y2="391.83"/><ellipse class="cls-26" cx="205.36" cy="389.44" rx="0.78" ry="0.73"/><ellipse class="cls-1" cx="180.55" cy="366.12" rx="5.14" ry="4.8"/><polyline class="cls-26" points="179.63 363.71 179.63 366.11 182.69 366.11 183.73 368.06 184.54 367.69"/><path class="cls-26" d="M178.85,365.65s-1.95,1.71-.18,3.09c2.19,1.7,3.47-1.44,3.47-1.44"/><line class="cls-26" x1="179.63" y1="365.36" x2="181.48" y2="365.36"/><ellipse class="cls-26" cx="179.77" cy="362.97" rx="0.78" ry="0.73"/><ellipse class="cls-1" cx="43.2" cy="346.47" rx="5.14" ry="4.8"/><polyline class="cls-26" points="42.28 344.06 42.28 346.46 45.34 346.46 46.38 348.41 47.18 348.04"/><path class="cls-26" d="M41.49,346s-1.94,1.71-.18,3.09c2.19,1.7,3.48-1.44,3.48-1.44"/><line class="cls-26" x1="42.28" y1="345.71" x2="44.13" y2="345.71"/><ellipse class="cls-26" cx="42.42" cy="343.32" rx="0.78" ry="0.73"/><ellipse class="cls-1" cx="47.47" cy="223.35" rx="5.14" ry="4.8"/><polyline class="cls-26" points="46.55 220.95 46.55 223.34 49.6 223.34 50.65 225.29 51.45 224.92"/><path class="cls-26" d="M45.76,222.88s-1.95,1.71-.18,3.09c2.19,1.7,3.48-1.44,3.48-1.44"/><line class="cls-26" x1="46.54" y1="222.6" x2="48.39" y2="222.6"/><ellipse class="cls-26" cx="46.69" cy="220.2" rx="0.78" ry="0.73"/><ellipse class="cls-1" cx="187.51" cy="237.01" rx="5.14" ry="4.8"/><polyline class="cls-26" points="186.59 234.6 186.59 237 189.65 237 190.69 238.95 191.5 238.58"/><path class="cls-26" d="M185.81,236.54s-1.95,1.71-.18,3.09c2.19,1.7,3.47-1.44,3.47-1.44"/><line class="cls-26" x1="186.59" y1="236.25" x2="188.44" y2="236.25"/><ellipse class="cls-26" cx="186.73" cy="233.86" rx="0.78" ry="0.73"/><ellipse class="cls-1" cx="350.64" cy="209.41" rx="5.14" ry="4.8"/><polyline class="cls-26" points="349.71 207.01 349.71 209.41 352.77 209.41 353.82 211.35 354.62 210.98"/><path class="cls-26" d="M348.93,209s-1.95,1.7-.18,3.08c2.19,1.7,3.48-1.44,3.48-1.44"/><line class="cls-26" x1="349.71" y1="208.66" x2="351.56" y2="208.66"/><ellipse class="cls-26" cx="349.86" cy="206.26" rx="0.78" ry="0.73"/><ellipse class="cls-1" cx="398.62" cy="204.62" rx="5.14" ry="4.8"/><polyline class="cls-26" points="397.7 202.21 397.7 204.61 400.75 204.61 401.8 206.56 402.6 206.18"/><path class="cls-26" d="M396.91,204.15s-2,1.71-.18,3.08c2.19,1.71,3.48-1.43,3.48-1.43"/><line class="cls-26" x1="397.7" y1="203.86" x2="399.55" y2="203.86"/><ellipse class="cls-26" cx="397.84" cy="201.46" rx="0.78" ry="0.73"/><ellipse class="cls-1" cx="449" cy="168.83" rx="5.14" ry="4.8"/><polyline class="cls-26" points="448.08 166.42 448.08 168.82 451.14 168.82 452.18 170.77 452.99 170.4"/><path class="cls-26" d="M447.3,168.36s-1.95,1.71-.18,3.09c2.19,1.7,3.48-1.44,3.48-1.44"/><line class="cls-26" x1="448.08" y1="168.07" x2="449.93" y2="168.07"/><ellipse class="cls-26" cx="448.22" cy="165.68" rx="0.78" ry="0.73"/><ellipse class="cls-1" cx="497.42" cy="77.91" rx="5.14" ry="4.8"/><polyline class="cls-26" points="496.5 75.5 496.5 77.9 499.56 77.9 500.6 79.85 501.41 79.47"/><path class="cls-26" d="M495.72,77.44s-2,1.71-.18,3.08c2.19,1.71,3.47-1.43,3.47-1.43"/><line class="cls-26" x1="496.5" y1="77.15" x2="498.35" y2="77.15"/><ellipse class="cls-26" cx="496.64" cy="74.75" rx="0.78" ry="0.73"/><path d="M401.05,389.17c-8.87,2.19-5.58,11.58-10.73,13.42a10.27,10.27,0,0,0,9.22-3.29C402.35,396,402.65,391.61,401.05,389.17Z"/><path d="M391.49,388.56h-10a.39.39,0,0,0-.39.39v.31a.38.38,0,0,0,.39.39H389a.92.92,0,0,1,.07.36h-5.29a.4.4,0,0,0-.39.39v.31a.39.39,0,0,0,.39.39h5.08c-.15.21-.28.42-.41.63h-3a.4.4,0,0,0-.39.39v.31a.4.4,0,0,0,.39.39h2.44a10.73,10.73,0,0,0-.86,3.82H383.6a.4.4,0,0,0-.39.39v.31a.39.39,0,0,0,.39.39H387c0,.19,0,.37,0,.55h-1.63a.39.39,0,0,0-.39.39v.3a.39.39,0,0,0,.39.39h1.49a1.35,1.35,0,0,1-.07.78h-4.6a.39.39,0,0,0-.39.39v.31a.4.4,0,0,0,.39.39H388a2.84,2.84,0,0,0,.61.67,3.15,3.15,0,0,0,.63.36C395,401,392,390.88,400.3,388.41,397.79,386.37,394.34,386.64,391.49,388.56Z"/><text class="cls-27" transform="translate(389.64 400.19)">6</text><circle class="cls-28" cx="384.27" cy="340.68" r="6.4"/><line class="cls-29" x1="384.27" y1="340.68" x2="386.27" y2="340.71"/><line class="cls-30" x1="391.43" y1="340.78" x2="399.17" y2="340.89"/><polyline class="cls-29" points="401.76 340.92 403.76 340.95 403.95 338.96"/><polyline class="cls-31" points="404.34 334.81 405.49 322.73 439.26 294.26"/><polyline class="cls-29" points="440.86 292.92 442.39 291.63 441.5 289.84"/><line class="cls-32" x1="439.57" y1="285.98" x2="425.15" y2="257.01"/><polyline class="cls-29" points="424.19 255.08 423.3 253.29 421.3 253.37"/><line class="cls-33" x1="417.96" y1="253.5" x2="406.27" y2="253.96"/><polyline class="cls-29" points="404.6 254.02 402.6 254.1 402.88 252.12"/><line class="cls-34" x1="403.35" y1="248.76" x2="404.98" y2="237.01"/><line class="cls-29" x1="405.22" y1="235.33" x2="405.49" y2="233.35"/><rect x="387.19" y="230.13" width="2.24" height="1.26" rx="0.51"/><rect x="388.6" y="239.7" width="3.08" height="1.26" rx="0.51"/><path d="M411.65,229.16c-10.26,2.53-6.45,13.41-12.42,15.54a11.89,11.89,0,0,0,10.68-3.81C413.16,237.07,413.5,232,411.65,229.16Z"/><path d="M400.58,228.45H389a.45.45,0,0,0-.45.45v.36a.45.45,0,0,0,.45.45h8.67a1.23,1.23,0,0,1,.07.42h-6.12a.45.45,0,0,0-.45.45v.36a.45.45,0,0,0,.45.45h5.89a8.46,8.46,0,0,0-.49.73h-3.46a.46.46,0,0,0-.46.45v.36a.46.46,0,0,0,.46.45h2.82a12.86,12.86,0,0,0-1,4.43h-3.95a.45.45,0,0,0-.45.45v.36a.45.45,0,0,0,.45.45h4c0,.22,0,.43.05.63h-1.88a.46.46,0,0,0-.46.45v.36a.46.46,0,0,0,.46.45h1.71a1.59,1.59,0,0,1-.07.9h-5.33a.45.45,0,0,0-.45.45v.36a.45.45,0,0,0,.45.45h6.66a3.34,3.34,0,0,0,.7.78,3.49,3.49,0,0,0,.74.42c6.68-1.47,3.24-13.18,12.8-16C407.88,225.91,403.88,226.23,400.58,228.45Z"/><text class="cls-24" transform="translate(399.67 241.95)">5</text></svg>