<svg id="Layer_1" data-name="Layer 1" xmlns="http://www.w3.org/2000/svg" viewBox="0 0 906.84 628.93"><defs><style>.cls-1{fill:#2668ad;}.cls-2,.cls-26,.cls-29,.cls-3,.cls-30,.cls-31,.cls-32,.cls-33{fill:none;}.cls-2,.cls-26{stroke:#fdfefe;}.cls-2,.cls-26,.cls-29,.cls-3,.cls-30,.cls-31,.cls-32,.cls-33,.cls-4,.cls-5,.cls-6{stroke-miterlimit:10;}.cls-2{stroke-width:0.26px;}.cls-3{stroke:#fff;}.cls-24,.cls-27,.cls-4,.cls-6{fill:#fff;}.cls-4,.cls-5,.cls-6{stroke:#515354;}.cls-4{stroke-width:2px;}.cls-5{fill:#d8e6ea;}.cls-5,.cls-6{stroke-width:0.75px;}.cls-7{font-size:15px;fill:#515354;}.cls-24,.cls-27,.cls-7{font-family:MyriadPro-Regular, Myriad Pro;}.cls-8{letter-spacing:0em;}.cls-9{letter-spacing:-0.01em;}.cls-10{letter-spacing:-0.03em;}.cls-11{letter-spacing:-0.01em;}.cls-12{letter-spacing:0em;}.cls-13{letter-spacing:0.02em;}.cls-14{letter-spacing:-0.01em;}.cls-15{letter-spacing:-0.04em;}.cls-16{letter-spacing:-0.01em;}.cls-17{letter-spacing:0.01em;}.cls-18{letter-spacing:0em;}.cls-19{letter-spacing:-0.01em;}.cls-20{letter-spacing:-0.01em;}.cls-21{letter-spacing:-0.02em;}.cls-22{letter-spacing:0em;}.cls-23{letter-spacing:-0.03em;}.cls-24{font-size:18.57px;}.cls-25{fill:#150c0a;}.cls-26{stroke-width:0.44px;}.cls-27{font-size:17.81px;}.cls-28{fill:#f05455;}.cls-29,.cls-30,.cls-31,.cls-32,.cls-33{stroke:#f05455;}.cls-30{stroke-dasharray:3.75 3.75;}.cls-31{stroke-dasharray:4.05 4.05;}.cls-32{stroke-dasharray:3.65 3.65;}.cls-33{stroke-dasharray:4.1 4.1;}</style></defs><title>THe Fix</title><ellipse class="cls-1" cx="571.08" cy="624.8" rx="3.01" ry="2.8"/><polyline class="cls-2" points="570.54 623.39 570.54 624.8 572.32 624.8 572.93 625.94 573.4 625.72"/><path class="cls-2" d="M570.08,624.53s-1.14,1-.11,1.8c1.28,1,2-.84,2-.84"/><line class="cls-2" x1="570.54" y1="624.36" x2="571.62" y2="624.36"/><ellipse class="cls-2" cx="570.62" cy="622.96" rx="0.46" ry="0.43"/><polygon class="cls-3" points="35.16 206.43 24.42 343.28 38.75 344.54 38.75 341.06 47.49 342.64 47.49 345.81 58.55 345.81 61.71 318.31 64.56 318.94 68.98 298.4 123.02 303.46 125.87 303.14 125.87 298.72 68.67 293.44 74.25 229.23 70.03 199.72 35.16 206.43"/><line class="cls-3" x1="37.92" y1="279.41" x2="37.92" y2="205.9"/><polygon class="cls-3" points="31.89 297.3 31.12 303.29 34.35 303.29 34.35 301.76 34.35 298.07 31.89 297.3"/><polyline class="cls-3" points="28.12 296.14 42.02 297.23 42.02 299.38 34.35 299.07"/><polyline class="cls-3" points="27.48 304.29 37.92 303.06 37.92 305.21 45.24 305.21 44.32 312.58 48.62 312.58 47.55 330.54 60.11 332.21"/><path class="cls-4" d="M97.52,157.89s224.81,16.22,256.4-47.32,133.38-82.48,186.6-69S612.66-1.65,632.94-.3s62.2-13.52,47.32,121.68c0,0,0,42.92,58.14,38.36s175.77-37.56,166.31,30.32-12,113.85.54,157.12-68.15,66.25-142.51,40.56-187.94,2.7-204.16,23-60.26,46-198.47,32.45-191.45,12.16-191.45,12.16-129.11,46-121-33.8S-89.06,195.75,97.52,157.89Z"/><path class="cls-5" d="M573.52,104.06l4.71-31.94-49.94-1.29-1.71,6,3.43.43-.64,7.5-2.79.43V99.34h-5.36v63.23l-74.8-2.79,1.71-64.94h2.15l.21-28.72s-1.72-2.79-.64-4.72,5.57,0,5.57,0l1.5-2.57,30.44,1.71V57.12L583.81,59v5.15l9.64.43-6,38.58-7.07-.86-1.07,2.36Z"/><polygon class="cls-6" points="514.07 78.46 499.91 77.18 499.91 73.1 483.19 71.82 481.26 76.32 464.32 75.14 464.32 94.33 460.89 94.33 460.89 148.37 506.13 149.87 508.28 110.84 512.78 109.77 514.07 78.46"/><polygon class="cls-5" points="533.44 128.9 533.44 148.98 564.07 149.87 564.07 129.41 533.44 128.9"/><polygon class="cls-5" points="403.62 128.58 403.62 160.25 417.3 159.99 417.3 157.4 434.11 157.77 434.11 128.58 423.21 128.58 422.66 125.44 420.44 125.44 420.25 128.76 416 128.76 416 125.44 413.23 125.44 413.05 128.76 403.62 128.58"/><path class="cls-5" d="M386.89,187.44s20.2,17.25,41.63,26.85l-13.79,30.05L431,283H427l1,19.21H394v6.41H383.69V289.91l3.7.88-.5-23.79L379,270.45v2.71l-6.4-.25v45H325.1l-.41,15h-2.57V314.75h-4.5v-9.92h4.22v-20.5h-4.22v-9.74h4v-2.76H303.09v-2.21H318.9V265.3h3.31V229.64l3.22-2.3-.18-7.17H329s11-13,26.2-13.33l13,7.27v6.06h3.58v10h2.3v23.53h2.48V259l7.54-3.68v-2.39h3.22Z"/><polygon class="cls-5" points="294.13 239.69 294.13 213.75 277.79 213.75 277.79 237.16 284.03 237.16 284.03 240.2 273.16 240.2 273.16 267.99 267.94 267.99 267.94 251.65 269.03 251.65 269.03 250.14 267.94 250.14 267.94 247.36 269.45 247.36 269.45 244.75 267.43 244.75 267.43 237.42 269.37 237.42 269.37 229.75 267.43 229.75 267.43 224.44 269.79 224.44 269.79 216.78 267.85 216.78 267.85 204.06 295.9 204.06 295.9 178.79 237.87 178.79 237.87 219.39 233.06 219.39 233.06 213.75 222.96 213.75 222.96 209.11 232.64 209.11 232.64 177.86 209.9 177.86 209.9 208.94 220.01 208.94 220.01 213.58 209.9 213.58 209.9 219.31 205.1 219.31 205.1 180.98 187.91 180.98 187.91 211.98 166.77 211.98 166.77 228.91 166.77 265.41 177.81 265.41 177.81 298.85 203.64 298.85 203.64 301.14 207.51 301.14 207.51 302.28 208.69 302.28 208.69 297.68 206.95 297.68 206.95 291.16 204.65 291.16 204.65 285.3 250.45 285.3 250.45 293.32 248.61 293.32 248.61 297.38 249.77 297.38 249.77 300.76 247.55 300.76 247.55 331.88 250.26 331.88 250.26 342.51 220.01 342.51 220.01 331.19 204.39 331.19 204.16 305.61 214.01 305.61 214.01 302.67 175.42 302.67 175.42 292.71 171.46 292.71 171.46 289.19 148.48 289.19 148.48 284.9 126.3 284.9 126.3 301.31 132.07 301.31 132.07 313.87 143.95 313.87 141.58 317.16 144.18 320.33 146.56 317.16 146.56 329.61 158.78 329.61 156.18 332.55 158.78 334.47 161.61 332.1 161.61 344.43 174.06 344.43 171.91 347.26 173.95 349.53 177.23 347.49 177.23 359.6 189 359.6 189 363.22 193.64 363.22 193.64 359.82 196.92 359.82 196.92 363.22 213.44 363.22 213.44 357 250.34 357 250.34 370.8 280.11 370.8 280.11 341.94 270.38 341.94 270.38 337.3 321.99 337.3 353.73 337.3 355.53 344.23 358.84 344.08 382.29 344.08 382.29 366.02 400.18 366.02 400.18 376.25 404.09 376.25 404.09 366.32 412.05 362.87 412.05 332.2 412.05 328.14 404.54 325.59 354.48 325.59 354.63 332.95 265.03 332.95 265.03 331.15 296.9 331.15 296.9 301.53 269.18 301.53 269.18 297.93 283.82 297.93 283.82 284.25 289.99 284.25 289.99 271.32 302.77 271.32 302.77 239.9 294.13 239.69"/><polygon class="cls-5" points="171.14 405.05 167.45 412.06 176.43 416.98 174.46 420.55 159.2 412.8 155.51 420.55 167.45 426.94 165.97 430.51 163.75 430.51 159.2 439.61 180.24 450.81 185.53 441.34 175.81 436.05 177.66 432.48 192.54 439.49 196.6 432.36 186.76 427.07 188.73 423.13 190.32 423.87 194.14 417.1 171.14 405.05"/><path class="cls-5" d="M226.41,396.78l-17.59-10.34s-8.59-6.18-3.76-14.91,40.42-4.29,40.42-4.29v15.58l-3.76-.14-.27-1.23H225.88l-.41,10.09h1.35Z"/><polygon class="cls-5" points="322.75 332.56 322.75 337.31 321.43 337.31 321.43 343.51 322.75 343.51 322.75 399.28 329.08 399.28 329.08 401.12 333.82 401.12 333.82 399.94 342.66 399.94 342.66 338.1 334.48 332.56 322.75 332.56"/><polygon class="cls-5" points="350.44 377 350.44 414.44 415.04 414.44 415.04 376.47 369.82 376.47 369.82 374.62 362.3 374.62 362.3 371.99 350.44 373.57 342.66 373.44 342.66 376.86 350.44 377"/><polygon class="cls-5" points="411.87 333.62 411.87 337.5 449.18 337.5 449.18 351.23 500.01 351.23 502 354.37 507.25 354.37 507.25 351.44 512.07 351.44 512.07 352.8 542.99 352.8 542.99 355.63 576.32 355.63 576.32 342.85 595.08 342.85 595.08 347.67 601.68 347.67 601.68 350.39 615.94 350.39 615.94 352.7 661.11 352.7 661.11 340.12 640.99 340.12 640.99 314.02 602.41 314.02 602.41 316.75 595.29 316.75 595.29 340.23 578.52 340.23 578.52 320.42 539 320.42 539 322.72 514.16 322.72 514.16 329.22 512.38 329.22 512.38 332.05 507.35 332.05 507.35 329.64 500.96 329.64 500.96 332.89 456.94 332.89 456.94 330.69 449.49 330.69 449.49 333.94 411.87 333.62"/><polygon class="cls-5" points="816.7 288.5 816.7 316.67 834.43 315.51 842.22 316.01 843.21 301.43 839.89 300.76 840.23 293.14 826.47 291.82 826.14 289.23 816.7 288.5"/><polygon class="cls-5" points="833.76 204.83 829.95 203.84 829.95 215.93 822.17 219.74 819.02 219.74 816.7 216.93 816.7 207.31 819.18 203.84 821.01 185.44 826.14 185.44 826.31 189.42 831.94 189.42 831.94 199.2 830.95 201.18 833.76 201.35 834.92 195.05 879.66 199.36 875.85 261.33 829.95 258.02 833.76 204.83"/><path class="cls-5" d="M513.73,74.29V71.72s-4.12-2.07-1.55-6c0,0,1.89-2.06,3.61-1.2V57.12"/><line class="cls-5" x1="511.34" y1="101.78" x2="520.26" y2="101.78"/><polyline class="cls-5" points="460.48 146.09 454.13 146.09 452.24 143.34 446.22 143.34"/><polyline class="cls-5" points="189.67 234.15 193.44 234.15 193.44 253.63 177.05 253.63 177.05 266.25"/><polyline class="cls-5" points="203.62 284.63 203.62 221.7 203.62 218.65"/><line class="cls-5" x1="236.52" y1="221.7" x2="203.62" y2="221.7"/><polyline class="cls-5" points="231.8 228.78 214.18 228.78 214.18 221.7 214.18 232.71 206.94 232.71 206.94 244.98 213.71 244.98"/><rect class="cls-5" x="273.48" y="245.77" width="8.81" height="6.68"/><rect class="cls-5" x="265.3" y="272.66" width="8.18" height="7.71"/><polyline class="cls-5" points="289.84 270.62 289.84 239.79 293.46 239.79"/><polyline class="cls-5" points="283.23 283.83 267.98 283.83 267.98 305.54 265.3 305.54 265.3 308.06 282.29 308.06 282.29 306.01 284.49 306.01 284.49 300.03"/><polyline class="cls-5" points="255.23 300.19 255.23 284.62 250.2 284.62"/><line class="cls-5" x1="282.29" y1="336.21" x2="282.29" y2="332.75"/><rect class="cls-5" x="252.72" y="335.58" width="5.98" height="8.18"/><line class="cls-5" x1="269.39" y1="341.24" x2="259.32" y2="341.24"/><polyline class="cls-5" points="249.26 355.4 249.26 341.25 252.72 341.25"/><rect class="cls-5" x="200.81" y="347.54" width="4.25" height="1.89"/><polyline class="cls-5" points="196.09 358.7 196.09 346.28 194.52 346.28 194.52 342.66 202.93 342.66 202.93 330.55"/><polygon class="cls-5" points="192.79 316.24 199.71 316.24 199.71 304.28 187.91 304.28 187.91 305.85 183.66 305.85 183.66 311.99 188.23 311.99 192.79 316.24"/><polygon class="cls-5" points="192.47 319.54 192.79 316.24 188.23 311.99 183.66 311.99 167.94 311.99 167.94 317.02 187.13 335.58 190.9 335.58 190.9 319.07 192.47 319.54"/><polyline class="cls-5" points="174.86 301.45 174.86 304.91 158.97 304.91 157.4 306.48 157.4 313.56 161.17 318.12 167.94 317.02 172.89 321.81 172.03 325.36 178.63 331.96 183.38 331.96 187.13 335.58 187.13 343.76 191.06 347.54 194.52 346.28 195.62 349.42 190.74 349.42 190.61 347.54"/><polyline class="cls-5" points="195.19 355.4 192.79 355.4 190 355.4 187.19 355.4"/><rect class="cls-5" x="190" y="355.4" width="2.79" height="7.58"/><polygon class="cls-5" points="173.29 349.42 170.77 346.7 173.29 344.63 173.29 335.58 179.47 335.58 183.66 340.38 183.66 346.7 176.08 346.21 173.29 349.42"/><polygon class="cls-5" points="158.75 334.7 156.22 331.98 158.75 329.91 158.75 320.86 164.93 320.86 169.12 325.66 169.12 331.98 161.53 331.49 158.75 334.7"/><polygon class="cls-5" points="143.64 320.11 141.12 317.39 143.64 315.32 143.64 306.27 149.82 306.27 154.01 311.07 154.01 317.39 146.43 316.9 143.64 320.11"/><polygon class="cls-5" points="169.12 300.89 169.12 292.12 174.5 292.12 174.86 304.91 169.12 304.91 169.12 303.22 167.01 302.96 167.01 300.64 169.12 300.89"/><polygon class="cls-5" points="162.67 297.67 162.67 290.18 154.75 290.18 154.75 298.51 162.67 297.67"/><polygon class="cls-5" points="140.41 294.35 140.41 286.18 132.02 286.18 132.02 294.96 140.41 294.35"/><rect class="cls-5" x="125.82" y="297.93" width="6.2" height="3.52"/><line class="cls-5" x1="175.15" y1="416.15" x2="187.08" y2="422.8"/><line class="cls-5" x1="176.53" y1="431.41" x2="165.4" y2="425.9"/><line class="cls-5" x1="174.35" y1="435.19" x2="163.68" y2="430.03"/><polygon class="cls-5" points="338.57 275.14 338.57 284.73 348.98 284.73 348.98 274.48 338.57 275.14"/><polygon class="cls-5" points="324.86 226.07 324.86 249.11 353.61 249.11 353.61 265.06 360.22 265.06 360.22 248.04 364.85 248.04 364.85 217.81 357.41 217.81 357.41 207.89 349.64 207.89 349.64 216.98 344.85 216.98 344.85 220.78 337.25 220.78 337.25 225.57 324.86 226.07"/><path class="cls-5" d="M330.15,339.75s-8.6-.16-5.79,14.21,5.79,12.89,5.79,12.89,7.27,1.2,7.43-13.53S330.15,339.75,330.15,339.75Z"/><polyline class="cls-5" points="381.7 326.04 381.7 337.11 402.36 337.11 402.36 330.83 403.47 331.94 403.47 326.04"/><line class="cls-5" x1="410.29" y1="333.47" x2="410.29" y2="335.62"/><line class="cls-5" x1="352.78" y1="333.47" x2="352.78" y2="335.62"/><rect class="cls-5" x="363.86" y="376.76" width="5.12" height="5.12"/><polygon class="cls-5" points="378.89 377.92 378.89 400.72 395.91 400.72 395.91 408.82 399.88 408.82 399.88 381.06 396.24 381.06 396.24 377.92 378.89 377.92"/><line class="cls-5" x1="447.63" y1="333.47" x2="447.63" y2="337.11"/><polygon class="cls-5" points="510.42 335.62 505.46 335.29 505.46 343.39 503.31 343.39 503.31 351.65 511.25 351.65 510.42 335.62"/><line class="cls-5" x1="511.25" y1="332.32" x2="511.25" y2="337.11"/><polygon class="cls-5" points="541.98 334.71 541.98 354.29 575.52 354.29 575.52 340.25 566.27 340.25 566.27 333.47 541.98 334.71"/><text class="cls-7" transform="translate(541.58 68.84)">R</text><text class="cls-7" transform="translate(463.52 71.84)">R</text><text class="cls-7" transform="translate(480.61 160.22)">R</text><text class="cls-7" transform="translate(542.81 144.94)">G</text><text class="cls-7" transform="translate(413.24 150.4)">F</text><text class="cls-7" transform="translate(394.05 255.3)">E</text><text class="cls-7" transform="translate(336.58 244.02)">H</text><text class="cls-7" transform="translate(332.22 303.67)">D</text><text class="cls-7" transform="translate(244.56 244.02)">A</text><text class="cls-7" transform="translate(258.93 363.69)">C</text><text class="cls-7" transform="translate(147.56 346.05)">B</text><text class="cls-7" transform="translate(212.14 382.05)">K</text><text class="cls-7" transform="translate(170.95 431.7)">M</text><text class="cls-7" transform="translate(327.94 358.23)">J</text><text class="cls-7" transform="translate(362.41 404.06)">T</text><text class="cls-7" transform="translate(518.08 344.41)">P</text><text class="cls-7" transform="translate(383.62 358.23)">N</text><text class="cls-7" transform="translate(609.37 339.68)">S</text><text class="cls-7" transform="translate(824.72 309.5)">V</text><text class="cls-7" transform="translate(819.99 207.76)">Z</text><polygon class="cls-5" points="41.32 204.29 30.57 341.13 44.91 342.4 44.91 338.92 53.65 340.5 53.65 343.66 64.71 343.66 67.87 316.17 70.71 316.8 75.14 296.26 129.18 301.31 132.02 301 132.02 296.57 74.82 291.29 80.41 227.09 76.19 197.58 41.32 204.29"/><line class="cls-5" x1="44.07" y1="277.27" x2="44.07" y2="203.76"/><polygon class="cls-5" points="38.04 295.16 37.28 301.15 40.5 301.15 40.5 299.61 40.5 295.93 38.04 295.16"/><polyline class="cls-5" points="34.28 293.99 48.18 295.09 48.18 297.24 40.5 296.93"/><polyline class="cls-5" points="33.64 302.15 44.07 300.92 44.07 303.07 51.4 303.07 50.48 310.44 54.78 310.44 53.7 328.4 66.27 330.07"/><text class="cls-7" transform="translate(49.95 265.22)"><tspan class="cls-8">C</tspan><tspan x="8.76" y="0">A</tspan></text><text class="cls-7" transform="translate(719.22 477)">1.<tspan class="cls-9" x="10.8" y="0">T</tspan><tspan x="18.15" y="0">he </tspan><tspan class="cls-10" x="37.17" y="0">F</tspan><tspan x="44.08" y="0">ix</tspan><tspan x="0" y="18">2.</tspan><tspan class="cls-11" x="10.8" y="18">T</tspan><tspan class="cls-12" x="18.07" y="18">im Ho</tspan><tspan class="cls-13" x="55.29" y="18">r</tspan><tspan class="cls-14" x="60.55" y="18">t</tspan><tspan x="65.43" y="18">ons</tspan><tspan x="0" y="36">3.</tspan><tspan x="0" y="54">4.</tspan><tspan class="cls-15" x="10.8" y="54"> </tspan><tspan class="cls-16" x="13.36" y="54">T</tspan><tspan x="20.71" y="54">he </tspan><tspan class="cls-17" x="39.73" y="54">M</tspan><tspan class="cls-12" x="51.88" y="54">a</tspan><tspan class="cls-8" x="59.11" y="54">r</tspan><tspan x="64.08" y="54">ketpla</tspan><tspan class="cls-14" x="102.9" y="54">c</tspan><tspan x="109.53" y="54">e</tspan><tspan x="0" y="72">5. </tspan><tspan class="cls-18" x="13.98" y="72">S</tspan><tspan x="21.33" y="72">ta</tspan><tspan class="cls-8" x="33.52" y="72">r</tspan><tspan x="38.49" y="72">bucks</tspan><tspan x="0" y="90">6. Bits and </tspan><tspan class="cls-8" x="66.9" y="90">B</tspan><tspan class="cls-12" x="75.09" y="90">y</tspan><tspan class="cls-14" x="82.15" y="90">t</tspan><tspan x="87.03" y="90">es</tspan><tspan x="0" y="108">7. 35th </tspan><tspan class="cls-18" x="45.84" y="108">S</tspan><tspan x="53.19" y="108">t</tspan><tspan class="cls-19" x="58.15" y="108">r</tspan><tspan class="cls-12" x="62.91" y="108">eet </tspan><tspan class="cls-17" x="86.08" y="108">M</tspan><tspan class="cls-12" x="98.23" y="108">a</tspan><tspan class="cls-8" x="105.46" y="108">r</tspan><tspan x="110.43" y="108">ket </tspan><tspan class="cls-9" x="133.12" y="108">C</tspan><tspan class="cls-12" x="141.72" y="108">a</tspan><tspan class="cls-20" x="148.95" y="108">f</tspan><tspan class="cls-12" x="153.13" y="108">e</tspan></text><text class="cls-7" transform="translate(732.41 513.59)"><tspan class="cls-21">P</tspan><tspan class="cls-22" x="7.61" y="0">o</tspan><tspan class="cls-13" x="15.84" y="0">r</tspan><tspan x="21.1" y="0">table </tspan><tspan class="cls-23" x="56.07" y="0">F</tspan><tspan x="62.91" y="0">east</tspan></text><rect x="487.87" y="148.19" width="2.24" height="1.26" rx="0.51"/><rect x="489.28" y="157.76" width="3.08" height="1.26" rx="0.51"/><path d="M512.33,147.22c-10.26,2.53-6.45,13.41-12.42,15.54A11.89,11.89,0,0,0,510.59,159C513.84,155.13,514.19,150,512.33,147.22Z"/><path d="M501.27,146.51H489.69a.46.46,0,0,0-.45.46v.35a.45.45,0,0,0,.45.45h8.67a1.56,1.56,0,0,1,.08.42h-6.13a.45.45,0,0,0-.45.45V149a.45.45,0,0,0,.45.45h5.89a6.54,6.54,0,0,0-.48.73h-3.47a.46.46,0,0,0-.45.46V151a.45.45,0,0,0,.45.45h2.82a12.86,12.86,0,0,0-1,4.43h-3.95a.46.46,0,0,0-.45.46v.35a.45.45,0,0,0,.45.45h4c0,.22,0,.43.06.63h-1.89a.46.46,0,0,0-.45.46v.35a.45.45,0,0,0,.45.45H496a1.5,1.5,0,0,1-.07.9h-5.32a.46.46,0,0,0-.46.45v.36a.46.46,0,0,0,.46.45h6.65a3.34,3.34,0,0,0,.7.78,3.49,3.49,0,0,0,.74.42c6.68-1.47,3.24-13.18,12.81-16C508.56,144,504.56,144.29,501.27,146.51Z"/><text class="cls-24" transform="translate(500.35 160.01)">7</text><rect x="389.68" y="228.48" width="2.24" height="1.26" rx="0.51"/><rect x="391.08" y="238.05" width="3.08" height="1.26" rx="0.51"/><path d="M414.14,227.5c-10.27,2.54-6.46,13.42-12.42,15.55a11.87,11.87,0,0,0,10.67-3.81C415.65,235.42,416,230.33,414.14,227.5Z"/><path d="M403.07,226.8H391.5a.46.46,0,0,0-.46.45v.36a.46.46,0,0,0,.46.45h8.67a1.23,1.23,0,0,1,.07.42h-6.12a.45.45,0,0,0-.45.45v.36a.45.45,0,0,0,.45.45H400c-.17.24-.33.48-.48.73h-3.47a.45.45,0,0,0-.45.45v.36a.45.45,0,0,0,.45.45h2.83a12.42,12.42,0,0,0-1,4.43h-3.95a.45.45,0,0,0-.45.45V237a.45.45,0,0,0,.45.45h4c0,.21,0,.43.05.63h-1.89a.45.45,0,0,0-.45.45v.36a.45.45,0,0,0,.45.45h1.72a1.59,1.59,0,0,1-.07.9h-5.33a.45.45,0,0,0-.45.45V241a.45.45,0,0,0,.45.45H399a3.14,3.14,0,0,0,.7.78,3.49,3.49,0,0,0,.74.42c6.67-1.47,3.24-13.18,12.8-16C410.37,224.26,406.37,224.58,403.07,226.8Z"/><text class="cls-24" transform="translate(402.16 240.3)">5</text><rect x="346.9" y="283.1" width="2.24" height="1.26" rx="0.51"/><rect x="348.3" y="292.67" width="3.08" height="1.26" rx="0.51"/><path d="M371.36,282.13c-10.27,2.53-6.46,13.41-12.42,15.54a11.87,11.87,0,0,0,10.67-3.81C372.87,290,373.21,285,371.36,282.13Z"/><path d="M360.29,281.42H348.72a.46.46,0,0,0-.46.45v.36a.46.46,0,0,0,.46.45h8.67a1.23,1.23,0,0,1,.07.42h-6.12a.45.45,0,0,0-.45.45v.36a.45.45,0,0,0,.45.45h5.88c-.17.24-.33.48-.48.73h-3.47a.45.45,0,0,0-.45.45v.36a.45.45,0,0,0,.45.45h2.83a12.42,12.42,0,0,0-1,4.43h-4a.45.45,0,0,0-.45.45v.36a.45.45,0,0,0,.45.45h4c0,.22,0,.43.05.63h-1.89a.45.45,0,0,0-.45.45v.36a.45.45,0,0,0,.45.45H355a1.59,1.59,0,0,1-.07.9h-5.33a.45.45,0,0,0-.45.45v.36a.45.45,0,0,0,.45.45h6.66a3.14,3.14,0,0,0,.7.78,3.49,3.49,0,0,0,.74.42c6.67-1.47,3.24-13.18,12.8-16.05C367.59,278.88,363.59,279.2,360.29,281.42Z"/><text class="cls-24" transform="translate(359.38 294.92)">4</text><rect class="cls-25" x="196.59" y="232.12" width="2.24" height="1.26" rx="0.51"/><rect class="cls-25" x="198" y="241.69" width="3.08" height="1.26" rx="0.51"/><path d="M221.05,231.14c-10.26,2.54-6.45,13.42-12.42,15.55a11.89,11.89,0,0,0,10.68-3.81C222.56,239.06,222.91,234,221.05,231.14Z"/><path d="M210,230.44H198.41a.45.45,0,0,0-.45.45v.36a.45.45,0,0,0,.45.45h8.67a1.56,1.56,0,0,1,.08.42H201a.46.46,0,0,0-.46.45v.36a.46.46,0,0,0,.46.45h5.88c-.17.24-.33.48-.48.73H203a.45.45,0,0,0-.45.45v.36a.45.45,0,0,0,.45.45h2.82a12.62,12.62,0,0,0-1,4.43h-4a.46.46,0,0,0-.46.45v.36a.46.46,0,0,0,.46.45h4c0,.21,0,.43.06.63H203a.45.45,0,0,0-.45.45v.36a.45.45,0,0,0,.45.45h1.71a1.43,1.43,0,0,1-.07.9h-5.32a.46.46,0,0,0-.46.45v.36a.46.46,0,0,0,.46.45h6.65a3.34,3.34,0,0,0,.7.78,3.49,3.49,0,0,0,.74.42c6.68-1.47,3.24-13.18,12.81-16.05C217.28,227.9,213.28,228.22,210,230.44Z"/><text class="cls-24" transform="translate(209.07 243.94)">2</text><rect x="171.01" y="319.82" width="2.24" height="1.26" rx="0.51"/><rect x="172.41" y="329.39" width="3.08" height="1.26" rx="0.51"/><path d="M195.47,318.84C185.2,321.38,189,332.26,183,334.39a11.87,11.87,0,0,0,10.68-3.82C197,326.76,197.32,321.67,195.47,318.84Z"/><path d="M184.4,318.14H172.82a.45.45,0,0,0-.45.45V319a.45.45,0,0,0,.45.45h8.68a1.23,1.23,0,0,1,.07.42h-6.12a.45.45,0,0,0-.45.45v.36a.45.45,0,0,0,.45.45h5.88c-.17.24-.33.48-.48.73h-3.47a.45.45,0,0,0-.45.45v.36a.45.45,0,0,0,.45.45h2.83a12.42,12.42,0,0,0-1,4.43h-4a.45.45,0,0,0-.45.45v.36a.45.45,0,0,0,.45.45h4c0,.21,0,.42.05.63h-1.89a.45.45,0,0,0-.45.45v.36a.45.45,0,0,0,.45.45h1.72a1.52,1.52,0,0,1-.08.9H173.7a.45.45,0,0,0-.45.45v.36a.45.45,0,0,0,.45.45h6.66a2.92,2.92,0,0,0,.7.77,3.43,3.43,0,0,0,.73.43c6.68-1.47,3.25-13.19,12.81-16.05C191.7,315.59,187.7,315.92,184.4,318.14Z"/><text class="cls-24" transform="translate(183.49 331.64)">3</text><rect x="30.57" y="265" width="2.24" height="1.26" rx="0.51"/><rect x="31.98" y="274.57" width="3.08" height="1.26" rx="0.51"/><path d="M55,264c-10.27,2.53-6.46,13.41-12.43,15.54a11.88,11.88,0,0,0,10.68-3.81C56.55,271.94,56.89,266.85,55,264Z"/><path d="M44,263.32H32.39a.45.45,0,0,0-.45.45v.36a.45.45,0,0,0,.45.45h8.67a1,1,0,0,1,.08.42H35a.45.45,0,0,0-.45.45v.36a.45.45,0,0,0,.45.45H40.9c-.17.24-.33.48-.48.73H37a.45.45,0,0,0-.45.45v.36a.45.45,0,0,0,.45.45h2.82a12.62,12.62,0,0,0-1,4.43h-4a.45.45,0,0,0-.45.45v.36a.45.45,0,0,0,.45.45h4c0,.22,0,.43.05.63H37a.45.45,0,0,0-.45.45v.36a.45.45,0,0,0,.45.45h1.72a1.51,1.51,0,0,1-.08.9H33.27a.45.45,0,0,0-.45.45v.36a.45.45,0,0,0,.45.45h6.66a3.14,3.14,0,0,0,.7.78,3.41,3.41,0,0,0,.73.42C48,277.72,44.6,266,54.17,263.14,51.27,260.78,47.27,261.1,44,263.32Z"/><text class="cls-24" transform="translate(43.06 276.82)">1</text><ellipse class="cls-1" cx="397.12" cy="416.16" rx="5.14" ry="4.8"/><polyline class="cls-26" points="396.2 413.75 396.2 416.15 399.25 416.15 400.3 418.1 401.1 417.73"/><path class="cls-26" d="M395.41,415.69s-2,1.71-.18,3.09c2.19,1.7,3.48-1.44,3.48-1.44"/><line class="cls-26" x1="396.2" y1="415.4" x2="398.05" y2="415.4"/><ellipse class="cls-26" cx="396.34" cy="413.01" rx="0.78" ry="0.73"/><ellipse class="cls-1" cx="408.9" cy="393.21" rx="5.14" ry="4.8"/><polyline class="cls-26" points="407.98 390.81 407.98 393.2 411.04 393.2 412.08 395.15 412.89 394.78"/><path class="cls-26" d="M407.2,392.74s-1.95,1.71-.18,3.09c2.19,1.7,3.48-1.44,3.48-1.44"/><line class="cls-26" x1="407.98" y1="392.45" x2="409.83" y2="392.45"/><ellipse class="cls-26" cx="408.12" cy="390.06" rx="0.78" ry="0.73"/><ellipse class="cls-1" cx="401.1" cy="366.89" rx="5.14" ry="4.8"/><polyline class="cls-26" points="400.18 364.49 400.18 366.89 403.24 366.89 404.28 368.83 405.09 368.46"/><path class="cls-26" d="M399.4,366.43s-1.95,1.7-.18,3.08c2.19,1.7,3.47-1.44,3.47-1.44"/><line class="cls-26" x1="400.18" y1="366.14" x2="402.03" y2="366.14"/><ellipse class="cls-26" cx="400.32" cy="363.74" rx="0.78" ry="0.73"/><ellipse class="cls-1" cx="443.28" cy="349.2" rx="5.14" ry="4.8"/><polyline class="cls-26" points="442.36 346.8 442.36 349.2 445.42 349.2 446.46 351.15 447.27 350.77"/><path class="cls-26" d="M441.58,348.74s-1.95,1.71-.18,3.08c2.19,1.7,3.47-1.44,3.47-1.44"/><line class="cls-26" x1="442.36" y1="348.45" x2="444.21" y2="348.45"/><ellipse class="cls-26" cx="442.5" cy="346.05" rx="0.78" ry="0.73"/><ellipse class="cls-1" cx="466.93" cy="357.12" rx="5.14" ry="4.8"/><polyline class="cls-26" points="466.01 354.71 466.01 357.12 469.07 357.12 470.12 359.06 470.92 358.69"/><path class="cls-26" d="M465.23,356.65s-2,1.71-.18,3.09c2.19,1.7,3.48-1.44,3.48-1.44"/><line class="cls-26" x1="466.01" y1="356.36" x2="467.86" y2="356.36"/><ellipse class="cls-26" cx="466.15" cy="353.97" rx="0.78" ry="0.73"/><ellipse class="cls-1" cx="443.28" cy="327.78" rx="5.14" ry="4.8"/><polyline class="cls-26" points="442.36 325.38 442.36 327.77 445.42 327.77 446.46 329.73 447.27 329.35"/><path class="cls-26" d="M441.58,327.32s-1.95,1.7-.18,3.08c2.19,1.7,3.47-1.44,3.47-1.44"/><line class="cls-26" x1="442.36" y1="327.03" x2="444.21" y2="327.03"/><ellipse class="cls-26" cx="442.5" cy="324.63" rx="0.78" ry="0.73"/><ellipse class="cls-1" cx="389.38" cy="330.86" rx="5.14" ry="4.8"/><polyline class="cls-26" points="388.46 328.45 388.46 330.85 391.52 330.85 392.56 332.8 393.37 332.43"/><path class="cls-26" d="M387.68,330.39s-1.95,1.71-.18,3.09c2.19,1.7,3.48-1.44,3.48-1.44"/><line class="cls-26" x1="388.46" y1="330.1" x2="390.31" y2="330.1"/><ellipse class="cls-26" cx="388.6" cy="327.71" rx="0.78" ry="0.73"/><ellipse class="cls-1" cx="553.9" cy="321.08" rx="5.14" ry="4.8"/><polyline class="cls-26" points="552.98 318.67 552.98 321.07 556.03 321.07 557.08 323.02 557.88 322.64"/><path class="cls-26" d="M552.19,320.61s-2,1.71-.18,3.08c2.19,1.71,3.48-1.43,3.48-1.43"/><line class="cls-26" x1="552.98" y1="320.32" x2="554.83" y2="320.32"/><ellipse class="cls-26" cx="553.12" cy="317.92" rx="0.78" ry="0.73"/><ellipse class="cls-1" cx="624.37" cy="316.67" rx="5.14" ry="4.8"/><polyline class="cls-26" points="623.45 314.26 623.45 316.66 626.51 316.66 627.55 318.61 628.36 318.24"/><path class="cls-26" d="M622.67,316.2s-1.95,1.71-.18,3.09c2.19,1.7,3.48-1.44,3.48-1.44"/><line class="cls-26" x1="623.45" y1="315.91" x2="625.3" y2="315.91"/><ellipse class="cls-26" cx="623.59" cy="313.52" rx="0.78" ry="0.73"/><ellipse class="cls-1" cx="811.56" cy="302.59" rx="5.14" ry="4.8"/><polyline class="cls-26" points="810.63 300.18 810.63 302.58 813.69 302.58 814.74 304.53 815.54 304.15"/><path class="cls-26" d="M809.85,302.12s-2,1.71-.18,3.08c2.19,1.71,3.48-1.43,3.48-1.43"/><line class="cls-26" x1="810.63" y1="301.83" x2="812.48" y2="301.83"/><ellipse class="cls-26" cx="810.78" cy="299.43" rx="0.78" ry="0.73"/><ellipse class="cls-1" cx="576.3" cy="342.67" rx="5.14" ry="4.8"/><polyline class="cls-26" points="575.38 340.26 575.38 342.66 578.44 342.66 579.48 344.61 580.29 344.24"/><path class="cls-26" d="M574.6,342.2s-2,1.71-.18,3.09c2.19,1.7,3.47-1.44,3.47-1.44"/><line class="cls-26" x1="575.38" y1="341.91" x2="577.23" y2="341.91"/><ellipse class="cls-26" cx="575.52" cy="339.52" rx="0.78" ry="0.73"/><ellipse class="cls-1" cx="349.14" cy="408.82" rx="5.14" ry="4.8"/><polyline class="cls-26" points="348.22 406.41 348.22 408.81 351.27 408.81 352.32 410.76 353.12 410.39"/><path class="cls-26" d="M347.43,408.35s-1.95,1.71-.18,3.09c2.19,1.7,3.48-1.44,3.48-1.44"/><line class="cls-26" x1="348.22" y1="408.06" x2="350.07" y2="408.06"/><ellipse class="cls-26" cx="348.36" cy="405.67" rx="0.78" ry="0.73"/><ellipse class="cls-1" cx="320.24" cy="401.12" rx="5.14" ry="4.8"/><polyline class="cls-26" points="319.31 398.71 319.31 401.12 322.37 401.12 323.42 403.06 324.22 402.69"/><path class="cls-26" d="M318.53,400.65s-1.95,1.71-.18,3.09c2.19,1.7,3.48-1.44,3.48-1.44"/><line class="cls-26" x1="319.31" y1="400.36" x2="321.16" y2="400.36"/><ellipse class="cls-26" cx="319.46" cy="397.97" rx="0.78" ry="0.73"/><ellipse class="cls-1" cx="237.88" cy="373.63" rx="5.14" ry="4.8"/><polyline class="cls-26" points="236.96 371.22 236.96 373.62 240.02 373.62 241.06 375.57 241.87 375.2"/><path class="cls-26" d="M236.18,373.16s-2,1.71-.18,3.09c2.19,1.7,3.48-1.44,3.48-1.44"/><line class="cls-26" x1="236.96" y1="372.87" x2="238.81" y2="372.87"/><ellipse class="cls-26" cx="237.1" cy="370.48" rx="0.78" ry="0.73"/><ellipse class="cls-1" cx="208.63" cy="390.94" rx="5.14" ry="4.8"/><polyline class="cls-26" points="207.71 388.53 207.71 390.93 210.77 390.93 211.81 392.88 212.62 392.51"/><path class="cls-26" d="M206.92,390.47s-1.94,1.71-.17,3.09c2.19,1.7,3.47-1.44,3.47-1.44"/><line class="cls-26" x1="207.71" y1="390.18" x2="209.56" y2="390.18"/><ellipse class="cls-26" cx="207.85" cy="387.79" rx="0.78" ry="0.73"/><ellipse class="cls-1" cx="183.04" cy="364.47" rx="5.14" ry="4.8"/><polyline class="cls-26" points="182.12 362.06 182.12 364.46 185.18 364.46 186.22 366.41 187.03 366.04"/><path class="cls-26" d="M181.33,364s-1.94,1.71-.18,3.09c2.2,1.7,3.48-1.44,3.48-1.44"/><line class="cls-26" x1="182.12" y1="363.71" x2="183.97" y2="363.71"/><ellipse class="cls-26" cx="182.26" cy="361.32" rx="0.78" ry="0.73"/><ellipse class="cls-1" cx="45.69" cy="344.82" rx="5.14" ry="4.8"/><polyline class="cls-26" points="44.77 342.41 44.77 344.81 47.82 344.81 48.87 346.76 49.67 346.39"/><path class="cls-26" d="M44,344.35s-1.95,1.71-.18,3.09c2.19,1.7,3.48-1.44,3.48-1.44"/><line class="cls-26" x1="44.77" y1="344.06" x2="46.62" y2="344.06"/><ellipse class="cls-26" cx="44.91" cy="341.67" rx="0.78" ry="0.73"/><ellipse class="cls-1" cx="49.95" cy="221.7" rx="5.14" ry="4.8"/><polyline class="cls-26" points="49.03 219.29 49.03 221.69 52.09 221.69 53.13 223.64 53.94 223.27"/><path class="cls-26" d="M48.25,221.23s-2,1.71-.18,3.09c2.19,1.7,3.48-1.44,3.48-1.44"/><line class="cls-26" x1="49.03" y1="220.94" x2="50.88" y2="220.94"/><ellipse class="cls-26" cx="49.17" cy="218.55" rx="0.78" ry="0.73"/><ellipse class="cls-1" cx="190" cy="235.36" rx="5.14" ry="4.8"/><polyline class="cls-26" points="189.08 232.95 189.08 235.35 192.13 235.35 193.18 237.3 193.98 236.93"/><path class="cls-26" d="M188.29,234.89s-1.95,1.71-.18,3.09c2.19,1.7,3.48-1.44,3.48-1.44"/><line class="cls-26" x1="189.08" y1="234.6" x2="190.93" y2="234.6"/><ellipse class="cls-26" cx="189.22" cy="232.2" rx="0.78" ry="0.73"/><ellipse class="cls-1" cx="353.12" cy="207.76" rx="5.14" ry="4.8"/><polyline class="cls-26" points="352.2 205.35 352.2 207.75 355.26 207.75 356.3 209.7 357.11 209.33"/><path class="cls-26" d="M351.42,207.29s-1.95,1.71-.18,3.09c2.19,1.7,3.48-1.44,3.48-1.44"/><line class="cls-26" x1="352.2" y1="207" x2="354.05" y2="207"/><ellipse class="cls-26" cx="352.34" cy="204.61" rx="0.78" ry="0.73"/><ellipse class="cls-1" cx="401.11" cy="202.97" rx="5.14" ry="4.8"/><polyline class="cls-26" points="400.19 200.56 400.19 202.96 403.24 202.96 404.29 204.91 405.09 204.53"/><path class="cls-26" d="M399.4,202.5s-1.95,1.71-.18,3.08c2.19,1.71,3.48-1.44,3.48-1.44"/><line class="cls-26" x1="400.19" y1="202.21" x2="402.03" y2="202.21"/><ellipse class="cls-26" cx="400.33" cy="199.81" rx="0.78" ry="0.73"/><ellipse class="cls-1" cx="451.49" cy="167.18" rx="5.14" ry="4.8"/><polyline class="cls-26" points="450.57 164.77 450.57 167.17 453.63 167.17 454.67 169.12 455.48 168.75"/><path class="cls-26" d="M449.79,166.71s-2,1.71-.18,3.08c2.19,1.71,3.47-1.43,3.47-1.43"/><line class="cls-26" x1="450.57" y1="166.42" x2="452.42" y2="166.42"/><ellipse class="cls-26" cx="450.71" cy="164.02" rx="0.78" ry="0.73"/><ellipse class="cls-1" cx="499.91" cy="76.26" rx="5.14" ry="4.8"/><polyline class="cls-26" points="498.99 73.85 498.99 76.25 502.05 76.25 503.09 78.2 503.89 77.82"/><path class="cls-26" d="M498.2,75.79s-1.94,1.71-.18,3.08c2.2,1.71,3.48-1.44,3.48-1.44"/><line class="cls-26" x1="498.99" y1="75.5" x2="500.84" y2="75.5"/><ellipse class="cls-26" cx="499.13" cy="73.1" rx="0.78" ry="0.73"/><path d="M403.53,387.52c-8.86,2.19-5.57,11.58-10.72,13.42a10.27,10.27,0,0,0,9.22-3.29C404.84,394.35,405.13,390,403.53,387.52Z"/><path d="M394,386.91H384a.39.39,0,0,0-.39.39v.31a.38.38,0,0,0,.39.39h7.48a1.15,1.15,0,0,1,.07.36h-5.29a.4.4,0,0,0-.39.39v.31a.4.4,0,0,0,.39.39h5.08a6.16,6.16,0,0,0-.41.63h-3a.4.4,0,0,0-.39.39v.31a.4.4,0,0,0,.39.39h2.44a10.73,10.73,0,0,0-.86,3.82h-3.41a.39.39,0,0,0-.39.39v.31a.38.38,0,0,0,.39.39h3.42c0,.18,0,.37,0,.54h-1.63a.4.4,0,0,0-.39.39v.31a.39.39,0,0,0,.39.39h1.48a1.34,1.34,0,0,1-.06.78h-4.6a.39.39,0,0,0-.39.39v.31a.4.4,0,0,0,.39.39h5.75a2.57,2.57,0,0,0,.6.66,3.06,3.06,0,0,0,.64.37c5.77-1.26,2.8-11.38,11.06-13.86C400.28,384.72,396.83,385,394,386.91Z"/><text class="cls-27" transform="translate(392.13 398.54)">6</text><circle class="cls-28" cx="385.41" cy="339.15" r="6.4"/><line class="cls-29" x1="44.07" y1="277.27" x2="45.05" y2="279.01"/><line class="cls-30" x1="46.89" y1="282.28" x2="49.65" y2="287.19"/><polyline class="cls-29" points="50.57 288.82 51.55 290.57 53.53 290.79"/><polyline class="cls-31" points="57.56 291.25 144.09 301.15 195.62 349.42 254.67 350.46"/><polyline class="cls-29" points="256.69 350.5 258.69 350.53 258.69 348.53"/><line class="cls-32" x1="258.69" y1="344.88" x2="258.69" y2="339.41"/><polyline class="cls-29" points="258.69 337.58 258.69 335.58 260.69 335.61"/><line class="cls-33" x1="264.8" y1="335.66" x2="377.65" y2="337.06"/><line class="cls-29" x1="379.7" y1="337.08" x2="381.7" y2="337.11"/></svg>