<svg xmlns="http://www.w3.org/2000/svg" width="256" height="256" viewBox="0 0 256 256"><path fill="#fff" d="M128 2.6A125.4 125.4 0 1 0 253.4 128 125.3 125.3 0 0 0 128 2.6zm0 235.1A109.7 109.7 0 1 1 237.7 128 109.7 109.7 0 0 1 128 237.7z"/><path fill="#fff" d="M51.6 186.8a2.5 2.5 0 0 1 2.8-2.8h23.9V88.2c0-3 .2-5.9.2-5.9h-.4s-1.1 2.2-6.2 7.3L60 101.5c-1.4 1.3-2.7 1.3-4 0l-.9-.9c-1.5-1.3-1.5-2.6-.2-4l21.9-22a4.9 4.9 0 0 1 3.5-1.5h2.4a2.6 2.6 0 0 1 2.8 2.9v108h23.2a2.6 2.6 0 0 1 2.9 2.8v1a2.6 2.6 0 0 1-2.9 2.9H54.4a2.6 2.6 0 0 1-2.8-2.9zm75.9-54.9c0-33.9 9.8-60.8 39.7-60.8s39.6 26.9 39.6 60.8-9.7 60.8-39.6 60.8-39.7-26.7-39.7-60.8zm71.8 0c0-30.2-7.1-53.8-32.1-53.8s-32.1 23.6-32.1 53.8 7 53.8 32.1 53.8 32.1-23.4 32.1-53.8z"/></svg>