<svg id="Layer_1" data-name="Layer 1" xmlns="http://www.w3.org/2000/svg" width="256" height="256" viewBox="0 0 256 256"><title>the-fix-icon</title><path d="M128,2.6A125.4,125.4,0,1,0,253.4,128,125.3,125.3,0,0,0,128,2.6Zm0,235.1A109.7,109.7,0,1,1,237.7,128,109.7,109.7,0,0,1,128,237.7Z" fill="#fff"/><path d="M90.2,184.5c0-40.8,62.7-45.6,62.7-81.2,0-14.1-10.4-25.2-27.4-25.2-14.5,0-23.5,9.8-26.9,14.5-1.2,1.5-2.5,1.8-4,.7l-.7-.6a2.4,2.4,0,0,1-.8-3.8c3.7-5.4,14.1-17.8,32.6-17.8,23.1,0,34.7,15.4,34.7,32.2,0,40.2-62.5,45.2-62.5,80.7h61.5a2.6,2.6,0,0,1,2.9,2.8v1a2.6,2.6,0,0,1-2.9,2.9h-66c-1.8,0-3.2-1-3.2-2.9Z" fill="#fff"/></svg>