<svg id="Layer_1" data-name="Layer 1" xmlns="http://www.w3.org/2000/svg" viewBox="0 0 906.84 628.93"><defs><style>.cls-1{fill:#2668ad;}.cls-2,.cls-26,.cls-28,.cls-29,.cls-3{fill:none;}.cls-2,.cls-26{stroke:#fdfefe;}.cls-2,.cls-26,.cls-28,.cls-29,.cls-3,.cls-4,.cls-5,.cls-6{stroke-miterlimit:10;}.cls-2{stroke-width:0.26px;}.cls-3{stroke:#fff;}.cls-24,.cls-30,.cls-4,.cls-6{fill:#fff;}.cls-4,.cls-5,.cls-6{stroke:#515354;}.cls-4{stroke-width:2px;}.cls-5{fill:#d8e6ea;}.cls-5,.cls-6{stroke-width:0.75px;}.cls-7{font-size:15px;fill:#515354;}.cls-24,.cls-30,.cls-7{font-family:MyriadPro-Regular, Myriad Pro;}.cls-8{letter-spacing:0em;}.cls-9{letter-spacing:-0.01em;}.cls-10{letter-spacing:-0.03em;}.cls-11{letter-spacing:-0.01em;}.cls-12{letter-spacing:0em;}.cls-13{letter-spacing:0.02em;}.cls-14{letter-spacing:-0.01em;}.cls-15{letter-spacing:-0.04em;}.cls-16{letter-spacing:-0.01em;}.cls-17{letter-spacing:0.01em;}.cls-18{letter-spacing:0em;}.cls-19{letter-spacing:-0.01em;}.cls-20{letter-spacing:-0.01em;}.cls-21{letter-spacing:-0.02em;}.cls-22{letter-spacing:0em;}.cls-23{letter-spacing:-0.03em;}.cls-24{font-size:18.57px;}.cls-25{fill:#150c0a;}.cls-26{stroke-width:0.44px;}.cls-27{fill:#f05455;}.cls-28,.cls-29{stroke:#f05455;}.cls-29{stroke-dasharray:3.9 3.9;}.cls-30{font-size:17.81px;}</style></defs><title>bits and bytes</title><ellipse class="cls-1" cx="570.38" cy="626.13" rx="3.01" ry="2.8"/><polyline class="cls-2" points="569.84 624.72 569.84 626.12 571.63 626.12 572.24 627.26 572.71 627.04"/><path class="cls-2" d="M569.38,625.85s-1.14,1-.1,1.81c1.28,1,2-.84,2-.84"/><line class="cls-2" x1="569.84" y1="625.68" x2="570.92" y2="625.68"/><ellipse class="cls-2" cx="569.92" cy="624.28" rx="0.46" ry="0.43"/><polygon class="cls-3" points="34.47 207.76 23.72 344.6 38.05 345.87 38.05 342.39 46.79 343.97 46.79 347.13 57.85 347.13 61.01 319.64 63.86 320.27 68.28 299.73 122.32 304.78 125.17 304.47 125.17 300.04 67.97 294.76 73.55 230.56 69.34 201.05 34.47 207.76"/><line class="cls-3" x1="37.22" y1="280.74" x2="37.22" y2="207.23"/><polygon class="cls-3" points="31.19 298.63 30.42 304.62 33.65 304.62 33.65 303.08 33.65 299.4 31.19 298.63"/><polyline class="cls-3" points="27.42 297.46 41.32 298.56 41.32 300.7 33.65 300.4"/><polyline class="cls-3" points="26.78 305.62 37.22 304.39 37.22 306.54 44.55 306.54 43.63 313.91 47.92 313.91 46.85 331.87 59.42 333.54"/><path class="cls-4" d="M96.83,159.22s224.81,16.22,256.4-47.33S486.6,29.42,539.82,42.94,612-.33,632.24,1s62.2-13.52,47.33,121.69c0,0,0,42.92,58.14,38.36S913.47,123.5,904,191.39s-12,113.85.54,157.11S836.41,414.76,762,389.07s-187.93,2.7-204.16,23-60.26,46-198.46,32.45S168,456.67,168,456.67s-129.11,46-121-33.8S-89.76,197.07,96.83,159.22Z"/><path class="cls-5" d="M572.82,105.38l4.72-31.94L527.6,72.16l-1.72,6,3.43.43-.64,7.5-2.79.43v14.15h-5.36v63.22l-74.8-2.78,1.71-65h2.15l.21-28.72s-1.71-2.78-.64-4.71,5.57,0,5.57,0l1.5-2.57,30.44,1.71V58.44l96.45,1.93v5.14l9.64.43-6,38.58-7.07-.85L578.61,106Z"/><polygon class="cls-6" points="513.37 79.79 499.22 78.5 499.22 74.43 482.49 73.14 480.56 77.64 463.62 76.47 463.62 95.66 460.19 95.66 460.19 149.69 505.43 151.19 507.58 112.17 512.08 111.1 513.37 79.79"/><polygon class="cls-5" points="532.74 130.22 532.74 150.3 563.37 151.19 563.37 130.73 532.74 130.22"/><polygon class="cls-5" points="402.93 129.9 402.93 161.58 416.6 161.32 416.6 158.73 433.41 159.1 433.41 129.9 422.51 129.9 421.96 126.76 419.74 126.76 419.56 130.09 415.31 130.09 415.31 126.76 412.53 126.76 412.35 130.09 402.93 129.9"/><path class="cls-5" d="M386.2,186.77s20.19,17.24,41.62,26.85l-13.79,30,16.25,38.67h-3.94l1,19.21h-34V308H383V289.23l3.7.89-.49-23.79-7.89,3.45v2.71l-6.4-.25v45H324.4l-.4,15h-2.58V314.08h-4.5v-9.93h4.23v-20.5h-4.23v-9.74h4v-2.76H302.4V269h15.8v-4.32h3.31V229l3.22-2.29-.18-7.17h3.77s11-13.05,26.19-13.33l13,7.26v6.07h3.59v10h2.29v23.53h2.49v5.24l7.53-3.68v-2.39h3.22Z"/><polygon class="cls-5" points="293.44 241.02 293.44 215.07 277.1 215.07 277.1 238.49 283.33 238.49 283.33 241.52 272.46 241.52 272.46 269.32 267.24 269.32 267.24 252.98 268.33 252.98 268.33 251.46 267.24 251.46 267.24 248.68 268.76 248.68 268.76 246.07 266.73 246.07 266.73 238.74 268.67 238.74 268.67 231.08 266.73 231.08 266.73 225.77 269.09 225.77 269.09 218.1 267.15 218.1 267.15 205.38 295.21 205.38 295.21 180.11 237.17 180.11 237.17 220.72 232.37 220.72 232.37 215.07 222.26 215.07 222.26 210.44 231.94 210.44 231.94 179.19 209.2 179.19 209.2 210.27 219.31 210.27 219.31 214.9 209.2 214.9 209.2 220.63 204.4 220.63 204.4 182.31 187.22 182.31 187.22 213.3 166.07 213.3 166.07 230.23 166.07 266.74 177.11 266.74 177.11 300.17 202.94 300.17 202.94 302.47 206.81 302.47 206.81 303.61 207.99 303.61 207.99 299 206.25 299 206.25 292.49 203.95 292.49 203.95 286.63 249.75 286.63 249.75 294.65 247.91 294.65 247.91 298.71 249.07 298.71 249.07 302.09 246.85 302.09 246.85 333.2 249.56 333.2 249.56 343.83 219.31 343.83 219.31 332.52 203.69 332.52 203.47 306.94 213.31 306.94 213.31 304 174.72 304 174.72 294.04 170.76 294.04 170.76 290.51 147.78 290.51 147.78 286.23 125.6 286.23 125.6 302.64 131.37 302.64 131.37 315.2 143.25 315.2 140.88 318.48 143.48 321.65 145.86 318.48 145.86 330.93 158.08 330.93 155.48 333.88 158.08 335.8 160.91 333.42 160.91 345.76 173.36 345.76 171.21 348.59 173.25 350.85 176.53 348.81 176.53 360.93 188.3 360.93 188.3 364.55 192.94 364.55 192.94 361.15 196.22 361.15 196.22 364.55 212.75 364.55 212.75 358.32 249.64 358.32 249.64 372.13 279.41 372.13 279.41 343.27 269.68 343.27 269.68 338.63 321.29 338.63 353.03 338.63 354.83 345.55 358.14 345.4 381.59 345.4 381.59 367.35 399.48 367.35 399.48 377.57 403.39 377.57 403.39 367.65 411.36 364.19 411.36 333.53 411.36 329.47 403.84 326.91 353.78 326.91 353.93 334.28 264.34 334.28 264.34 332.47 296.2 332.47 296.2 302.86 268.48 302.86 268.48 299.25 283.13 299.25 283.13 285.57 289.29 285.57 289.29 272.64 302.07 272.64 302.07 241.22 293.44 241.02"/><polygon class="cls-5" points="170.44 406.38 166.75 413.39 175.73 418.31 173.76 421.87 158.51 414.12 154.82 421.87 166.75 428.27 165.27 431.84 163.06 431.84 158.51 440.94 179.54 452.13 184.83 442.66 175.11 437.37 176.96 433.81 191.84 440.82 195.9 433.68 186.06 428.39 188.03 424.46 189.63 425.19 193.44 418.43 170.44 406.38"/><path class="cls-5" d="M225.71,398.11l-17.59-10.34s-8.59-6.18-3.76-14.91,40.42-4.3,40.42-4.3v15.58L241,384l-.26-1.24H225.18l-.41,10.1h1.35Z"/><polygon class="cls-5" points="322.05 333.89 322.05 338.64 320.73 338.64 320.73 344.83 322.05 344.83 322.05 400.6 328.38 400.6 328.38 402.45 333.13 402.45 333.13 401.26 341.96 401.26 341.96 339.43 333.79 333.89 322.05 333.89"/><polygon class="cls-5" points="349.74 378.32 349.74 415.76 414.34 415.76 414.34 377.79 369.12 377.79 369.12 375.95 361.6 375.95 361.6 373.31 349.74 374.89 341.96 374.76 341.96 378.19 349.74 378.32"/><polygon class="cls-5" points="411.17 334.95 411.17 338.82 448.48 338.82 448.48 352.56 499.31 352.56 501.31 355.7 506.55 355.7 506.55 352.76 511.37 352.76 511.37 354.13 542.29 354.13 542.29 356.96 575.62 356.96 575.62 344.17 594.38 344.17 594.38 348.99 600.98 348.99 600.98 351.72 615.24 351.72 615.24 354.02 660.41 354.02 660.41 341.44 640.29 341.44 640.29 315.35 601.72 315.35 601.72 318.07 594.59 318.07 594.59 341.55 577.82 341.55 577.82 321.74 538.3 321.74 538.3 324.05 513.46 324.05 513.46 330.55 511.68 330.55 511.68 333.38 506.65 333.38 506.65 330.96 500.26 330.96 500.26 334.21 456.24 334.21 456.24 332.01 448.8 332.01 448.8 335.26 411.17 334.95"/><polygon class="cls-5" points="816 289.83 816 318 833.73 316.84 841.52 317.33 842.51 302.75 839.2 302.09 839.53 294.47 825.78 293.14 825.44 290.56 816 289.83"/><polygon class="cls-5" points="833.07 206.16 829.25 205.16 829.25 217.26 821.47 221.07 818.32 221.07 816 218.25 816 208.64 818.49 205.16 820.31 186.77 825.44 186.77 825.61 190.75 831.24 190.75 831.24 200.52 830.25 202.51 833.07 202.68 834.23 196.38 878.96 200.69 875.15 262.66 829.25 259.34 833.07 206.16"/><path class="cls-5" d="M513,75.62V73s-4.12-2.06-1.55-6c0,0,1.89-2.06,3.61-1.2V58.44"/><line class="cls-5" x1="510.64" y1="103.1" x2="519.56" y2="103.1"/><polyline class="cls-5" points="459.78 147.42 453.43 147.42 451.54 144.67 445.52 144.67"/><polyline class="cls-5" points="188.97 235.47 192.74 235.47 192.74 254.96 176.35 254.96 176.35 267.58"/><polyline class="cls-5" points="202.92 285.96 202.92 223.03 202.92 219.97"/><line class="cls-5" x1="235.82" y1="223.03" x2="202.92" y2="223.03"/><polyline class="cls-5" points="231.1 230.1 213.48 230.1 213.48 223.03 213.48 234.04 206.25 234.04 206.25 246.31 213.01 246.31"/><rect class="cls-5" x="272.78" y="247.09" width="8.81" height="6.68"/><rect class="cls-5" x="264.6" y="273.99" width="8.18" height="7.71"/><polyline class="cls-5" points="289.14 271.95 289.14 241.12 292.76 241.12"/><polyline class="cls-5" points="282.53 285.16 267.28 285.16 267.28 306.87 264.6 306.87 264.6 309.38 281.59 309.38 281.59 307.34 283.79 307.34 283.79 301.36"/><polyline class="cls-5" points="254.54 301.52 254.54 285.94 249.5 285.94"/><line class="cls-5" x1="281.59" y1="337.54" x2="281.59" y2="334.08"/><rect class="cls-5" x="252.02" y="336.91" width="5.98" height="8.18"/><line class="cls-5" x1="268.69" y1="342.57" x2="258.63" y2="342.57"/><polyline class="cls-5" points="248.56 356.73 248.56 342.57 252.02 342.57"/><rect class="cls-5" x="200.11" y="348.86" width="4.25" height="1.89"/><polyline class="cls-5" points="195.39 360.03 195.39 347.6 193.82 347.6 193.82 343.99 202.24 343.99 202.24 331.87"/><polygon class="cls-5" points="192.09 317.56 199.01 317.56 199.01 305.61 187.21 305.61 187.21 307.18 182.97 307.18 182.97 313.31 187.53 313.31 192.09 317.56"/><polygon class="cls-5" points="191.78 320.86 192.09 317.56 187.53 313.31 182.97 313.31 167.24 313.31 167.24 318.35 186.43 336.91 190.2 336.91 190.2 320.39 191.78 320.86"/><polyline class="cls-5" points="174.16 302.77 174.16 306.24 158.27 306.24 156.7 307.81 156.7 314.89 160.47 319.45 167.24 318.35 172.19 323.14 171.33 326.68 177.93 333.29 182.69 333.29 186.43 336.91 186.43 345.09 190.36 348.86 193.82 347.6 194.92 350.75 190.04 350.75 189.92 348.86"/><polyline class="cls-5" points="194.49 356.73 192.09 356.73 189.3 356.73 186.49 356.73"/><rect class="cls-5" x="189.3" y="356.73" width="2.79" height="7.58"/><polygon class="cls-5" points="172.6 350.75 170.07 348.02 172.6 345.95 172.6 336.91 178.77 336.91 182.97 341.71 182.97 348.02 175.38 347.54 172.6 350.75"/><polygon class="cls-5" points="158.05 336.03 155.53 333.31 158.05 331.23 158.05 322.19 164.23 322.19 168.42 326.99 168.42 333.31 160.84 332.82 158.05 336.03"/><polygon class="cls-5" points="142.94 321.44 140.42 318.71 142.94 316.64 142.94 307.6 149.12 307.6 153.32 312.4 153.32 318.71 145.73 318.23 142.94 321.44"/><polygon class="cls-5" points="168.42 302.22 168.42 293.44 173.8 293.44 174.16 306.24 168.42 306.24 168.42 304.55 166.31 304.29 166.31 301.96 168.42 302.22"/><polygon class="cls-5" points="161.97 298.99 161.97 291.5 154.05 291.5 154.05 299.84 161.97 298.99"/><polygon class="cls-5" points="139.72 295.67 139.72 287.5 131.32 287.5 131.32 296.28 139.72 295.67"/><rect class="cls-5" x="125.13" y="299.25" width="6.2" height="3.52"/><line class="cls-5" x1="174.45" y1="417.47" x2="186.39" y2="424.13"/><line class="cls-5" x1="175.83" y1="432.73" x2="164.7" y2="427.23"/><line class="cls-5" x1="173.65" y1="436.52" x2="162.98" y2="431.36"/><polygon class="cls-5" points="337.88 276.47 337.88 286.05 348.29 286.05 348.29 275.81 337.88 276.47"/><polygon class="cls-5" points="324.16 227.4 324.16 250.44 352.91 250.44 352.91 266.39 359.52 266.39 359.52 249.37 364.15 249.37 364.15 219.13 356.71 219.13 356.71 209.22 348.95 209.22 348.95 218.31 344.15 218.31 344.15 222.11 336.55 222.11 336.55 226.9 324.16 227.4"/><path class="cls-5" d="M329.45,341.08s-8.59-.17-5.78,14.21,5.78,12.89,5.78,12.89,7.27,1.2,7.43-13.53S329.45,341.08,329.45,341.08Z"/><polyline class="cls-5" points="381 327.36 381 338.43 401.66 338.43 401.66 332.15 402.77 333.27 402.77 327.36"/><line class="cls-5" x1="409.59" y1="334.8" x2="409.59" y2="336.95"/><line class="cls-5" x1="352.09" y1="334.8" x2="352.09" y2="336.95"/><rect class="cls-5" x="363.16" y="378.09" width="5.12" height="5.12"/><polygon class="cls-5" points="378.19 379.25 378.19 402.05 395.21 402.05 395.21 410.15 399.18 410.15 399.18 382.39 395.54 382.39 395.54 379.25 378.19 379.25"/><line class="cls-5" x1="446.93" y1="334.8" x2="446.93" y2="338.43"/><polygon class="cls-5" points="509.72 336.95 504.76 336.62 504.76 344.71 502.62 344.71 502.62 352.97 510.55 352.97 509.72 336.95"/><line class="cls-5" x1="510.55" y1="333.64" x2="510.55" y2="338.43"/><polygon class="cls-5" points="541.28 336.04 541.28 355.62 574.82 355.62 574.82 341.57 565.57 341.57 565.57 334.8 541.28 336.04"/><text class="cls-7" transform="translate(540.88 70.16)">R</text><text class="cls-7" transform="translate(462.82 73.16)">R</text><text class="cls-7" transform="translate(479.92 161.54)">R</text><text class="cls-7" transform="translate(542.11 146.27)">G</text><text class="cls-7" transform="translate(412.54 151.72)">F</text><text class="cls-7" transform="translate(393.35 256.62)">E</text><text class="cls-7" transform="translate(335.89 245.35)">H</text><text class="cls-7" transform="translate(331.52 305)">D</text><text class="cls-7" transform="translate(243.87 245.35)">A</text><text class="cls-7" transform="translate(258.23 365.01)">C</text><text class="cls-7" transform="translate(137.89 305)">B</text><text class="cls-7" transform="translate(211.45 383.38)">K</text><text class="cls-7" transform="translate(170.26 433.03)">M</text><text class="cls-7" transform="translate(327.25 359.56)">J</text><text class="cls-7" transform="translate(361.71 405.38)">T</text><text class="cls-7" transform="translate(517.38 345.73)">P</text><text class="cls-7" transform="translate(382.92 359.55)">N</text><text class="cls-7" transform="translate(608.67 341.01)">S</text><text class="cls-7" transform="translate(824.02 310.83)">V</text><text class="cls-7" transform="translate(819.29 209.09)">Z</text><polygon class="cls-5" points="40.62 205.62 29.88 342.46 44.21 343.72 44.21 340.25 52.95 341.83 52.95 344.99 64.01 344.99 67.17 317.49 70.01 318.12 74.44 297.58 128.48 302.64 131.32 302.32 131.32 297.9 74.12 292.62 79.71 228.41 75.49 198.9 40.62 205.62"/><line class="cls-5" x1="43.37" y1="278.6" x2="43.37" y2="205.09"/><polygon class="cls-5" points="37.35 296.49 36.58 302.47 39.8 302.47 39.8 300.94 39.8 297.25 37.35 296.49"/><polyline class="cls-5" points="33.58 295.32 47.48 296.41 47.48 298.56 39.8 298.25"/><polyline class="cls-5" points="32.94 303.47 43.37 302.25 43.37 304.39 50.7 304.39 49.78 311.76 54.08 311.76 53.01 329.72 65.57 331.39"/><text class="cls-7" transform="translate(49.25 266.55)"><tspan class="cls-8">C</tspan><tspan x="8.76" y="0">A</tspan></text><text class="cls-7" transform="translate(718.52 478.33)">1.<tspan class="cls-9" x="10.8" y="0">T</tspan><tspan x="18.15" y="0">he </tspan><tspan class="cls-10" x="37.17" y="0">F</tspan><tspan x="44.08" y="0">ix</tspan><tspan x="0" y="18">2.</tspan><tspan class="cls-11" x="10.8" y="18">T</tspan><tspan class="cls-12" x="18.07" y="18">im Ho</tspan><tspan class="cls-13" x="55.29" y="18">r</tspan><tspan class="cls-14" x="60.55" y="18">t</tspan><tspan x="65.43" y="18">ons</tspan><tspan x="0" y="36">3.</tspan><tspan x="0" y="54">4.</tspan><tspan class="cls-15" x="10.8" y="54"> </tspan><tspan class="cls-16" x="13.36" y="54">T</tspan><tspan x="20.71" y="54">he </tspan><tspan class="cls-17" x="39.73" y="54">M</tspan><tspan class="cls-12" x="51.88" y="54">a</tspan><tspan class="cls-8" x="59.11" y="54">r</tspan><tspan x="64.08" y="54">ketpla</tspan><tspan class="cls-14" x="102.9" y="54">c</tspan><tspan x="109.53" y="54">e</tspan><tspan x="0" y="72">5. </tspan><tspan class="cls-18" x="13.98" y="72">S</tspan><tspan x="21.33" y="72">ta</tspan><tspan class="cls-8" x="33.52" y="72">r</tspan><tspan x="38.49" y="72">bucks</tspan><tspan x="0" y="90">6. Bits and </tspan><tspan class="cls-8" x="66.9" y="90">B</tspan><tspan class="cls-12" x="75.09" y="90">y</tspan><tspan class="cls-14" x="82.15" y="90">t</tspan><tspan x="87.03" y="90">es</tspan><tspan x="0" y="108">7. 35th </tspan><tspan class="cls-18" x="45.84" y="108">S</tspan><tspan x="53.19" y="108">t</tspan><tspan class="cls-19" x="58.15" y="108">r</tspan><tspan class="cls-12" x="62.91" y="108">eet </tspan><tspan class="cls-17" x="86.08" y="108">M</tspan><tspan class="cls-12" x="98.23" y="108">a</tspan><tspan class="cls-8" x="105.46" y="108">r</tspan><tspan x="110.43" y="108">ket </tspan><tspan class="cls-9" x="133.12" y="108">C</tspan><tspan class="cls-12" x="141.72" y="108">a</tspan><tspan class="cls-20" x="148.95" y="108">f</tspan><tspan class="cls-12" x="153.13" y="108">e</tspan></text><text class="cls-7" transform="translate(731.71 514.91)"><tspan class="cls-21">P</tspan><tspan class="cls-22" x="7.61" y="0">o</tspan><tspan class="cls-13" x="15.84" y="0">r</tspan><tspan x="21.1" y="0">table </tspan><tspan class="cls-23" x="56.07" y="0">F</tspan><tspan x="62.91" y="0">east</tspan></text><rect x="487.17" y="149.52" width="2.24" height="1.26" rx="0.51"/><rect x="488.58" y="159.09" width="3.08" height="1.26" rx="0.51"/><path d="M511.63,148.54c-10.26,2.54-6.45,13.42-12.42,15.55a11.87,11.87,0,0,0,10.68-3.82C513.15,156.46,513.49,151.37,511.63,148.54Z"/><path d="M500.57,147.84H489a.45.45,0,0,0-.45.45v.36a.45.45,0,0,0,.45.45h8.67a1.56,1.56,0,0,1,.08.42h-6.12a.46.46,0,0,0-.46.45v.36a.46.46,0,0,0,.46.45h5.88c-.17.24-.33.48-.48.73h-3.47a.45.45,0,0,0-.45.45v.36a.45.45,0,0,0,.45.45h2.82a12.62,12.62,0,0,0-1,4.43h-3.95a.46.46,0,0,0-.46.45V158a.46.46,0,0,0,.46.45h4c0,.21,0,.42.05.63h-1.89a.45.45,0,0,0-.45.45v.36a.45.45,0,0,0,.45.45h1.72a1.52,1.52,0,0,1-.08.9h-5.32a.46.46,0,0,0-.46.45v.36a.46.46,0,0,0,.46.45h6.65a3.1,3.1,0,0,0,.7.77,3.51,3.51,0,0,0,.74.43c6.68-1.47,3.24-13.19,12.81-16.05C507.86,145.29,503.86,145.62,500.57,147.84Z"/><text class="cls-24" transform="translate(499.65 161.34)">7</text><rect x="388.98" y="229.81" width="2.24" height="1.26" rx="0.51"/><rect x="390.38" y="239.38" width="3.08" height="1.26" rx="0.51"/><path d="M413.44,228.83c-10.26,2.54-6.45,13.42-12.42,15.55a11.88,11.88,0,0,0,10.68-3.82C415,236.74,415.29,231.66,413.44,228.83Z"/><path d="M402.37,228.13H390.8a.45.45,0,0,0-.45.45v.35a.46.46,0,0,0,.45.46h8.67a1.2,1.2,0,0,1,.07.42h-6.12a.45.45,0,0,0-.45.45v.35a.46.46,0,0,0,.45.46h5.88c-.17.23-.33.48-.48.73h-3.46a.46.46,0,0,0-.46.45v.35a.47.47,0,0,0,.46.46h2.82a12.81,12.81,0,0,0-1,4.43h-3.95a.45.45,0,0,0-.45.45v.35a.46.46,0,0,0,.45.46h4c0,.21,0,.42.05.63h-1.88a.46.46,0,0,0-.46.45v.35a.47.47,0,0,0,.46.46h1.71a1.59,1.59,0,0,1-.07.9h-5.33a.45.45,0,0,0-.45.45v.35a.46.46,0,0,0,.45.46h6.66a3.29,3.29,0,0,0,.7.77,4,4,0,0,0,.74.43c6.68-1.47,3.24-13.19,12.8-16.06C409.67,225.58,405.67,225.9,402.37,228.13Z"/><text class="cls-24" transform="translate(401.46 241.63)">5</text><rect x="346.2" y="284.43" width="2.24" height="1.26" rx="0.51"/><rect x="347.6" y="294" width="3.08" height="1.26" rx="0.51"/><path d="M370.66,283.45C360.4,286,364.21,296.87,358.24,299a11.88,11.88,0,0,0,10.68-3.82C372.17,291.36,372.51,286.28,370.66,283.45Z"/><path d="M359.59,282.75H348a.45.45,0,0,0-.45.45v.36a.45.45,0,0,0,.45.45h8.67a1.2,1.2,0,0,1,.07.42h-6.12a.45.45,0,0,0-.45.45v.35a.46.46,0,0,0,.45.46h5.88c-.17.23-.33.48-.48.73h-3.46a.46.46,0,0,0-.46.45v.36a.46.46,0,0,0,.46.45h2.82a12.81,12.81,0,0,0-1,4.43h-3.95a.45.45,0,0,0-.45.45v.36a.45.45,0,0,0,.45.45h4c0,.21,0,.42,0,.63h-1.88a.46.46,0,0,0-.46.45v.36a.46.46,0,0,0,.46.45h1.71a1.59,1.59,0,0,1-.07.9h-5.33a.45.45,0,0,0-.45.45V297a.46.46,0,0,0,.45.46h6.66a3.29,3.29,0,0,0,.7.77,4,4,0,0,0,.74.43c6.68-1.47,3.24-13.19,12.8-16.06C366.89,280.2,362.89,280.52,359.59,282.75Z"/><text class="cls-24" transform="translate(358.68 296.25)">4</text><rect class="cls-25" x="195.89" y="233.45" width="2.24" height="1.26" rx="0.51"/><rect class="cls-25" x="197.3" y="243.02" width="3.08" height="1.26" rx="0.51"/><path d="M220.35,232.47C210.09,235,213.9,245.89,207.93,248a11.87,11.87,0,0,0,10.68-3.82C221.87,240.38,222.21,235.3,220.35,232.47Z"/><path d="M209.29,231.77H197.71a.45.45,0,0,0-.45.45v.35a.46.46,0,0,0,.45.46h8.67a1.2,1.2,0,0,1,.08.42h-6.12a.45.45,0,0,0-.45.45v.35a.46.46,0,0,0,.45.46h5.88c-.17.23-.33.48-.48.73h-3.47a.45.45,0,0,0-.45.45v.35a.46.46,0,0,0,.45.46h2.82a12.57,12.57,0,0,0-1,4.43h-3.95a.46.46,0,0,0-.46.45v.35a.47.47,0,0,0,.46.46h4c0,.21,0,.42,0,.63h-1.89a.45.45,0,0,0-.45.45v.35a.46.46,0,0,0,.45.46H204a1.52,1.52,0,0,1-.08.9h-5.32a.45.45,0,0,0-.45.45V246a.46.46,0,0,0,.45.46h6.65a3.52,3.52,0,0,0,.7.77,4,4,0,0,0,.74.43c6.68-1.47,3.24-13.19,12.81-16.06C216.58,229.22,212.59,229.54,209.29,231.77Z"/><text class="cls-24" transform="translate(208.37 245.27)">2</text><rect x="170.31" y="321.14" width="2.24" height="1.26" rx="0.51"/><rect x="171.71" y="330.72" width="3.08" height="1.26" rx="0.51"/><path d="M194.77,320.17c-10.27,2.53-6.46,13.41-12.42,15.54A11.87,11.87,0,0,0,193,331.9C196.28,328.08,196.62,323,194.77,320.17Z"/><path d="M183.7,319.47H172.13a.46.46,0,0,0-.46.45v.35a.46.46,0,0,0,.46.45h8.67a1.28,1.28,0,0,1,.07.42h-6.12a.46.46,0,0,0-.45.46V322a.45.45,0,0,0,.45.45h5.88c-.17.24-.33.49-.48.74h-3.47a.45.45,0,0,0-.45.45v.35a.45.45,0,0,0,.45.45h2.83a12.42,12.42,0,0,0-1,4.44h-3.95a.45.45,0,0,0-.45.45v.35a.45.45,0,0,0,.45.45h4c0,.22,0,.43,0,.64h-1.89a.45.45,0,0,0-.45.45v.35a.45.45,0,0,0,.45.45h1.72a1.59,1.59,0,0,1-.07.9H173a.46.46,0,0,0-.45.46v.35a.45.45,0,0,0,.45.45h6.66a3.14,3.14,0,0,0,.7.78,3.49,3.49,0,0,0,.74.42c6.67-1.46,3.24-13.18,12.8-16.05C191,316.92,187,317.24,183.7,319.47Z"/><text class="cls-24" transform="translate(182.79 332.96)">3</text><rect x="29.88" y="266.33" width="2.24" height="1.26" rx="0.51"/><rect x="31.28" y="275.9" width="3.08" height="1.26" rx="0.51"/><path d="M54.34,265.35c-10.27,2.54-6.46,13.42-12.42,15.55a11.86,11.86,0,0,0,10.67-3.82C55.85,273.27,56.19,268.18,54.34,265.35Z"/><path d="M43.27,264.65H31.7a.46.46,0,0,0-.46.45v.36a.46.46,0,0,0,.46.45h8.67a1.2,1.2,0,0,1,.07.42H34.32a.45.45,0,0,0-.45.45v.35a.46.46,0,0,0,.45.46H40.2c-.17.23-.33.48-.48.73H36.25a.45.45,0,0,0-.45.45v.36a.45.45,0,0,0,.45.45h2.83a12.42,12.42,0,0,0-1,4.43H34.13a.45.45,0,0,0-.45.45v.36a.45.45,0,0,0,.45.45h4c0,.21,0,.42,0,.63H36.25a.45.45,0,0,0-.45.45v.36a.45.45,0,0,0,.45.45H38a1.52,1.52,0,0,1-.08.9H32.57a.45.45,0,0,0-.45.45v.35a.46.46,0,0,0,.45.46h6.66a2.92,2.92,0,0,0,.7.77,4.26,4.26,0,0,0,.73.43c6.68-1.47,3.25-13.19,12.81-16.06C50.57,262.1,46.57,262.42,43.27,264.65Z"/><text class="cls-24" transform="translate(42.36 278.15)">1</text><ellipse class="cls-1" cx="396.42" cy="417.49" rx="5.14" ry="4.8"/><polyline class="cls-26" points="395.5 415.08 395.5 417.48 398.55 417.48 399.6 419.43 400.4 419.05"/><path class="cls-26" d="M394.71,417s-1.95,1.71-.18,3.08c2.19,1.71,3.48-1.44,3.48-1.44"/><line class="cls-26" x1="395.5" y1="416.73" x2="397.35" y2="416.73"/><ellipse class="cls-26" cx="395.64" cy="414.33" rx="0.78" ry="0.73"/><ellipse class="cls-1" cx="408.2" cy="394.54" rx="5.14" ry="4.8"/><polyline class="cls-26" points="407.28 392.13 407.28 394.53 410.34 394.53 411.38 396.48 412.19 396.11"/><path class="cls-26" d="M406.5,394.07s-1.95,1.71-.18,3.08c2.19,1.71,3.48-1.43,3.48-1.43"/><line class="cls-26" x1="407.28" y1="393.78" x2="409.13" y2="393.78"/><ellipse class="cls-26" cx="407.42" cy="391.38" rx="0.78" ry="0.73"/><ellipse class="cls-1" cx="400.4" cy="368.22" rx="5.14" ry="4.8"/><polyline class="cls-26" points="399.48 365.81 399.48 368.21 402.54 368.21 403.58 370.16 404.39 369.79"/><path class="cls-26" d="M398.7,367.75s-1.95,1.71-.18,3.09c2.19,1.7,3.48-1.44,3.48-1.44"/><line class="cls-26" x1="399.48" y1="367.46" x2="401.33" y2="367.46"/><ellipse class="cls-26" cx="399.62" cy="365.07" rx="0.78" ry="0.73"/><ellipse class="cls-1" cx="442.58" cy="350.53" rx="5.14" ry="4.8"/><polyline class="cls-26" points="441.66 348.12 441.66 350.52 444.72 350.52 445.76 352.47 446.57 352.1"/><path class="cls-26" d="M440.88,350.06s-1.95,1.71-.18,3.09c2.19,1.7,3.48-1.44,3.48-1.44"/><line class="cls-26" x1="441.66" y1="349.77" x2="443.51" y2="349.77"/><ellipse class="cls-26" cx="441.8" cy="347.38" rx="0.78" ry="0.73"/><ellipse class="cls-1" cx="466.24" cy="358.45" rx="5.14" ry="4.8"/><polyline class="cls-26" points="465.32 356.04 465.32 358.44 468.37 358.44 469.42 360.39 470.22 360.01"/><path class="cls-26" d="M464.53,358s-1.95,1.71-.18,3.08c2.19,1.71,3.48-1.43,3.48-1.43"/><line class="cls-26" x1="465.32" y1="357.69" x2="467.17" y2="357.69"/><ellipse class="cls-26" cx="465.46" cy="355.29" rx="0.78" ry="0.73"/><ellipse class="cls-1" cx="442.58" cy="329.11" rx="5.14" ry="4.8"/><polyline class="cls-26" points="441.66 326.7 441.66 329.1 444.72 329.1 445.76 331.05 446.57 330.68"/><path class="cls-26" d="M440.88,328.64s-1.95,1.71-.18,3.09c2.19,1.7,3.48-1.44,3.48-1.44"/><line class="cls-26" x1="441.66" y1="328.35" x2="443.51" y2="328.35"/><ellipse class="cls-26" cx="441.8" cy="325.96" rx="0.78" ry="0.73"/><ellipse class="cls-1" cx="388.69" cy="332.19" rx="5.14" ry="4.8"/><polyline class="cls-26" points="387.77 329.78 387.77 332.18 390.82 332.18 391.87 334.13 392.67 333.75"/><path class="cls-26" d="M387,331.72s-2,1.71-.18,3.08c2.19,1.71,3.48-1.44,3.48-1.44"/><line class="cls-26" x1="387.77" y1="331.43" x2="389.62" y2="331.43"/><ellipse class="cls-26" cx="387.91" cy="329.03" rx="0.78" ry="0.73"/><ellipse class="cls-1" cx="553.2" cy="322.4" rx="5.14" ry="4.8"/><polyline class="cls-26" points="552.28 320 552.28 322.4 555.33 322.4 556.38 324.35 557.18 323.97"/><path class="cls-26" d="M551.49,321.94s-2,1.7-.18,3.08c2.19,1.7,3.48-1.44,3.48-1.44"/><line class="cls-26" x1="552.28" y1="321.65" x2="554.13" y2="321.65"/><ellipse class="cls-26" cx="552.42" cy="319.25" rx="0.78" ry="0.73"/><ellipse class="cls-1" cx="623.67" cy="318" rx="5.14" ry="4.8"/><polyline class="cls-26" points="622.75 315.59 622.75 317.99 625.81 317.99 626.86 319.94 627.66 319.56"/><path class="cls-26" d="M622,317.53s-2,1.71-.18,3.08c2.19,1.71,3.48-1.44,3.48-1.44"/><line class="cls-26" x1="622.75" y1="317.24" x2="624.6" y2="317.24"/><ellipse class="cls-26" cx="622.89" cy="314.84" rx="0.78" ry="0.73"/><ellipse class="cls-1" cx="810.86" cy="303.91" rx="5.14" ry="4.8"/><polyline class="cls-26" points="809.94 301.51 809.94 303.9 812.99 303.9 814.04 305.86 814.84 305.48"/><path class="cls-26" d="M809.15,303.45s-1.95,1.7-.18,3.08c2.19,1.7,3.48-1.44,3.48-1.44"/><line class="cls-26" x1="809.94" y1="303.16" x2="811.79" y2="303.16"/><ellipse class="cls-26" cx="810.08" cy="300.76" rx="0.78" ry="0.73"/><ellipse class="cls-1" cx="575.6" cy="344" rx="5.14" ry="4.8"/><polyline class="cls-26" points="574.68 341.59 574.68 343.99 577.74 343.99 578.78 345.94 579.59 345.56"/><path class="cls-26" d="M573.9,343.53s-1.95,1.71-.18,3.08c2.19,1.71,3.48-1.44,3.48-1.44"/><line class="cls-26" x1="574.68" y1="343.24" x2="576.53" y2="343.24"/><ellipse class="cls-26" cx="574.82" cy="340.84" rx="0.78" ry="0.73"/><ellipse class="cls-1" cx="348.44" cy="410.15" rx="5.14" ry="4.8"/><polyline class="cls-26" points="347.52 407.74 347.52 410.14 350.58 410.14 351.62 412.09 352.43 411.71"/><path class="cls-26" d="M346.73,409.68s-1.94,1.71-.17,3.08c2.19,1.71,3.47-1.44,3.47-1.44"/><line class="cls-26" x1="347.52" y1="409.39" x2="349.37" y2="409.39"/><ellipse class="cls-26" cx="347.66" cy="406.99" rx="0.78" ry="0.73"/><ellipse class="cls-1" cx="319.54" cy="402.45" rx="5.14" ry="4.8"/><polyline class="cls-26" points="318.62 400.04 318.62 402.44 321.67 402.44 322.72 404.39 323.52 404.01"/><path class="cls-26" d="M317.83,402s-1.95,1.71-.18,3.08c2.19,1.71,3.48-1.43,3.48-1.43"/><line class="cls-26" x1="318.62" y1="401.69" x2="320.47" y2="401.69"/><ellipse class="cls-26" cx="318.76" cy="399.29" rx="0.78" ry="0.73"/><ellipse class="cls-1" cx="237.18" cy="374.96" rx="5.14" ry="4.8"/><polyline class="cls-26" points="236.26 372.55 236.26 374.95 239.32 374.95 240.37 376.9 241.17 376.52"/><path class="cls-26" d="M235.48,374.49s-1.95,1.71-.18,3.08c2.19,1.71,3.48-1.44,3.48-1.44"/><line class="cls-26" x1="236.26" y1="374.2" x2="238.11" y2="374.2"/><ellipse class="cls-26" cx="236.41" cy="371.8" rx="0.78" ry="0.73"/><ellipse class="cls-1" cx="207.93" cy="392.26" rx="5.14" ry="4.8"/><polyline class="cls-26" points="207.01 389.86 207.01 392.26 210.07 392.26 211.11 394.21 211.92 393.83"/><path class="cls-26" d="M206.23,391.8s-1.95,1.71-.18,3.08c2.19,1.7,3.47-1.44,3.47-1.44"/><line class="cls-26" x1="207.01" y1="391.51" x2="208.86" y2="391.51"/><ellipse class="cls-26" cx="207.15" cy="389.11" rx="0.78" ry="0.73"/><ellipse class="cls-1" cx="182.34" cy="365.8" rx="5.14" ry="4.8"/><polyline class="cls-26" points="181.42 363.39 181.42 365.79 184.48 365.79 185.52 367.74 186.33 367.36"/><path class="cls-26" d="M180.64,365.33s-1.95,1.71-.18,3.08c2.19,1.71,3.47-1.44,3.47-1.44"/><line class="cls-26" x1="181.42" y1="365.04" x2="183.27" y2="365.04"/><ellipse class="cls-26" cx="181.56" cy="362.64" rx="0.78" ry="0.73"/><ellipse class="cls-1" cx="44.99" cy="346.15" rx="5.14" ry="4.8"/><polyline class="cls-26" points="44.07 343.74 44.07 346.14 47.13 346.14 48.17 348.09 48.97 347.71"/><path class="cls-26" d="M43.28,345.68s-1.94,1.71-.18,3.08c2.19,1.71,3.48-1.44,3.48-1.44"/><line class="cls-26" x1="44.07" y1="345.39" x2="45.92" y2="345.39"/><ellipse class="cls-26" cx="44.21" cy="342.99" rx="0.78" ry="0.73"/><ellipse class="cls-1" cx="49.25" cy="223.03" rx="5.14" ry="4.8"/><polyline class="cls-26" points="48.33 220.62 48.33 223.02 51.39 223.02 52.44 224.97 53.24 224.59"/><path class="cls-26" d="M47.55,222.56s-1.95,1.71-.18,3.08c2.19,1.71,3.48-1.43,3.48-1.43"/><line class="cls-26" x1="48.33" y1="222.27" x2="50.18" y2="222.27"/><ellipse class="cls-26" cx="48.48" cy="219.87" rx="0.78" ry="0.73"/><ellipse class="cls-1" cx="189.3" cy="236.68" rx="5.14" ry="4.8"/><polyline class="cls-26" points="188.38 234.28 188.38 236.68 191.44 236.68 192.48 238.63 193.28 238.25"/><path class="cls-26" d="M187.59,236.22s-1.94,1.71-.17,3.08c2.19,1.7,3.47-1.44,3.47-1.44"/><line class="cls-26" x1="188.38" y1="235.93" x2="190.23" y2="235.93"/><ellipse class="cls-26" cx="188.52" cy="233.53" rx="0.78" ry="0.73"/><ellipse class="cls-1" cx="352.42" cy="209.09" rx="5.14" ry="4.8"/><polyline class="cls-26" points="351.5 206.68 351.5 209.08 354.56 209.08 355.61 211.03 356.41 210.65"/><path class="cls-26" d="M350.72,208.62s-2,1.71-.18,3.08c2.19,1.71,3.48-1.43,3.48-1.43"/><line class="cls-26" x1="351.5" y1="208.33" x2="353.35" y2="208.33"/><ellipse class="cls-26" cx="351.65" cy="205.93" rx="0.78" ry="0.73"/><ellipse class="cls-1" cx="400.41" cy="204.29" rx="5.14" ry="4.8"/><polyline class="cls-26" points="399.49 201.88 399.49 204.28 402.54 204.28 403.59 206.23 404.39 205.86"/><path class="cls-26" d="M398.7,203.82s-1.95,1.71-.18,3.09c2.19,1.7,3.48-1.44,3.48-1.44"/><line class="cls-26" x1="399.49" y1="203.53" x2="401.34" y2="203.53"/><ellipse class="cls-26" cx="399.63" cy="201.14" rx="0.78" ry="0.73"/><ellipse class="cls-1" cx="450.79" cy="168.5" rx="5.14" ry="4.8"/><polyline class="cls-26" points="449.87 166.1 449.87 168.5 452.93 168.5 453.97 170.45 454.78 170.07"/><path class="cls-26" d="M449.09,168s-1.95,1.71-.18,3.08c2.19,1.7,3.48-1.44,3.48-1.44"/><line class="cls-26" x1="449.87" y1="167.75" x2="451.72" y2="167.75"/><ellipse class="cls-26" cx="450.01" cy="165.35" rx="0.78" ry="0.73"/><ellipse class="cls-1" cx="499.21" cy="77.58" rx="5.14" ry="4.8"/><polyline class="cls-26" points="498.29 75.17 498.29 77.58 501.35 77.58 502.39 79.52 503.2 79.15"/><path class="cls-26" d="M497.51,77.11s-1.95,1.71-.18,3.09c2.19,1.7,3.47-1.44,3.47-1.44"/><line class="cls-26" x1="498.29" y1="76.82" x2="500.14" y2="76.82"/><ellipse class="cls-26" cx="498.43" cy="74.43" rx="0.78" ry="0.73"/><circle class="cls-27" cx="387.77" cy="342.56" r="6.4"/><line class="cls-28" x1="394.11" y1="340.73" x2="396.11" y2="340.73"/><polyline class="cls-28" points="397.9 340.73 399.9 340.73 399.99 342.73"/><line class="cls-29" x1="400.17" y1="346.62" x2="402.23" y2="391.37"/><polyline class="cls-28" points="402.32 393.32 402.41 395.32 399.17 394.54"/><path d="M403.27,388.38c-8.86,2.19-5.57,11.58-10.72,13.42a10.25,10.25,0,0,0,9.22-3.3C404.58,395.21,404.87,390.82,403.27,388.38Z"/><path d="M393.72,387.77h-10a.38.38,0,0,0-.39.39v.31a.39.39,0,0,0,.39.39h7.48a.92.92,0,0,1,.07.36H386a.39.39,0,0,0-.39.39v.31a.4.4,0,0,0,.39.39h5.08a5.23,5.23,0,0,0-.41.63h-3a.39.39,0,0,0-.39.39v.31a.4.4,0,0,0,.39.39h2.44a10.73,10.73,0,0,0-.86,3.82h-3.41a.39.39,0,0,0-.39.39v.31a.39.39,0,0,0,.39.39h3.42c0,.18,0,.36,0,.54h-1.63a.4.4,0,0,0-.39.39v.31a.4.4,0,0,0,.39.39h1.48a1.34,1.34,0,0,1-.06.78h-4.6a.39.39,0,0,0-.39.39v.3a.39.39,0,0,0,.39.39h5.75a2.47,2.47,0,0,0,.6.67,3.58,3.58,0,0,0,.64.37c5.77-1.27,2.8-11.38,11.06-13.86C400,385.57,396.57,385.85,393.72,387.77Z"/><text class="cls-30" transform="translate(391.43 399.86)">6</text></svg>