<svg id="Layer_1" data-name="Layer 1" xmlns="http://www.w3.org/2000/svg" viewBox="0 0 660.41 452.13"><defs><style>.cls-1,.cls-11,.cls-12,.cls-13,.cls-14,.cls-15,.cls-16,.cls-8{fill:none;}.cls-1{stroke:#fff;}.cls-1,.cls-11,.cls-12,.cls-13,.cls-14,.cls-15,.cls-16,.cls-2,.cls-3,.cls-8{stroke-miterlimit:10;}.cls-2{fill:#d8e6ea;}.cls-2,.cls-3{stroke:#515354;stroke-width:0.75px;}.cls-3,.cls-6,.cls-9{fill:#fff;}.cls-4{font-size:15px;fill:#515354;}.cls-4,.cls-6,.cls-9{font-family:MyriadPro-Regular, Myriad Pro;}.cls-5{letter-spacing:0em;}.cls-6{font-size:18.57px;}.cls-7{fill:#2668ad;}.cls-8{stroke:#fdfefe;stroke-width:0.44px;}.cls-9{font-size:17.81px;}.cls-10{fill:#f05455;}.cls-11,.cls-12,.cls-13,.cls-14,.cls-15,.cls-16{stroke:#f05455;}.cls-12{stroke-dasharray:4.24 4.24;}.cls-13{stroke-dasharray:3.87 3.87;}.cls-14{stroke-dasharray:3.85 3.85;}.cls-15{stroke-dasharray:3.46 3.46;}.cls-16{stroke-dasharray:2.32 2.32;}.cls-17{fill:#150c0a;}</style></defs><title>Tim Hortons</title><polygon class="cls-1" points="34.47 208.14 23.72 344.98 38.05 346.25 38.05 342.77 46.79 344.35 46.79 347.51 57.85 347.51 61.01 320.02 63.86 320.65 68.28 300.11 122.32 305.16 125.17 304.85 125.17 300.42 67.97 295.14 73.55 230.94 69.34 201.43 34.47 208.14"/><line class="cls-1" x1="37.22" y1="281.12" x2="37.22" y2="207.61"/><polygon class="cls-1" points="31.19 299.01 30.42 305 33.65 305 33.65 303.46 33.65 299.78 31.19 299.01"/><polyline class="cls-1" points="27.42 297.84 41.32 298.94 41.32 301.09 33.65 300.78"/><polyline class="cls-1" points="26.78 306 37.22 304.77 37.22 306.92 44.55 306.92 43.63 314.29 47.92 314.29 46.85 332.25 59.42 333.92"/><path class="cls-2" d="M572.82,105.76l4.72-31.93L527.6,72.54l-1.72,6,3.43.43-.64,7.5-2.79.43v14.15h-5.36v63.23l-74.8-2.79,1.71-64.94h2.15l.21-28.72s-1.71-2.79-.64-4.72,5.57,0,5.57,0l1.5-2.57,30.44,1.71V58.82l96.45,1.93V65.9l9.64.42-6,38.59-7.07-.86-1.07,2.36Z"/><polygon class="cls-3" points="513.37 80.17 499.22 78.89 499.22 74.81 482.49 73.52 480.56 78.03 463.62 76.85 463.62 96.04 460.19 96.04 460.19 150.07 505.43 151.58 507.58 112.55 512.08 111.48 513.37 80.17"/><polygon class="cls-2" points="532.74 130.6 532.74 150.69 563.37 151.58 563.37 131.11 532.74 130.6"/><polygon class="cls-2" points="402.93 130.28 402.93 161.96 416.6 161.7 416.6 159.11 433.41 159.48 433.41 130.28 422.51 130.28 421.96 127.14 419.74 127.14 419.56 130.47 415.31 130.47 415.31 127.14 412.53 127.14 412.35 130.47 402.93 130.28"/><path class="cls-2" d="M386.2,189.91s20.19,17.24,41.62,26.85L414,246.81l16.25,38.67h-3.94l1,19.21h-34v6.41H383V292.38l3.7.88-.49-23.79-7.89,3.45v2.71l-6.4-.25v45H324.4l-.4,15h-2.58V317.22h-4.5v-9.93h4.23V286.8h-4.23v-9.75h4V274.3H302.4v-2.21h15.8v-4.32h3.31V232.11l3.22-2.3-.18-7.17h3.77s11-13,26.19-13.33l13,7.26v6.07h3.59v10h2.29v23.53h2.49v5.24l7.53-3.68v-2.39h3.22Z"/><polygon class="cls-2" points="293.44 242.4 293.44 216.45 277.1 216.45 277.1 239.87 283.33 239.87 283.33 242.9 272.46 242.9 272.46 270.7 267.24 270.7 267.24 254.36 268.33 254.36 268.33 252.84 267.24 252.84 267.24 250.06 268.76 250.06 268.76 247.45 266.73 247.45 266.73 240.12 268.67 240.12 268.67 232.46 266.73 232.46 266.73 227.15 269.09 227.15 269.09 219.49 267.15 219.49 267.15 206.77 295.21 206.77 295.21 181.5 237.17 181.5 237.17 222.1 232.37 222.1 232.37 216.45 222.26 216.45 222.26 211.82 231.94 211.82 231.94 180.57 209.2 180.57 209.2 211.65 219.31 211.65 219.31 216.28 209.2 216.28 209.2 222.01 204.4 222.01 204.4 183.69 187.22 183.69 187.22 214.69 166.07 214.69 166.07 231.62 166.07 268.12 177.11 268.12 177.11 301.55 202.94 301.55 202.94 303.85 206.81 303.85 206.81 304.99 207.99 304.99 207.99 300.38 206.25 300.38 206.25 293.87 203.95 293.87 203.95 288.01 249.75 288.01 249.75 296.03 247.91 296.03 247.91 300.09 249.07 300.09 249.07 303.47 246.85 303.47 246.85 334.59 249.56 334.59 249.56 345.22 219.31 345.22 219.31 333.9 203.69 333.9 203.47 308.32 213.31 308.32 213.31 305.38 174.72 305.38 174.72 295.42 170.76 295.42 170.76 291.9 147.78 291.9 147.78 287.61 125.6 287.61 125.6 304.02 131.37 304.02 131.37 316.58 143.25 316.58 140.88 319.86 143.48 323.03 145.86 319.86 145.86 332.31 158.08 332.31 155.48 335.26 158.08 337.18 160.91 334.8 160.91 347.14 173.36 347.14 171.21 349.97 173.25 352.23 176.53 350.2 176.53 362.31 188.3 362.31 188.3 365.93 192.94 365.93 192.94 362.53 196.22 362.53 196.22 365.93 212.75 365.93 212.75 359.7 249.64 359.7 249.64 373.51 279.41 373.51 279.41 344.65 269.68 344.65 269.68 340.01 321.29 340.01 353.03 340.01 354.83 346.93 358.14 346.78 381.59 346.78 381.59 368.73 399.48 368.73 399.48 378.95 403.39 378.95 403.39 369.03 411.36 365.57 411.36 334.91 411.36 330.85 403.84 328.29 353.78 328.29 353.93 335.66 264.34 335.66 264.34 333.86 296.2 333.86 296.2 304.24 268.48 304.24 268.48 300.63 283.13 300.63 283.13 286.95 289.29 286.95 289.29 274.02 302.07 274.02 302.07 242.61 293.44 242.4"/><polygon class="cls-2" points="170.44 406.76 166.75 413.77 175.73 418.69 173.76 422.25 158.51 414.51 154.82 422.25 166.75 428.65 165.27 432.22 163.06 432.22 158.51 441.32 179.54 452.51 184.83 443.04 175.11 437.75 176.96 434.19 191.84 441.2 195.9 434.06 186.06 428.77 188.03 424.84 189.63 425.58 193.44 418.81 170.44 406.76"/><path class="cls-2" d="M225.71,398.49l-17.59-10.34s-8.59-6.18-3.76-14.91,40.42-4.3,40.42-4.3v15.58l-3.76-.13-.26-1.24H225.18l-.41,10.1h1.35Z"/><polygon class="cls-2" points="322.05 334.27 322.05 339.02 320.73 339.02 320.73 345.22 322.05 345.22 322.05 400.98 328.38 400.98 328.38 402.83 333.13 402.83 333.13 401.64 341.96 401.64 341.96 339.81 333.79 334.27 322.05 334.27"/><polygon class="cls-2" points="349.74 378.7 349.74 416.15 414.34 416.15 414.34 378.18 369.12 378.18 369.12 376.33 361.6 376.33 361.6 373.69 349.74 375.27 341.96 375.14 341.96 378.57 349.74 378.7"/><polygon class="cls-2" points="411.17 335.33 411.17 339.21 448.48 339.21 448.48 352.94 499.31 352.94 501.31 356.08 506.55 356.08 506.55 353.15 511.37 353.15 511.37 354.51 542.29 354.51 542.29 357.34 575.62 357.34 575.62 344.55 594.38 344.55 594.38 349.37 600.98 349.37 600.98 352.1 615.24 352.1 615.24 354.4 660.41 354.4 660.41 341.83 640.29 341.83 640.29 315.73 601.72 315.73 601.72 318.45 594.59 318.45 594.59 341.93 577.82 341.93 577.82 322.12 538.3 322.12 538.3 324.43 513.46 324.43 513.46 330.93 511.68 330.93 511.68 333.76 506.65 333.76 506.65 331.35 500.26 331.35 500.26 334.6 456.24 334.6 456.24 332.39 448.8 332.39 448.8 335.64 411.17 335.33"/><path class="cls-2" d="M513,76V73.42s-4.12-2.06-1.55-6c0,0,1.89-2.06,3.61-1.2V58.82"/><line class="cls-2" x1="510.64" y1="103.48" x2="519.56" y2="103.48"/><polyline class="cls-2" points="459.78 147.8 453.43 147.8 451.54 145.05 445.52 145.05"/><polyline class="cls-2" points="188.97 235.85 192.74 235.85 192.74 255.34 176.35 255.34 176.35 267.96"/><polyline class="cls-2" points="202.92 286.34 202.92 223.41 202.92 220.35"/><line class="cls-2" x1="235.82" y1="223.41" x2="202.92" y2="223.41"/><polyline class="cls-2" points="231.1 230.49 213.48 230.49 213.48 223.41 213.48 234.42 206.25 234.42 206.25 246.69 213.01 246.69"/><rect class="cls-2" x="272.78" y="247.48" width="8.81" height="6.68"/><rect class="cls-2" x="264.6" y="274.37" width="8.18" height="7.71"/><polyline class="cls-2" points="289.14 272.33 289.14 241.5 292.76 241.5"/><polyline class="cls-2" points="282.53 285.54 267.28 285.54 267.28 307.25 264.6 307.25 264.6 309.76 281.59 309.76 281.59 307.72 283.79 307.72 283.79 301.74"/><polyline class="cls-2" points="254.54 301.9 254.54 286.33 249.5 286.33"/><line class="cls-2" x1="281.59" y1="337.92" x2="281.59" y2="334.46"/><rect class="cls-2" x="252.02" y="337.29" width="5.98" height="8.18"/><line class="cls-2" x1="268.69" y1="342.95" x2="258.63" y2="342.95"/><polyline class="cls-2" points="248.56 357.11 248.56 342.95 252.02 342.95"/><rect class="cls-2" x="200.11" y="349.24" width="4.25" height="1.89"/><polyline class="cls-2" points="195.39 360.41 195.39 347.99 193.82 347.99 193.82 344.37 202.24 344.37 202.24 332.26"/><polygon class="cls-2" points="192.09 317.94 199.01 317.94 199.01 305.99 187.21 305.99 187.21 307.56 182.97 307.56 182.97 313.7 187.53 313.7 192.09 317.94"/><polygon class="cls-2" points="191.78 321.25 192.09 317.94 187.53 313.7 182.97 313.7 167.24 313.7 167.24 318.73 186.43 337.29 190.2 337.29 190.2 320.77 191.78 321.25"/><polyline class="cls-2" points="174.16 303.16 174.16 306.62 158.27 306.62 156.7 308.19 156.7 315.27 160.47 319.83 167.24 318.73 172.19 323.52 171.33 327.07 177.93 333.67 182.69 333.67 186.43 337.29 186.43 345.47 190.36 349.24 193.82 347.99 194.92 351.13 190.04 351.13 189.92 349.24"/><polyline class="cls-2" points="194.49 357.11 192.09 357.11 189.3 357.11 186.49 357.11"/><rect class="cls-2" x="189.3" y="357.11" width="2.79" height="7.58"/><polygon class="cls-2" points="172.6 351.13 170.07 348.41 172.6 346.33 172.6 337.29 178.77 337.29 182.97 342.09 182.97 348.41 175.38 347.92 172.6 351.13"/><polygon class="cls-2" points="158.05 336.41 155.53 333.69 158.05 331.61 158.05 322.57 164.23 322.57 168.42 327.37 168.42 333.69 160.84 333.2 158.05 336.41"/><polygon class="cls-2" points="142.94 321.82 140.42 319.1 142.94 317.02 142.94 307.98 149.12 307.98 153.32 312.78 153.32 319.1 145.73 318.61 142.94 321.82"/><polygon class="cls-2" points="168.42 302.6 168.42 293.82 173.8 293.82 174.16 306.62 168.42 306.62 168.42 304.93 166.31 304.67 166.31 302.34 168.42 302.6"/><polygon class="cls-2" points="161.97 299.38 161.97 291.89 154.05 291.89 154.05 300.22 161.97 299.38"/><polygon class="cls-2" points="139.72 296.05 139.72 287.88 131.32 287.88 131.32 296.66 139.72 296.05"/><rect class="cls-2" x="125.13" y="299.63" width="6.2" height="3.52"/><line class="cls-2" x1="174.45" y1="417.85" x2="186.39" y2="424.51"/><line class="cls-2" x1="175.83" y1="433.11" x2="164.7" y2="427.61"/><line class="cls-2" x1="173.65" y1="436.9" x2="162.98" y2="431.74"/><polygon class="cls-2" points="337.88 276.85 337.88 286.44 348.29 286.44 348.29 276.19 337.88 276.85"/><polygon class="cls-2" points="324.16 227.78 324.16 250.82 352.91 250.82 352.91 266.77 359.52 266.77 359.52 249.75 364.15 249.75 364.15 219.51 356.71 219.51 356.71 209.6 348.95 209.6 348.95 218.69 344.15 218.69 344.15 222.49 336.55 222.49 336.55 227.28 324.16 227.78"/><path class="cls-2" d="M329.45,341.46s-8.59-.17-5.78,14.21,5.78,12.89,5.78,12.89,7.27,1.2,7.43-13.53S329.45,341.46,329.45,341.46Z"/><polyline class="cls-2" points="381 327.74 381 338.81 401.66 338.81 401.66 332.54 402.77 333.65 402.77 327.74"/><line class="cls-2" x1="409.59" y1="335.18" x2="409.59" y2="337.33"/><line class="cls-2" x1="352.09" y1="335.18" x2="352.09" y2="337.33"/><rect class="cls-2" x="363.16" y="378.47" width="5.12" height="5.12"/><polygon class="cls-2" points="378.19 379.63 378.19 402.43 395.21 402.43 395.21 410.53 399.18 410.53 399.18 382.77 395.54 382.77 395.54 379.63 378.19 379.63"/><line class="cls-2" x1="446.93" y1="335.18" x2="446.93" y2="338.82"/><polygon class="cls-2" points="509.72 337.33 504.76 337 504.76 345.09 502.62 345.09 502.62 353.36 510.55 353.36 509.72 337.33"/><line class="cls-2" x1="510.55" y1="334.02" x2="510.55" y2="338.82"/><polygon class="cls-2" points="541.28 336.42 541.28 356 574.82 356 574.82 341.95 565.57 341.95 565.57 335.18 541.28 336.42"/><text class="cls-4" transform="translate(540.88 70.54)">R</text><text class="cls-4" transform="translate(462.82 73.54)">R</text><text class="cls-4" transform="translate(479.92 161.93)">R</text><text class="cls-4" transform="translate(542.11 146.65)">G</text><text class="cls-4" transform="translate(412.54 152.11)">F</text><text class="cls-4" transform="translate(393.35 257.01)">E</text><text class="cls-4" transform="translate(335.89 245.73)">H</text><text class="cls-4" transform="translate(331.52 305.38)">D</text><text class="cls-4" transform="translate(243.87 245.73)">A</text><text class="cls-4" transform="translate(258.23 365.39)">C</text><text class="cls-4" transform="translate(137.89 305.38)">B</text><text class="cls-4" transform="translate(211.45 383.76)">K</text><text class="cls-4" transform="translate(170.26 433.41)">M</text><text class="cls-4" transform="translate(327.25 359.94)">J</text><text class="cls-4" transform="translate(361.71 405.76)">T</text><text class="cls-4" transform="translate(517.38 346.12)">P</text><text class="cls-4" transform="translate(382.92 359.94)">N</text><text class="cls-4" transform="translate(608.67 341.39)">S</text><polygon class="cls-2" points="40.62 206 29.88 342.84 44.21 344.11 44.21 340.63 52.95 342.21 52.95 345.37 64.01 345.37 67.17 317.87 70.01 318.51 74.44 297.96 128.48 303.02 131.32 302.7 131.32 298.28 74.12 293 79.71 228.79 75.49 199.29 40.62 206"/><line class="cls-2" x1="43.37" y1="278.98" x2="43.37" y2="205.47"/><polygon class="cls-2" points="37.35 296.87 36.58 302.86 39.8 302.86 39.8 301.32 39.8 297.63 37.35 296.87"/><polyline class="cls-2" points="33.58 295.7 47.48 296.79 47.48 298.94 39.8 298.63"/><polyline class="cls-2" points="32.94 303.86 43.37 302.63 43.37 304.78 50.7 304.78 49.78 312.14 54.08 312.14 53.01 330.11 65.57 331.77"/><text class="cls-4" transform="translate(49.25 266.93)"><tspan class="cls-5">C</tspan><tspan x="8.76" y="0">A</tspan></text><rect x="487.17" y="149.9" width="2.24" height="1.26" rx="0.51"/><rect x="488.58" y="159.47" width="3.08" height="1.26" rx="0.51"/><path d="M511.63,148.92c-10.26,2.54-6.45,13.42-12.42,15.55a11.88,11.88,0,0,0,10.68-3.81C513.15,156.84,513.49,151.75,511.63,148.92Z"/><path d="M500.57,148.22H489a.45.45,0,0,0-.45.45V149a.45.45,0,0,0,.45.45h8.67a1.56,1.56,0,0,1,.08.42h-6.12a.46.46,0,0,0-.46.45v.36a.46.46,0,0,0,.46.45h5.88c-.17.24-.33.48-.48.73h-3.47a.45.45,0,0,0-.45.45v.36a.45.45,0,0,0,.45.45h2.82a12.62,12.62,0,0,0-1,4.43h-3.95a.46.46,0,0,0-.46.45v.36a.46.46,0,0,0,.46.45h4c0,.21,0,.42.05.63h-1.89a.45.45,0,0,0-.45.45v.36a.45.45,0,0,0,.45.45h1.72a1.52,1.52,0,0,1-.08.9h-5.32a.46.46,0,0,0-.46.45v.36a.46.46,0,0,0,.46.45h6.65a3.1,3.1,0,0,0,.7.77,3.51,3.51,0,0,0,.74.43c6.68-1.47,3.24-13.18,12.81-16.05C507.86,145.68,503.86,146,500.57,148.22Z"/><text class="cls-6" transform="translate(499.65 161.72)">7</text><rect x="388.98" y="230.19" width="2.24" height="1.26" rx="0.51"/><rect x="390.38" y="239.76" width="3.08" height="1.26" rx="0.51"/><path d="M413.44,229.21c-10.26,2.54-6.45,13.42-12.42,15.55a11.88,11.88,0,0,0,10.68-3.82C415,237.13,415.29,232,413.44,229.21Z"/><path d="M402.37,228.51H390.8a.45.45,0,0,0-.45.45v.36a.45.45,0,0,0,.45.45h8.67a1.23,1.23,0,0,1,.07.42h-6.12a.45.45,0,0,0-.45.45V231a.45.45,0,0,0,.45.45h5.88c-.17.24-.33.48-.48.73h-3.46a.46.46,0,0,0-.46.45V233a.46.46,0,0,0,.46.45h2.82a12.86,12.86,0,0,0-1,4.43h-3.95a.45.45,0,0,0-.45.45v.36a.45.45,0,0,0,.45.45h4c0,.21,0,.42.05.63h-1.88a.46.46,0,0,0-.46.45v.36a.46.46,0,0,0,.46.45h1.71a1.59,1.59,0,0,1-.07.9h-5.33a.45.45,0,0,0-.45.45v.36a.45.45,0,0,0,.45.45h6.66a3.1,3.1,0,0,0,.7.77,3.51,3.51,0,0,0,.74.43c6.68-1.47,3.24-13.19,12.8-16C409.67,226,405.67,226.29,402.37,228.51Z"/><text class="cls-6" transform="translate(401.46 242.01)">5</text><rect x="346.2" y="284.81" width="2.24" height="1.26" rx="0.51"/><rect x="347.6" y="294.38" width="3.08" height="1.26" rx="0.51"/><path d="M370.66,283.83c-10.26,2.54-6.45,13.42-12.42,15.55a11.88,11.88,0,0,0,10.68-3.82C372.17,291.75,372.51,286.66,370.66,283.83Z"/><path d="M359.59,283.13H348a.45.45,0,0,0-.45.45v.36a.45.45,0,0,0,.45.45h8.67a1.23,1.23,0,0,1,.07.42h-6.12a.45.45,0,0,0-.45.45v.36a.45.45,0,0,0,.45.45h5.88c-.17.24-.33.48-.48.73h-3.46a.46.46,0,0,0-.46.45v.36a.46.46,0,0,0,.46.45h2.82a12.86,12.86,0,0,0-1,4.43h-3.95a.45.45,0,0,0-.45.45v.36a.45.45,0,0,0,.45.45h4c0,.21,0,.42,0,.63h-1.88a.46.46,0,0,0-.46.45v.36a.46.46,0,0,0,.46.45h1.71a1.59,1.59,0,0,1-.07.9h-5.33a.45.45,0,0,0-.45.45v.36a.45.45,0,0,0,.45.45h6.66a3.1,3.1,0,0,0,.7.77,3.51,3.51,0,0,0,.74.43c6.68-1.47,3.24-13.19,12.8-16.05C366.89,280.58,362.89,280.91,359.59,283.13Z"/><text class="cls-6" transform="translate(358.68 296.63)">4</text><rect x="170.31" y="321.53" width="2.24" height="1.26" rx="0.51"/><rect x="171.71" y="331.1" width="3.08" height="1.26" rx="0.51"/><path d="M194.77,320.55c-10.27,2.54-6.46,13.42-12.42,15.55A11.86,11.86,0,0,0,193,332.28C196.28,328.46,196.62,323.38,194.77,320.55Z"/><path d="M183.7,319.85H172.13a.46.46,0,0,0-.46.45v.35a.47.47,0,0,0,.46.46h8.67a1.2,1.2,0,0,1,.07.42h-6.12a.45.45,0,0,0-.45.45v.35a.46.46,0,0,0,.45.46h5.88c-.17.23-.33.48-.48.73h-3.47a.45.45,0,0,0-.45.45v.35a.46.46,0,0,0,.45.46h2.83a12.37,12.37,0,0,0-1,4.43h-3.95a.45.45,0,0,0-.45.45V330a.46.46,0,0,0,.45.46h4c0,.21,0,.42,0,.63h-1.89a.45.45,0,0,0-.45.45v.35a.46.46,0,0,0,.45.46h1.72a1.59,1.59,0,0,1-.07.9H173a.45.45,0,0,0-.45.45v.35a.46.46,0,0,0,.45.46h6.66a3.08,3.08,0,0,0,.7.77,4,4,0,0,0,.74.43c6.67-1.47,3.24-13.19,12.8-16.06C191,317.3,187,317.62,183.7,319.85Z"/><text class="cls-6" transform="translate(182.79 333.35)">3</text><rect x="29.88" y="266.71" width="2.24" height="1.26" rx="0.51"/><rect x="31.28" y="276.28" width="3.08" height="1.26" rx="0.51"/><path d="M54.34,265.73c-10.27,2.54-6.46,13.42-12.42,15.55a11.86,11.86,0,0,0,10.67-3.82C55.85,273.65,56.19,268.56,54.34,265.73Z"/><path d="M43.27,265H31.7a.46.46,0,0,0-.46.45v.36a.46.46,0,0,0,.46.45h8.67a1.23,1.23,0,0,1,.07.42H34.32a.45.45,0,0,0-.45.45v.36a.45.45,0,0,0,.45.45H40.2c-.17.24-.33.48-.48.73H36.25a.45.45,0,0,0-.45.45v.36a.45.45,0,0,0,.45.45h2.83a12.42,12.42,0,0,0-1,4.43H34.13a.45.45,0,0,0-.45.45v.36a.45.45,0,0,0,.45.45h4c0,.21,0,.42,0,.63H36.25a.45.45,0,0,0-.45.45v.36a.45.45,0,0,0,.45.45H38a1.52,1.52,0,0,1-.08.9H32.57a.45.45,0,0,0-.45.45v.36a.45.45,0,0,0,.45.45h6.66a2.92,2.92,0,0,0,.7.77,3.7,3.7,0,0,0,.73.43c6.68-1.47,3.25-13.19,12.81-16C50.57,262.48,46.57,262.81,43.27,265Z"/><text class="cls-6" transform="translate(42.36 278.53)">1</text><ellipse class="cls-7" cx="396.42" cy="417.87" rx="5.14" ry="4.8"/><polyline class="cls-8" points="395.5 415.46 395.5 417.86 398.55 417.86 399.6 419.81 400.4 419.43"/><path class="cls-8" d="M394.71,417.4s-1.95,1.71-.18,3.08c2.19,1.71,3.48-1.43,3.48-1.43"/><line class="cls-8" x1="395.5" y1="417.11" x2="397.35" y2="417.11"/><ellipse class="cls-8" cx="395.64" cy="414.71" rx="0.78" ry="0.73"/><ellipse class="cls-7" cx="408.2" cy="394.92" rx="5.14" ry="4.8"/><polyline class="cls-8" points="407.28 392.51 407.28 394.91 410.34 394.91 411.38 396.86 412.19 396.49"/><path class="cls-8" d="M406.5,394.45s-1.95,1.71-.18,3.09c2.19,1.7,3.48-1.44,3.48-1.44"/><line class="cls-8" x1="407.28" y1="394.16" x2="409.13" y2="394.16"/><ellipse class="cls-8" cx="407.42" cy="391.77" rx="0.78" ry="0.73"/><ellipse class="cls-7" cx="400.4" cy="368.6" rx="5.14" ry="4.8"/><polyline class="cls-8" points="399.48 366.19 399.48 368.59 402.54 368.59 403.58 370.54 404.39 370.17"/><path class="cls-8" d="M398.7,368.13s-1.95,1.71-.18,3.09c2.19,1.7,3.48-1.44,3.48-1.44"/><line class="cls-8" x1="399.48" y1="367.84" x2="401.33" y2="367.84"/><ellipse class="cls-8" cx="399.62" cy="365.45" rx="0.78" ry="0.73"/><ellipse class="cls-7" cx="442.58" cy="350.91" rx="5.14" ry="4.8"/><polyline class="cls-8" points="441.66 348.5 441.66 350.9 444.72 350.9 445.76 352.85 446.57 352.48"/><path class="cls-8" d="M440.88,350.44s-1.95,1.71-.18,3.09c2.19,1.7,3.48-1.44,3.48-1.44"/><line class="cls-8" x1="441.66" y1="350.15" x2="443.51" y2="350.15"/><ellipse class="cls-8" cx="441.8" cy="347.76" rx="0.78" ry="0.73"/><ellipse class="cls-7" cx="466.24" cy="358.83" rx="5.14" ry="4.8"/><polyline class="cls-8" points="465.32 356.42 465.32 358.82 468.37 358.82 469.42 360.77 470.22 360.4"/><path class="cls-8" d="M464.53,358.36s-1.95,1.71-.18,3.09c2.19,1.7,3.48-1.44,3.48-1.44"/><line class="cls-8" x1="465.32" y1="358.07" x2="467.17" y2="358.07"/><ellipse class="cls-8" cx="465.46" cy="355.68" rx="0.78" ry="0.73"/><ellipse class="cls-7" cx="442.58" cy="329.49" rx="5.14" ry="4.8"/><polyline class="cls-8" points="441.66 327.08 441.66 329.48 444.72 329.48 445.76 331.43 446.57 331.06"/><path class="cls-8" d="M440.88,329s-1.95,1.71-.18,3.09c2.19,1.7,3.48-1.44,3.48-1.44"/><line class="cls-8" x1="441.66" y1="328.73" x2="443.51" y2="328.73"/><ellipse class="cls-8" cx="441.8" cy="326.34" rx="0.78" ry="0.73"/><ellipse class="cls-7" cx="388.69" cy="332.57" rx="5.14" ry="4.8"/><polyline class="cls-8" points="387.77 330.16 387.77 332.56 390.82 332.56 391.87 334.51 392.67 334.13"/><path class="cls-8" d="M387,332.1s-2,1.71-.18,3.08c2.19,1.71,3.48-1.43,3.48-1.43"/><line class="cls-8" x1="387.77" y1="331.81" x2="389.62" y2="331.81"/><ellipse class="cls-8" cx="387.91" cy="329.41" rx="0.78" ry="0.73"/><ellipse class="cls-7" cx="553.2" cy="322.79" rx="5.14" ry="4.8"/><polyline class="cls-8" points="552.28 320.38 552.28 322.78 555.33 322.78 556.38 324.73 557.18 324.35"/><path class="cls-8" d="M551.49,322.32s-2,1.71-.18,3.08c2.19,1.7,3.48-1.44,3.48-1.44"/><line class="cls-8" x1="552.28" y1="322.03" x2="554.13" y2="322.03"/><ellipse class="cls-8" cx="552.42" cy="319.63" rx="0.78" ry="0.73"/><ellipse class="cls-7" cx="623.67" cy="318.38" rx="5.14" ry="4.8"/><polyline class="cls-8" points="622.75 315.97 622.75 318.37 625.81 318.37 626.86 320.32 627.66 319.95"/><path class="cls-8" d="M622,317.91s-2,1.71-.18,3.09c2.19,1.7,3.48-1.44,3.48-1.44"/><line class="cls-8" x1="622.75" y1="317.62" x2="624.6" y2="317.62"/><ellipse class="cls-8" cx="622.89" cy="315.22" rx="0.78" ry="0.73"/><ellipse class="cls-7" cx="575.6" cy="344.38" rx="5.14" ry="4.8"/><polyline class="cls-8" points="574.68 341.97 574.68 344.37 577.74 344.37 578.78 346.32 579.59 345.94"/><path class="cls-8" d="M573.9,343.91s-1.95,1.71-.18,3.08c2.19,1.71,3.48-1.43,3.48-1.43"/><line class="cls-8" x1="574.68" y1="343.62" x2="576.53" y2="343.62"/><ellipse class="cls-8" cx="574.82" cy="341.22" rx="0.78" ry="0.73"/><ellipse class="cls-7" cx="348.44" cy="410.53" rx="5.14" ry="4.8"/><polyline class="cls-8" points="347.52 408.12 347.52 410.52 350.58 410.52 351.62 412.47 352.43 412.09"/><path class="cls-8" d="M346.73,410.06s-1.94,1.71-.17,3.08c2.19,1.71,3.47-1.43,3.47-1.43"/><line class="cls-8" x1="347.52" y1="409.77" x2="349.37" y2="409.77"/><ellipse class="cls-8" cx="347.66" cy="407.37" rx="0.78" ry="0.73"/><ellipse class="cls-7" cx="319.54" cy="402.83" rx="5.14" ry="4.8"/><polyline class="cls-8" points="318.62 400.42 318.62 402.82 321.67 402.82 322.72 404.77 323.52 404.4"/><path class="cls-8" d="M317.83,402.36s-1.95,1.71-.18,3.09c2.19,1.7,3.48-1.44,3.48-1.44"/><line class="cls-8" x1="318.62" y1="402.07" x2="320.47" y2="402.07"/><ellipse class="cls-8" cx="318.76" cy="399.68" rx="0.78" ry="0.73"/><ellipse class="cls-7" cx="237.18" cy="375.34" rx="5.14" ry="4.8"/><polyline class="cls-8" points="236.26 372.93 236.26 375.33 239.32 375.33 240.37 377.28 241.17 376.91"/><path class="cls-8" d="M235.48,374.87s-1.95,1.71-.18,3.09c2.19,1.7,3.48-1.44,3.48-1.44"/><line class="cls-8" x1="236.26" y1="374.58" x2="238.11" y2="374.58"/><ellipse class="cls-8" cx="236.41" cy="372.18" rx="0.78" ry="0.73"/><ellipse class="cls-7" cx="207.93" cy="392.65" rx="5.14" ry="4.8"/><polyline class="cls-8" points="207.01 390.24 207.01 392.64 210.07 392.64 211.11 394.59 211.92 394.21"/><path class="cls-8" d="M206.23,392.18s-1.95,1.71-.18,3.08c2.19,1.71,3.47-1.44,3.47-1.44"/><line class="cls-8" x1="207.01" y1="391.89" x2="208.86" y2="391.89"/><ellipse class="cls-8" cx="207.15" cy="389.49" rx="0.78" ry="0.73"/><ellipse class="cls-7" cx="182.34" cy="366.18" rx="5.14" ry="4.8"/><polyline class="cls-8" points="181.42 363.77 181.42 366.17 184.48 366.17 185.52 368.12 186.33 367.74"/><path class="cls-8" d="M180.64,365.71s-1.95,1.71-.18,3.08c2.19,1.71,3.47-1.43,3.47-1.43"/><line class="cls-8" x1="181.42" y1="365.42" x2="183.27" y2="365.42"/><ellipse class="cls-8" cx="181.56" cy="363.02" rx="0.78" ry="0.73"/><ellipse class="cls-7" cx="44.99" cy="346.53" rx="5.14" ry="4.8"/><polyline class="cls-8" points="44.07 344.12 44.07 346.52 47.13 346.52 48.17 348.47 48.97 348.09"/><path class="cls-8" d="M43.28,346.06s-1.94,1.71-.18,3.08c2.19,1.71,3.48-1.43,3.48-1.43"/><line class="cls-8" x1="44.07" y1="345.77" x2="45.92" y2="345.77"/><ellipse class="cls-8" cx="44.21" cy="343.37" rx="0.78" ry="0.73"/><ellipse class="cls-7" cx="49.25" cy="223.41" rx="5.14" ry="4.8"/><polyline class="cls-8" points="48.33 221 48.33 223.4 51.39 223.4 52.44 225.35 53.24 224.98"/><path class="cls-8" d="M47.55,222.94s-1.95,1.71-.18,3.09c2.19,1.7,3.48-1.44,3.48-1.44"/><line class="cls-8" x1="48.33" y1="222.65" x2="50.18" y2="222.65"/><ellipse class="cls-8" cx="48.48" cy="220.26" rx="0.78" ry="0.73"/><ellipse class="cls-7" cx="189.3" cy="237.07" rx="5.14" ry="4.8"/><polyline class="cls-8" points="188.38 234.66 188.38 237.06 191.44 237.06 192.48 239.01 193.28 238.63"/><path class="cls-8" d="M187.59,236.6s-1.94,1.71-.17,3.08c2.19,1.71,3.47-1.44,3.47-1.44"/><line class="cls-8" x1="188.38" y1="236.31" x2="190.23" y2="236.31"/><ellipse class="cls-8" cx="188.52" cy="233.91" rx="0.78" ry="0.73"/><ellipse class="cls-7" cx="352.42" cy="209.47" rx="5.14" ry="4.8"/><polyline class="cls-8" points="351.5 207.06 351.5 209.46 354.56 209.46 355.61 211.41 356.41 211.04"/><path class="cls-8" d="M350.72,209s-2,1.71-.18,3.09c2.19,1.7,3.48-1.44,3.48-1.44"/><line class="cls-8" x1="351.5" y1="208.71" x2="353.35" y2="208.71"/><ellipse class="cls-8" cx="351.65" cy="206.32" rx="0.78" ry="0.73"/><ellipse class="cls-7" cx="400.41" cy="204.67" rx="5.14" ry="4.8"/><polyline class="cls-8" points="399.49 202.27 399.49 204.67 402.54 204.67 403.59 206.62 404.39 206.24"/><path class="cls-8" d="M398.7,204.21s-1.95,1.7-.18,3.08c2.19,1.7,3.48-1.44,3.48-1.44"/><line class="cls-8" x1="399.49" y1="203.92" x2="401.34" y2="203.92"/><ellipse class="cls-8" cx="399.63" cy="201.52" rx="0.78" ry="0.73"/><ellipse class="cls-7" cx="450.79" cy="168.89" rx="5.14" ry="4.8"/><polyline class="cls-8" points="449.87 166.48 449.87 168.88 452.93 168.88 453.97 170.83 454.78 170.45"/><path class="cls-8" d="M449.09,168.42s-1.95,1.71-.18,3.08c2.19,1.71,3.48-1.44,3.48-1.44"/><line class="cls-8" x1="449.87" y1="168.13" x2="451.72" y2="168.13"/><ellipse class="cls-8" cx="450.01" cy="165.73" rx="0.78" ry="0.73"/><ellipse class="cls-7" cx="499.21" cy="77.96" rx="5.14" ry="4.8"/><polyline class="cls-8" points="498.29 75.56 498.29 77.96 501.35 77.96 502.39 79.91 503.2 79.53"/><path class="cls-8" d="M497.51,77.5s-1.95,1.71-.18,3.08c2.19,1.7,3.47-1.44,3.47-1.44"/><line class="cls-8" x1="498.29" y1="77.21" x2="500.14" y2="77.21"/><ellipse class="cls-8" cx="498.43" cy="74.81" rx="0.78" ry="0.73"/><path d="M402.84,389.23c-8.87,2.19-5.58,11.58-10.73,13.42a10.25,10.25,0,0,0,9.22-3.3C404.14,396.06,404.44,391.67,402.84,389.23Z"/><path d="M393.28,388.62h-10a.38.38,0,0,0-.39.39v.31a.39.39,0,0,0,.39.39h7.48a.92.92,0,0,1,.07.36h-5.29a.39.39,0,0,0-.39.39v.31a.4.4,0,0,0,.39.39h5.08a6.81,6.81,0,0,0-.41.63h-3a.39.39,0,0,0-.39.39v.31a.4.4,0,0,0,.39.39h2.44a10.73,10.73,0,0,0-.86,3.82h-3.41a.39.39,0,0,0-.39.39v.31a.39.39,0,0,0,.39.39h3.42c0,.18,0,.36,0,.54h-1.63a.4.4,0,0,0-.39.39V399a.4.4,0,0,0,.39.39h1.49a1.36,1.36,0,0,1-.07.78H384a.39.39,0,0,0-.39.39v.3a.39.39,0,0,0,.39.39h5.75a2.65,2.65,0,0,0,.61.67,3.17,3.17,0,0,0,.63.37c5.77-1.27,2.8-11.38,11.06-13.86C399.58,386.42,396.13,386.7,393.28,388.62Z"/><text class="cls-9" transform="translate(391.43 400.25)">6</text><circle class="cls-10" cx="387.12" cy="341.73" r="6.4"/><line class="cls-11" x1="381" y1="338.82" x2="379.01" y2="338.66"/><line class="cls-12" x1="374.78" y1="338.34" x2="326.16" y2="334.59"/><polyline class="cls-11" points="324.05 334.43 322.05 334.27 322.12 332.27"/><line class="cls-13" x1="322.25" y1="328.41" x2="324.03" y2="276.26"/><polyline class="cls-11" points="324.09 274.33 324.16 272.33 322.16 272.33"/><line class="cls-14" x1="318.31" y1="272.33" x2="227.76" y2="272.33"/><polyline class="cls-11" points="225.84 272.33 223.84 272.33 223.84 270.33"/><line class="cls-15" x1="223.84" y1="266.86" x2="223.84" y2="247.81"/><polyline class="cls-11" points="223.84 246.08 223.84 244.08 221.87 243.7"/><line class="cls-16" x1="219.59" y1="243.26" x2="216.18" y2="242.61"/><line class="cls-11" x1="215.04" y1="242.39" x2="213.08" y2="242.01"/><rect class="cls-17" x="195.89" y="233.83" width="2.24" height="1.26" rx="0.51"/><rect class="cls-17" x="197.3" y="243.4" width="3.08" height="1.26" rx="0.51"/><path d="M220.35,232.85c-10.26,2.54-6.45,13.42-12.42,15.55a11.87,11.87,0,0,0,10.68-3.82C221.87,240.77,222.21,235.68,220.35,232.85Z"/><path d="M209.29,232.15H197.71a.45.45,0,0,0-.45.45V233a.45.45,0,0,0,.45.45h8.67a1.25,1.25,0,0,1,.08.42h-6.12a.45.45,0,0,0-.45.45v.36a.45.45,0,0,0,.45.45h5.88c-.17.24-.33.48-.48.73h-3.47a.45.45,0,0,0-.45.45v.36a.45.45,0,0,0,.45.45h2.82a12.62,12.62,0,0,0-1,4.43h-3.95a.46.46,0,0,0-.46.45v.36a.46.46,0,0,0,.46.45h4c0,.21,0,.42,0,.63h-1.89a.45.45,0,0,0-.45.45v.36a.45.45,0,0,0,.45.45H204a1.52,1.52,0,0,1-.08.9h-5.32a.45.45,0,0,0-.45.45v.36a.45.45,0,0,0,.45.45h6.65a3.3,3.3,0,0,0,.7.77,3.51,3.51,0,0,0,.74.43c6.68-1.47,3.24-13.19,12.81-16.05C216.58,229.6,212.59,229.93,209.29,232.15Z"/><text class="cls-6" transform="translate(208.37 245.65)">2</text></svg>