<svg xmlns="http://www.w3.org/2000/svg" id="Layer_1" viewBox="0 0 653.9 452.13" width="653.9" height="452.13"><defs><style>.cls-1,.cls-11,.cls-12,.cls-9{fill:none}.cls-1{stroke:#fff}.cls-1,.cls-11,.cls-12,.cls-2,.cls-3,.cls-9{stroke-miterlimit:10}.cls-2{fill:#d8e6ea}.cls-2,.cls-3{stroke:#515354;stroke-width:.75px}.cls-13,.cls-3,.cls-6{fill:#fff}.cls-4{font-size:15px;fill:#515354}.cls-13,.cls-4,.cls-6{font-family:MyriadPro-Regular,Myriad Pro}.cls-5{letter-spacing:0}.cls-6{font-size:18.57px}.cls-7{fill:#150c0a}.cls-8{fill:#2668ad}.cls-9{stroke:#fdfefe;stroke-width:.44px}.cls-10{fill:#f05455}.cls-11,.cls-12{stroke:#f05455}.cls-12{stroke-dasharray:3.9 3.9}.cls-13{font-size:17.81px}</style></defs><path d="M34.47 207.76L23.72 344.6l14.33 1.27v-3.48l8.74 1.58v3.16h11.06l3.16-27.49 2.85.63 4.42-20.54 54.04 5.05 2.85-.31v-4.43l-57.2-5.28 5.58-64.2-4.21-29.51-34.87 6.71zm2.75 72.98v-73.51" class="cls-1"/><path d="M31.19 298.63l-.77 5.99h3.23v-5.22l-2.46-.77z" class="cls-1"/><path d="M27.42 297.46l13.9 1.1v2.14l-7.67-.3m-6.87 5.22l10.44-1.23v2.15h7.33l-.92 7.37h4.29l-1.07 17.96 12.57 1.67" class="cls-1"/><path d="M572.82 105.38l4.72-31.94-49.94-1.28-1.72 6 3.43.43-.64 7.5-2.79.43v14.15h-5.36v63.22l-74.8-2.78 1.71-65h2.15l.21-28.72s-1.71-2.78-.64-4.71 5.57 0 5.57 0l1.5-2.57 30.44 1.71v-3.38l96.45 1.93v5.14l9.64.43-6 38.58-7.07-.85-1.07 2.33z" class="cls-2"/><path d="M513.37 79.79l-14.15-1.29v-4.07l-16.73-1.29-1.93 4.5-16.94-1.17v19.19h-3.43v54.03l45.24 1.5 2.15-39.02 4.5-1.07 1.29-31.31z" class="cls-3"/><path d="M532.74 130.22v20.08l30.63.89v-20.46l-30.63-.51zm-129.81-.32v31.68l13.67-.26v-2.59l16.81.37v-29.2h-10.9l-.55-3.14h-2.22l-.18 3.33h-4.25v-3.33h-2.78l-.18 3.33-9.42-.19zm-16.73 56.87s20.19 17.24 41.62 26.85l-13.79 30 16.25 38.67h-3.94l1 19.21h-34v6.5H383v-18.77l3.7.89-.49-23.79-7.89 3.45v2.71l-6.4-.25v45H324.4l-.4 15h-2.58v-18.16h-4.5v-9.93h4.23v-20.5h-4.23v-9.74h4v-2.76H302.4V269h15.8v-4.32h3.31V229l3.22-2.29-.18-7.17h3.77s11-13.05 26.19-13.33l13 7.26v6.07h3.59v10h2.29v23.53h2.49v5.24l7.53-3.68v-2.39h3.22z" class="cls-2"/><path d="M293.44 241.02v-25.95H277.1v23.42h6.23v3.03h-10.87v27.8h-5.22v-16.34h1.09v-1.52h-1.09v-2.78h1.52v-2.61h-2.03v-7.33h1.94v-7.66h-1.94v-5.31h2.36v-7.67h-1.94v-12.72h28.06v-25.27h-58.04v40.61h-4.8v-5.65h-10.11v-4.63h9.68v-31.25H209.2v31.08h10.11v4.63H209.2v5.73h-4.8v-38.32h-17.18v30.99h-21.15v53.44h11.04v33.43h25.83v2.3h3.87v1.14h1.18V299h-1.74v-6.51h-2.3v-5.86h45.8v8.02h-1.84v4.06h1.16v3.38h-2.22v31.11h2.71v10.63h-30.25v-11.31h-15.62l-.22-25.58h9.84V304h-38.59v-9.96h-3.96v-3.53h-22.98v-4.28H125.6v16.41h5.77v12.56h11.88l-2.37 3.28 2.6 3.17 2.38-3.17v12.45h12.22l-2.6 2.95 2.6 1.92 2.83-2.38v12.34h12.45l-2.15 2.83 2.04 2.26 3.28-2.04v12.12h11.77v3.62h4.64v-3.4h3.28v3.4h16.53v-6.23h36.89v13.81h29.77v-28.86h-9.73v-4.64h83.35l1.8 6.92 3.31-.15h23.45v21.95h17.89v10.22h3.91v-9.92l7.97-3.46v-34.72l-7.52-2.56h-50.06l.15 7.37h-89.59v-1.81h31.86v-29.61h-27.72v-3.61h14.65v-13.68h6.16v-12.93h12.78v-31.42l-8.63-.2zm-123 165.36l-3.69 7.01 8.98 4.92-1.97 3.56-15.25-7.75-3.69 7.75 11.93 6.4-1.48 3.57h-2.21l-4.55 9.1 21.03 11.19 5.29-9.47-9.72-5.29 1.85-3.56 14.88 7.01 4.06-7.14-9.84-5.29 1.97-3.93 1.6.73 3.81-6.76-23-12.05z" class="cls-2"/><path d="M225.71 398.11l-17.59-10.34s-8.59-6.18-3.76-14.91 40.42-4.3 40.42-4.3v15.58L241 384l-.26-1.24h-15.56l-.41 10.1h1.35zm96.34-64.22v4.75h-1.32v6.19h1.32v55.77h6.33v1.85h4.75v-1.19h8.83v-61.83l-8.17-5.54h-11.74zm27.69 44.43v37.44h64.6v-37.97h-45.22v-1.84h-7.52v-2.64l-11.86 1.58-7.78-.13v3.43l7.78.13zm61.43-43.37v3.87h37.31v13.74h50.83l2 3.14h5.24v-2.94h4.82v1.37h30.92v2.83h33.33v-12.79h18.76v4.82h6.6v2.73h14.26v2.3h45.17v-12.58h-20.12v-26.09h-38.57v2.72h-7.13v23.48h-16.77v-19.81H538.3v2.31h-24.84v6.5h-1.78v2.83h-5.03v-2.42h-6.39v3.25h-44.02v-2.2h-7.44v3.25l-37.63-.31zM513 75.62V73s-4.12-2.06-1.55-6c0 0 1.89-2.06 3.61-1.2v-7.36m-4.42 44.66h8.92m-59.78 44.32h-6.35l-1.89-2.75h-6.02m-256.55 90.8h3.77v19.49h-16.39v12.62m26.57 18.38v-65.99m32.9 3.06h-32.9m28.18 7.07h-17.62v-7.07 11.01h-7.23v12.27h6.76m59.77.78h8.81v6.68h-8.81zm-8.18 26.9h8.18v7.71h-8.18zm24.54-2.04v-30.83h3.62m-10.23 44.04h-15.25v21.71h-2.68v2.51h16.99v-2.04h2.2v-5.98m-29.25.16v-15.58h-5.04m32.09 51.6v-3.46m-29.57 2.83H258v8.18h-5.98zm16.67 5.66h-10.06m-10.07 14.16v-14.16h3.46m-51.91 6.29h4.25v1.89h-4.25z" class="cls-2"/><path d="M195.39 360.03V347.6h-1.57v-3.61h8.42v-12.12m-10.15-14.31h6.92v-11.95h-11.8v1.57h-4.24v6.13h4.56l4.56 4.25z" class="cls-2"/><path d="M191.78 320.86l.31-3.3-4.56-4.25h-20.29v5.04l19.19 18.56h3.77v-16.52l1.58.47z" class="cls-2"/><path d="M174.16 302.77v3.47h-15.89l-1.57 1.57v7.08l3.77 4.56 6.77-1.1 4.95 4.79-.86 3.54 6.6 6.61h4.76l3.74 3.62v8.18l3.93 3.77 3.46-1.26 1.1 3.15h-4.88l-.12-1.89m4.57 7.87h-8m2.81 0h2.79v7.58h-2.79z" class="cls-2"/><path d="M172.6 350.75l-2.53-2.73 2.53-2.07v-9.04h6.17l4.2 4.8v6.31l-7.59-.48-2.78 3.21zm-14.55-14.72l-2.52-2.72 2.52-2.08v-9.04h6.18l4.19 4.8v6.32l-7.58-.49-2.79 3.21zm-15.11-14.59l-2.52-2.73 2.52-2.07v-9.04h6.18l4.2 4.8v6.31l-7.59-.48-2.79 3.21zm25.48-19.22v-8.78h5.38l.36 12.8h-5.74v-1.69l-2.11-.26v-2.33l2.11.26zm-6.45-3.23v-7.49h-7.92v8.34l7.92-.85zm-22.25-3.32v-8.17h-8.4v8.78l8.4-.61zm-14.59 3.58h6.2v3.52h-6.2zm49.32 118.22l11.94 6.66m-10.56 8.6l-11.13-5.5m8.95 9.29l-10.67-5.16m174.9-154.89v9.58h10.41v-10.24l-10.41.66zm-13.72-49.07v23.04h28.75v15.95h6.61v-17.02h4.63v-30.24h-7.44v-9.91h-7.76v9.09h-4.8v3.8h-7.6v4.79l-12.39.5zm5.29 113.68s-8.59-.17-5.78 14.21 5.78 12.89 5.78 12.89 7.27 1.2 7.43-13.53-7.43-13.57-7.43-13.57zM381 327.36v11.07h20.66v-6.28l1.11 1.12v-5.91m6.82 7.44v2.15m-57.5-2.15v2.15m11.07 41.14h5.12v5.12h-5.12zm15.03 1.16v22.8h17.02v8.1h3.97v-27.76h-3.64v-3.14h-17.35zm68.74-44.45v3.63m62.79-1.48l-4.96-.33v8.09h-2.14v8.26h7.93l-.83-16.02zm.83-3.31v4.79m30.73-2.39v19.58h33.54v-14.05h-9.25v-6.77l-24.29 1.24z" class="cls-2"/><text class="cls-4" transform="translate(540.88 70.16)">R</text><text class="cls-4" transform="translate(462.82 73.16)">R</text><text class="cls-4" transform="translate(479.92 161.54)">R</text><text class="cls-4" transform="translate(542.11 146.27)">G</text><text class="cls-4" transform="translate(412.54 151.72)">F</text><text class="cls-4" transform="translate(393.35 256.62)">E</text><text class="cls-4" transform="translate(335.89 245.35)">H</text><text class="cls-4" transform="translate(331.52 305)">D</text><text class="cls-4" transform="translate(243.87 245.35)">A</text><text class="cls-4" transform="translate(258.23 365.01)">C</text><text class="cls-4" transform="translate(137.89 305)">B</text><text class="cls-4" transform="translate(211.45 383.38)">K</text><text class="cls-4" transform="translate(170.26 433.03)">M</text><text class="cls-4" transform="translate(327.25 359.56)">J</text><text class="cls-4" transform="translate(361.71 405.38)">T</text><text class="cls-4" transform="translate(517.38 345.73)">P</text><text class="cls-4" transform="translate(382.92 359.55)">N</text><text class="cls-4" transform="translate(608.67 341.01)">S</text><path d="M40.62 205.62L29.88 342.46l14.33 1.26v-3.47l8.74 1.58v3.16h11.06l3.16-27.5 2.84.63 4.43-20.54 54.04 5.06 2.84-.32v-4.42l-57.2-5.28 5.59-64.21-4.22-29.51-34.87 6.72zm2.75 72.98v-73.51" class="cls-2"/><path d="M37.35 296.49l-.77 5.98h3.22v-5.22l-2.45-.76z" class="cls-2"/><path d="M33.58 295.32l13.9 1.09v2.15l-7.68-.31m-6.86 5.22l10.43-1.22v2.14h7.33l-.92 7.37h4.3l-1.07 17.96 12.56 1.67" class="cls-2"/><text class="cls-4" transform="translate(49.25 266.55)"><tspan class="cls-5">C</tspan><tspan x="8.76" y="0">A</tspan></text><rect width="2.24" height="1.26" x="487.17" y="149.52" rx=".51"/><rect width="3.08" height="1.26" x="488.58" y="159.09" rx=".51"/><path d="M511.63 148.54c-10.26 2.54-6.45 13.42-12.42 15.55a11.87 11.87 0 0 0 10.68-3.82c3.26-3.81 3.6-8.9 1.74-11.73z"/><path d="M500.57 147.84H489a.45.45 0 0 0-.45.45v.36a.45.45 0 0 0 .45.45h8.67a1.56 1.56 0 0 1 .08.42h-6.12a.46.46 0 0 0-.46.45v.36a.46.46 0 0 0 .46.45h5.88c-.17.24-.33.48-.48.73h-3.47a.45.45 0 0 0-.45.45v.36a.45.45 0 0 0 .45.45h2.82a12.62 12.62 0 0 0-1 4.43h-3.95a.46.46 0 0 0-.46.45v.35a.46.46 0 0 0 .46.45h4c0 .21 0 .42.05.63h-1.89a.45.45 0 0 0-.45.45v.36a.45.45 0 0 0 .45.45h1.72a1.52 1.52 0 0 1-.08.9h-5.32a.46.46 0 0 0-.46.45v.36a.46.46 0 0 0 .46.45h6.65a3.1 3.1 0 0 0 .7.77 3.51 3.51 0 0 0 .74.43c6.68-1.47 3.24-13.19 12.81-16.05-2.95-2.36-6.95-2.03-10.24.19z"/><text class="cls-6" transform="translate(499.65 161.34)">7</text><rect width="2.24" height="1.26" x="388.98" y="229.81" rx=".51"/><rect width="3.08" height="1.26" x="390.38" y="239.38" rx=".51"/><path d="M413.44 228.83c-10.26 2.54-6.45 13.42-12.42 15.55a11.88 11.88 0 0 0 10.68-3.82c3.3-3.82 3.59-8.9 1.74-11.73z"/><path d="M402.37 228.13H390.8a.45.45 0 0 0-.45.45v.35a.46.46 0 0 0 .45.46h8.67a1.2 1.2 0 0 1 .07.42h-6.12a.45.45 0 0 0-.45.45v.35a.46.46 0 0 0 .45.46h5.88c-.17.23-.33.48-.48.73h-3.46a.46.46 0 0 0-.46.45v.35a.47.47 0 0 0 .46.46h2.82a12.81 12.81 0 0 0-1 4.43h-3.95a.45.45 0 0 0-.45.45v.35a.46.46 0 0 0 .45.46h4c0 .21 0 .42.05.63h-1.88a.46.46 0 0 0-.46.45v.35a.47.47 0 0 0 .46.46h1.71a1.59 1.59 0 0 1-.07.9h-5.33a.45.45 0 0 0-.45.45v.35a.46.46 0 0 0 .45.46h6.66a3.29 3.29 0 0 0 .7.77 4 4 0 0 0 .74.43c6.68-1.47 3.24-13.19 12.8-16.06-2.94-2.36-6.94-2.04-10.24.19z"/><text class="cls-6" transform="translate(401.46 241.63)">5</text><rect width="2.24" height="1.26" x="346.2" y="284.43" rx=".51"/><rect width="3.08" height="1.26" x="347.6" y="294" rx=".51"/><path d="M370.66 283.45c-10.26 2.55-6.45 13.42-12.42 15.55a11.88 11.88 0 0 0 10.68-3.82c3.25-3.82 3.59-8.9 1.74-11.73z"/><path d="M359.59 282.75H348a.45.45 0 0 0-.45.45v.36a.45.45 0 0 0 .45.45h8.67a1.2 1.2 0 0 1 .07.42h-6.12a.45.45 0 0 0-.45.45v.35a.46.46 0 0 0 .45.46h5.88c-.17.23-.33.48-.48.73h-3.46a.46.46 0 0 0-.46.45v.36a.46.46 0 0 0 .46.45h2.82a12.81 12.81 0 0 0-1 4.43h-3.95a.45.45 0 0 0-.45.45v.36a.45.45 0 0 0 .45.45h4v.63h-1.88a.46.46 0 0 0-.46.45v.36a.46.46 0 0 0 .46.45h1.71a1.59 1.59 0 0 1-.07.9h-5.33a.45.45 0 0 0-.45.45v.39a.46.46 0 0 0 .45.46h6.66a3.29 3.29 0 0 0 .7.77 4 4 0 0 0 .74.43c6.68-1.47 3.24-13.19 12.8-16.06-2.87-2.4-6.87-2.08-10.17.15z"/><text class="cls-6" transform="translate(358.68 296.25)">4</text><rect width="2.24" height="1.26" x="195.89" y="233.45" class="cls-7" rx=".51"/><rect width="3.08" height="1.26" x="197.3" y="243.02" class="cls-7" rx=".51"/><path d="M220.35 232.47c-10.26 2.53-6.45 13.42-12.42 15.53a11.87 11.87 0 0 0 10.68-3.82c3.26-3.8 3.6-8.88 1.74-11.71z"/><path d="M209.29 231.77h-11.58a.45.45 0 0 0-.45.45v.35a.46.46 0 0 0 .45.46h8.67a1.2 1.2 0 0 1 .08.42h-6.12a.45.45 0 0 0-.45.45v.35a.46.46 0 0 0 .45.46h5.88c-.17.23-.33.48-.48.73h-3.47a.45.45 0 0 0-.45.45v.35a.46.46 0 0 0 .45.46h2.82a12.57 12.57 0 0 0-1 4.43h-3.95a.46.46 0 0 0-.46.45v.35a.47.47 0 0 0 .46.46h4v.63h-1.89a.45.45 0 0 0-.45.45v.35a.46.46 0 0 0 .45.46H204a1.52 1.52 0 0 1-.08.9h-5.32a.45.45 0 0 0-.45.45v.37a.46.46 0 0 0 .45.46h6.65a3.52 3.52 0 0 0 .7.77 4 4 0 0 0 .74.43c6.68-1.47 3.24-13.19 12.81-16.06-2.92-2.38-6.91-2.06-10.21.17z"/><text class="cls-6" transform="translate(208.37 245.27)">2</text><rect width="2.24" height="1.26" x="170.31" y="321.14" rx=".51"/><rect width="3.08" height="1.26" x="171.71" y="330.72" rx=".51"/><path d="M194.77 320.17c-10.27 2.53-6.46 13.41-12.42 15.54A11.87 11.87 0 0 0 193 331.9c3.28-3.82 3.62-8.9 1.77-11.73z"/><path d="M183.7 319.47h-11.57a.46.46 0 0 0-.46.45v.35a.46.46 0 0 0 .46.45h8.67a1.28 1.28 0 0 1 .07.42h-6.12a.46.46 0 0 0-.45.46v.4a.45.45 0 0 0 .45.45h5.88c-.17.24-.33.49-.48.74h-3.47a.45.45 0 0 0-.45.45v.35a.45.45 0 0 0 .45.45h2.83a12.42 12.42 0 0 0-1 4.44h-3.95a.45.45 0 0 0-.45.45v.35a.45.45 0 0 0 .45.45h4v.64h-1.89a.45.45 0 0 0-.45.45v.35a.45.45 0 0 0 .45.45h1.72a1.59 1.59 0 0 1-.07.9H173a.46.46 0 0 0-.45.46v.35a.45.45 0 0 0 .45.45h6.66a3.14 3.14 0 0 0 .7.78 3.49 3.49 0 0 0 .74.42c6.67-1.46 3.24-13.18 12.8-16.05-2.9-2.41-6.9-2.09-10.2.14z"/><text class="cls-6" transform="translate(182.79 332.96)">3</text><rect width="2.24" height="1.26" x="29.88" y="266.33" rx=".51"/><rect width="3.08" height="1.26" x="31.28" y="275.9" rx=".51"/><path d="M54.34 265.35c-10.27 2.54-6.46 13.42-12.42 15.55a11.86 11.86 0 0 0 10.67-3.82c3.26-3.81 3.6-8.9 1.75-11.73z"/><path d="M43.27 264.65H31.7a.46.46 0 0 0-.46.45v.36a.46.46 0 0 0 .46.45h8.67a1.2 1.2 0 0 1 .07.42h-6.12a.45.45 0 0 0-.45.45v.35a.46.46 0 0 0 .45.46h5.88c-.17.23-.33.48-.48.73h-3.47a.45.45 0 0 0-.45.45v.36a.45.45 0 0 0 .45.45h2.83a12.42 12.42 0 0 0-1 4.43h-3.95a.45.45 0 0 0-.45.45v.36a.45.45 0 0 0 .45.45h4v.63h-1.88a.45.45 0 0 0-.45.45v.36a.45.45 0 0 0 .45.45H38a1.52 1.52 0 0 1-.08.9h-5.35a.45.45 0 0 0-.45.45v.35a.46.46 0 0 0 .45.46h6.66a2.92 2.92 0 0 0 .7.77 4.26 4.26 0 0 0 .73.43c6.68-1.47 3.25-13.19 12.81-16.06-2.9-2.36-6.9-2.04-10.2.19z"/><text class="cls-6" transform="translate(42.36 278.15)">1</text><ellipse cx="396.42" cy="417.49" class="cls-8" rx="5.14" ry="4.8"/><path d="M395.5 415.08v2.4h3.05l1.05 1.95.8-.38" class="cls-9"/><path d="M394.71 417s-1.95 1.71-.18 3.08c2.19 1.71 3.48-1.44 3.48-1.44m-2.51-1.91h1.85" class="cls-9"/><ellipse cx="395.64" cy="414.33" class="cls-9" rx=".78" ry=".73"/><ellipse cx="408.2" cy="394.54" class="cls-8" rx="5.14" ry="4.8"/><path d="M407.28 392.13v2.4h3.06l1.04 1.95.81-.37" class="cls-9"/><path d="M406.5 394.07s-1.95 1.71-.18 3.08c2.19 1.71 3.48-1.43 3.48-1.43m-2.52-1.94h1.85" class="cls-9"/><ellipse cx="407.42" cy="391.38" class="cls-9" rx=".78" ry=".73"/><ellipse cx="400.4" cy="368.22" class="cls-8" rx="5.14" ry="4.8"/><path d="M399.48 365.81v2.4h3.06l1.04 1.95.81-.37" class="cls-9"/><path d="M398.7 367.75s-1.95 1.71-.18 3.09c2.19 1.7 3.48-1.44 3.48-1.44m-2.52-1.94h1.85" class="cls-9"/><ellipse cx="399.62" cy="365.07" class="cls-9" rx=".78" ry=".73"/><ellipse cx="442.58" cy="350.53" class="cls-8" rx="5.14" ry="4.8"/><path d="M441.66 348.12v2.4h3.06l1.04 1.95.81-.37" class="cls-9"/><path d="M440.88 350.06s-1.95 1.71-.18 3.09c2.19 1.7 3.48-1.44 3.48-1.44m-2.52-1.94h1.85" class="cls-9"/><ellipse cx="441.8" cy="347.38" class="cls-9" rx=".78" ry=".73"/><ellipse cx="466.24" cy="358.45" class="cls-8" rx="5.14" ry="4.8"/><path d="M465.32 356.04v2.4h3.05l1.05 1.95.8-.38" class="cls-9"/><path d="M464.53 358s-1.95 1.71-.18 3.08c2.19 1.71 3.48-1.43 3.48-1.43m-2.51-1.96h1.85" class="cls-9"/><ellipse cx="465.46" cy="355.29" class="cls-9" rx=".78" ry=".73"/><ellipse cx="442.58" cy="329.11" class="cls-8" rx="5.14" ry="4.8"/><path d="M441.66 326.7v2.4h3.06l1.04 1.95.81-.37" class="cls-9"/><path d="M440.88 328.64s-1.95 1.71-.18 3.09c2.19 1.7 3.48-1.44 3.48-1.44m-2.52-1.94h1.85" class="cls-9"/><ellipse cx="441.8" cy="325.96" class="cls-9" rx=".78" ry=".73"/><ellipse cx="388.69" cy="332.19" class="cls-8" rx="5.14" ry="4.8"/><path d="M387.77 329.78v2.4h3.05l1.05 1.95.8-.38" class="cls-9"/><path d="M387 331.72s-2 1.71-.18 3.08c2.19 1.71 3.48-1.44 3.48-1.44m-2.53-1.93h1.85" class="cls-9"/><ellipse cx="387.91" cy="329.03" class="cls-9" rx=".78" ry=".73"/><ellipse cx="553.2" cy="322.4" class="cls-8" rx="5.14" ry="4.8"/><path d="M552.28 320v2.4h3.05l1.05 1.95.8-.38" class="cls-9"/><path d="M551.49 321.94s-2 1.7-.18 3.08c2.19 1.7 3.48-1.44 3.48-1.44m-2.51-1.93h1.85" class="cls-9"/><ellipse cx="552.42" cy="319.25" class="cls-9" rx=".78" ry=".73"/><ellipse cx="623.67" cy="318" class="cls-8" rx="5.14" ry="4.8"/><path d="M622.75 315.59v2.4h3.06l1.05 1.95.8-.38" class="cls-9"/><path d="M622 317.53s-2 1.71-.18 3.08c2.19 1.71 3.48-1.44 3.48-1.44m-2.55-1.93h1.85" class="cls-9"/><ellipse cx="622.89" cy="314.84" class="cls-9" rx=".78" ry=".73"/><ellipse cx="575.6" cy="344" class="cls-8" rx="5.14" ry="4.8"/><path d="M574.68 341.59v2.4h3.06l1.04 1.95.81-.38" class="cls-9"/><path d="M573.9 343.53s-1.95 1.71-.18 3.08c2.19 1.71 3.48-1.44 3.48-1.44m-2.52-1.93h1.85" class="cls-9"/><ellipse cx="574.82" cy="340.84" class="cls-9" rx=".78" ry=".73"/><ellipse cx="348.44" cy="410.15" class="cls-8" rx="5.14" ry="4.8"/><path d="M347.52 407.74v2.4h3.06l1.04 1.95.81-.38" class="cls-9"/><path d="M346.73 409.68s-1.94 1.71-.17 3.08c2.19 1.71 3.47-1.44 3.47-1.44m-2.51-1.93h1.85" class="cls-9"/><ellipse cx="347.66" cy="406.99" class="cls-9" rx=".78" ry=".73"/><ellipse cx="319.54" cy="402.45" class="cls-8" rx="5.14" ry="4.8"/><path d="M318.62 400.04v2.4h3.05l1.05 1.95.8-.38" class="cls-9"/><path d="M317.83 402s-1.95 1.71-.18 3.08c2.19 1.71 3.48-1.43 3.48-1.43m-2.51-1.96h1.85" class="cls-9"/><ellipse cx="318.76" cy="399.29" class="cls-9" rx=".78" ry=".73"/><ellipse cx="237.18" cy="374.96" class="cls-8" rx="5.14" ry="4.8"/><path d="M236.26 372.55v2.4h3.06l1.05 1.95.8-.38" class="cls-9"/><path d="M235.48 374.49s-1.95 1.71-.18 3.08c2.19 1.71 3.48-1.44 3.48-1.44m-2.52-1.93h1.85" class="cls-9"/><ellipse cx="236.41" cy="371.8" class="cls-9" rx=".78" ry=".73"/><ellipse cx="207.93" cy="392.26" class="cls-8" rx="5.14" ry="4.8"/><path d="M207.01 389.86v2.4h3.06l1.04 1.95.81-.38" class="cls-9"/><path d="M206.23 391.8s-1.95 1.71-.18 3.08c2.19 1.7 3.47-1.44 3.47-1.44m-2.51-1.93h1.85" class="cls-9"/><ellipse cx="207.15" cy="389.11" class="cls-9" rx=".78" ry=".73"/><ellipse cx="182.34" cy="365.8" class="cls-8" rx="5.14" ry="4.8"/><path d="M181.42 363.39v2.4h3.06l1.04 1.95.81-.38" class="cls-9"/><path d="M180.64 365.33s-1.95 1.71-.18 3.08c2.19 1.71 3.47-1.44 3.47-1.44m-2.51-1.93h1.85" class="cls-9"/><ellipse cx="181.56" cy="362.64" class="cls-9" rx=".78" ry=".73"/><ellipse cx="44.99" cy="346.15" class="cls-8" rx="5.14" ry="4.8"/><path d="M44.07 343.74v2.4h3.06l1.04 1.95.8-.38" class="cls-9"/><path d="M43.28 345.68s-1.94 1.71-.18 3.08c2.19 1.71 3.48-1.44 3.48-1.44m-2.51-1.93h1.85" class="cls-9"/><ellipse cx="44.21" cy="342.99" class="cls-9" rx=".78" ry=".73"/><ellipse cx="49.25" cy="223.03" class="cls-8" rx="5.14" ry="4.8"/><path d="M48.33 220.62v2.4h3.06l1.05 1.95.8-.38" class="cls-9"/><path d="M47.55 222.56s-1.95 1.71-.18 3.08c2.19 1.71 3.48-1.43 3.48-1.43m-2.52-1.94h1.85" class="cls-9"/><ellipse cx="48.48" cy="219.87" class="cls-9" rx=".78" ry=".73"/><ellipse cx="189.3" cy="236.68" class="cls-8" rx="5.14" ry="4.8"/><path d="M188.38 234.28v2.4h3.06l1.04 1.95.8-.38" class="cls-9"/><path d="M187.59 236.22s-1.94 1.71-.17 3.08c2.19 1.7 3.47-1.44 3.47-1.44m-2.51-1.93h1.85" class="cls-9"/><ellipse cx="188.52" cy="233.53" class="cls-9" rx=".78" ry=".73"/><ellipse cx="352.42" cy="209.09" class="cls-8" rx="5.14" ry="4.8"/><path d="M351.5 206.68v2.4h3.06l1.05 1.95.8-.38" class="cls-9"/><path d="M350.72 208.62s-2 1.71-.18 3.08c2.19 1.71 3.48-1.43 3.48-1.43m-2.52-1.94h1.85" class="cls-9"/><ellipse cx="351.65" cy="205.93" class="cls-9" rx=".78" ry=".73"/><ellipse cx="400.41" cy="204.29" class="cls-8" rx="5.14" ry="4.8"/><path d="M399.49 201.88v2.4h3.05l1.05 1.95.8-.37" class="cls-9"/><path d="M398.7 203.82s-1.95 1.71-.18 3.09c2.19 1.7 3.48-1.44 3.48-1.44m-2.51-1.94h1.85" class="cls-9"/><ellipse cx="399.63" cy="201.14" class="cls-9" rx=".78" ry=".73"/><ellipse cx="450.79" cy="168.5" class="cls-8" rx="5.14" ry="4.8"/><path d="M449.87 166.1v2.4h3.06l1.04 1.95.81-.38" class="cls-9"/><path d="M449.09 168s-1.95 1.71-.18 3.08c2.19 1.7 3.48-1.44 3.48-1.44m-2.52-1.89h1.85" class="cls-9"/><ellipse cx="450.01" cy="165.35" class="cls-9" rx=".78" ry=".73"/><ellipse cx="499.21" cy="77.58" class="cls-8" rx="5.14" ry="4.8"/><path d="M498.29 75.17v2.41h3.06l1.04 1.94.81-.37" class="cls-9"/><path d="M497.51 77.11s-1.95 1.71-.18 3.09c2.19 1.7 3.47-1.44 3.47-1.44m-2.51-1.94h1.85" class="cls-9"/><ellipse cx="498.43" cy="74.43" class="cls-9" rx=".78" ry=".73"/><circle cx="387.77" cy="342.56" r="6.4" class="cls-10"/><path d="M394.11 340.73h2m1.79 0h2l.09 2" class="cls-11"/><path d="M400.17 346.62l2.06 44.75" class="cls-12"/><path d="M402.32 393.32l.09 2-3.24-.78" class="cls-11"/><path d="M403.27 388.38c-8.86 2.19-5.57 11.58-10.72 13.42a10.25 10.25 0 0 0 9.22-3.3c2.81-3.29 3.1-7.68 1.5-10.12z"/><path d="M393.72 387.77h-10a.38.38 0 0 0-.39.39v.31a.39.39 0 0 0 .39.39h7.48a.92.92 0 0 1 .07.36H386a.39.39 0 0 0-.39.39v.31a.4.4 0 0 0 .39.39h5.08a5.23 5.23 0 0 0-.41.63h-3a.39.39 0 0 0-.39.39v.31a.4.4 0 0 0 .39.39h2.44a10.73 10.73 0 0 0-.86 3.82h-3.41a.39.39 0 0 0-.39.39v.31a.39.39 0 0 0 .39.39h3.42v.54h-1.63a.4.4 0 0 0-.39.39v.31a.4.4 0 0 0 .39.39h1.48a1.34 1.34 0 0 1-.06.78h-4.6a.39.39 0 0 0-.39.39v.3a.39.39 0 0 0 .39.39h5.75a2.47 2.47 0 0 0 .6.67 3.58 3.58 0 0 0 .64.37c5.77-1.27 2.8-11.38 11.06-13.86-2.5-2.04-5.93-1.76-8.78.16z"/><text class="cls-13" transform="translate(391.43 399.86)">6</text></svg>