<svg xmlns="http://www.w3.org/2000/svg" id="Layer_1" viewBox="0 0 660.41 452.13" width="660.41" height="452.13"><defs><style>.cls-1,.cls-11,.cls-12,.cls-13,.cls-14,.cls-15,.cls-16,.cls-8{fill:none}.cls-1{stroke:#fff}.cls-1,.cls-11,.cls-12,.cls-13,.cls-14,.cls-15,.cls-16,.cls-2,.cls-3,.cls-8{stroke-miterlimit:10}.cls-2{fill:#d8e6ea}.cls-2,.cls-3{stroke:#515354;stroke-width:.75px}.cls-3,.cls-6,.cls-9{fill:#fff}.cls-4{font-size:15px;fill:#515354}.cls-4,.cls-6,.cls-9{font-family:MyriadPro-Regular,Myriad Pro}.cls-5{letter-spacing:0}.cls-6{font-size:18.57px}.cls-7{fill:#2668ad}.cls-8{stroke:#fdfefe;stroke-width:.44px}.cls-9{font-size:17.81px}.cls-10{fill:#f05455}.cls-11,.cls-12,.cls-13,.cls-14,.cls-15,.cls-16{stroke:#f05455}.cls-12{stroke-dasharray:4.24 4.24}.cls-13{stroke-dasharray:3.87 3.87}.cls-14{stroke-dasharray:3.85 3.85}.cls-15{stroke-dasharray:3.46 3.46}.cls-16{stroke-dasharray:2.32 2.32}.cls-17{fill:#150c0a}</style></defs><path d="M34.47 208.14L23.72 344.98l14.33 1.27v-3.48l8.74 1.58v3.16h11.06l3.16-27.49 2.85.63 4.42-20.54 54.04 5.05 2.85-.31v-4.43l-57.2-5.28 5.58-64.2-4.21-29.51-34.87 6.71zm2.75 72.98v-73.51" class="cls-1"/><path d="M31.19 299.01l-.77 5.99h3.23v-5.22l-2.46-.77z" class="cls-1"/><path d="M27.42 297.84l13.9 1.1v2.15l-7.67-.31M26.78 306l10.44-1.23v2.15h7.33l-.92 7.37h4.29l-1.07 17.96 12.57 1.67" class="cls-1"/><path d="M572.82 105.76l4.72-31.93-49.94-1.29-1.72 6 3.43.43-.64 7.5-2.79.43v14.15h-5.36v63.23l-74.8-2.79 1.71-64.94h2.15l.21-28.72s-1.71-2.79-.64-4.72 5.57 0 5.57 0l1.5-2.57 30.44 1.71v-3.43l96.45 1.93v5.15l9.64.42-6 38.59-7.07-.86-1.07 2.36z" class="cls-2"/><path d="M513.37 80.17l-14.15-1.28v-4.08l-16.73-1.29-1.93 4.51-16.94-1.18v19.19h-3.43v54.03l45.24 1.51 2.15-39.03 4.5-1.07 1.29-31.31z" class="cls-3"/><path d="M532.74 130.6v20.09l30.63.89v-20.47l-30.63-.51zm-129.81-.32v31.68l13.67-.26v-2.59l16.81.37v-29.2h-10.9l-.55-3.14h-2.22l-.18 3.33h-4.25v-3.33h-2.78l-.18 3.33-9.42-.19zm-16.73 59.63s20.19 17.24 41.62 26.85L414 246.81l16.25 38.67h-3.94l1 19.21h-34v6.41H383v-18.72l3.7.88-.49-23.79-7.89 3.45v2.71l-6.4-.25v45H324.4l-.4 15h-2.58v-18.16h-4.5v-9.93h4.23V286.8h-4.23v-9.75h4v-2.75H302.4v-2.21h15.8v-4.32h3.31v-35.66l3.22-2.3-.18-7.17h3.77s11-13 26.19-13.33l13 7.26v6.07h3.59v10h2.29v23.53h2.49v5.24l7.53-3.68v-2.39h3.22z" class="cls-2"/><path d="M293.44 242.4v-25.95H277.1v23.42h6.23v3.03h-10.87v27.8h-5.22v-16.34h1.09v-1.52h-1.09v-2.78h1.52v-2.61h-2.03v-7.33h1.94v-7.66h-1.94v-5.31h2.36v-7.66h-1.94v-12.72h28.06V181.5h-58.04v40.6h-4.8v-5.65h-10.11v-4.63h9.68v-31.25H209.2v31.08h10.11v4.63H209.2v5.73h-4.8v-38.32h-17.18v31h-21.15v53.43h11.04v33.43h25.83v2.3h3.87v1.14h1.18v-4.61h-1.74v-6.51h-2.3v-5.86h45.8v8.02h-1.84v4.06h1.16v3.38h-2.22v31.12h2.71v10.63h-30.25V333.9h-15.62l-.22-25.58h9.84v-2.94h-38.59v-9.96h-3.96v-3.52h-22.98v-4.29H125.6v16.41h5.77v12.56h11.88l-2.37 3.28 2.6 3.17 2.38-3.17v12.45h12.22l-2.6 2.95 2.6 1.92 2.83-2.38v12.34h12.45l-2.15 2.83 2.04 2.26 3.28-2.03v12.11h11.77v3.62h4.64v-3.4h3.28v3.4h16.53v-6.23h36.89v13.81h29.77v-28.86h-9.73v-4.64h83.35l1.8 6.92 3.31-.15h23.45v21.95h17.89v10.22h3.91v-9.92l7.97-3.46v-34.72l-7.52-2.56h-50.06l.15 7.37h-89.59v-1.8h31.86v-29.62h-27.72v-3.61h14.65v-13.68h6.16v-12.93h12.78v-31.41l-8.63-.21zm-123 164.36l-3.69 7.01 8.98 4.92-1.97 3.56-15.25-7.74-3.69 7.74 11.93 6.4-1.48 3.57h-2.21l-4.55 9.1 21.03 11.19 5.29-9.47-9.72-5.29 1.85-3.56 14.88 7.01 4.06-7.14-9.84-5.29 1.97-3.93 1.6.74 3.81-6.77-23-12.05z" class="cls-2"/><path d="M225.71 398.49l-17.59-10.34s-8.59-6.18-3.76-14.91 40.42-4.3 40.42-4.3v15.58l-3.76-.13-.26-1.24h-15.58l-.41 10.1h1.35zm96.34-64.22v4.75h-1.32v6.2h1.32v55.76h6.33v1.85h4.75v-1.19h8.83v-61.83l-8.17-5.54h-11.74zm27.69 44.43v37.45h64.6v-37.97h-45.22v-1.85h-7.52v-2.64l-11.86 1.58-7.78-.13v3.43l7.78.13zm61.43-43.37v3.88h37.31v13.73h50.83l2 3.14h5.24v-2.93h4.82v1.36h30.92v2.83h33.33v-12.79h18.76v4.82h6.6v2.73h14.26v2.3h45.17v-12.57h-20.12v-26.1h-38.57v2.72h-7.13v23.48h-16.77v-19.81H538.3v2.31h-24.84v6.5h-1.78v2.83h-5.03v-2.41h-6.39v3.25h-44.02v-2.21h-7.44v3.25l-37.63-.31zM513 76v-2.58s-4.12-2.06-1.55-6c0 0 1.89-2.06 3.61-1.2v-7.4m-4.42 44.66h8.92m-59.78 44.32h-6.35l-1.89-2.75h-6.02m-256.55 90.8h3.77v19.49h-16.39v12.62m26.57 18.38v-65.99m32.9 3.06h-32.9m28.18 7.08h-17.62v-7.08 11.01h-7.23v12.27h6.76m59.77.79h8.81v6.68h-8.81zm-8.18 26.89h8.18v7.71h-8.18zm24.54-2.04V241.5h3.62m-10.23 44.04h-15.25v21.71h-2.68v2.51h16.99v-2.04h2.2v-5.98m-29.25.16v-15.57h-5.04m32.09 51.59v-3.46m-29.57 2.83H258v8.18h-5.98zm16.67 5.66h-10.06m-10.07 14.16v-14.16h3.46m-51.91 6.29h4.25v1.89h-4.25z" class="cls-2"/><path d="M195.39 360.41v-12.42h-1.57v-3.62h8.42v-12.11m-10.15-14.32h6.92v-11.95h-11.8v1.57h-4.24v6.14h4.56l4.56 4.24z" class="cls-2"/><path d="M191.78 321.25l.31-3.31-4.56-4.24h-20.29v5.03l19.19 18.56h3.77v-16.52l1.58.48z" class="cls-2"/><path d="M174.16 303.16v3.46h-15.89l-1.57 1.57v7.08l3.77 4.56 6.77-1.1 4.95 4.79-.86 3.55 6.6 6.6h4.76l3.74 3.62v8.18l3.93 3.77 3.46-1.25 1.1 3.14h-4.88l-.12-1.89m4.57 7.87h-8m2.81 0h2.79v7.58h-2.79z" class="cls-2"/><path d="M172.6 351.13l-2.53-2.72 2.53-2.08v-9.04h6.17l4.2 4.8v6.32l-7.59-.49-2.78 3.21zm-14.55-14.72l-2.52-2.72 2.52-2.08v-9.04h6.18l4.19 4.8v6.32l-7.58-.49-2.79 3.21zm-15.11-14.59l-2.52-2.72 2.52-2.08v-9.04h6.18l4.2 4.8v6.32l-7.59-.49-2.79 3.21zm25.48-19.22v-8.78h5.38l.36 12.8h-5.74v-1.69l-2.11-.26v-2.33l2.11.26zm-6.45-3.22v-7.49h-7.92v8.33l7.92-.84zm-22.25-3.33v-8.17h-8.4v8.78l8.4-.61zm-14.59 3.58h6.2v3.52h-6.2zm49.32 118.22l11.94 6.66m-10.56 8.6l-11.13-5.5m8.95 9.29l-10.67-5.16m174.9-154.89v9.59h10.41v-10.25l-10.41.66zm-13.72-49.07v23.04h28.75v15.95h6.61v-17.02h4.63v-30.24h-7.44v-9.91h-7.76v9.09h-4.8v3.8h-7.6v4.79l-12.39.5zm5.29 113.68s-8.59-.17-5.78 14.21 5.78 12.89 5.78 12.89 7.27 1.2 7.43-13.53-7.43-13.57-7.43-13.57zM381 327.74v11.07h20.66v-6.27l1.11 1.11v-5.91m6.82 7.44v2.15m-57.5-2.15v2.15m11.07 41.14h5.12v5.12h-5.12zm15.03 1.16v22.8h17.02v8.1h3.97v-27.76h-3.64v-3.14h-17.35zm68.74-44.45v3.64m62.79-1.49l-4.96-.33v8.09h-2.14v8.27h7.93l-.83-16.03zm.83-3.31v4.8m30.73-2.4V356h33.54v-14.05h-9.25v-6.77l-24.29 1.24z" class="cls-2"/><text class="cls-4" transform="translate(540.88 70.54)">R</text><text class="cls-4" transform="translate(462.82 73.54)">R</text><text class="cls-4" transform="translate(479.92 161.93)">R</text><text class="cls-4" transform="translate(542.11 146.65)">G</text><text class="cls-4" transform="translate(412.54 152.11)">F</text><text class="cls-4" transform="translate(393.35 257.01)">E</text><text class="cls-4" transform="translate(335.89 245.73)">H</text><text class="cls-4" transform="translate(331.52 305.38)">D</text><text class="cls-4" transform="translate(243.87 245.73)">A</text><text class="cls-4" transform="translate(258.23 365.39)">C</text><text class="cls-4" transform="translate(137.89 305.38)">B</text><text class="cls-4" transform="translate(211.45 383.76)">K</text><text class="cls-4" transform="translate(170.26 433.41)">M</text><text class="cls-4" transform="translate(327.25 359.94)">J</text><text class="cls-4" transform="translate(361.71 405.76)">T</text><text class="cls-4" transform="translate(517.38 346.12)">P</text><text class="cls-4" transform="translate(382.92 359.94)">N</text><text class="cls-4" transform="translate(608.67 341.39)">S</text><path d="M40.62 206L29.88 342.84l14.33 1.27v-3.48l8.74 1.58v3.16h11.06l3.16-27.5 2.84.64 4.43-20.55 54.04 5.06 2.84-.32v-4.42L74.12 293l5.59-64.21-4.22-29.5L40.62 206zm2.75 72.98v-73.51" class="cls-2"/><path d="M37.35 296.87l-.77 5.99h3.22v-5.23l-2.45-.76z" class="cls-2"/><path d="M33.58 295.7l13.9 1.09v2.15l-7.68-.31m-6.86 5.23l10.43-1.23v2.15h7.33l-.92 7.36h4.3l-1.07 17.97 12.56 1.66" class="cls-2"/><text class="cls-4" transform="translate(49.25 266.93)"><tspan class="cls-5">C</tspan><tspan x="8.76" y="0">A</tspan></text><rect width="2.24" height="1.26" x="487.17" y="149.9" rx=".51"/><rect width="3.08" height="1.26" x="488.58" y="159.47" rx=".51"/><path d="M511.63 148.92c-10.26 2.54-6.45 13.42-12.42 15.55a11.88 11.88 0 0 0 10.68-3.81c3.26-3.82 3.6-8.91 1.74-11.74z"/><path d="M500.57 148.22H489a.45.45 0 0 0-.45.45v.33a.45.45 0 0 0 .45.45h8.67a1.56 1.56 0 0 1 .08.42h-6.12a.46.46 0 0 0-.46.45v.36a.46.46 0 0 0 .46.45h5.88c-.17.24-.33.48-.48.73h-3.47a.45.45 0 0 0-.45.45v.36a.45.45 0 0 0 .45.45h2.82a12.62 12.62 0 0 0-1 4.43h-3.95a.46.46 0 0 0-.46.45v.36a.46.46 0 0 0 .46.45h4c0 .21 0 .42.05.63h-1.89a.45.45 0 0 0-.45.45v.36a.45.45 0 0 0 .45.45h1.72a1.52 1.52 0 0 1-.08.9h-5.32a.46.46 0 0 0-.46.45v.36a.46.46 0 0 0 .46.45h6.65a3.1 3.1 0 0 0 .7.77 3.51 3.51 0 0 0 .74.43c6.68-1.47 3.24-13.18 12.81-16.05-2.95-2.33-6.95-2.01-10.24.21z"/><text class="cls-6" transform="translate(499.65 161.72)">7</text><rect width="2.24" height="1.26" x="388.98" y="230.19" rx=".51"/><rect width="3.08" height="1.26" x="390.38" y="239.76" rx=".51"/><path d="M413.44 229.21c-10.26 2.54-6.45 13.42-12.42 15.55a11.88 11.88 0 0 0 10.68-3.82c3.3-3.81 3.59-8.94 1.74-11.73z"/><path d="M402.37 228.51H390.8a.45.45 0 0 0-.45.45v.36a.45.45 0 0 0 .45.45h8.67a1.23 1.23 0 0 1 .07.42h-6.12a.45.45 0 0 0-.45.45v.36a.45.45 0 0 0 .45.45h5.88c-.17.24-.33.48-.48.73h-3.46a.46.46 0 0 0-.46.45v.37a.46.46 0 0 0 .46.45h2.82a12.86 12.86 0 0 0-1 4.43h-3.95a.45.45 0 0 0-.45.45v.36a.45.45 0 0 0 .45.45h4c0 .21 0 .42.05.63h-1.88a.46.46 0 0 0-.46.45v.36a.46.46 0 0 0 .46.45h1.71a1.59 1.59 0 0 1-.07.9h-5.33a.45.45 0 0 0-.45.45v.36a.45.45 0 0 0 .45.45h6.66a3.1 3.1 0 0 0 .7.77 3.51 3.51 0 0 0 .74.43c6.68-1.47 3.24-13.19 12.8-16-2.94-2.39-6.94-2.1-10.24.12z"/><text class="cls-6" transform="translate(401.46 242.01)">5</text><rect width="2.24" height="1.26" x="346.2" y="284.81" rx=".51"/><rect width="3.08" height="1.26" x="347.6" y="294.38" rx=".51"/><path d="M370.66 283.83c-10.26 2.54-6.45 13.42-12.42 15.55a11.88 11.88 0 0 0 10.68-3.82c3.25-3.81 3.59-8.9 1.74-11.73z"/><path d="M359.59 283.13H348a.45.45 0 0 0-.45.45v.36a.45.45 0 0 0 .45.45h8.67a1.23 1.23 0 0 1 .07.42h-6.12a.45.45 0 0 0-.45.45v.36a.45.45 0 0 0 .45.45h5.88c-.17.24-.33.48-.48.73h-3.46a.46.46 0 0 0-.46.45v.36a.46.46 0 0 0 .46.45h2.82a12.86 12.86 0 0 0-1 4.43h-3.95a.45.45 0 0 0-.45.45v.36a.45.45 0 0 0 .45.45h4v.63h-1.88a.46.46 0 0 0-.46.45v.36a.46.46 0 0 0 .46.45h1.71a1.59 1.59 0 0 1-.07.9h-5.33a.45.45 0 0 0-.45.45v.36a.45.45 0 0 0 .45.45h6.66a3.1 3.1 0 0 0 .7.77 3.51 3.51 0 0 0 .74.43c6.68-1.47 3.24-13.19 12.8-16.05-2.87-2.37-6.87-2.04-10.17.18z"/><text class="cls-6" transform="translate(358.68 296.63)">4</text><rect width="2.24" height="1.26" x="170.31" y="321.53" rx=".51"/><rect width="3.08" height="1.26" x="171.71" y="331.1" rx=".51"/><path d="M194.77 320.55c-10.27 2.54-6.46 13.42-12.42 15.55a11.86 11.86 0 0 0 10.65-3.82c3.28-3.82 3.62-8.9 1.77-11.73z"/><path d="M183.7 319.85h-11.57a.46.46 0 0 0-.46.45v.35a.47.47 0 0 0 .46.46h8.67a1.2 1.2 0 0 1 .07.42h-6.12a.45.45 0 0 0-.45.45v.35a.46.46 0 0 0 .45.46h5.88c-.17.23-.33.48-.48.73h-3.47a.45.45 0 0 0-.45.45v.35a.46.46 0 0 0 .45.46h2.83a12.37 12.37 0 0 0-1 4.43h-3.95a.45.45 0 0 0-.45.45v.34a.46.46 0 0 0 .45.46h4v.63h-1.89a.45.45 0 0 0-.45.45v.35a.46.46 0 0 0 .45.46h1.72a1.59 1.59 0 0 1-.07.9H173a.45.45 0 0 0-.45.45v.35a.46.46 0 0 0 .45.46h6.66a3.08 3.08 0 0 0 .7.77 4 4 0 0 0 .74.43c6.67-1.47 3.24-13.19 12.8-16.06-2.9-2.35-6.9-2.03-10.2.2z"/><text class="cls-6" transform="translate(182.79 333.35)">3</text><rect width="2.24" height="1.26" x="29.88" y="266.71" rx=".51"/><rect width="3.08" height="1.26" x="31.28" y="276.28" rx=".51"/><path d="M54.34 265.73c-10.27 2.54-6.46 13.42-12.42 15.55a11.86 11.86 0 0 0 10.67-3.82c3.26-3.81 3.6-8.9 1.75-11.73z"/><path d="M43.27 265H31.7a.46.46 0 0 0-.46.45v.36a.46.46 0 0 0 .46.45h8.67a1.23 1.23 0 0 1 .07.42h-6.12a.45.45 0 0 0-.45.45v.36a.45.45 0 0 0 .45.45h5.88c-.17.24-.33.48-.48.73h-3.47a.45.45 0 0 0-.45.45v.36a.45.45 0 0 0 .45.45h2.83a12.42 12.42 0 0 0-1 4.43h-3.95a.45.45 0 0 0-.45.45v.36a.45.45 0 0 0 .45.45h4v.63h-1.88a.45.45 0 0 0-.45.45v.36a.45.45 0 0 0 .45.45H38a1.52 1.52 0 0 1-.08.9h-5.35a.45.45 0 0 0-.45.45v.36a.45.45 0 0 0 .45.45h6.66a2.92 2.92 0 0 0 .7.77 3.7 3.7 0 0 0 .73.43c6.68-1.47 3.25-13.19 12.81-16-2.9-2.39-6.9-2.06-10.2.13z"/><text class="cls-6" transform="translate(42.36 278.53)">1</text><ellipse cx="396.42" cy="417.87" class="cls-7" rx="5.14" ry="4.8"/><path d="M395.5 415.46v2.4h3.05l1.05 1.95.8-.38" class="cls-8"/><path d="M394.71 417.4s-1.95 1.71-.18 3.08c2.19 1.71 3.48-1.43 3.48-1.43m-2.51-1.94h1.85" class="cls-8"/><ellipse cx="395.64" cy="414.71" class="cls-8" rx=".78" ry=".73"/><ellipse cx="408.2" cy="394.92" class="cls-7" rx="5.14" ry="4.8"/><path d="M407.28 392.51v2.4h3.06l1.04 1.95.81-.37" class="cls-8"/><path d="M406.5 394.45s-1.95 1.71-.18 3.09c2.19 1.7 3.48-1.44 3.48-1.44m-2.52-1.94h1.85" class="cls-8"/><ellipse cx="407.42" cy="391.77" class="cls-8" rx=".78" ry=".73"/><ellipse cx="400.4" cy="368.6" class="cls-7" rx="5.14" ry="4.8"/><path d="M399.48 366.19v2.4h3.06l1.04 1.95.81-.37" class="cls-8"/><path d="M398.7 368.13s-1.95 1.71-.18 3.09c2.19 1.7 3.48-1.44 3.48-1.44m-2.52-1.94h1.85" class="cls-8"/><ellipse cx="399.62" cy="365.45" class="cls-8" rx=".78" ry=".73"/><ellipse cx="442.58" cy="350.91" class="cls-7" rx="5.14" ry="4.8"/><path d="M441.66 348.5v2.4h3.06l1.04 1.95.81-.37" class="cls-8"/><path d="M440.88 350.44s-1.95 1.71-.18 3.09c2.19 1.7 3.48-1.44 3.48-1.44m-2.52-1.94h1.85" class="cls-8"/><ellipse cx="441.8" cy="347.76" class="cls-8" rx=".78" ry=".73"/><ellipse cx="466.24" cy="358.83" class="cls-7" rx="5.14" ry="4.8"/><path d="M465.32 356.42v2.4h3.05l1.05 1.95.8-.37" class="cls-8"/><path d="M464.53 358.36s-1.95 1.71-.18 3.09c2.19 1.7 3.48-1.44 3.48-1.44m-2.51-1.94h1.85" class="cls-8"/><ellipse cx="465.46" cy="355.68" class="cls-8" rx=".78" ry=".73"/><ellipse cx="442.58" cy="329.49" class="cls-7" rx="5.14" ry="4.8"/><path d="M441.66 327.08v2.4h3.06l1.04 1.95.81-.37" class="cls-8"/><path d="M440.88 329s-1.95 1.71-.18 3.09c2.19 1.7 3.48-1.44 3.48-1.44m-2.52-1.92h1.85" class="cls-8"/><ellipse cx="441.8" cy="326.34" class="cls-8" rx=".78" ry=".73"/><ellipse cx="388.69" cy="332.57" class="cls-7" rx="5.14" ry="4.8"/><path d="M387.77 330.16v2.4h3.05l1.05 1.95.8-.38" class="cls-8"/><path d="M387 332.1s-2 1.71-.18 3.08c2.19 1.71 3.48-1.43 3.48-1.43m-2.53-1.94h1.85" class="cls-8"/><ellipse cx="387.91" cy="329.41" class="cls-8" rx=".78" ry=".73"/><ellipse cx="553.2" cy="322.79" class="cls-7" rx="5.14" ry="4.8"/><path d="M552.28 320.38v2.4h3.05l1.05 1.95.8-.38" class="cls-8"/><path d="M551.49 322.32s-2 1.71-.18 3.08c2.19 1.7 3.48-1.44 3.48-1.44m-2.51-1.93h1.85" class="cls-8"/><ellipse cx="552.42" cy="319.63" class="cls-8" rx=".78" ry=".73"/><ellipse cx="623.67" cy="318.38" class="cls-7" rx="5.14" ry="4.8"/><path d="M622.75 315.97v2.4h3.06l1.05 1.95.8-.37" class="cls-8"/><path d="M622 317.91s-2 1.71-.18 3.09c2.19 1.7 3.48-1.44 3.48-1.44m-2.55-1.94h1.85" class="cls-8"/><ellipse cx="622.89" cy="315.22" class="cls-8" rx=".78" ry=".73"/><ellipse cx="575.6" cy="344.38" class="cls-7" rx="5.14" ry="4.8"/><path d="M574.68 341.97v2.4h3.06l1.04 1.95.81-.38" class="cls-8"/><path d="M573.9 343.91s-1.95 1.71-.18 3.08c2.19 1.71 3.48-1.43 3.48-1.43m-2.52-1.94h1.85" class="cls-8"/><ellipse cx="574.82" cy="341.22" class="cls-8" rx=".78" ry=".73"/><ellipse cx="348.44" cy="410.53" class="cls-7" rx="5.14" ry="4.8"/><path d="M347.52 408.12v2.4h3.06l1.04 1.95.81-.38" class="cls-8"/><path d="M346.73 410.06s-1.94 1.71-.17 3.08c2.19 1.71 3.47-1.43 3.47-1.43m-2.51-1.94h1.85" class="cls-8"/><ellipse cx="347.66" cy="407.37" class="cls-8" rx=".78" ry=".73"/><ellipse cx="319.54" cy="402.83" class="cls-7" rx="5.14" ry="4.8"/><path d="M318.62 400.42v2.4h3.05l1.05 1.95.8-.37" class="cls-8"/><path d="M317.83 402.36s-1.95 1.71-.18 3.09c2.19 1.7 3.48-1.44 3.48-1.44m-2.51-1.94h1.85" class="cls-8"/><ellipse cx="318.76" cy="399.68" class="cls-8" rx=".78" ry=".73"/><ellipse cx="237.18" cy="375.34" class="cls-7" rx="5.14" ry="4.8"/><path d="M236.26 372.93v2.4h3.06l1.05 1.95.8-.37" class="cls-8"/><path d="M235.48 374.87s-1.95 1.71-.18 3.09c2.19 1.7 3.48-1.44 3.48-1.44m-2.52-1.94h1.85" class="cls-8"/><ellipse cx="236.41" cy="372.18" class="cls-8" rx=".78" ry=".73"/><ellipse cx="207.93" cy="392.65" class="cls-7" rx="5.14" ry="4.8"/><path d="M207.01 390.24v2.4h3.06l1.04 1.95.81-.38" class="cls-8"/><path d="M206.23 392.18s-1.95 1.71-.18 3.08c2.19 1.71 3.47-1.44 3.47-1.44m-2.51-1.93h1.85" class="cls-8"/><ellipse cx="207.15" cy="389.49" class="cls-8" rx=".78" ry=".73"/><ellipse cx="182.34" cy="366.18" class="cls-7" rx="5.14" ry="4.8"/><path d="M181.42 363.77v2.4h3.06l1.04 1.95.81-.38" class="cls-8"/><path d="M180.64 365.71s-1.95 1.71-.18 3.08c2.19 1.71 3.47-1.43 3.47-1.43m-2.51-1.94h1.85" class="cls-8"/><ellipse cx="181.56" cy="363.02" class="cls-8" rx=".78" ry=".73"/><ellipse cx="44.99" cy="346.53" class="cls-7" rx="5.14" ry="4.8"/><path d="M44.07 344.12v2.4h3.06l1.04 1.95.8-.38" class="cls-8"/><path d="M43.28 346.06s-1.94 1.71-.18 3.08c2.19 1.71 3.48-1.43 3.48-1.43m-2.51-1.94h1.85" class="cls-8"/><ellipse cx="44.21" cy="343.37" class="cls-8" rx=".78" ry=".73"/><ellipse cx="49.25" cy="223.41" class="cls-7" rx="5.14" ry="4.8"/><path d="M48.33 221v2.4h3.06l1.05 1.95.8-.37" class="cls-8"/><path d="M47.55 222.94s-1.95 1.71-.18 3.09c2.19 1.7 3.48-1.44 3.48-1.44m-2.52-1.94h1.85" class="cls-8"/><ellipse cx="48.48" cy="220.26" class="cls-8" rx=".78" ry=".73"/><ellipse cx="189.3" cy="237.07" class="cls-7" rx="5.14" ry="4.8"/><path d="M188.38 234.66v2.4h3.06l1.04 1.95.8-.38" class="cls-8"/><path d="M187.59 236.6s-1.94 1.71-.17 3.08c2.19 1.71 3.47-1.44 3.47-1.44m-2.51-1.93h1.85" class="cls-8"/><ellipse cx="188.52" cy="233.91" class="cls-8" rx=".78" ry=".73"/><ellipse cx="352.42" cy="209.47" class="cls-7" rx="5.14" ry="4.8"/><path d="M351.5 207.06v2.4h3.06l1.05 1.95.8-.37" class="cls-8"/><path d="M350.72 209s-2 1.71-.18 3.09c2.19 1.7 3.48-1.44 3.48-1.44m-2.52-1.94h1.85" class="cls-8"/><ellipse cx="351.65" cy="206.32" class="cls-8" rx=".78" ry=".73"/><ellipse cx="400.41" cy="204.67" class="cls-7" rx="5.14" ry="4.8"/><path d="M399.49 202.27v2.4h3.05l1.05 1.95.8-.38" class="cls-8"/><path d="M398.7 204.21s-1.95 1.7-.18 3.08c2.19 1.7 3.48-1.44 3.48-1.44m-2.51-1.93h1.85" class="cls-8"/><ellipse cx="399.63" cy="201.52" class="cls-8" rx=".78" ry=".73"/><ellipse cx="450.79" cy="168.89" class="cls-7" rx="5.14" ry="4.8"/><path d="M449.87 166.48v2.4h3.06l1.04 1.95.81-.38" class="cls-8"/><path d="M449.09 168.42s-1.95 1.71-.18 3.08c2.19 1.71 3.48-1.44 3.48-1.44m-2.52-1.93h1.85" class="cls-8"/><ellipse cx="450.01" cy="165.73" class="cls-8" rx=".78" ry=".73"/><ellipse cx="499.21" cy="77.96" class="cls-7" rx="5.14" ry="4.8"/><path d="M498.29 75.56v2.4h3.06l1.04 1.95.81-.38" class="cls-8"/><path d="M497.51 77.5s-1.95 1.71-.18 3.08c2.19 1.7 3.47-1.44 3.47-1.44m-2.51-1.93h1.85" class="cls-8"/><ellipse cx="498.43" cy="74.81" class="cls-8" rx=".78" ry=".73"/><path d="M402.84 389.23c-8.87 2.19-5.58 11.58-10.73 13.42a10.25 10.25 0 0 0 9.22-3.3c2.81-3.29 3.11-7.68 1.51-10.12z"/><path d="M393.28 388.62h-10a.38.38 0 0 0-.39.39v.31a.39.39 0 0 0 .39.39h7.48a.92.92 0 0 1 .07.36h-5.29a.39.39 0 0 0-.39.39v.31a.4.4 0 0 0 .39.39h5.08a6.81 6.81 0 0 0-.41.63h-3a.39.39 0 0 0-.39.39v.31a.4.4 0 0 0 .39.39h2.44a10.73 10.73 0 0 0-.86 3.82h-3.41a.39.39 0 0 0-.39.39v.31a.39.39 0 0 0 .39.39h3.42v.54h-1.63a.4.4 0 0 0-.39.39v.28a.4.4 0 0 0 .39.39h1.49a1.36 1.36 0 0 1-.07.78H384a.39.39 0 0 0-.39.39v.3a.39.39 0 0 0 .39.39h5.75a2.65 2.65 0 0 0 .61.67 3.17 3.17 0 0 0 .63.37c5.77-1.27 2.8-11.38 11.06-13.86-2.47-2.01-5.92-1.73-8.77.19z"/><text class="cls-9" transform="translate(391.43 400.25)">6</text><circle cx="387.12" cy="341.73" r="6.4" class="cls-10"/><path d="M381 338.82l-1.99-.16" class="cls-11"/><path d="M374.78 338.34l-48.62-3.75" class="cls-12"/><path d="M324.05 334.43l-2-.16.07-2" class="cls-11"/><path d="M322.25 328.41l1.78-52.15" class="cls-13"/><path d="M324.09 274.33l.07-2h-2" class="cls-11"/><path d="M318.31 272.33h-90.55" class="cls-14"/><path d="M225.84 272.33h-2v-2" class="cls-11"/><path d="M223.84 266.86v-19.05" class="cls-15"/><path d="M223.84 246.08v-2l-1.97-.38" class="cls-11"/><path d="M219.59 243.26l-3.41-.65" class="cls-16"/><path d="M215.04 242.39l-1.96-.38" class="cls-11"/><rect width="2.24" height="1.26" x="195.89" y="233.83" class="cls-17" rx=".51"/><rect width="3.08" height="1.26" x="197.3" y="243.4" class="cls-17" rx=".51"/><path d="M220.35 232.85c-10.26 2.54-6.45 13.42-12.42 15.55a11.87 11.87 0 0 0 10.68-3.82c3.26-3.81 3.6-8.9 1.74-11.73z"/><path d="M209.29 232.15h-11.58a.45.45 0 0 0-.45.45v.4a.45.45 0 0 0 .45.45h8.67a1.25 1.25 0 0 1 .08.42h-6.12a.45.45 0 0 0-.45.45v.36a.45.45 0 0 0 .45.45h5.88c-.17.24-.33.48-.48.73h-3.47a.45.45 0 0 0-.45.45v.36a.45.45 0 0 0 .45.45h2.82a12.62 12.62 0 0 0-1 4.43h-3.95a.46.46 0 0 0-.46.45v.36a.46.46 0 0 0 .46.45h4v.63h-1.89a.45.45 0 0 0-.45.45v.36a.45.45 0 0 0 .45.45H204a1.52 1.52 0 0 1-.08.9h-5.32a.45.45 0 0 0-.45.45v.36a.45.45 0 0 0 .45.45h6.65a3.3 3.3 0 0 0 .7.77 3.51 3.51 0 0 0 .74.43c6.68-1.47 3.24-13.19 12.81-16.05-2.92-2.41-6.91-2.08-10.21.14z"/><text class="cls-6" transform="translate(208.37 245.65)">2</text></svg>