<svg id="Layer_1" data-name="Layer 1" xmlns="http://www.w3.org/2000/svg" viewBox="0 0 676.8 452.13"><defs><style>.cls-1,.cls-12,.cls-13,.cls-14,.cls-15,.cls-16,.cls-9{fill:none;}.cls-1{stroke:#fff;}.cls-1,.cls-12,.cls-13,.cls-14,.cls-15,.cls-16,.cls-2,.cls-3,.cls-9{stroke-miterlimit:10;}.cls-2{fill:#d8e6ea;}.cls-2,.cls-3{stroke:#515354;stroke-width:0.75px;}.cls-10,.cls-3,.cls-6{fill:#fff;}.cls-4{font-size:15px;fill:#515354;}.cls-10,.cls-4,.cls-6{font-family:MyriadPro-Regular, Myriad Pro;}.cls-5{letter-spacing:0em;}.cls-6{font-size:18.57px;}.cls-7{fill:#150c0a;}.cls-8{fill:#2668ad;}.cls-9{stroke:#fdfefe;stroke-width:0.44px;}.cls-10{font-size:17.81px;}.cls-11{fill:#f05455;}.cls-12,.cls-13,.cls-14,.cls-15,.cls-16{stroke:#f05455;}.cls-13{stroke-dasharray:4 4;}.cls-14{stroke-dasharray:3.24 3.24;}.cls-15{stroke-dasharray:3.7 3.7;}.cls-16{stroke-dasharray:4.51 4.51;}</style></defs><title>Portable Feast</title><polygon class="cls-1" points="36.95 206.49 26.21 343.33 40.54 344.6 40.54 341.12 49.28 342.7 49.28 345.86 60.34 345.86 63.5 318.37 66.35 319 70.77 298.46 124.81 303.51 127.66 303.2 127.66 298.77 70.45 293.49 76.04 229.29 71.83 199.78 36.95 206.49"/><line class="cls-1" x1="39.71" y1="279.47" x2="39.71" y2="205.96"/><polygon class="cls-1" points="33.68 297.36 32.91 303.35 36.13 303.35 36.13 301.81 36.13 298.13 33.68 297.36"/><polyline class="cls-1" points="29.91 296.19 43.81 297.29 43.81 299.44 36.13 299.13"/><polyline class="cls-1" points="29.27 304.35 39.71 303.12 39.71 305.27 47.03 305.27 46.11 312.64 50.41 312.64 49.34 330.6 61.9 332.27"/><path class="cls-2" d="M575.31,104.11,580,72.18l-49.94-1.29-1.71,6,3.43.43-.64,7.5-2.79.43V99.4H523v63.23l-74.8-2.79,1.71-64.95h2.14l.22-28.72s-1.72-2.78-.64-4.71,5.57,0,5.57,0l1.5-2.57,30.44,1.71V57.17L585.6,59.1v5.14l9.64.43-6,38.58-7.07-.85-1.07,2.35Z"/><polygon class="cls-3" points="515.86 78.52 501.7 77.23 501.7 73.16 484.98 71.87 483.05 76.38 466.11 75.2 466.11 94.39 462.68 94.39 462.68 148.42 507.92 149.92 510.07 110.9 514.57 109.83 515.86 78.52"/><polygon class="cls-2" points="535.23 128.95 535.23 149.03 565.86 149.92 565.86 129.46 535.23 128.95"/><polygon class="cls-2" points="405.41 128.63 405.41 160.31 419.09 160.05 419.09 157.46 435.9 157.83 435.9 128.63 425 128.63 424.45 125.49 422.23 125.49 422.04 128.82 417.79 128.82 417.79 125.49 415.02 125.49 414.84 128.82 405.41 128.63"/><path class="cls-2" d="M388.68,185.5s20.2,17.24,41.63,26.85L416.52,242.4l16.25,38.67h-3.94l1,19.21h-34v6.4H385.48V288l3.7.89-.5-23.79-7.88,3.45v2.71l-6.4-.25v45H326.89l-.41,15h-2.57V312.81h-4.5v-9.93h4.22V282.39h-4.22v-9.75h4v-2.76H304.88v-2.2h15.81v-4.32H324V227.7l3.22-2.3-.19-7.17h3.77s11-13,26.2-13.33l13,7.26v6.07h3.58v10h2.3v23.53h2.48V257l7.54-3.68V251h3.22Z"/><polygon class="cls-2" points="295.93 239.75 295.93 213.8 279.58 213.8 279.58 237.22 285.82 237.22 285.82 240.25 274.95 240.25 274.95 268.05 269.73 268.05 269.73 251.71 270.82 251.71 270.82 250.19 269.73 250.19 269.73 247.41 271.24 247.41 271.24 244.8 269.22 244.8 269.22 237.47 271.16 237.47 271.16 229.81 269.22 229.81 269.22 224.5 271.58 224.5 271.58 216.84 269.64 216.84 269.64 204.12 297.69 204.12 297.69 178.84 239.66 178.84 239.66 219.45 234.85 219.45 234.85 213.8 224.75 213.8 224.75 209.17 234.43 209.17 234.43 177.92 211.69 177.92 211.69 209 221.8 209 221.8 213.63 211.69 213.63 211.69 219.36 206.89 219.36 206.89 181.03 189.7 181.03 189.7 212.03 168.56 212.03 168.56 228.97 168.56 265.46 179.6 265.46 179.6 298.9 205.43 298.9 205.43 301.2 209.3 301.2 209.3 302.34 210.48 302.34 210.48 297.73 208.74 297.73 208.74 291.22 206.44 291.22 206.44 285.36 252.24 285.36 252.24 293.38 250.4 293.38 250.4 297.44 251.56 297.44 251.56 300.82 249.34 300.82 249.34 331.94 252.05 331.94 252.05 342.56 221.8 342.56 221.8 331.25 206.18 331.25 205.95 305.67 215.8 305.67 215.8 302.73 177.21 302.73 177.21 292.77 173.25 292.77 173.25 289.25 150.27 289.25 150.27 284.96 128.09 284.96 128.09 301.37 133.86 301.37 133.86 313.93 145.74 313.93 143.37 317.21 145.97 320.38 148.35 317.21 148.35 329.66 160.57 329.66 157.97 332.61 160.57 334.53 163.4 332.15 163.4 344.49 175.85 344.49 173.7 347.32 175.74 349.58 179.02 347.55 179.02 359.65 190.79 359.65 190.79 363.28 195.43 363.28 195.43 359.88 198.71 359.88 198.71 363.28 215.24 363.28 215.24 357.05 252.13 357.05 252.13 370.86 281.9 370.86 281.9 342 272.17 342 272.17 337.36 323.77 337.36 355.52 337.36 357.32 344.28 360.63 344.13 384.08 344.13 384.08 366.08 401.97 366.08 401.97 376.3 405.88 376.3 405.88 366.38 413.84 362.92 413.84 332.26 413.84 328.2 406.33 325.64 356.27 325.64 356.42 333.01 266.82 333.01 266.82 331.2 298.69 331.2 298.69 301.59 270.96 301.59 270.96 297.98 285.62 297.98 285.62 284.3 291.78 284.3 291.78 271.37 304.56 271.37 304.56 239.96 295.93 239.75"/><polygon class="cls-2" points="172.93 405.11 169.24 412.12 178.22 417.04 176.25 420.6 160.99 412.86 157.3 420.6 169.24 427 167.76 430.57 165.54 430.57 160.99 439.67 182.03 450.86 187.32 441.39 177.6 436.1 179.44 432.54 194.33 439.55 198.39 432.41 188.55 427.12 190.52 423.19 192.12 423.93 195.93 417.16 172.93 405.11"/><path class="cls-2" d="M228.2,396.84,210.61,386.5s-8.59-6.18-3.76-14.91,40.42-4.3,40.42-4.3v15.58l-3.76-.13-.27-1.24H227.67l-.41,10.1h1.35Z"/><polygon class="cls-2" points="324.54 332.62 324.54 337.37 323.22 337.37 323.22 343.56 324.54 343.56 324.54 399.33 330.87 399.33 330.87 401.18 335.61 401.18 335.61 399.99 344.45 399.99 344.45 338.16 336.27 332.62 324.54 332.62"/><polygon class="cls-2" points="352.23 377.05 352.23 414.5 416.83 414.5 416.83 376.52 371.61 376.52 371.61 374.68 364.09 374.68 364.09 372.04 352.23 373.62 344.45 373.49 344.45 376.92 352.23 377.05"/><polygon class="cls-2" points="413.65 333.68 413.65 337.56 450.97 337.56 450.97 351.29 501.8 351.29 503.79 354.43 509.03 354.43 509.03 351.5 513.86 351.5 513.86 352.86 544.78 352.86 544.78 355.69 578.11 355.69 578.11 342.9 596.87 342.9 596.87 347.72 603.47 347.72 603.47 350.45 617.73 350.45 617.73 352.75 662.9 352.75 662.9 340.18 642.78 340.18 642.78 314.08 604.21 314.08 604.21 316.8 597.08 316.8 597.08 340.28 580.31 340.28 580.31 320.47 540.79 320.47 540.79 322.78 515.95 322.78 515.95 329.27 514.17 329.27 514.17 332.11 509.14 332.11 509.14 329.69 502.75 329.69 502.75 332.94 458.72 332.94 458.72 330.74 451.28 330.74 451.28 333.99 413.65 333.68"/><path class="cls-2" d="M515.52,74.35V71.77s-4.12-2.06-1.55-6c0,0,1.89-2.06,3.61-1.2V57.17"/><line class="cls-2" x1="513.13" y1="101.83" x2="522.05" y2="101.83"/><polyline class="cls-2" points="462.27 146.15 455.91 146.15 454.02 143.4 448.01 143.4"/><polyline class="cls-2" points="191.46 234.2 195.22 234.2 195.22 253.69 178.84 253.69 178.84 266.31"/><polyline class="cls-2" points="205.41 284.69 205.41 221.76 205.41 218.7"/><line class="cls-2" x1="238.31" y1="221.76" x2="205.41" y2="221.76"/><polyline class="cls-2" points="233.59 228.84 215.97 228.84 215.97 221.76 215.97 232.77 208.73 232.77 208.73 245.04 215.5 245.04"/><rect class="cls-2" x="275.27" y="245.82" width="8.81" height="6.68"/><rect class="cls-2" x="267.09" y="272.72" width="8.18" height="7.71"/><polyline class="cls-2" points="291.63 270.68 291.63 239.85 295.25 239.85"/><polyline class="cls-2" points="285.02 283.89 269.76 283.89 269.76 305.6 267.09 305.6 267.09 308.11 284.08 308.11 284.08 306.07 286.28 306.07 286.28 300.09"/><polyline class="cls-2" points="257.02 300.25 257.02 284.68 251.99 284.68"/><line class="cls-2" x1="284.08" y1="336.27" x2="284.08" y2="332.81"/><rect class="cls-2" x="254.51" y="335.64" width="5.98" height="8.18"/><line class="cls-2" x1="271.18" y1="341.3" x2="261.11" y2="341.3"/><polyline class="cls-2" points="251.05 355.46 251.05 341.3 254.51 341.3"/><rect class="cls-2" x="202.6" y="347.59" width="4.25" height="1.89"/><polyline class="cls-2" points="197.88 358.76 197.88 346.33 196.31 346.33 196.31 342.72 204.72 342.72 204.72 330.61"/><polygon class="cls-2" points="194.58 316.29 201.5 316.29 201.5 304.34 189.7 304.34 189.7 305.91 185.46 305.91 185.46 312.04 190.02 312.04 194.58 316.29"/><polygon class="cls-2" points="194.26 319.59 194.58 316.29 190.02 312.04 185.46 312.04 169.73 312.04 169.73 317.08 188.91 335.64 192.69 335.64 192.69 319.12 194.26 319.59"/><polyline class="cls-2" points="176.65 301.51 176.65 304.97 160.76 304.97 159.19 306.54 159.19 313.62 162.96 318.18 169.73 317.08 174.68 321.87 173.81 325.41 180.42 332.02 185.18 332.02 188.91 335.64 188.91 343.82 192.85 347.59 196.31 346.33 197.41 349.48 192.53 349.48 192.4 347.59"/><polyline class="cls-2" points="196.98 355.46 194.58 355.46 191.79 355.46 188.98 355.46"/><rect class="cls-2" x="191.79" y="355.46" width="2.79" height="7.58"/><polygon class="cls-2" points="175.08 349.48 172.56 346.76 175.08 344.68 175.08 335.64 181.26 335.64 185.46 340.44 185.46 346.76 177.87 346.27 175.08 349.48"/><polygon class="cls-2" points="160.54 334.76 158.01 332.04 160.54 329.96 160.54 320.92 166.72 320.92 170.91 325.72 170.91 332.04 163.32 331.55 160.54 334.76"/><polygon class="cls-2" points="145.43 320.17 142.91 317.44 145.43 315.37 145.43 306.33 151.61 306.33 155.8 311.13 155.8 317.44 148.22 316.96 145.43 320.17"/><polygon class="cls-2" points="170.91 300.95 170.91 292.17 176.29 292.17 176.65 304.97 170.91 304.97 170.91 303.27 168.8 303.02 168.8 300.69 170.91 300.95"/><polygon class="cls-2" points="164.46 297.72 164.46 290.23 156.54 290.23 156.54 298.57 164.46 297.72"/><polygon class="cls-2" points="142.2 294.4 142.2 286.23 133.81 286.23 133.81 295.01 142.2 294.4"/><rect class="cls-2" x="127.61" y="297.98" width="6.2" height="3.52"/><line class="cls-2" x1="176.94" y1="416.2" x2="188.87" y2="422.86"/><line class="cls-2" x1="178.32" y1="431.46" x2="167.19" y2="425.96"/><line class="cls-2" x1="176.14" y1="435.25" x2="165.47" y2="430.09"/><polygon class="cls-2" points="340.36 275.2 340.36 284.78 350.77 284.78 350.77 274.54 340.36 275.2"/><polygon class="cls-2" points="326.65 226.13 326.65 249.16 355.4 249.16 355.4 265.12 362.01 265.12 362.01 248.1 366.64 248.1 366.64 217.86 359.2 217.86 359.2 207.95 351.44 207.95 351.44 217.04 346.64 217.04 346.64 220.84 339.04 220.84 339.04 225.63 326.65 226.13"/><path class="cls-2" d="M331.94,339.81s-8.6-.17-5.79,14.21,5.79,12.89,5.79,12.89,7.27,1.2,7.43-13.53S331.94,339.81,331.94,339.81Z"/><polyline class="cls-2" points="383.49 326.09 383.49 337.16 404.14 337.16 404.14 330.88 405.26 332 405.26 326.09"/><line class="cls-2" x1="412.08" y1="333.53" x2="412.08" y2="335.68"/><line class="cls-2" x1="354.57" y1="333.53" x2="354.57" y2="335.68"/><rect class="cls-2" x="365.64" y="376.82" width="5.12" height="5.12"/><polygon class="cls-2" points="380.68 377.98 380.68 400.78 397.7 400.78 397.7 408.88 401.67 408.88 401.67 381.12 398.03 381.12 398.03 377.98 380.68 377.98"/><line class="cls-2" x1="449.42" y1="333.53" x2="449.42" y2="337.16"/><polygon class="cls-2" points="512.21 335.68 507.25 335.35 507.25 343.44 505.1 343.44 505.1 351.7 513.03 351.7 512.21 335.68"/><line class="cls-2" x1="513.04" y1="332.37" x2="513.04" y2="337.16"/><polygon class="cls-2" points="543.77 334.77 543.77 354.35 577.31 354.35 577.31 340.3 568.06 340.3 568.06 333.53 543.77 334.77"/><text class="cls-4" transform="translate(543.37 68.89)">R</text><text class="cls-4" transform="translate(465.31 71.89)">R</text><text class="cls-4" transform="translate(482.4 160.27)">R</text><text class="cls-4" transform="translate(544.6 145)">G</text><text class="cls-4" transform="translate(415.03 150.45)">F</text><text class="cls-4" transform="translate(395.84 255.35)">E</text><text class="cls-4" transform="translate(338.37 244.08)">H</text><text class="cls-4" transform="translate(334.01 303.73)">D</text><text class="cls-4" transform="translate(246.35 244.08)">A</text><text class="cls-4" transform="translate(260.72 363.74)">C</text><text class="cls-4" transform="translate(140.37 303.73)">B</text><text class="cls-4" transform="translate(213.93 382.11)">K</text><text class="cls-4" transform="translate(172.74 431.76)">M</text><text class="cls-4" transform="translate(329.73 358.29)">J</text><text class="cls-4" transform="translate(364.2 404.11)">T</text><text class="cls-4" transform="translate(519.87 344.46)">P</text><text class="cls-4" transform="translate(385.41 358.28)">N</text><text class="cls-4" transform="translate(611.16 339.74)">S</text><polygon class="cls-2" points="43.11 204.35 32.37 341.19 46.7 342.45 46.7 338.98 55.44 340.56 55.44 343.72 66.5 343.72 69.66 316.22 72.5 316.86 76.93 296.31 130.97 301.37 133.81 301.05 133.81 296.63 76.61 291.35 82.19 227.14 77.98 197.63 43.11 204.35"/><line class="cls-2" x1="45.86" y1="277.33" x2="45.86" y2="203.82"/><polygon class="cls-2" points="39.83 295.22 39.07 301.2 42.29 301.2 42.29 299.67 42.29 295.98 39.83 295.22"/><polyline class="cls-2" points="36.07 294.05 49.97 295.14 49.97 297.29 42.29 296.98"/><polyline class="cls-2" points="35.43 302.2 45.86 300.98 45.86 303.13 53.19 303.13 52.27 310.49 56.57 310.49 55.49 328.45 68.06 330.12"/><text class="cls-4" transform="translate(51.74 265.28)"><tspan class="cls-5">C</tspan><tspan x="8.76" y="0">A</tspan></text><rect x="489.66" y="148.25" width="2.24" height="1.26" rx="0.51"/><rect x="491.07" y="157.82" width="3.08" height="1.26" rx="0.51"/><path d="M514.12,147.27c-10.26,2.54-6.45,13.42-12.42,15.55A11.88,11.88,0,0,0,512.38,159C515.63,155.19,516,150.1,514.12,147.27Z"/><path d="M503.06,146.57H491.48a.45.45,0,0,0-.45.45v.36a.45.45,0,0,0,.45.45h8.67a1.56,1.56,0,0,1,.08.42H494.1a.45.45,0,0,0-.45.45v.36a.45.45,0,0,0,.45.45H500a6.54,6.54,0,0,0-.48.73H496a.45.45,0,0,0-.45.45v.36a.45.45,0,0,0,.45.45h2.82a12.86,12.86,0,0,0-1,4.43h-3.95a.45.45,0,0,0-.45.45v.36a.45.45,0,0,0,.45.45h4c0,.21,0,.42.06.63H496a.45.45,0,0,0-.45.45v.36a.45.45,0,0,0,.45.45h1.71a1.51,1.51,0,0,1-.07.9h-5.33a.45.45,0,0,0-.45.45v.36a.45.45,0,0,0,.45.45H499a3.1,3.1,0,0,0,.7.77,3.51,3.51,0,0,0,.74.43c6.68-1.47,3.24-13.19,12.8-16.05C510.35,144,506.35,144.35,503.06,146.57Z"/><text class="cls-6" transform="translate(502.14 160.07)">7</text><rect x="391.47" y="228.54" width="2.24" height="1.26" rx="0.51"/><rect x="392.87" y="238.11" width="3.08" height="1.26" rx="0.51"/><path d="M415.93,227.56c-10.27,2.54-6.46,13.42-12.42,15.55a11.86,11.86,0,0,0,10.67-3.82C417.44,235.47,417.78,230.39,415.93,227.56Z"/><path d="M404.86,226.86H393.29a.46.46,0,0,0-.46.45v.35a.47.47,0,0,0,.46.46H402a1.2,1.2,0,0,1,.07.42h-6.12a.45.45,0,0,0-.45.45v.35a.46.46,0,0,0,.45.46h5.88c-.17.23-.33.48-.48.73h-3.47a.45.45,0,0,0-.45.45v.35a.46.46,0,0,0,.45.46h2.83a12.37,12.37,0,0,0-1,4.43h-3.95a.45.45,0,0,0-.45.45V237a.46.46,0,0,0,.45.46h4c0,.21,0,.42.05.63h-1.89a.45.45,0,0,0-.45.45v.36a.45.45,0,0,0,.45.45h1.72a1.59,1.59,0,0,1-.07.9h-5.33a.45.45,0,0,0-.45.45v.35a.46.46,0,0,0,.45.46h6.66a3.08,3.08,0,0,0,.7.77,4.26,4.26,0,0,0,.73.43c6.68-1.47,3.25-13.19,12.81-16.06C412.16,224.31,408.16,224.63,404.86,226.86Z"/><text class="cls-6" transform="translate(403.95 240.36)">5</text><rect x="348.69" y="283.16" width="2.24" height="1.26" rx="0.51"/><rect x="350.09" y="292.73" width="3.08" height="1.26" rx="0.51"/><path d="M373.15,282.18c-10.27,2.54-6.46,13.42-12.42,15.55a11.86,11.86,0,0,0,10.67-3.82C374.66,290.1,375,285,373.15,282.18Z"/><path d="M362.08,281.48H350.51a.46.46,0,0,0-.46.45v.36a.46.46,0,0,0,.46.45h8.67a1.2,1.2,0,0,1,.07.42h-6.12a.45.45,0,0,0-.45.45V284a.46.46,0,0,0,.45.46H359c-.17.23-.33.48-.48.73h-3.47a.45.45,0,0,0-.45.45V286a.45.45,0,0,0,.45.45h2.83a12.42,12.42,0,0,0-1,4.43h-3.95a.45.45,0,0,0-.45.45v.36a.45.45,0,0,0,.45.45h4c0,.21,0,.42.05.63h-1.89a.45.45,0,0,0-.45.45v.36a.45.45,0,0,0,.45.45h1.72a1.59,1.59,0,0,1-.07.9h-5.33a.45.45,0,0,0-.45.45v.35a.46.46,0,0,0,.45.46H358a2.92,2.92,0,0,0,.7.77,4.26,4.26,0,0,0,.73.43c6.68-1.47,3.25-13.19,12.81-16.06C369.38,278.93,365.38,279.25,362.08,281.48Z"/><text class="cls-6" transform="translate(361.17 294.98)">4</text><rect class="cls-7" x="198.38" y="232.18" width="2.24" height="1.26" rx="0.51"/><rect class="cls-7" x="199.79" y="241.75" width="3.08" height="1.26" rx="0.51"/><path d="M222.84,231.2c-10.26,2.54-6.45,13.42-12.42,15.55a11.88,11.88,0,0,0,10.68-3.82C224.35,239.11,224.7,234,222.84,231.2Z"/><path d="M211.78,230.5H200.2a.45.45,0,0,0-.45.45v.36a.45.45,0,0,0,.45.45h8.67a1.49,1.49,0,0,1,.08.42h-6.12a.46.46,0,0,0-.46.45V233a.47.47,0,0,0,.46.46h5.88c-.17.23-.33.48-.48.73h-3.47a.45.45,0,0,0-.45.45V235a.45.45,0,0,0,.45.45h2.82a12.57,12.57,0,0,0-1,4.43h-4a.45.45,0,0,0-.45.45v.36a.46.46,0,0,0,.45.45h4c0,.21,0,.42.06.63h-1.89a.45.45,0,0,0-.45.45v.36a.45.45,0,0,0,.45.45h1.71a1.51,1.51,0,0,1-.07.9h-5.32a.46.46,0,0,0-.46.45v.35a.47.47,0,0,0,.46.46h6.65a3.29,3.29,0,0,0,.7.77,4,4,0,0,0,.74.43c6.68-1.47,3.24-13.19,12.81-16.06C219.07,228,215.07,228.27,211.78,230.5Z"/><text class="cls-6" transform="translate(210.86 244)">2</text><rect x="32.36" y="265.06" width="2.24" height="1.26" rx="0.51"/><rect x="33.77" y="274.63" width="3.08" height="1.26" rx="0.51"/><path d="M56.83,264.08c-10.27,2.54-6.46,13.42-12.43,15.55a11.87,11.87,0,0,0,10.68-3.82C58.34,272,58.68,266.91,56.83,264.08Z"/><path d="M45.76,263.38H34.18a.45.45,0,0,0-.45.45v.36a.45.45,0,0,0,.45.45h8.67a1,1,0,0,1,.08.42H36.81a.45.45,0,0,0-.45.45v.36a.45.45,0,0,0,.45.45h5.88c-.17.24-.33.48-.48.73H38.74a.45.45,0,0,0-.45.45v.36a.45.45,0,0,0,.45.45h2.82a12.62,12.62,0,0,0-1,4.43h-4a.45.45,0,0,0-.45.45v.36a.45.45,0,0,0,.45.45h4c0,.21,0,.42.05.63H38.74a.45.45,0,0,0-.45.45v.36a.45.45,0,0,0,.45.45h1.72a1.52,1.52,0,0,1-.08.9H35.06a.45.45,0,0,0-.45.45v.36a.45.45,0,0,0,.45.45h6.66a2.92,2.92,0,0,0,.7.77,3.43,3.43,0,0,0,.73.43c6.68-1.47,3.24-13.19,12.81-16.05C53.06,260.83,49.06,261.15,45.76,263.38Z"/><text class="cls-6" transform="translate(44.85 276.88)">1</text><ellipse class="cls-8" cx="398.91" cy="416.22" rx="5.14" ry="4.8"/><polyline class="cls-9" points="397.99 413.81 397.99 416.21 401.04 416.21 402.09 418.16 402.89 417.78"/><path class="cls-9" d="M397.2,415.75s-1.95,1.71-.18,3.08c2.19,1.71,3.48-1.44,3.48-1.44"/><line class="cls-9" x1="397.99" y1="415.46" x2="399.84" y2="415.46"/><ellipse class="cls-9" cx="398.13" cy="413.06" rx="0.78" ry="0.73"/><ellipse class="cls-8" cx="410.69" cy="393.27" rx="5.14" ry="4.8"/><polyline class="cls-9" points="409.77 390.86 409.77 393.26 412.83 393.26 413.87 395.21 414.68 394.83"/><path class="cls-9" d="M409,392.8s-1.95,1.71-.18,3.08c2.19,1.71,3.47-1.43,3.47-1.43"/><line class="cls-9" x1="409.77" y1="392.51" x2="411.62" y2="392.51"/><ellipse class="cls-9" cx="409.91" cy="390.11" rx="0.78" ry="0.73"/><ellipse class="cls-8" cx="402.89" cy="366.95" rx="5.14" ry="4.8"/><polyline class="cls-9" points="401.97 364.54 401.97 366.94 405.03 366.94 406.07 368.89 406.88 368.52"/><path class="cls-9" d="M401.19,366.48s-1.95,1.71-.18,3.09c2.19,1.7,3.47-1.44,3.47-1.44"/><line class="cls-9" x1="401.97" y1="366.19" x2="403.82" y2="366.19"/><ellipse class="cls-9" cx="402.11" cy="363.8" rx="0.78" ry="0.73"/><ellipse class="cls-8" cx="445.07" cy="349.26" rx="5.14" ry="4.8"/><polyline class="cls-9" points="444.15 346.85 444.15 349.25 447.21 349.25 448.25 351.2 449.06 350.83"/><path class="cls-9" d="M443.37,348.79s-1.95,1.71-.18,3.09c2.19,1.7,3.47-1.44,3.47-1.44"/><line class="cls-9" x1="444.15" y1="348.5" x2="446" y2="348.5"/><ellipse class="cls-9" cx="444.29" cy="346.11" rx="0.78" ry="0.73"/><ellipse class="cls-8" cx="468.72" cy="357.18" rx="5.14" ry="4.8"/><polyline class="cls-9" points="467.8 354.77 467.8 357.17 470.86 357.17 471.9 359.12 472.71 358.75"/><path class="cls-9" d="M467,356.71s-1.95,1.71-.18,3.09c2.19,1.7,3.48-1.44,3.48-1.44"/><line class="cls-9" x1="467.8" y1="356.42" x2="469.65" y2="356.42"/><ellipse class="cls-9" cx="467.94" cy="354.02" rx="0.78" ry="0.73"/><ellipse class="cls-8" cx="445.07" cy="327.84" rx="5.14" ry="4.8"/><polyline class="cls-9" points="444.15 325.43 444.15 327.83 447.21 327.83 448.25 329.78 449.06 329.41"/><path class="cls-9" d="M443.37,327.37s-1.95,1.71-.18,3.09c2.19,1.7,3.47-1.44,3.47-1.44"/><line class="cls-9" x1="444.15" y1="327.08" x2="446" y2="327.08"/><ellipse class="cls-9" cx="444.29" cy="324.69" rx="0.78" ry="0.73"/><ellipse class="cls-8" cx="391.17" cy="330.92" rx="5.14" ry="4.8"/><polyline class="cls-9" points="390.25 328.51 390.25 330.91 393.31 330.91 394.35 332.86 395.16 332.48"/><path class="cls-9" d="M389.47,330.45s-2,1.71-.18,3.08c2.19,1.71,3.48-1.44,3.48-1.44"/><line class="cls-9" x1="390.25" y1="330.16" x2="392.1" y2="330.16"/><ellipse class="cls-9" cx="390.39" cy="327.76" rx="0.78" ry="0.73"/><ellipse class="cls-8" cx="555.69" cy="321.13" rx="5.14" ry="4.8"/><polyline class="cls-9" points="554.77 318.73 554.77 321.13 557.82 321.13 558.87 323.08 559.67 322.7"/><path class="cls-9" d="M554,320.67s-2,1.71-.18,3.08c2.19,1.7,3.48-1.44,3.48-1.44"/><line class="cls-9" x1="554.77" y1="320.38" x2="556.62" y2="320.38"/><ellipse class="cls-9" cx="554.91" cy="317.98" rx="0.78" ry="0.73"/><ellipse class="cls-8" cx="626.16" cy="316.73" rx="5.14" ry="4.8"/><polyline class="cls-9" points="625.24 314.32 625.24 316.72 628.3 316.72 629.34 318.67 630.15 318.29"/><path class="cls-9" d="M624.46,316.26s-2,1.71-.18,3.08c2.19,1.71,3.48-1.43,3.48-1.43"/><line class="cls-9" x1="625.24" y1="315.97" x2="627.09" y2="315.97"/><ellipse class="cls-9" cx="625.38" cy="313.57" rx="0.78" ry="0.73"/><ellipse class="cls-8" cx="578.09" cy="342.73" rx="5.14" ry="4.8"/><polyline class="cls-9" points="577.17 340.32 577.17 342.72 580.23 342.72 581.27 344.67 582.08 344.29"/><path class="cls-9" d="M576.39,342.26s-1.95,1.71-.18,3.08c2.19,1.71,3.47-1.44,3.47-1.44"/><line class="cls-9" x1="577.17" y1="341.97" x2="579.02" y2="341.97"/><ellipse class="cls-9" cx="577.31" cy="339.57" rx="0.78" ry="0.73"/><ellipse class="cls-8" cx="350.93" cy="408.88" rx="5.14" ry="4.8"/><polyline class="cls-9" points="350.01 406.47 350.01 408.87 353.06 408.87 354.11 410.82 354.91 410.44"/><path class="cls-9" d="M349.22,408.41s-2,1.71-.18,3.08c2.19,1.71,3.48-1.44,3.48-1.44"/><line class="cls-9" x1="350.01" y1="408.12" x2="351.86" y2="408.12"/><ellipse class="cls-9" cx="350.15" cy="405.72" rx="0.78" ry="0.73"/><ellipse class="cls-8" cx="322.02" cy="401.18" rx="5.14" ry="4.8"/><polyline class="cls-9" points="321.1 398.77 321.1 401.17 324.16 401.17 325.2 403.12 326.01 402.75"/><path class="cls-9" d="M320.32,400.71s-1.95,1.71-.18,3.09c2.19,1.7,3.48-1.44,3.48-1.44"/><line class="cls-9" x1="321.1" y1="400.42" x2="322.95" y2="400.42"/><ellipse class="cls-9" cx="321.25" cy="398.02" rx="0.78" ry="0.73"/><ellipse class="cls-8" cx="239.67" cy="373.69" rx="5.14" ry="4.8"/><polyline class="cls-9" points="238.75 371.28 238.75 373.68 241.81 373.68 242.85 375.63 243.66 375.25"/><path class="cls-9" d="M238,373.22s-1.95,1.71-.18,3.08c2.19,1.71,3.48-1.43,3.48-1.43"/><line class="cls-9" x1="238.75" y1="372.93" x2="240.6" y2="372.93"/><ellipse class="cls-9" cx="238.89" cy="370.53" rx="0.78" ry="0.73"/><ellipse class="cls-8" cx="210.42" cy="391" rx="5.14" ry="4.8"/><polyline class="cls-9" points="209.5 388.59 209.5 390.99 212.56 390.99 213.6 392.94 214.41 392.56"/><path class="cls-9" d="M208.71,390.53s-1.94,1.71-.18,3.08c2.2,1.7,3.48-1.44,3.48-1.44"/><line class="cls-9" x1="209.5" y1="390.24" x2="211.35" y2="390.24"/><ellipse class="cls-9" cx="209.64" cy="387.84" rx="0.78" ry="0.73"/><ellipse class="cls-8" cx="184.83" cy="364.53" rx="5.14" ry="4.8"/><polyline class="cls-9" points="183.91 362.12 183.91 364.52 186.97 364.52 188.01 366.47 188.81 366.09"/><path class="cls-9" d="M183.12,364.06s-1.94,1.71-.18,3.08c2.2,1.71,3.48-1.44,3.48-1.44"/><line class="cls-9" x1="183.91" y1="363.77" x2="185.76" y2="363.77"/><ellipse class="cls-9" cx="184.05" cy="361.37" rx="0.78" ry="0.73"/><ellipse class="cls-8" cx="47.48" cy="344.88" rx="5.14" ry="4.8"/><polyline class="cls-9" points="46.56 342.47 46.56 344.87 49.61 344.87 50.66 346.82 51.46 346.44"/><path class="cls-9" d="M45.77,344.41s-2,1.71-.18,3.08c2.19,1.71,3.48-1.44,3.48-1.44"/><line class="cls-9" x1="46.56" y1="344.12" x2="48.41" y2="344.12"/><ellipse class="cls-9" cx="46.7" cy="341.72" rx="0.78" ry="0.73"/><ellipse class="cls-8" cx="51.74" cy="221.76" rx="5.14" ry="4.8"/><polyline class="cls-9" points="50.82 219.35 50.82 221.75 53.88 221.75 54.92 223.7 55.73 223.32"/><path class="cls-9" d="M50,221.29s-1.95,1.71-.18,3.08c2.19,1.71,3.48-1.43,3.48-1.43"/><line class="cls-9" x1="50.82" y1="221" x2="52.67" y2="221"/><ellipse class="cls-9" cx="50.96" cy="218.6" rx="0.78" ry="0.73"/><ellipse class="cls-8" cx="191.79" cy="235.41" rx="5.14" ry="4.8"/><polyline class="cls-9" points="190.87 233.01 190.87 235.41 193.92 235.41 194.97 237.36 195.77 236.98"/><path class="cls-9" d="M190.08,235s-2,1.71-.18,3.08c2.19,1.7,3.48-1.44,3.48-1.44"/><line class="cls-9" x1="190.87" y1="234.66" x2="192.72" y2="234.66"/><ellipse class="cls-9" cx="191.01" cy="232.26" rx="0.78" ry="0.73"/><ellipse class="cls-8" cx="354.91" cy="207.82" rx="5.14" ry="4.8"/><polyline class="cls-9" points="353.99 205.41 353.99 207.81 357.05 207.81 358.09 209.76 358.9 209.38"/><path class="cls-9" d="M353.21,207.35s-1.95,1.71-.18,3.08c2.19,1.71,3.48-1.43,3.48-1.43"/><line class="cls-9" x1="353.99" y1="207.06" x2="355.84" y2="207.06"/><ellipse class="cls-9" cx="354.13" cy="204.66" rx="0.78" ry="0.73"/><ellipse class="cls-8" cx="402.9" cy="203.02" rx="5.14" ry="4.8"/><polyline class="cls-9" points="401.98 200.62 401.98 203.01 405.03 203.01 406.08 204.96 406.88 204.59"/><path class="cls-9" d="M401.19,202.55s-1.95,1.71-.18,3.09c2.19,1.7,3.48-1.44,3.48-1.44"/><line class="cls-9" x1="401.97" y1="202.26" x2="403.82" y2="202.26"/><ellipse class="cls-9" cx="402.12" cy="199.87" rx="0.78" ry="0.73"/><ellipse class="cls-8" cx="453.28" cy="167.23" rx="5.14" ry="4.8"/><polyline class="cls-9" points="452.36 164.83 452.36 167.23 455.42 167.23 456.46 169.18 457.26 168.8"/><path class="cls-9" d="M451.57,166.77s-1.94,1.71-.17,3.08c2.19,1.7,3.47-1.44,3.47-1.44"/><line class="cls-9" x1="452.36" y1="166.48" x2="454.21" y2="166.48"/><ellipse class="cls-9" cx="452.5" cy="164.08" rx="0.78" ry="0.73"/><ellipse class="cls-8" cx="501.7" cy="76.31" rx="5.14" ry="4.8"/><polyline class="cls-9" points="500.78 73.91 500.78 76.31 503.83 76.31 504.88 78.25 505.68 77.88"/><path class="cls-9" d="M500,75.85s-1.94,1.7-.18,3.08c2.19,1.7,3.48-1.44,3.48-1.44"/><line class="cls-9" x1="500.78" y1="75.56" x2="502.63" y2="75.56"/><ellipse class="cls-9" cx="500.92" cy="73.16" rx="0.78" ry="0.73"/><path d="M405.32,387.58c-8.86,2.18-5.57,11.58-10.72,13.42a10.25,10.25,0,0,0,9.22-3.3C406.63,394.41,406.92,390,405.32,387.58Z"/><path d="M395.77,387h-10a.38.38,0,0,0-.39.39v.31a.39.39,0,0,0,.39.39h7.48a1.1,1.1,0,0,1,.07.36H388a.39.39,0,0,0-.39.39v.31a.4.4,0,0,0,.39.39h5.08a5.23,5.23,0,0,0-.41.63h-3a.39.39,0,0,0-.39.39v.3a.39.39,0,0,0,.39.39h2.44a10.78,10.78,0,0,0-.86,3.83h-3.41a.38.38,0,0,0-.39.39v.31a.39.39,0,0,0,.39.39h3.42c0,.18,0,.36,0,.54h-1.63a.4.4,0,0,0-.39.39v.31a.4.4,0,0,0,.39.39h1.48a1.31,1.31,0,0,1-.06.77h-4.6a.4.4,0,0,0-.39.39v.31a.39.39,0,0,0,.39.39h5.75a2.63,2.63,0,0,0,.6.67,3.26,3.26,0,0,0,.64.37c5.77-1.27,2.8-11.38,11.05-13.86C402.07,384.77,398.62,385.05,395.77,387Z"/><text class="cls-10" transform="translate(393.92 398.6)">6</text><circle class="cls-11" cx="390.25" cy="341.01" r="6.4"/><line class="cls-12" x1="388.55" y1="339.73" x2="386.55" y2="339.66"/><line class="cls-13" x1="382.55" y1="339.54" x2="264.48" y2="335.77"/><polyline class="cls-12" points="262.48 335.7 260.48 335.64 260.26 337.63"/><line class="cls-14" x1="259.89" y1="340.84" x2="259.34" y2="345.67"/><polyline class="cls-12" points="259.16 347.27 258.93 349.26 256.93 349.2"/><line class="cls-15" x1="253.23" y1="349.08" x2="210.7" y2="347.72"/><polyline class="cls-12" points="208.85 347.66 206.85 347.59 205.58 346.05"/><line class="cls-16" x1="202.71" y1="342.56" x2="192.68" y2="330.37"/><line class="cls-12" x1="191.24" y1="328.63" x2="189.97" y2="327.08"/><rect x="172.8" y="319.87" width="2.24" height="1.26" rx="0.51"/><rect x="174.2" y="329.45" width="3.08" height="1.26" rx="0.51"/><path d="M197.26,318.9c-10.27,2.53-6.46,13.41-12.43,15.54a11.86,11.86,0,0,0,10.68-3.81C198.77,326.81,199.11,321.72,197.26,318.9Z"/><path d="M186.19,318.2H174.61a.45.45,0,0,0-.45.45V319a.45.45,0,0,0,.45.45h8.68a1.28,1.28,0,0,1,.07.42h-6.12a.46.46,0,0,0-.45.46v.35a.45.45,0,0,0,.45.45h5.88c-.17.24-.33.49-.48.74h-3.47a.45.45,0,0,0-.45.45v.35a.45.45,0,0,0,.45.45H182a12.42,12.42,0,0,0-1,4.44h-3.95a.45.45,0,0,0-.45.45v.35a.45.45,0,0,0,.45.45h4c0,.22,0,.43.05.64h-1.89a.45.45,0,0,0-.45.45v.35a.46.46,0,0,0,.45.46h1.72a1.48,1.48,0,0,1-.08.89h-5.32a.46.46,0,0,0-.45.46v.35a.45.45,0,0,0,.45.45h6.66a3,3,0,0,0,.7.78,3.41,3.41,0,0,0,.73.42c6.68-1.46,3.25-13.18,12.81-16.05C193.49,315.65,189.49,316,186.19,318.2Z"/><text class="cls-6" transform="translate(185.28 331.7)">3</text></svg>