<svg xmlns="http://www.w3.org/2000/svg" id="Layer_1" viewBox="0 0 676.8 452.13" width="676.8" height="452.13"><defs><style>.cls-1,.cls-12,.cls-13,.cls-14,.cls-15,.cls-16,.cls-9{fill:none}.cls-1{stroke:#fff}.cls-1,.cls-12,.cls-13,.cls-14,.cls-15,.cls-16,.cls-2,.cls-3,.cls-9{stroke-miterlimit:10}.cls-2{fill:#d8e6ea}.cls-2,.cls-3{stroke:#515354;stroke-width:.75px}.cls-10,.cls-3,.cls-6{fill:#fff}.cls-4{font-size:15px;fill:#515354}.cls-10,.cls-4,.cls-6{font-family:MyriadPro-Regular,Myriad Pro}.cls-5{letter-spacing:0}.cls-6{font-size:18.57px}.cls-7{fill:#150c0a}.cls-8{fill:#2668ad}.cls-9{stroke:#fdfefe;stroke-width:.44px}.cls-10{font-size:17.81px}.cls-11{fill:#f05455}.cls-12,.cls-13,.cls-14,.cls-15,.cls-16{stroke:#f05455}.cls-13{stroke-dasharray:4 4}.cls-14{stroke-dasharray:3.24 3.24}.cls-15{stroke-dasharray:3.7 3.7}.cls-16{stroke-dasharray:4.51 4.51}</style></defs><path d="M36.95 206.49L26.21 343.33l14.33 1.27v-3.48l8.74 1.58v3.16h11.06l3.16-27.49 2.85.63 4.42-20.54 54.04 5.05 2.85-.31v-4.43l-57.21-5.28 5.59-64.2-4.21-29.51-34.88 6.71zm2.76 72.98v-73.51" class="cls-1"/><path d="M33.68 297.36l-.77 5.99h3.22v-5.22l-2.45-.77z" class="cls-1"/><path d="M29.91 296.19l13.9 1.1v2.15l-7.68-.31m-6.86 5.22l10.44-1.23v2.15h7.32l-.92 7.37h4.3l-1.07 17.96 12.56 1.67" class="cls-1"/><path d="M575.31 104.11L580 72.18l-49.94-1.29-1.71 6 3.43.43-.64 7.5-2.79.43V99.4H523v63.23l-74.8-2.79 1.71-64.95h2.14l.22-28.72s-1.72-2.78-.64-4.71 5.57 0 5.57 0l1.5-2.57 30.44 1.71v-3.43l96.46 1.93v5.14l9.64.43-6 38.58-7.07-.85-1.07 2.35z" class="cls-2"/><path d="M515.86 78.52l-14.16-1.29v-4.07l-16.72-1.29-1.93 4.51-16.94-1.18v19.19h-3.43v54.03l45.24 1.5 2.15-39.02 4.5-1.07 1.29-31.31z" class="cls-3"/><path d="M535.23 128.95v20.08l30.63.89v-20.46l-30.63-.51zm-129.82-.32v31.68l13.68-.26v-2.59l16.81.37v-29.2H425l-.55-3.14h-2.22l-.19 3.33h-4.25v-3.33h-2.77l-.18 3.33-9.43-.19zm-16.73 56.87s20.2 17.24 41.63 26.85l-13.79 30.05 16.25 38.67h-3.94l1 19.21h-34v6.4h-10.35V288l3.7.89-.5-23.79-7.88 3.45v2.71l-6.4-.25v45h-47.51l-.41 15h-2.57v-18.2h-4.5v-9.93h4.22v-20.49h-4.22v-9.75h4v-2.76h-18.53v-2.2h15.81v-4.32H324V227.7l3.22-2.3-.19-7.17h3.77s11-13 26.2-13.33l13 7.26v6.07h3.58v10h2.3v23.53h2.48V257l7.54-3.68V251h3.22z" class="cls-2"/><path d="M295.93 239.75V213.8h-16.35v23.42h6.24v3.03h-10.87v27.8h-5.22v-16.34h1.09v-1.52h-1.09v-2.78h1.51v-2.61h-2.02v-7.33h1.94v-7.66h-1.94v-5.31h2.36v-7.66h-1.94v-12.72h28.05v-25.28h-58.03v40.61h-4.81v-5.65h-10.1v-4.63h9.68v-31.25h-22.74V209h10.11v4.63h-10.11v5.73h-4.8v-38.33H189.7v31h-21.14v53.43h11.04v33.44h25.83v2.3h3.87v1.14h1.18v-4.61h-1.74v-6.51h-2.3v-5.86h45.8v8.02h-1.84v4.06h1.16v3.38h-2.22v31.12h2.71v10.62H221.8v-11.31h-15.62l-.23-25.58h9.85v-2.94h-38.59v-9.96h-3.96v-3.52h-22.98v-4.29h-22.18v16.41h5.77v12.56h11.88l-2.37 3.28 2.6 3.17 2.38-3.17v12.45h12.22l-2.6 2.95 2.6 1.92 2.83-2.38v12.34h12.45l-2.15 2.83 2.04 2.26 3.28-2.03v12.1h11.77v3.63h4.64v-3.4h3.28v3.4h16.53v-6.23h36.89v13.81h29.77V342h-9.73v-4.64h83.35l1.8 6.92 3.31-.15h23.45v21.95h17.89v10.22h3.91v-9.92l7.96-3.46V328.2l-7.51-2.56h-50.06l.15 7.37h-89.6v-1.81h31.87v-29.61h-27.73v-3.61h14.66V284.3h6.16v-12.93h12.78v-31.41l-8.63-.21zm-123 165.36l-3.69 7.01 8.98 4.92-1.97 3.56-15.26-7.74-3.69 7.74 11.94 6.4-1.48 3.57h-2.22l-4.55 9.1 21.04 11.19 5.29-9.47-9.72-5.29 1.84-3.56 14.89 7.01 4.06-7.14-9.84-5.29 1.97-3.93 1.6.74 3.81-6.77-23-12.05z" class="cls-2"/><path d="M228.2 396.84l-17.59-10.34s-8.59-6.18-3.76-14.91 40.42-4.3 40.42-4.3v15.58l-3.76-.13-.27-1.24h-15.57l-.41 10.1h1.35zm96.34-64.22v4.75h-1.32v6.19h1.32v55.77h6.33v1.85h4.74v-1.19h8.84v-61.83l-8.18-5.54h-11.73zm27.69 44.43v37.45h64.6v-37.98h-45.22v-1.84h-7.52v-2.64l-11.86 1.58-7.78-.13v3.43l7.78.13zm61.42-43.37v3.88h37.32v13.73h50.83l1.99 3.14h5.24v-2.93h4.83v1.36h30.92v2.83h33.33V342.9h18.76v4.82h6.6v2.73h14.26v2.3h45.17v-12.57h-20.12v-26.1h-38.57v2.72h-7.13v23.48h-16.77v-19.81h-39.52v2.31h-24.84v6.49h-1.78v2.84h-5.03v-2.42h-6.39v3.25h-44.03v-2.2h-7.44v3.25l-37.63-.31zM515.52 74.35v-2.58s-4.12-2.06-1.55-6c0 0 1.89-2.06 3.61-1.2v-7.4m-4.45 44.66h8.92m-59.78 44.32h-6.36l-1.89-2.75h-6.01m-256.55 90.8h3.76v19.49h-16.38v12.62m26.57 18.38V218.7m32.9 3.06h-32.9m28.18 7.08h-17.62v-7.08 11.01h-7.24v12.27h6.77m59.77.78h8.81v6.68h-8.81zm-8.18 26.9h8.18v7.71h-8.18zm24.54-2.04v-30.83h3.62m-10.23 44.04h-15.26v21.71h-2.67v2.51h16.99v-2.04h2.2v-5.98m-29.26.16v-15.57h-5.03m32.09 51.59v-3.46m-29.57 2.83h5.98v8.18h-5.98zm16.67 5.66h-10.07" class="cls-2"/><path d="M251.05 355.46V341.3h3.46m-51.91 6.29h4.25v1.89h-4.25z" class="cls-2"/><path d="M197.88 358.76v-12.43h-1.57v-3.61h8.41v-12.11m-10.14-14.32h6.92v-11.95h-11.8v1.57h-4.24v6.13h4.56l4.56 4.25z" class="cls-2"/><path d="M194.26 319.59l.32-3.3-4.56-4.25h-20.29v5.04l19.18 18.56h3.78v-16.52l1.57.47z" class="cls-2"/><path d="M176.65 301.51v3.46h-15.89l-1.57 1.57v7.08l3.77 4.56 6.77-1.1 4.95 4.79-.87 3.54 6.61 6.61h4.76l3.73 3.62v8.18l3.94 3.77 3.46-1.26 1.1 3.15h-4.88l-.13-1.89m4.58 7.87h-8m2.81 0h2.79v7.58h-2.79z" class="cls-2"/><path d="M175.08 349.48l-2.52-2.72 2.52-2.08v-9.04h6.18l4.2 4.8v6.32l-7.59-.49-2.79 3.21zm-14.54-14.72l-2.53-2.72 2.53-2.08v-9.04h6.18l4.19 4.8v6.32l-7.59-.49-2.78 3.21zm-15.11-14.59l-2.52-2.73 2.52-2.07v-9.04h6.18l4.19 4.8v6.31l-7.58-.48-2.79 3.21zm25.48-19.22v-8.78h5.38l.36 12.8h-5.74v-1.7l-2.11-.25v-2.33l2.11.26zm-6.45-3.23v-7.49h-7.92v8.34l7.92-.85zm-22.26-3.32v-8.17h-8.39v8.78l8.39-.61zm-14.59 3.58h6.2v3.52h-6.2zm49.33 118.22l11.93 6.66m-10.55 8.6l-11.13-5.5m8.95 9.29l-10.67-5.16M340.36 275.2v9.58h10.41v-10.24l-10.41.66zm-13.71-49.07v23.03h28.75v15.96h6.61V248.1h4.63v-30.24h-7.44v-9.91h-7.76v9.09h-4.8v3.8h-7.6v4.79l-12.39.5zm5.29 113.68s-8.6-.17-5.79 14.21 5.79 12.89 5.79 12.89 7.27 1.2 7.43-13.53-7.43-13.57-7.43-13.57zm51.55-13.72v11.07h20.65v-6.28l1.12 1.12v-5.91m6.82 7.44v2.15m-57.51-2.15v2.15m11.07 41.14h5.12v5.12h-5.12zm15.04 1.16v22.8h17.02v8.1h3.97v-27.76h-3.64v-3.14h-17.35zm68.74-44.45v3.63m62.79-1.48l-4.96-.33v8.09h-2.15v8.26h7.93l-.82-16.02zm.83-3.31v4.79m30.73-2.39v19.58h33.54V340.3h-9.25v-6.77l-24.29 1.24z" class="cls-2"/><text class="cls-4" transform="translate(543.37 68.89)">R</text><text class="cls-4" transform="translate(465.31 71.89)">R</text><text class="cls-4" transform="translate(482.4 160.27)">R</text><text class="cls-4" transform="translate(544.6 145)">G</text><text class="cls-4" transform="translate(415.03 150.45)">F</text><text class="cls-4" transform="translate(395.84 255.35)">E</text><text class="cls-4" transform="translate(338.37 244.08)">H</text><text class="cls-4" transform="translate(334.01 303.73)">D</text><text class="cls-4" transform="translate(246.35 244.08)">A</text><text class="cls-4" transform="translate(260.72 363.74)">C</text><text class="cls-4" transform="translate(140.37 303.73)">B</text><text class="cls-4" transform="translate(213.93 382.11)">K</text><text class="cls-4" transform="translate(172.74 431.76)">M</text><text class="cls-4" transform="translate(329.73 358.29)">J</text><text class="cls-4" transform="translate(364.2 404.11)">T</text><text class="cls-4" transform="translate(519.87 344.46)">P</text><text class="cls-4" transform="translate(385.41 358.28)">N</text><text class="cls-4" transform="translate(611.16 339.74)">S</text><path d="M43.11 204.35L32.37 341.19l14.33 1.26v-3.47l8.74 1.58v3.16H66.5l3.16-27.5 2.84.64 4.43-20.55 54.04 5.06 2.84-.32v-4.42l-57.2-5.28 5.58-64.21-4.21-29.51-34.87 6.72zm2.75 72.98v-73.51" class="cls-2"/><path d="M39.83 295.22l-.76 5.98h3.22v-5.22l-2.46-.76z" class="cls-2"/><path d="M36.07 294.05l13.9 1.09v2.15l-7.68-.31m-6.86 5.22l10.43-1.22v2.15h7.33l-.92 7.36h4.3l-1.08 17.96 12.57 1.67" class="cls-2"/><text class="cls-4" transform="translate(51.74 265.28)"><tspan class="cls-5">C</tspan><tspan x="8.76" y="0">A</tspan></text><rect width="2.24" height="1.26" x="489.66" y="148.25" rx=".51"/><rect width="3.08" height="1.26" x="491.07" y="157.82" rx=".51"/><path d="M514.12 147.27c-10.26 2.54-6.45 13.42-12.42 15.55a11.88 11.88 0 0 0 10.68-3.82c3.25-3.81 3.62-8.9 1.74-11.73z"/><path d="M503.06 146.57h-11.58a.45.45 0 0 0-.45.45v.36a.45.45 0 0 0 .45.45h8.67a1.56 1.56 0 0 1 .08.42h-6.13a.45.45 0 0 0-.45.45v.36a.45.45 0 0 0 .45.45h5.9a6.54 6.54 0 0 0-.48.73H496a.45.45 0 0 0-.45.45v.36a.45.45 0 0 0 .45.45h2.82a12.86 12.86 0 0 0-1 4.43h-3.95a.45.45 0 0 0-.45.45v.36a.45.45 0 0 0 .45.45h4c0 .21 0 .42.06.63H496a.45.45 0 0 0-.45.45v.36a.45.45 0 0 0 .45.45h1.71a1.51 1.51 0 0 1-.07.9h-5.33a.45.45 0 0 0-.45.45v.36a.45.45 0 0 0 .45.45H499a3.1 3.1 0 0 0 .7.77 3.51 3.51 0 0 0 .74.43c6.68-1.47 3.24-13.19 12.8-16.05-2.89-2.39-6.89-2.04-10.18.18z"/><text class="cls-6" transform="translate(502.14 160.07)">7</text><rect width="2.24" height="1.26" x="391.47" y="228.54" rx=".51"/><rect width="3.08" height="1.26" x="392.87" y="238.11" rx=".51"/><path d="M415.93 227.56c-10.27 2.54-6.46 13.42-12.42 15.55a11.86 11.86 0 0 0 10.67-3.82c3.26-3.82 3.6-8.9 1.75-11.73z"/><path d="M404.86 226.86h-11.57a.46.46 0 0 0-.46.45v.35a.47.47 0 0 0 .46.46H402a1.2 1.2 0 0 1 .07.42h-6.12a.45.45 0 0 0-.45.45v.35a.46.46 0 0 0 .45.46h5.88c-.17.23-.33.48-.48.73h-3.47a.45.45 0 0 0-.45.45v.35a.46.46 0 0 0 .45.46h2.83a12.37 12.37 0 0 0-1 4.43h-3.95a.45.45 0 0 0-.45.45v.33a.46.46 0 0 0 .45.46h4c0 .21 0 .42.05.63h-1.89a.45.45 0 0 0-.45.45v.36a.45.45 0 0 0 .45.45h1.72a1.59 1.59 0 0 1-.07.9h-5.33a.45.45 0 0 0-.45.45v.35a.46.46 0 0 0 .45.46h6.66a3.08 3.08 0 0 0 .7.77 4.26 4.26 0 0 0 .73.43c6.68-1.47 3.25-13.19 12.81-16.06-2.98-2.34-6.98-2.02-10.28.21z"/><text class="cls-6" transform="translate(403.95 240.36)">5</text><rect width="2.24" height="1.26" x="348.69" y="283.16" rx=".51"/><rect width="3.08" height="1.26" x="350.09" y="292.73" rx=".51"/><path d="M373.15 282.18c-10.27 2.54-6.46 13.42-12.42 15.55a11.86 11.86 0 0 0 10.67-3.82c3.26-3.81 3.6-8.91 1.75-11.73z"/><path d="M362.08 281.48h-11.57a.46.46 0 0 0-.46.45v.36a.46.46 0 0 0 .46.45h8.67a1.2 1.2 0 0 1 .07.42h-6.12a.45.45 0 0 0-.45.45v.39a.46.46 0 0 0 .45.46H359c-.17.23-.33.48-.48.73h-3.47a.45.45 0 0 0-.45.45v.36a.45.45 0 0 0 .45.45h2.83a12.42 12.42 0 0 0-1 4.43h-3.95a.45.45 0 0 0-.45.45v.36a.45.45 0 0 0 .45.45h4c0 .21 0 .42.05.63h-1.89a.45.45 0 0 0-.45.45v.36a.45.45 0 0 0 .45.45h1.72a1.59 1.59 0 0 1-.07.9h-5.33a.45.45 0 0 0-.45.45v.35a.46.46 0 0 0 .45.46H358a2.92 2.92 0 0 0 .7.77 4.26 4.26 0 0 0 .73.43c6.68-1.47 3.25-13.19 12.81-16.06-2.86-2.4-6.86-2.08-10.16.15z"/><text class="cls-6" transform="translate(361.17 294.98)">4</text><rect width="2.24" height="1.26" x="198.38" y="232.18" class="cls-7" rx=".51"/><rect width="3.08" height="1.26" x="199.79" y="241.75" class="cls-7" rx=".51"/><path d="M222.84 231.2c-10.26 2.54-6.45 13.42-12.42 15.55a11.88 11.88 0 0 0 10.68-3.82c3.25-3.82 3.6-8.93 1.74-11.73z"/><path d="M211.78 230.5H200.2a.45.45 0 0 0-.45.45v.36a.45.45 0 0 0 .45.45h8.67a1.49 1.49 0 0 1 .08.42h-6.12a.46.46 0 0 0-.46.45v.37a.47.47 0 0 0 .46.46h5.88c-.17.23-.33.48-.48.73h-3.47a.45.45 0 0 0-.45.45v.36a.45.45 0 0 0 .45.45h2.82a12.57 12.57 0 0 0-1 4.43h-4a.45.45 0 0 0-.45.45v.36a.46.46 0 0 0 .45.45h4c0 .21 0 .42.06.63h-1.89a.45.45 0 0 0-.45.45v.36a.45.45 0 0 0 .45.45h1.71a1.51 1.51 0 0 1-.07.9h-5.32a.46.46 0 0 0-.46.45v.35a.47.47 0 0 0 .46.46h6.65a3.29 3.29 0 0 0 .7.77 4 4 0 0 0 .74.43c6.68-1.47 3.24-13.19 12.81-16.06-2.9-2.33-6.9-2.06-10.19.17z"/><text class="cls-6" transform="translate(210.86 244)">2</text><rect width="2.24" height="1.26" x="32.36" y="265.06" rx=".51"/><rect width="3.08" height="1.26" x="33.77" y="274.63" rx=".51"/><path d="M56.83 264.08c-10.27 2.54-6.46 13.42-12.43 15.55a11.87 11.87 0 0 0 10.68-3.82c3.26-3.81 3.6-8.9 1.75-11.73z"/><path d="M45.76 263.38H34.18a.45.45 0 0 0-.45.45v.36a.45.45 0 0 0 .45.45h8.67a1 1 0 0 1 .08.42h-6.12a.45.45 0 0 0-.45.45v.36a.45.45 0 0 0 .45.45h5.88c-.17.24-.33.48-.48.73h-3.47a.45.45 0 0 0-.45.45v.36a.45.45 0 0 0 .45.45h2.82a12.62 12.62 0 0 0-1 4.43h-4a.45.45 0 0 0-.45.45v.36a.45.45 0 0 0 .45.45h4c0 .21 0 .42.05.63h-1.87a.45.45 0 0 0-.45.45v.36a.45.45 0 0 0 .45.45h1.72a1.52 1.52 0 0 1-.08.9h-5.32a.45.45 0 0 0-.45.45v.36a.45.45 0 0 0 .45.45h6.66a2.92 2.92 0 0 0 .7.77 3.43 3.43 0 0 0 .73.43c6.68-1.47 3.24-13.19 12.81-16.05-2.9-2.37-6.9-2.05-10.2.18z"/><text class="cls-6" transform="translate(44.85 276.88)">1</text><ellipse cx="398.91" cy="416.22" class="cls-8" rx="5.14" ry="4.8"/><path d="M397.99 413.81v2.4h3.05l1.05 1.95.8-.38" class="cls-9"/><path d="M397.2 415.75s-1.95 1.71-.18 3.08c2.19 1.71 3.48-1.44 3.48-1.44m-2.51-1.93h1.85" class="cls-9"/><ellipse cx="398.13" cy="413.06" class="cls-9" rx=".78" ry=".73"/><ellipse cx="410.69" cy="393.27" class="cls-8" rx="5.14" ry="4.8"/><path d="M409.77 390.86v2.4h3.06l1.04 1.95.81-.38" class="cls-9"/><path d="M409 392.8s-1.95 1.71-.18 3.08c2.19 1.71 3.47-1.43 3.47-1.43m-2.52-1.94h1.85" class="cls-9"/><ellipse cx="409.91" cy="390.11" class="cls-9" rx=".78" ry=".73"/><ellipse cx="402.89" cy="366.95" class="cls-8" rx="5.14" ry="4.8"/><path d="M401.97 364.54v2.4h3.06l1.04 1.95.81-.37" class="cls-9"/><path d="M401.19 366.48s-1.95 1.71-.18 3.09c2.19 1.7 3.47-1.44 3.47-1.44m-2.51-1.94h1.85" class="cls-9"/><ellipse cx="402.11" cy="363.8" class="cls-9" rx=".78" ry=".73"/><ellipse cx="445.07" cy="349.26" class="cls-8" rx="5.14" ry="4.8"/><path d="M444.15 346.85v2.4h3.06l1.04 1.95.81-.37" class="cls-9"/><path d="M443.37 348.79s-1.95 1.71-.18 3.09c2.19 1.7 3.47-1.44 3.47-1.44m-2.51-1.94H446" class="cls-9"/><ellipse cx="444.29" cy="346.11" class="cls-9" rx=".78" ry=".73"/><ellipse cx="468.72" cy="357.18" class="cls-8" rx="5.14" ry="4.8"/><path d="M467.8 354.77v2.4h3.06l1.04 1.95.81-.37" class="cls-9"/><path d="M467 356.71s-1.95 1.71-.18 3.09c2.19 1.7 3.48-1.44 3.48-1.44m-2.5-1.94h1.85" class="cls-9"/><ellipse cx="467.94" cy="354.02" class="cls-9" rx=".78" ry=".73"/><ellipse cx="445.07" cy="327.84" class="cls-8" rx="5.14" ry="4.8"/><path d="M444.15 325.43v2.4h3.06l1.04 1.95.81-.37" class="cls-9"/><path d="M443.37 327.37s-1.95 1.71-.18 3.09c2.19 1.7 3.47-1.44 3.47-1.44m-2.51-1.94H446" class="cls-9"/><ellipse cx="444.29" cy="324.69" class="cls-9" rx=".78" ry=".73"/><ellipse cx="391.17" cy="330.92" class="cls-8" rx="5.14" ry="4.8"/><path d="M390.25 328.51v2.4h3.06l1.04 1.95.81-.38" class="cls-9"/><path d="M389.47 330.45s-2 1.71-.18 3.08c2.19 1.71 3.48-1.44 3.48-1.44m-2.52-1.93h1.85" class="cls-9"/><ellipse cx="390.39" cy="327.76" class="cls-9" rx=".78" ry=".73"/><ellipse cx="555.69" cy="321.13" class="cls-8" rx="5.14" ry="4.8"/><path d="M554.77 318.73v2.4h3.05l1.05 1.95.8-.38" class="cls-9"/><path d="M554 320.67s-2 1.71-.18 3.08c2.19 1.7 3.48-1.44 3.48-1.44m-2.53-1.93h1.85" class="cls-9"/><ellipse cx="554.91" cy="317.98" class="cls-9" rx=".78" ry=".73"/><ellipse cx="626.16" cy="316.73" class="cls-8" rx="5.14" ry="4.8"/><path d="M625.24 314.32v2.4h3.06l1.04 1.95.81-.38" class="cls-9"/><path d="M624.46 316.26s-2 1.71-.18 3.08c2.19 1.71 3.48-1.43 3.48-1.43m-2.52-1.94h1.85" class="cls-9"/><ellipse cx="625.38" cy="313.57" class="cls-9" rx=".78" ry=".73"/><ellipse cx="578.09" cy="342.73" class="cls-8" rx="5.14" ry="4.8"/><path d="M577.17 340.32v2.4h3.06l1.04 1.95.81-.38" class="cls-9"/><path d="M576.39 342.26s-1.95 1.71-.18 3.08c2.19 1.71 3.47-1.44 3.47-1.44m-2.51-1.93h1.85" class="cls-9"/><ellipse cx="577.31" cy="339.57" class="cls-9" rx=".78" ry=".73"/><ellipse cx="350.93" cy="408.88" class="cls-8" rx="5.14" ry="4.8"/><path d="M350.01 406.47v2.4h3.05l1.05 1.95.8-.38" class="cls-9"/><path d="M349.22 408.41s-2 1.71-.18 3.08c2.19 1.71 3.48-1.44 3.48-1.44m-2.51-1.93h1.85" class="cls-9"/><ellipse cx="350.15" cy="405.72" class="cls-9" rx=".78" ry=".73"/><ellipse cx="322.02" cy="401.18" class="cls-8" rx="5.14" ry="4.8"/><path d="M321.1 398.77v2.4h3.06l1.04 1.95.81-.37" class="cls-9"/><path d="M320.32 400.71s-1.95 1.71-.18 3.09c2.19 1.7 3.48-1.44 3.48-1.44m-2.52-1.94h1.85" class="cls-9"/><ellipse cx="321.25" cy="398.02" class="cls-9" rx=".78" ry=".73"/><ellipse cx="239.67" cy="373.69" class="cls-8" rx="5.14" ry="4.8"/><path d="M238.75 371.28v2.4h3.06l1.04 1.95.81-.38" class="cls-9"/><path d="M238 373.22s-1.95 1.71-.18 3.08c2.19 1.71 3.48-1.43 3.48-1.43m-2.55-1.94h1.85" class="cls-9"/><ellipse cx="238.89" cy="370.53" class="cls-9" rx=".78" ry=".73"/><ellipse cx="210.42" cy="391" class="cls-8" rx="5.14" ry="4.8"/><path d="M209.5 388.59v2.4h3.06l1.04 1.95.81-.38" class="cls-9"/><path d="M208.71 390.53s-1.94 1.71-.18 3.08c2.2 1.7 3.48-1.44 3.48-1.44m-2.51-1.93h1.85" class="cls-9"/><ellipse cx="209.64" cy="387.84" class="cls-9" rx=".78" ry=".73"/><ellipse cx="184.83" cy="364.53" class="cls-8" rx="5.14" ry="4.8"/><path d="M183.91 362.12v2.4h3.06l1.04 1.95.8-.38" class="cls-9"/><path d="M183.12 364.06s-1.94 1.71-.18 3.08c2.2 1.71 3.48-1.44 3.48-1.44m-2.51-1.93h1.85" class="cls-9"/><ellipse cx="184.05" cy="361.37" class="cls-9" rx=".78" ry=".73"/><ellipse cx="47.48" cy="344.88" class="cls-8" rx="5.14" ry="4.8"/><path d="M46.56 342.47v2.4h3.05l1.05 1.95.8-.38" class="cls-9"/><path d="M45.77 344.41s-2 1.71-.18 3.08c2.19 1.71 3.48-1.44 3.48-1.44m-2.51-1.93h1.85" class="cls-9"/><ellipse cx="46.7" cy="341.72" class="cls-9" rx=".78" ry=".73"/><ellipse cx="51.74" cy="221.76" class="cls-8" rx="5.14" ry="4.8"/><path d="M50.82 219.35v2.4h3.06l1.04 1.95.81-.38" class="cls-9"/><path d="M50 221.29s-1.95 1.71-.18 3.08c2.19 1.71 3.48-1.43 3.48-1.43M50.82 221h1.85" class="cls-9"/><ellipse cx="50.96" cy="218.6" class="cls-9" rx=".78" ry=".73"/><ellipse cx="191.79" cy="235.41" class="cls-8" rx="5.14" ry="4.8"/><path d="M190.87 233.01v2.4h3.05l1.05 1.95.8-.38" class="cls-9"/><path d="M190.08 235s-2 1.71-.18 3.08c2.19 1.7 3.48-1.44 3.48-1.44m-2.51-1.98h1.85" class="cls-9"/><ellipse cx="191.01" cy="232.26" class="cls-9" rx=".78" ry=".73"/><ellipse cx="354.91" cy="207.82" class="cls-8" rx="5.14" ry="4.8"/><path d="M353.99 205.41v2.4h3.06l1.04 1.95.81-.38" class="cls-9"/><path d="M353.21 207.35s-1.95 1.71-.18 3.08c2.19 1.71 3.48-1.43 3.48-1.43m-2.52-1.94h1.85" class="cls-9"/><ellipse cx="354.13" cy="204.66" class="cls-9" rx=".78" ry=".73"/><ellipse cx="402.9" cy="203.02" class="cls-8" rx="5.14" ry="4.8"/><path d="M401.98 200.62v2.39h3.05l1.05 1.95.8-.37" class="cls-9"/><path d="M401.19 202.55s-1.95 1.71-.18 3.09c2.19 1.7 3.48-1.44 3.48-1.44m-2.52-1.94h1.85" class="cls-9"/><ellipse cx="402.12" cy="199.87" class="cls-9" rx=".78" ry=".73"/><ellipse cx="453.28" cy="167.23" class="cls-8" rx="5.14" ry="4.8"/><path d="M452.36 164.83v2.4h3.06l1.04 1.95.8-.38" class="cls-9"/><path d="M451.57 166.77s-1.94 1.71-.17 3.08c2.19 1.7 3.47-1.44 3.47-1.44m-2.51-1.93h1.85" class="cls-9"/><ellipse cx="452.5" cy="164.08" class="cls-9" rx=".78" ry=".73"/><ellipse cx="501.7" cy="76.31" class="cls-8" rx="5.14" ry="4.8"/><path d="M500.78 73.91v2.4h3.05l1.05 1.94.8-.37" class="cls-9"/><path d="M500 75.85s-1.94 1.7-.18 3.08c2.19 1.7 3.48-1.44 3.48-1.44m-2.52-1.93h1.85" class="cls-9"/><ellipse cx="500.92" cy="73.16" class="cls-9" rx=".78" ry=".73"/><path d="M405.32 387.58c-8.86 2.18-5.57 11.58-10.72 13.42a10.25 10.25 0 0 0 9.22-3.3c2.81-3.29 3.1-7.7 1.5-10.12z"/><path d="M395.77 387h-10a.38.38 0 0 0-.39.39v.31a.39.39 0 0 0 .39.39h7.48a1.1 1.1 0 0 1 .07.36H388a.39.39 0 0 0-.39.39v.31a.4.4 0 0 0 .39.39h5.08a5.23 5.23 0 0 0-.41.63h-3a.39.39 0 0 0-.39.39v.3a.39.39 0 0 0 .39.39h2.44a10.78 10.78 0 0 0-.86 3.83h-3.41a.38.38 0 0 0-.39.39v.31a.39.39 0 0 0 .39.39h3.42v.54h-1.63a.4.4 0 0 0-.39.39v.31a.4.4 0 0 0 .39.39h1.48a1.31 1.31 0 0 1-.06.77h-4.6a.4.4 0 0 0-.39.39v.31a.39.39 0 0 0 .39.39h5.75a2.63 2.63 0 0 0 .6.67 3.26 3.26 0 0 0 .64.37c5.77-1.27 2.8-11.38 11.05-13.86-2.42-2.07-5.87-1.79-8.72.16z"/><text class="cls-10" transform="translate(393.92 398.6)">6</text><circle cx="390.25" cy="341.01" r="6.4" class="cls-11"/><path d="M388.55 339.73l-2-.07" class="cls-12"/><path d="M382.55 339.54l-118.07-3.77" class="cls-13"/><path d="M262.48 335.7l-2-.06-.22 1.99" class="cls-12"/><path d="M259.89 340.84l-.55 4.83" class="cls-14"/><path d="M259.16 347.27l-.23 1.99-2-.06" class="cls-12"/><path d="M253.23 349.08l-42.53-1.36" class="cls-15"/><path d="M208.85 347.66l-2-.07-1.27-1.54" class="cls-12"/><path d="M202.71 342.56l-10.03-12.19" class="cls-16"/><path d="M191.24 328.63l-1.27-1.55" class="cls-12"/><rect width="2.24" height="1.26" x="172.8" y="319.87" rx=".51"/><rect width="3.08" height="1.26" x="174.2" y="329.45" rx=".51"/><path d="M197.26 318.9c-10.27 2.53-6.46 13.41-12.43 15.54a11.86 11.86 0 0 0 10.68-3.81c3.26-3.82 3.6-8.91 1.75-11.73z"/><path d="M186.19 318.2h-11.58a.45.45 0 0 0-.45.45v.35a.45.45 0 0 0 .45.45h8.68a1.28 1.28 0 0 1 .07.42h-6.12a.46.46 0 0 0-.45.46v.35a.45.45 0 0 0 .45.45h5.88c-.17.24-.33.49-.48.74h-3.47a.45.45 0 0 0-.45.45v.35a.45.45 0 0 0 .45.45H182a12.42 12.42 0 0 0-1 4.44h-3.95a.45.45 0 0 0-.45.45v.35a.45.45 0 0 0 .45.45h4c0 .22 0 .43.05.64h-1.89a.45.45 0 0 0-.45.45v.35a.46.46 0 0 0 .45.46h1.72a1.48 1.48 0 0 1-.08.89h-5.32a.46.46 0 0 0-.45.46v.35a.45.45 0 0 0 .45.45h6.66a3 3 0 0 0 .7.78 3.41 3.41 0 0 0 .73.42c6.68-1.46 3.25-13.18 12.81-16.05-2.94-2.36-6.94-2.01-10.24.19z"/><text class="cls-6" transform="translate(185.28 331.7)">3</text></svg>