<svg id="Layer_1" data-name="Layer 1" xmlns="http://www.w3.org/2000/svg" viewBox="0 0 655.47 452.13"><defs><style>.cls-1,.cls-12,.cls-13,.cls-14,.cls-15,.cls-9{fill:none;}.cls-1{stroke:#fff;}.cls-1,.cls-12,.cls-13,.cls-14,.cls-15,.cls-2,.cls-3,.cls-9{stroke-miterlimit:10;}.cls-2{fill:#d8e6ea;}.cls-2,.cls-3{stroke:#515354;stroke-width:0.75px;}.cls-10,.cls-3,.cls-6{fill:#fff;}.cls-4{font-size:15px;fill:#515354;}.cls-10,.cls-4,.cls-6{font-family:MyriadPro-Regular, Myriad Pro;}.cls-5{letter-spacing:0em;}.cls-6{font-size:18.57px;}.cls-7{fill:#150c0a;}.cls-8{fill:#2668ad;}.cls-9{stroke:#fdfefe;stroke-width:0.44px;}.cls-10{font-size:17.81px;}.cls-11{fill:#f05455;}.cls-12,.cls-13,.cls-14,.cls-15{stroke:#f05455;}.cls-13{stroke-dasharray:3.79 3.79;}.cls-14{stroke-dasharray:4.15 4.15;}.cls-15{stroke-dasharray:4.21 4.21;}</style></defs><title>Portable Feats</title><polygon class="cls-1" points="32.68 207.7 21.93 344.55 36.27 345.81 36.27 342.33 45 343.91 45 347.07 56.06 347.07 59.22 319.58 62.07 320.21 66.49 299.67 120.53 304.73 123.38 304.41 123.38 299.99 66.18 294.71 71.76 230.5 67.55 200.99 32.68 207.7"/><line class="cls-1" x1="35.43" y1="280.68" x2="35.43" y2="207.17"/><polygon class="cls-1" points="29.4 298.57 28.63 304.56 31.86 304.56 31.86 303.02 31.86 299.34 29.4 298.57"/><polyline class="cls-1" points="25.63 297.41 39.53 298.5 39.53 300.65 31.86 300.34"/><polyline class="cls-1" points="24.99 305.56 35.43 304.33 35.43 306.48 42.76 306.48 41.84 313.85 46.13 313.85 45.06 331.81 57.63 333.48"/><path class="cls-2" d="M571,105.32l4.72-31.93L525.81,72.1l-1.72,6,3.43.43-.64,7.5-2.79.43v14.15h-5.36v63.23l-74.8-2.79,1.71-64.94h2.15L448,67.39s-1.71-2.79-.64-4.72,5.57,0,5.57,0l1.5-2.57,30.44,1.71V58.38l96.45,1.93v5.15l9.64.43-6,38.58-7.07-.86L576.82,106Z"/><polygon class="cls-3" points="511.58 79.73 497.43 78.45 497.43 74.37 480.7 73.09 478.77 77.59 461.83 76.41 461.83 95.6 458.4 95.6 458.4 149.64 503.64 151.14 505.79 112.11 510.29 111.04 511.58 79.73"/><polygon class="cls-2" points="530.95 130.17 530.95 150.25 561.58 151.14 561.58 130.68 530.95 130.17"/><polygon class="cls-2" points="401.13 129.85 401.13 161.52 414.81 161.26 414.81 158.67 431.63 159.04 431.63 129.85 420.72 129.85 420.17 126.7 417.95 126.7 417.77 130.03 413.52 130.03 413.52 126.7 410.74 126.7 410.56 130.03 401.13 129.85"/><path class="cls-2" d="M384.41,188.71S404.6,206,426,215.56l-13.79,30.05,16.25,38.67h-3.94l1,19.21h-34v6.41H381.2V291.18l3.7.88-.49-23.79-7.89,3.45v2.71l-6.4-.25v45H322.61l-.4,15h-2.58V316h-4.5V306.1h4.23V285.6h-4.23v-9.74h4V273.1H300.61v-2.21h15.81v-4.32h3.3V230.91l3.22-2.3-.18-7.17h3.77s11-13.05,26.19-13.33l13,7.26v6.07h3.59v10h2.29V255h2.49v5.24l7.53-3.68v-2.39h3.22Z"/><polygon class="cls-2" points="291.65 240.96 291.65 215.02 275.31 215.02 275.31 238.43 281.54 238.43 281.54 241.47 270.67 241.47 270.67 269.26 265.45 269.26 265.45 252.92 266.55 252.92 266.55 251.41 265.45 251.41 265.45 248.63 266.97 248.63 266.97 246.01 264.94 246.01 264.94 238.69 266.88 238.69 266.88 231.02 264.94 231.02 264.94 225.71 267.3 225.71 267.3 218.05 265.37 218.05 265.37 205.33 293.42 205.33 293.42 180.06 235.38 180.06 235.38 220.66 230.58 220.66 230.58 215.02 220.47 215.02 220.47 210.38 230.16 210.38 230.16 179.13 207.41 179.13 207.41 210.21 217.52 210.21 217.52 214.85 207.41 214.85 207.41 220.57 202.61 220.57 202.61 182.25 185.43 182.25 185.43 213.25 164.28 213.25 164.28 230.18 164.28 266.68 175.32 266.68 175.32 300.11 201.15 300.11 201.15 302.41 205.02 302.41 205.02 303.55 206.2 303.55 206.2 298.95 204.46 298.95 204.46 292.43 202.16 292.43 202.16 286.57 247.96 286.57 247.96 294.59 246.13 294.59 246.13 298.65 247.28 298.65 247.28 302.03 245.06 302.03 245.06 333.15 247.77 333.15 247.77 343.78 217.52 343.78 217.52 332.46 201.9 332.46 201.68 306.88 211.52 306.88 211.52 303.94 172.93 303.94 172.93 293.98 168.97 293.98 168.97 290.46 145.99 290.46 145.99 286.17 123.81 286.17 123.81 302.58 129.58 302.58 129.58 315.14 141.47 315.14 139.09 318.43 141.69 321.6 144.07 318.43 144.07 330.88 156.29 330.88 153.69 333.82 156.29 335.74 159.12 333.37 159.12 345.7 171.57 345.7 169.42 348.53 171.46 350.8 174.74 348.76 174.74 360.87 186.51 360.87 186.51 364.49 191.15 364.49 191.15 361.1 194.43 361.1 194.43 364.49 210.96 364.49 210.96 358.26 247.85 358.26 247.85 372.07 277.62 372.07 277.62 343.21 267.89 343.21 267.89 338.57 319.5 338.57 351.24 338.57 353.04 345.5 356.35 345.35 379.8 345.35 379.8 367.29 397.69 367.29 397.69 377.51 401.6 377.51 401.6 367.59 409.57 364.14 409.57 333.47 409.57 329.41 402.05 326.86 351.99 326.86 352.14 334.22 262.55 334.22 262.55 332.42 294.42 332.42 294.42 302.8 266.69 302.8 266.69 299.19 281.34 299.19 281.34 285.51 287.5 285.51 287.5 272.59 300.28 272.59 300.28 241.17 291.65 240.96"/><polygon class="cls-2" points="168.65 406.32 164.96 413.33 173.94 418.25 171.97 421.82 156.72 414.07 153.03 421.82 164.96 428.21 163.48 431.78 161.27 431.78 156.72 440.88 177.75 452.08 183.04 442.61 173.32 437.32 175.17 433.75 190.05 440.76 194.11 433.63 184.27 428.34 186.24 424.4 187.84 425.14 191.65 418.37 168.65 406.32"/><path class="cls-2" d="M223.93,398.05l-17.6-10.34s-8.59-6.18-3.76-14.91S243,368.51,243,368.51v15.57l-3.77-.13-.26-1.23H223.39l-.4,10.09h1.34Z"/><polygon class="cls-2" points="320.26 333.83 320.26 338.58 318.94 338.58 318.94 344.78 320.26 344.78 320.26 400.55 326.59 400.55 326.59 402.39 331.34 402.39 331.34 401.21 340.17 401.21 340.17 339.37 332 333.83 320.26 333.83"/><polygon class="cls-2" points="347.95 378.26 347.95 415.71 412.55 415.71 412.55 377.74 367.33 377.74 367.33 375.89 359.81 375.89 359.81 373.25 347.95 374.84 340.17 374.71 340.17 378.13 347.95 378.26"/><polygon class="cls-2" points="409.38 334.89 409.38 338.77 446.69 338.77 446.69 352.5 497.52 352.5 499.52 355.64 504.76 355.64 504.76 352.71 509.58 352.71 509.58 354.07 540.5 354.07 540.5 356.9 573.83 356.9 573.83 344.11 592.59 344.11 592.59 348.94 599.19 348.94 599.19 351.66 613.45 351.66 613.45 353.97 658.62 353.97 658.62 341.39 638.5 341.39 638.5 315.29 599.93 315.29 599.93 318.02 592.8 318.02 592.8 341.49 576.03 341.49 576.03 321.68 536.51 321.68 536.51 323.99 511.68 323.99 511.68 330.49 509.89 330.49 509.89 333.32 504.86 333.32 504.86 330.91 498.47 330.91 498.47 334.16 454.45 334.16 454.45 331.96 447 331.96 447 335.2 409.38 334.89"/><path class="cls-2" d="M511.24,76.56V74s-4.12-2.07-1.55-6c0,0,1.89-2.06,3.61-1.2V59.38"/><line class="cls-2" x1="508.85" y1="104.04" x2="517.77" y2="104.04"/><polyline class="cls-2" points="457.99 148.36 451.64 148.36 449.75 145.61 443.74 145.61"/><polyline class="cls-2" points="187.18 236.42 190.95 236.42 190.95 255.9 174.56 255.9 174.56 268.52"/><polyline class="cls-2" points="201.13 286.9 201.13 223.97 201.13 220.91"/><line class="cls-2" x1="234.03" y1="223.97" x2="201.13" y2="223.97"/><polyline class="cls-2" points="229.31 231.05 211.69 231.05 211.69 223.97 211.69 234.98 204.46 234.98 204.46 247.25 211.22 247.25"/><rect class="cls-2" x="270.99" y="248.04" width="8.81" height="6.68"/><rect class="cls-2" x="262.81" y="274.93" width="8.18" height="7.71"/><polyline class="cls-2" points="287.35 272.89 287.35 242.06 290.97 242.06"/><polyline class="cls-2" points="280.74 286.1 265.49 286.1 265.49 307.81 262.81 307.81 262.81 310.32 279.8 310.32 279.8 308.28 282 308.28 282 302.3"/><polyline class="cls-2" points="252.75 302.46 252.75 286.89 247.71 286.89"/><line class="cls-2" x1="279.8" y1="338.48" x2="279.8" y2="335.02"/><rect class="cls-2" x="250.23" y="337.85" width="5.98" height="8.18"/><line class="cls-2" x1="266.9" y1="343.51" x2="256.84" y2="343.51"/><polyline class="cls-2" points="246.77 357.67 246.77 343.51 250.23 343.51"/><rect class="cls-2" x="198.32" y="349.81" width="4.25" height="1.89"/><polyline class="cls-2" points="193.6 360.97 193.6 348.55 192.03 348.55 192.03 344.93 200.45 344.93 200.45 332.82"/><polygon class="cls-2" points="190.3 318.5 197.22 318.5 197.22 306.55 185.42 306.55 185.42 308.12 181.18 308.12 181.18 314.26 185.74 314.26 190.3 318.5"/><polygon class="cls-2" points="189.99 321.81 190.3 318.5 185.74 314.26 181.18 314.26 165.45 314.26 165.45 319.29 184.64 337.85 188.41 337.85 188.41 321.34 189.99 321.81"/><polyline class="cls-2" points="172.37 303.72 172.37 307.18 156.48 307.18 154.91 308.75 154.91 315.83 158.68 320.39 165.45 319.29 170.4 324.08 169.54 327.63 176.14 334.23 180.9 334.23 184.64 337.85 184.64 346.03 188.57 349.81 192.03 348.55 193.13 351.69 188.26 351.69 188.13 349.81"/><polyline class="cls-2" points="192.71 357.67 190.3 357.67 187.51 357.67 184.7 357.67"/><rect class="cls-2" x="187.51" y="357.67" width="2.79" height="7.58"/><polygon class="cls-2" points="170.81 351.69 168.28 348.97 170.81 346.9 170.81 337.85 176.98 337.85 181.18 342.65 181.18 348.97 173.59 348.48 170.81 351.69"/><polygon class="cls-2" points="156.26 336.97 153.74 334.25 156.26 332.18 156.26 323.13 162.44 323.13 166.63 327.93 166.63 334.25 159.04 333.76 156.26 336.97"/><polygon class="cls-2" points="141.16 322.38 138.63 319.66 141.16 317.59 141.16 308.54 147.33 308.54 151.53 313.34 151.53 319.66 143.94 319.17 141.16 322.38"/><polygon class="cls-2" points="166.63 303.17 166.63 294.38 172.01 294.38 172.37 307.18 166.63 307.18 166.63 305.49 164.53 305.23 164.53 302.91 166.63 303.17"/><polygon class="cls-2" points="160.18 299.94 160.18 292.45 152.26 292.45 152.26 300.78 160.18 299.94"/><polygon class="cls-2" points="137.93 296.62 137.93 288.44 129.53 288.44 129.53 297.23 137.93 296.62"/><rect class="cls-2" x="123.34" y="300.19" width="6.2" height="3.52"/><line class="cls-2" x1="172.66" y1="418.42" x2="184.6" y2="425.07"/><line class="cls-2" x1="174.04" y1="433.68" x2="162.91" y2="428.17"/><line class="cls-2" x1="171.86" y1="437.46" x2="161.19" y2="432.3"/><polygon class="cls-2" points="336.09 277.41 336.09 287 346.5 287 346.5 276.75 336.09 277.41"/><polygon class="cls-2" points="322.37 228.34 322.37 251.38 351.12 251.38 351.12 267.33 357.73 267.33 357.73 250.31 362.36 250.31 362.36 220.08 354.92 220.08 354.92 210.16 347.16 210.16 347.16 219.25 342.37 219.25 342.37 223.05 334.76 223.05 334.76 227.84 322.37 228.34"/><path class="cls-2" d="M327.66,342s-8.59-.16-5.78,14.21,5.78,12.89,5.78,12.89,7.27,1.2,7.43-13.53S327.66,342,327.66,342Z"/><polyline class="cls-2" points="379.21 328.31 379.21 339.38 399.87 339.38 399.87 333.1 400.98 334.21 400.98 328.31"/><line class="cls-2" x1="407.8" y1="335.74" x2="407.8" y2="337.89"/><line class="cls-2" x1="350.3" y1="335.74" x2="350.3" y2="337.89"/><rect class="cls-2" x="361.37" y="379.03" width="5.12" height="5.12"/><polygon class="cls-2" points="376.4 380.19 376.4 402.99 393.42 402.99 393.42 411.09 397.39 411.09 397.39 383.33 393.75 383.33 393.75 380.19 376.4 380.19"/><line class="cls-2" x1="445.14" y1="335.74" x2="445.14" y2="339.38"/><polygon class="cls-2" points="507.93 337.89 502.97 337.56 502.97 345.66 500.83 345.66 500.83 353.92 508.76 353.92 507.93 337.89"/><line class="cls-2" x1="508.76" y1="334.59" x2="508.76" y2="339.38"/><polygon class="cls-2" points="539.49 336.98 539.49 356.56 573.03 356.56 573.03 342.52 563.78 342.52 563.78 335.74 539.49 336.98"/><text class="cls-4" transform="translate(539.09 70.1)">R</text><text class="cls-4" transform="translate(461.03 73.1)">R</text><text class="cls-4" transform="translate(478.13 161.49)">R</text><text class="cls-4" transform="translate(540.32 146.21)">G</text><text class="cls-4" transform="translate(410.75 151.67)">F</text><text class="cls-4" transform="translate(391.56 256.57)">E</text><text class="cls-4" transform="translate(334.1 245.29)">H</text><text class="cls-4" transform="translate(329.73 304.94)">D</text><text class="cls-4" transform="translate(242.08 245.29)">A</text><text class="cls-4" transform="translate(256.44 364.95)">C</text><text class="cls-4" transform="translate(136.1 304.94)">B</text><text class="cls-4" transform="translate(209.66 383.32)">K</text><text class="cls-4" transform="translate(168.47 432.97)">M</text><text class="cls-4" transform="translate(325.46 359.5)">J</text><text class="cls-4" transform="translate(359.92 405.33)">T</text><text class="cls-4" transform="translate(515.59 345.68)">P</text><text class="cls-4" transform="translate(381.13 359.5)">N</text><text class="cls-4" transform="translate(606.88 340.95)">S</text><polygon class="cls-2" points="38.83 205.56 28.09 342.4 42.42 343.67 42.42 340.19 51.16 341.77 51.16 344.93 62.22 344.93 65.38 317.44 68.22 318.07 72.65 297.53 126.69 302.58 129.53 302.27 129.53 297.84 72.33 292.56 77.92 228.36 73.7 198.85 38.83 205.56"/><line class="cls-2" x1="41.58" y1="278.54" x2="41.58" y2="205.03"/><polygon class="cls-2" points="35.56 296.43 34.79 302.42 38.01 302.42 38.01 300.88 38.01 297.2 35.56 296.43"/><polyline class="cls-2" points="31.79 295.26 45.69 296.36 45.69 298.5 38.01 298.2"/><polyline class="cls-2" points="31.15 303.42 41.58 302.19 41.58 304.34 48.91 304.34 47.99 311.71 52.29 311.71 51.22 329.67 63.78 331.34"/><text class="cls-4" transform="translate(47.47 266.49)"><tspan class="cls-5">C</tspan><tspan x="8.76" y="0">A</tspan></text><rect x="485.38" y="149.46" width="2.24" height="1.26" rx="0.51"/><rect x="486.79" y="159.03" width="3.08" height="1.26" rx="0.51"/><path d="M509.84,148.49C499.58,151,503.39,161.9,497.42,164a11.88,11.88,0,0,0,10.68-3.81C511.36,156.4,511.7,151.31,509.84,148.49Z"/><path d="M498.78,147.78H487.2a.45.45,0,0,0-.45.45v.36a.45.45,0,0,0,.45.45h8.67a1.25,1.25,0,0,1,.08.42h-6.12a.46.46,0,0,0-.46.45v.36a.46.46,0,0,0,.46.45h5.88c-.17.24-.33.48-.48.73h-3.47a.45.45,0,0,0-.45.45v.36a.45.45,0,0,0,.45.45h2.82a12.62,12.62,0,0,0-1,4.43h-3.95a.46.46,0,0,0-.46.45V158a.46.46,0,0,0,.46.45h4a6.19,6.19,0,0,0,0,.63h-1.89a.45.45,0,0,0-.45.45v.36a.45.45,0,0,0,.45.45h1.72a1.51,1.51,0,0,1-.08.9h-5.32a.45.45,0,0,0-.45.45V162a.45.45,0,0,0,.45.45h6.65a3.34,3.34,0,0,0,.7.78,3.49,3.49,0,0,0,.74.42c6.68-1.47,3.24-13.18,12.81-16.05C506.07,145.24,502.07,145.56,498.78,147.78Z"/><text class="cls-6" transform="translate(497.86 161.28)">7</text><rect x="387.19" y="229.75" width="2.24" height="1.26" rx="0.51"/><rect x="388.6" y="239.32" width="3.08" height="1.26" rx="0.51"/><path d="M411.65,228.77c-10.26,2.54-6.45,13.42-12.42,15.55a11.89,11.89,0,0,0,10.68-3.81C413.16,236.69,413.5,231.6,411.65,228.77Z"/><path d="M400.58,228.07H389a.45.45,0,0,0-.45.45v.36a.45.45,0,0,0,.45.45h8.67a1.23,1.23,0,0,1,.07.42h-6.12a.45.45,0,0,0-.45.45v.36a.45.45,0,0,0,.45.45h5.89a8.46,8.46,0,0,0-.49.73h-3.46a.46.46,0,0,0-.46.45v.36a.46.46,0,0,0,.46.45h2.82a12.86,12.86,0,0,0-1,4.43h-3.95a.45.45,0,0,0-.45.45v.36a.45.45,0,0,0,.45.45h4c0,.21,0,.42.05.63h-1.88a.46.46,0,0,0-.46.45v.36a.46.46,0,0,0,.46.45h1.71a1.59,1.59,0,0,1-.07.9h-5.33a.45.45,0,0,0-.45.45v.36a.45.45,0,0,0,.45.45h6.66a3.11,3.11,0,0,0,1.44,1.2c6.68-1.47,3.24-13.18,12.8-16.05C407.88,225.53,403.88,225.85,400.58,228.07Z"/><text class="cls-6" transform="translate(399.67 241.57)">5</text><rect class="cls-7" x="194.1" y="233.39" width="2.24" height="1.26" rx="0.51"/><rect class="cls-7" x="195.51" y="242.96" width="3.08" height="1.26" rx="0.51"/><path d="M218.57,232.41C208.3,235,212.11,245.83,206.14,248a11.88,11.88,0,0,0,10.68-3.81C220.08,240.33,220.42,235.24,218.57,232.41Z"/><path d="M207.5,231.71H195.92a.45.45,0,0,0-.45.45v.36a.45.45,0,0,0,.45.45h8.67a1,1,0,0,1,.08.42h-6.12a.45.45,0,0,0-.45.45v.36a.45.45,0,0,0,.45.45h5.88c-.17.24-.33.48-.48.73h-3.47a.45.45,0,0,0-.45.45v.36a.45.45,0,0,0,.45.45h2.82a12.62,12.62,0,0,0-1,4.43h-3.95a.45.45,0,0,0-.45.45v.36a.45.45,0,0,0,.45.45h4c0,.21,0,.42.05.63h-1.89a.45.45,0,0,0-.45.45v.36a.45.45,0,0,0,.45.45h1.72a1.51,1.51,0,0,1-.08.9H196.8a.45.45,0,0,0-.45.45v.36a.45.45,0,0,0,.45.45h6.65a3.3,3.3,0,0,0,.7.77,3.34,3.34,0,0,0,.74.43c6.68-1.47,3.24-13.18,12.81-16.05C214.79,229.17,210.8,229.49,207.5,231.71Z"/><text class="cls-6" transform="translate(206.58 245.21)">2</text><rect x="168.52" y="321.09" width="2.24" height="1.26" rx="0.51"/><rect x="169.92" y="330.66" width="3.08" height="1.26" rx="0.51"/><path d="M193,320.11c-10.27,2.54-6.46,13.42-12.42,15.55a11.85,11.85,0,0,0,10.67-3.82C194.49,328,194.83,322.94,193,320.11Z"/><path d="M181.91,319.41H170.34a.46.46,0,0,0-.46.45v.36a.46.46,0,0,0,.46.45H179a1.23,1.23,0,0,1,.07.42H173a.45.45,0,0,0-.45.45v.36a.45.45,0,0,0,.45.45h5.88c-.17.24-.33.48-.48.73h-3.47a.45.45,0,0,0-.45.45v.36a.45.45,0,0,0,.45.45h2.83a12.42,12.42,0,0,0-1,4.43h-3.95a.45.45,0,0,0-.45.45v.36a.45.45,0,0,0,.45.45h4c0,.21,0,.42.05.63h-1.89a.45.45,0,0,0-.45.45v.36a.45.45,0,0,0,.45.45h1.72a1.59,1.59,0,0,1-.07.9h-5.33a.45.45,0,0,0-.45.45v.36a.45.45,0,0,0,.45.45h6.66a2.92,2.92,0,0,0,.7.77,3.51,3.51,0,0,0,.74.43c6.67-1.47,3.24-13.19,12.8-16C189.21,316.86,185.21,317.19,181.91,319.41Z"/><text class="cls-6" transform="translate(181 332.91)">3</text><rect x="28.09" y="266.27" width="2.24" height="1.26" rx="0.51"/><rect x="29.49" y="275.84" width="3.08" height="1.26" rx="0.51"/><path d="M52.55,265.3c-10.27,2.53-6.46,13.41-12.42,15.54A11.87,11.87,0,0,0,50.8,277C54.06,273.21,54.4,268.12,52.55,265.3Z"/><path d="M41.48,264.59H29.91a.46.46,0,0,0-.46.45v.36a.46.46,0,0,0,.46.45h8.67a1.23,1.23,0,0,1,.07.42H32.53a.45.45,0,0,0-.45.45v.36a.45.45,0,0,0,.45.45h5.88c-.17.24-.33.48-.48.73H34.46a.45.45,0,0,0-.45.45v.36a.45.45,0,0,0,.45.45h2.83a12.42,12.42,0,0,0-1,4.43H32.34a.45.45,0,0,0-.45.45v.36a.45.45,0,0,0,.45.45h4c0,.22,0,.43.05.63H34.46a.45.45,0,0,0-.45.45v.36a.45.45,0,0,0,.45.45h1.72a1.51,1.51,0,0,1-.08.9H30.78a.45.45,0,0,0-.45.45v.36a.45.45,0,0,0,.45.45h6.66a3.14,3.14,0,0,0,.7.78,3.67,3.67,0,0,0,.73.42c6.68-1.47,3.25-13.18,12.81-16C48.78,262.05,44.78,262.37,41.48,264.59Z"/><text class="cls-6" transform="translate(40.57 278.09)">1</text><ellipse class="cls-8" cx="394.63" cy="417.43" rx="5.14" ry="4.8"/><polyline class="cls-9" points="393.71 415.02 393.71 417.42 396.76 417.42 397.81 419.37 398.61 419"/><path class="cls-9" d="M392.92,417s-1.95,1.71-.18,3.09c2.19,1.7,3.48-1.44,3.48-1.44"/><line class="cls-9" x1="393.71" y1="416.67" x2="395.56" y2="416.67"/><ellipse class="cls-9" cx="393.85" cy="414.28" rx="0.78" ry="0.73"/><ellipse class="cls-8" cx="406.41" cy="394.48" rx="5.14" ry="4.8"/><polyline class="cls-9" points="405.49 392.07 405.49 394.47 408.55 394.47 409.6 396.42 410.4 396.05"/><path class="cls-9" d="M404.71,394s-1.95,1.71-.18,3.09c2.19,1.7,3.48-1.44,3.48-1.44"/><line class="cls-9" x1="405.49" y1="393.72" x2="407.34" y2="393.72"/><ellipse class="cls-9" cx="405.64" cy="391.33" rx="0.78" ry="0.73"/><ellipse class="cls-8" cx="398.61" cy="368.16" rx="5.14" ry="4.8"/><polyline class="cls-9" points="397.69 365.76 397.69 368.15 400.75 368.15 401.79 370.11 402.6 369.73"/><path class="cls-9" d="M396.91,367.7s-2,1.7-.18,3.08c2.19,1.7,3.48-1.44,3.48-1.44"/><line class="cls-9" x1="397.69" y1="367.41" x2="399.54" y2="367.41"/><ellipse class="cls-9" cx="397.83" cy="365.01" rx="0.78" ry="0.73"/><ellipse class="cls-8" cx="440.79" cy="350.47" rx="5.14" ry="4.8"/><polyline class="cls-9" points="439.87 348.07 439.87 350.47 442.93 350.47 443.97 352.42 444.78 352.04"/><path class="cls-9" d="M439.09,350s-1.95,1.7-.18,3.08c2.19,1.7,3.48-1.44,3.48-1.44"/><line class="cls-9" x1="439.87" y1="349.72" x2="441.72" y2="349.72"/><ellipse class="cls-9" cx="440.01" cy="347.32" rx="0.78" ry="0.73"/><ellipse class="cls-8" cx="464.45" cy="358.39" rx="5.14" ry="4.8"/><polyline class="cls-9" points="463.53 355.99 463.53 358.38 466.58 358.38 467.63 360.33 468.43 359.96"/><path class="cls-9" d="M462.74,357.92s-1.95,1.71-.18,3.09c2.19,1.7,3.48-1.44,3.48-1.44"/><line class="cls-9" x1="463.53" y1="357.63" x2="465.38" y2="357.63"/><ellipse class="cls-9" cx="463.67" cy="355.24" rx="0.78" ry="0.73"/><ellipse class="cls-8" cx="440.79" cy="329.05" rx="5.14" ry="4.8"/><polyline class="cls-9" points="439.87 326.65 439.87 329.05 442.93 329.05 443.97 331 444.78 330.62"/><path class="cls-9" d="M439.09,328.58s-1.95,1.71-.18,3.09c2.19,1.7,3.48-1.44,3.48-1.44"/><line class="cls-9" x1="439.87" y1="328.3" x2="441.72" y2="328.3"/><ellipse class="cls-9" cx="440.01" cy="325.9" rx="0.78" ry="0.73"/><ellipse class="cls-8" cx="386.9" cy="332.13" rx="5.14" ry="4.8"/><polyline class="cls-9" points="385.98 329.72 385.98 332.12 389.03 332.12 390.08 334.07 390.88 333.7"/><path class="cls-9" d="M385.19,331.66s-1.95,1.71-.18,3.09c2.19,1.7,3.48-1.44,3.48-1.44"/><line class="cls-9" x1="385.98" y1="331.37" x2="387.83" y2="331.37"/><ellipse class="cls-9" cx="386.12" cy="328.98" rx="0.78" ry="0.73"/><ellipse class="cls-8" cx="551.41" cy="322.35" rx="5.14" ry="4.8"/><polyline class="cls-9" points="550.49 319.94 550.49 322.34 553.54 322.34 554.59 324.29 555.39 323.91"/><path class="cls-9" d="M549.7,321.88s-1.94,1.71-.18,3.08c2.19,1.71,3.48-1.43,3.48-1.43"/><line class="cls-9" x1="550.49" y1="321.59" x2="552.34" y2="321.59"/><ellipse class="cls-9" cx="550.63" cy="319.19" rx="0.78" ry="0.73"/><ellipse class="cls-8" cx="621.88" cy="317.94" rx="5.14" ry="4.8"/><polyline class="cls-9" points="620.97 315.53 620.97 317.93 624.02 317.93 625.07 319.88 625.87 319.51"/><path class="cls-9" d="M620.18,317.47s-1.95,1.71-.18,3.09c2.19,1.7,3.48-1.44,3.48-1.44"/><line class="cls-9" x1="620.96" y1="317.18" x2="622.81" y2="317.18"/><ellipse class="cls-9" cx="621.11" cy="314.79" rx="0.78" ry="0.73"/><ellipse class="cls-8" cx="573.81" cy="343.94" rx="5.14" ry="4.8"/><polyline class="cls-9" points="572.89 341.53 572.89 343.93 575.95 343.93 576.99 345.88 577.8 345.51"/><path class="cls-9" d="M572.11,343.47s-2,1.71-.18,3.09c2.19,1.7,3.48-1.44,3.48-1.44"/><line class="cls-9" x1="572.89" y1="343.18" x2="574.74" y2="343.18"/><ellipse class="cls-9" cx="573.03" cy="340.79" rx="0.78" ry="0.73"/><ellipse class="cls-8" cx="346.65" cy="410.09" rx="5.14" ry="4.8"/><polyline class="cls-9" points="345.73 407.68 345.73 410.08 348.79 410.08 349.83 412.03 350.63 411.66"/><path class="cls-9" d="M345,409.62s-1.95,1.71-.18,3.09c2.19,1.7,3.47-1.44,3.47-1.44"/><line class="cls-9" x1="345.73" y1="409.33" x2="347.58" y2="409.33"/><ellipse class="cls-9" cx="345.87" cy="406.94" rx="0.78" ry="0.73"/><ellipse class="cls-8" cx="317.75" cy="402.39" rx="5.14" ry="4.8"/><polyline class="cls-9" points="316.83 399.99 316.83 402.38 319.88 402.38 320.93 404.33 321.73 403.96"/><path class="cls-9" d="M316,401.92s-2,1.71-.18,3.09c2.19,1.7,3.48-1.44,3.48-1.44"/><line class="cls-9" x1="316.83" y1="401.63" x2="318.68" y2="401.63"/><ellipse class="cls-9" cx="316.97" cy="399.24" rx="0.78" ry="0.73"/><ellipse class="cls-8" cx="235.4" cy="374.9" rx="5.14" ry="4.8"/><polyline class="cls-9" points="234.47 372.49 234.47 374.89 237.53 374.89 238.58 376.84 239.38 376.47"/><path class="cls-9" d="M233.69,374.43s-1.95,1.71-.18,3.09c2.19,1.7,3.48-1.44,3.48-1.44"/><line class="cls-9" x1="234.47" y1="374.14" x2="236.32" y2="374.14"/><ellipse class="cls-9" cx="234.62" cy="371.75" rx="0.78" ry="0.73"/><ellipse class="cls-8" cx="206.14" cy="392.21" rx="5.14" ry="4.8"/><polyline class="cls-9" points="205.22 389.8 205.22 392.2 208.28 392.2 209.32 394.15 210.13 393.78"/><path class="cls-9" d="M204.44,391.74s-1.95,1.71-.18,3.09c2.19,1.7,3.48-1.44,3.48-1.44"/><line class="cls-9" x1="205.22" y1="391.45" x2="207.07" y2="391.45"/><ellipse class="cls-9" cx="205.36" cy="389.05" rx="0.78" ry="0.73"/><ellipse class="cls-8" cx="180.55" cy="365.74" rx="5.14" ry="4.8"/><polyline class="cls-9" points="179.63 363.33 179.63 365.73 182.69 365.73 183.73 367.68 184.54 367.31"/><path class="cls-9" d="M178.85,365.27s-1.95,1.71-.18,3.09c2.19,1.7,3.47-1.44,3.47-1.44"/><line class="cls-9" x1="179.63" y1="364.98" x2="181.48" y2="364.98"/><ellipse class="cls-9" cx="179.77" cy="362.59" rx="0.78" ry="0.73"/><ellipse class="cls-8" cx="43.2" cy="346.09" rx="5.14" ry="4.8"/><polyline class="cls-9" points="42.28 343.68 42.28 346.08 45.34 346.08 46.38 348.03 47.18 347.66"/><path class="cls-9" d="M41.49,345.62s-1.94,1.71-.18,3.09c2.19,1.7,3.48-1.44,3.48-1.44"/><line class="cls-9" x1="42.28" y1="345.33" x2="44.13" y2="345.33"/><ellipse class="cls-9" cx="42.42" cy="342.94" rx="0.78" ry="0.73"/><ellipse class="cls-8" cx="47.47" cy="222.97" rx="5.14" ry="4.8"/><polyline class="cls-9" points="46.55 220.56 46.55 222.96 49.6 222.96 50.65 224.91 51.45 224.54"/><path class="cls-9" d="M45.76,222.5s-1.95,1.71-.18,3.09c2.19,1.7,3.48-1.44,3.48-1.44"/><line class="cls-9" x1="46.54" y1="222.21" x2="48.39" y2="222.21"/><ellipse class="cls-9" cx="46.69" cy="219.82" rx="0.78" ry="0.73"/><ellipse class="cls-8" cx="187.51" cy="236.63" rx="5.14" ry="4.8"/><polyline class="cls-9" points="186.59 234.22 186.59 236.62 189.65 236.62 190.69 238.57 191.5 238.19"/><path class="cls-9" d="M185.81,236.16s-1.95,1.71-.18,3.08c2.19,1.71,3.47-1.43,3.47-1.43"/><line class="cls-9" x1="186.59" y1="235.87" x2="188.44" y2="235.87"/><ellipse class="cls-9" cx="186.73" cy="233.47" rx="0.78" ry="0.73"/><ellipse class="cls-8" cx="350.64" cy="209.03" rx="5.14" ry="4.8"/><polyline class="cls-9" points="349.71 206.62 349.71 209.02 352.77 209.02 353.82 210.97 354.62 210.6"/><path class="cls-9" d="M348.93,208.56s-1.95,1.71-.18,3.09c2.19,1.7,3.48-1.44,3.48-1.44"/><line class="cls-9" x1="349.71" y1="208.27" x2="351.56" y2="208.27"/><ellipse class="cls-9" cx="349.86" cy="205.88" rx="0.78" ry="0.73"/><ellipse class="cls-8" cx="398.62" cy="204.24" rx="5.14" ry="4.8"/><polyline class="cls-9" points="397.7 201.83 397.7 204.23 400.75 204.23 401.8 206.18 402.6 205.8"/><path class="cls-9" d="M396.91,203.77s-2,1.71-.18,3.08c2.19,1.71,3.48-1.44,3.48-1.44"/><line class="cls-9" x1="397.7" y1="203.48" x2="399.55" y2="203.48"/><ellipse class="cls-9" cx="397.84" cy="201.08" rx="0.78" ry="0.73"/><ellipse class="cls-8" cx="449" cy="168.45" rx="5.14" ry="4.8"/><polyline class="cls-9" points="448.08 166.04 448.08 168.44 451.14 168.44 452.18 170.39 452.99 170.01"/><path class="cls-9" d="M447.3,168s-1.95,1.71-.18,3.08c2.19,1.71,3.48-1.43,3.48-1.43"/><line class="cls-9" x1="448.08" y1="167.69" x2="449.93" y2="167.69"/><ellipse class="cls-9" cx="448.22" cy="165.29" rx="0.78" ry="0.73"/><ellipse class="cls-8" cx="497.42" cy="77.53" rx="5.14" ry="4.8"/><polyline class="cls-9" points="496.5 75.12 496.5 77.52 499.56 77.52 500.6 79.47 501.41 79.09"/><path class="cls-9" d="M495.72,77.06s-2,1.71-.18,3.08c2.19,1.71,3.47-1.44,3.47-1.44"/><line class="cls-9" x1="496.5" y1="76.77" x2="498.35" y2="76.77"/><ellipse class="cls-9" cx="496.64" cy="74.37" rx="0.78" ry="0.73"/><path d="M401.05,388.79c-8.87,2.19-5.58,11.58-10.73,13.42a10.27,10.27,0,0,0,9.22-3.29C402.35,395.62,402.65,391.23,401.05,388.79Z"/><path d="M391.49,388.18h-10a.39.39,0,0,0-.39.39v.31a.39.39,0,0,0,.39.39H389a.92.92,0,0,1,.07.36h-5.29a.4.4,0,0,0-.39.39v.31a.4.4,0,0,0,.39.39h5.08c-.15.2-.28.42-.41.63h-3a.4.4,0,0,0-.39.39v.31a.4.4,0,0,0,.39.39h2.44a10.73,10.73,0,0,0-.86,3.82H383.6a.4.4,0,0,0-.39.39V397a.4.4,0,0,0,.39.39H387c0,.18,0,.37,0,.54h-1.63a.4.4,0,0,0-.39.39v.31a.39.39,0,0,0,.39.39h1.49a1.36,1.36,0,0,1-.07.78h-4.6a.39.39,0,0,0-.39.39v.3a.4.4,0,0,0,.39.4H388a2.6,2.6,0,0,0,.61.66,2.75,2.75,0,0,0,.63.37C395,400.61,392,390.5,400.3,388,397.79,386,394.34,386.26,391.49,388.18Z"/><text class="cls-10" transform="translate(389.64 399.81)">6</text><circle class="cls-11" cx="384.27" cy="340.94" r="6.4"/><line class="cls-12" x1="381.11" y1="338.33" x2="379.11" y2="338.24"/><line class="cls-13" x1="375.32" y1="338.07" x2="324.15" y2="335.76"/><polyline class="cls-12" points="322.26 335.67 320.26 335.58 320.33 333.58"/><line class="cls-14" x1="320.48" y1="329.43" x2="321.59" y2="298.29"/><polyline class="cls-12" points="321.66 296.21 321.73 294.21 323.71 293.93"/><line class="cls-15" x1="327.88" y1="293.33" x2="359.16" y2="288.83"/><line class="cls-12" x1="361.24" y1="288.53" x2="363.22" y2="288.25"/><rect x="344.41" y="284.37" width="2.24" height="1.26" rx="0.51"/><rect x="345.82" y="293.94" width="3.08" height="1.26" rx="0.51"/><path d="M368.87,283.39c-10.26,2.54-6.45,13.42-12.42,15.55a11.89,11.89,0,0,0,10.68-3.81C370.38,291.31,370.72,286.22,368.87,283.39Z"/><path d="M357.8,282.69H346.23a.45.45,0,0,0-.45.45v.36a.45.45,0,0,0,.45.45h8.67a1.23,1.23,0,0,1,.07.42h-6.12a.45.45,0,0,0-.45.45v.36a.45.45,0,0,0,.45.45h5.89a8.46,8.46,0,0,0-.49.73h-3.46a.46.46,0,0,0-.46.45v.36a.46.46,0,0,0,.46.45h2.82a12.86,12.86,0,0,0-1,4.43h-3.95a.45.45,0,0,0-.45.45v.36a.45.45,0,0,0,.45.45h4c0,.21,0,.43.05.63h-1.88a.46.46,0,0,0-.46.45v.36a.46.46,0,0,0,.46.45h1.71a1.59,1.59,0,0,1-.07.9H347.1a.45.45,0,0,0-.45.45v.36a.45.45,0,0,0,.45.45h6.66a3.34,3.34,0,0,0,.7.78,3.49,3.49,0,0,0,.74.42c6.68-1.47,3.24-13.18,12.8-16.05C365.1,280.15,361.1,280.47,357.8,282.69Z"/><text class="cls-6" transform="translate(356.89 296.19)">4</text></svg>