<svg xmlns="http://www.w3.org/2000/svg" id="Layer_1" width="906.84" height="628.93" viewBox="0 0 906.84 628.93"><defs><style>.cls-1{fill:#2668ad}.cls-2,.cls-26,.cls-29,.cls-3,.cls-30,.cls-31,.cls-32,.cls-33,.cls-34{fill:none}.cls-2,.cls-26{stroke:#fdfefe}.cls-2,.cls-26,.cls-29,.cls-3,.cls-30,.cls-31,.cls-32,.cls-33,.cls-34,.cls-4,.cls-5,.cls-6{stroke-miterlimit:10}.cls-2{stroke-width:.26px}.cls-3{stroke:#fff}.cls-24,.cls-27,.cls-4,.cls-6{fill:#fff}.cls-4,.cls-5,.cls-6{stroke:#515354}.cls-4{stroke-width:2px}.cls-5{fill:#d8e6ea}.cls-5,.cls-6{stroke-width:.75px}.cls-7{font-size:15px;fill:#515354}.cls-24,.cls-27,.cls-7{font-family:MyriadPro-Regular,Myriad Pro}.cls-8{letter-spacing:0}.cls-9{letter-spacing:-.01em}.cls-10{letter-spacing:-.03em}.cls-11{letter-spacing:-.01em}.cls-12{letter-spacing:0}.cls-13{letter-spacing:.02em}.cls-14{letter-spacing:-.01em}.cls-15{letter-spacing:-.04em}.cls-16{letter-spacing:-.01em}.cls-17{letter-spacing:.01em}.cls-18{letter-spacing:0}.cls-19,.cls-20{letter-spacing:-.01em}.cls-21{letter-spacing:-.02em}.cls-22{letter-spacing:0}.cls-23{letter-spacing:-.03em}.cls-24{font-size:18.57px}.cls-25{fill:#150c0a}.cls-26{stroke-width:.44px}.cls-27{font-size:17.81px}.cls-28{fill:#f05455}.cls-29,.cls-30,.cls-31,.cls-32,.cls-33,.cls-34{stroke:#f05455}.cls-30{stroke-dasharray:5.16 5.16}.cls-31{stroke-dasharray:4.17 4.17}.cls-32{stroke-dasharray:4.31 4.31}.cls-33{stroke-dasharray:3.34 3.34}.cls-34{stroke-dasharray:3.39 3.39}</style></defs><ellipse cx="568.59" cy="626.45" class="cls-1" rx="3.01" ry="2.8"/><path d="M568.05 625.05v1.4h1.79l.61 1.14.47-.22" class="cls-2"/><path d="M567.59 626.18s-1.14 1-.1 1.8c1.28 1 2-.84 2-.84m-1.44-1.13h1.08" class="cls-2"/><ellipse cx="568.13" cy="624.61" class="cls-2" rx=".46" ry=".43"/><path d="M32.68 208.09L21.93 344.93l14.34 1.26v-3.47L45 344.3v3.16h11.06l3.16-27.5 2.85.63 4.42-20.54 54.04 5.06 2.85-.32v-4.42l-57.2-5.28 5.58-64.21-4.21-29.51-34.87 6.72zm2.75 72.98v-73.51" class="cls-3"/><path d="M29.4 298.95l-.77 5.99h3.23v-5.22l-2.46-.77z" class="cls-3"/><path d="M25.63 297.79l13.9 1.09v2.15l-7.67-.31m-6.87 5.22l10.44-1.23v2.15h7.33l-.92 7.37h4.29l-1.07 17.96 12.57 1.67" class="cls-3"/><path d="M95 159.54s224.81 16.23 256.4-47.32S484.81 29.74 538 43.26 610.17 0 630.45 1.35s62.2-13.52 47.33 121.65c0 0 0 42.91 58.14 38.35s175.76-37.56 166.3 30.32-12 113.85.54 157.12-68.14 66.25-142.51 40.56-187.93 2.71-204.16 23-60.26 46-198.46 32.45S166.17 457 166.17 457s-129.11 46-121-33.81S-91.55 197.4 95 159.54z" class="cls-4"/><path d="M571 105.71l4.72-31.94-49.94-1.29-1.72 6 3.43.42-.64 7.51-2.79.42V101h-5.36v63.23l-74.8-2.79 1.71-64.94h2.15l.24-28.73s-1.71-2.79-.64-4.72 5.57 0 5.57 0l1.5-2.57 30.44 1.72v-3.43l96.45 1.93v5.14l9.64.43-6 38.58-7.07-.86-1.07 2.36z" class="cls-5"/><path d="M511.58 80.11l-14.15-1.28v-4.08l-16.73-1.28-1.93 4.5-16.94-1.18v19.19h-3.43v54.04l45.24 1.5 2.15-39.03 4.5-1.07 1.29-31.31z" class="cls-6"/><path d="M530.95 130.55v20.08l30.63.89v-20.46l-30.63-.51zm-129.82-.32v31.67l13.68-.26v-2.58l16.82.36v-29.19h-10.91l-.55-3.14h-2.22l-.18 3.32h-4.25v-3.32h-2.78l-.18 3.32-9.43-.18zm-16.72 57.86s20.19 17.25 41.59 26.85L412.24 245l16.25 38.67h-3.94l1 19.22h-34v6.4H381.2v-18.73l3.7.89-.49-23.8-7.89 3.45v2.71l-6.4-.25v45h-47.51l-.4 15h-2.58V315.4h-4.5v-9.92h4.23V285h-4.23v-9.74h4v-2.76h-18.52v-2.21h15.81V266h3.3v-35.71l3.22-2.3-.18-7.17h3.77s11-13 26.19-13.32l13 7.26v6.06h3.59v10h2.29v23.53h2.49v5.24l7.53-3.68v-2.38h3.22z" class="cls-5"/><path d="M291.65 241.34V215.4h-16.34v23.41h6.23v3.04h-10.87v27.79h-5.22V253.3h1.1v-1.51h-1.1v-2.78h1.52v-2.61h-2.03v-7.33h1.94v-7.67h-1.94v-5.31h2.36v-7.66h-1.93v-12.72h28.05v-25.27h-58.04v40.6h-4.8v-5.64h-10.11v-4.64h9.69v-31.25h-22.75v31.09h10.11v4.63h-10.11v5.73h-4.8v-38.33h-17.18v31h-21.15v53.43h11.04v33.44h25.83v2.29h3.87v1.14h1.18v-4.6h-1.74v-6.52h-2.3v-5.86h45.8v8.02h-1.83v4.06h1.15v3.38h-2.22v31.12h2.71v10.63h-30.25v-11.32H201.9l-.22-25.58h9.84v-2.94h-38.59v-9.96h-3.96v-3.52h-22.98v-4.29h-22.18v16.41h5.77v12.57h11.89l-2.38 3.28 2.6 3.17 2.38-3.17v12.45h12.22l-2.6 2.94 2.6 1.92 2.83-2.37v12.33h12.45l-2.15 2.83 2.04 2.27 3.28-2.04v12.11h11.77v3.62h4.64v-3.39h3.28v3.39h16.53v-6.22h36.89v13.8h29.77v-28.86h-9.73v-4.64h83.35l1.8 6.93 3.31-.15h23.45v21.95h17.89v10.22h3.91v-9.92l7.97-3.46v-34.73l-7.52-2.55h-50.06l.15 7.36h-89.59v-1.8h31.87v-29.61h-27.73v-3.61h14.65V285.9h6.16v-12.93h12.78v-31.42l-8.63-.21zm-123 165.36l-3.69 7.01 8.98 4.92-1.97 3.57-15.25-7.75-3.69 7.75 11.93 6.4-1.48 3.56h-2.21l-4.55 9.1 21.03 11.2 5.29-9.47-9.72-5.29 1.85-3.57 14.88 7.01 4.06-7.13-9.84-5.29 1.97-3.94 1.6.74 3.81-6.77-23-12.05z" class="cls-5"/><path d="M223.93 398.43l-17.6-10.34s-8.59-6.18-3.76-14.9 40.43-4.3 40.43-4.3v15.58l-3.77-.14-.23-1.23h-15.61l-.4 10.1h1.34zm96.33-64.21v4.74h-1.32v6.2h1.32v55.77h6.33v1.84h4.75v-1.18h8.83v-61.84l-8.17-5.53h-11.74zm27.69 44.43v37.44h64.6v-37.97h-45.22v-1.85h-7.52v-2.63l-11.86 1.58-7.78-.13v3.42l7.78.14zm61.43-43.38v3.88h37.31v13.73h50.83l2 3.15h5.24v-2.94h4.82v1.36h30.92v2.83h33.33V344.5h18.76v4.82h6.6v2.72h14.26v2.31h45.17v-12.58H638.5v-26.1h-38.57v2.73h-7.13v23.48h-16.77v-19.81h-39.52v2.3h-24.83v6.5h-1.79v2.83h-5.03v-2.41h-6.39v3.25h-44.02v-2.2H447v3.25l-37.62-.32zm404.83-45.12v28.17l17.73-1.16 7.79.5.99-14.58-3.31-.66.33-7.63-13.75-1.32-.34-2.59-9.44-.73zm17.07-83.67l-3.81-.99v12.09l-7.79 3.81h-3.15l-2.32-2.81v-9.61l2.49-3.48 1.82-18.4h5.13l.17 3.98h5.63v9.78l-.99 1.99 2.82.16 1.16-6.29 44.73 4.3-3.81 61.97-45.89-3.31 3.81-53.19zM511.24 75.94v-2.57s-4.12-2.06-1.55-6c0 0 1.89-2.07 3.61-1.21v-7.39m-4.45 44.66h8.92m-59.78 44.31h-6.35l-1.89-2.74h-6.01m-256.56 90.8h3.77v19.48h-16.39v12.63m26.57 18.38V220.3m32.9 3.05h-32.9m28.18 7.08h-17.62v-7.08 11.01h-7.23v12.27h6.76m59.77.79h8.81v6.68h-8.81zm-8.18 26.9h8.18v7.71h-8.18zm24.54-2.05v-30.83h3.62m-10.23 44.04h-15.25v21.71h-2.68v2.52h16.99v-2.05h2.2v-5.97m-29.25.15v-15.57h-5.04m32.09 51.59v-3.46m-29.57 2.83h5.98v8.18h-5.98zm16.67 5.67h-10.06m-10.07 14.15V342.9h3.46m-51.91 6.29h4.25v1.89h-4.25z" class="cls-5"/><path d="M193.6 360.36v-12.43h-1.57v-3.62h8.42V332.2m-10.15-14.31h6.92v-11.96h-11.8v1.57h-4.24v6.14h4.56l4.56 4.25z" class="cls-5"/><path d="M189.99 321.19l.31-3.3-4.56-4.25h-20.29v5.03l19.19 18.56h3.77v-16.51l1.58.47z" class="cls-5"/><path d="M172.37 303.1v3.46h-15.89l-1.57 1.57v7.08l3.77 4.56 6.77-1.1 4.95 4.8-.86 3.54 6.6 6.61h4.76l3.74 3.61v8.18l3.93 3.78 3.46-1.26 1.1 3.14h-4.87l-.13-1.88m4.58 7.86h-8.01m2.81 0h2.79v7.58h-2.79z" class="cls-5"/><path d="M170.81 351.07l-2.53-2.72 2.53-2.07v-9.05h6.17l4.2 4.8v6.32l-7.59-.48-2.78 3.2zm-14.55-14.71l-2.52-2.73 2.52-2.07v-9.05h6.18l4.19 4.8v6.32l-7.59-.48-2.78 3.21zm-15.1-14.6l-2.53-2.72 2.53-2.07v-9.05h6.17l4.2 4.8v6.32l-7.59-.48-2.78 3.2zm25.47-19.21v-8.78h5.38l.36 12.79h-5.74v-1.69l-2.1-.26v-2.32l2.1.26zm-6.45-3.23v-7.49h-7.92v8.33l7.92-.84zM137.93 296v-8.17h-8.4v8.78l8.4-.61zm-14.59 3.58h6.2v3.52h-6.2zm49.32 118.22l11.94 6.65m-10.56 8.61l-11.13-5.51m8.95 9.3l-10.67-5.17m174.9-154.88v9.58h10.41v-10.25l-10.41.67zm-13.72-49.08v23.04h28.75v15.96h6.61V249.7h4.63v-30.24h-7.44v-9.92h-7.76v9.09h-4.79v3.8h-7.61v4.79l-12.39.5zm5.29 113.68s-8.59-.16-5.78 14.21 5.78 12.89 5.78 12.89 7.27 1.2 7.43-13.53-7.43-13.57-7.43-13.57zm51.55-13.71v11.07h20.66v-6.28l1.11 1.12v-5.91m6.82 7.43v2.15m-57.5-2.15v2.15m11.07 41.15h5.12v5.12h-5.12zm15.03 1.15v22.81h17.02v8.09h3.97v-27.76h-3.64v-3.14H376.4zm68.74-44.45v3.64m62.79-1.49l-4.96-.33v8.1h-2.14v8.26h7.93l-.83-16.03zm.83-3.3v4.79m30.73-2.4v19.58h33.54V341.9h-9.25v-6.78l-24.29 1.24z" class="cls-5"/><text class="cls-7" transform="translate(539.09 70.49)">R</text><text class="cls-7" transform="translate(461.03 73.49)">R</text><text class="cls-7" transform="translate(478.13 161.87)">R</text><text class="cls-7" transform="translate(540.32 146.59)">G</text><text class="cls-7" transform="translate(410.75 152.05)">F</text><text class="cls-7" transform="translate(391.56 256.95)">E</text><text class="cls-7" transform="translate(334.1 245.67)">H</text><text class="cls-7" transform="translate(329.73 305.32)">D</text><text class="cls-7" transform="translate(242.08 245.67)">A</text><text class="cls-7" transform="translate(256.44 365.34)">C</text><text class="cls-7" transform="translate(136.1 305.32)">B</text><text class="cls-7" transform="translate(209.66 383.7)">K</text><text class="cls-7" transform="translate(168.47 433.35)">M</text><text class="cls-7" transform="translate(325.46 359.88)">J</text><text class="cls-7" transform="translate(359.92 405.71)">T</text><text class="cls-7" transform="translate(515.59 346.06)">P</text><text class="cls-7" transform="translate(381.13 359.88)">N</text><text class="cls-7" transform="translate(606.88 341.33)">S</text><text class="cls-7" transform="translate(822.23 311.15)">V</text><text class="cls-7" transform="translate(817.5 209.41)">Z</text><path d="M38.83 205.94L28.09 342.78l14.33 1.27v-3.48l8.74 1.58v3.16h11.06l3.16-27.49 2.84.63 4.43-20.54 54.04 5.05 2.84-.31v-4.43l-57.2-5.28 5.59-64.2-4.22-29.51-34.87 6.71zm2.75 72.98v-73.51" class="cls-5"/><path d="M35.56 296.81l-.77 5.99h3.22v-5.22l-2.45-.77z" class="cls-5"/><path d="M31.79 295.64l13.9 1.1v2.15l-7.68-.31m-6.86 5.22l10.43-1.23v2.15h7.33l-.92 7.37h4.3l-1.07 17.96 12.56 1.67" class="cls-5"/><text class="cls-7" transform="translate(47.47 266.87)"><tspan class="cls-8">C</tspan><tspan x="8.76" y="0">A</tspan></text><text class="cls-7" transform="translate(716.73 478.65)">1.<tspan x="10.8" y="0" class="cls-9">T</tspan><tspan x="18.15" y="0">he </tspan><tspan x="37.17" y="0" class="cls-10">F</tspan><tspan x="44.08" y="0">ix</tspan><tspan x="0" y="18">2.</tspan><tspan x="10.8" y="18" class="cls-11">T</tspan><tspan x="18.07" y="18" class="cls-12">im Ho</tspan><tspan x="55.29" y="18" class="cls-13">r</tspan><tspan x="60.55" y="18" class="cls-14">t</tspan><tspan x="65.43" y="18">ons</tspan><tspan x="0" y="36">3.</tspan><tspan x="0" y="54">4.</tspan><tspan x="10.8" y="54" class="cls-15"> </tspan><tspan x="13.36" y="54" class="cls-16">T</tspan><tspan x="20.71" y="54">he </tspan><tspan x="39.73" y="54" class="cls-17">M</tspan><tspan x="51.88" y="54" class="cls-12">a</tspan><tspan x="59.11" y="54" class="cls-8">r</tspan><tspan x="64.08" y="54">ketpla</tspan><tspan x="102.9" y="54" class="cls-14">c</tspan><tspan x="109.53" y="54">e</tspan><tspan x="0" y="72">5. </tspan><tspan x="13.98" y="72" class="cls-18">S</tspan><tspan x="21.33" y="72">ta</tspan><tspan x="33.52" y="72" class="cls-8">r</tspan><tspan x="38.49" y="72">bucks</tspan><tspan x="0" y="90">6. Bits and </tspan><tspan x="66.9" y="90" class="cls-8">B</tspan><tspan x="75.09" y="90" class="cls-12">y</tspan><tspan x="82.15" y="90" class="cls-14">t</tspan><tspan x="87.03" y="90">es</tspan><tspan x="0" y="108">7. 35th </tspan><tspan x="45.84" y="108" class="cls-18">S</tspan><tspan x="53.19" y="108">t</tspan><tspan x="58.15" y="108" class="cls-19">r</tspan><tspan x="62.91" y="108" class="cls-12">eet </tspan><tspan x="86.08" y="108" class="cls-17">M</tspan><tspan x="98.23" y="108" class="cls-12">a</tspan><tspan x="105.46" y="108" class="cls-8">r</tspan><tspan x="110.43" y="108">ket </tspan><tspan x="133.12" y="108" class="cls-9">C</tspan><tspan x="141.72" y="108" class="cls-12">a</tspan><tspan x="148.95" y="108" class="cls-20">f</tspan><tspan x="153.13" y="108" class="cls-12">e</tspan></text><text class="cls-7" transform="translate(729.92 515.24)"><tspan class="cls-21">P</tspan><tspan x="7.61" y="0" class="cls-22">o</tspan><tspan x="15.84" y="0" class="cls-13">r</tspan><tspan x="21.1" y="0">table </tspan><tspan x="56.07" y="0" class="cls-23">F</tspan><tspan x="62.91" y="0">east</tspan></text><rect width="2.24" height="1.26" x="485.38" y="149.84" rx=".51"/><rect width="3.08" height="1.26" x="486.79" y="159.41" rx=".51"/><path d="M509.84 148.87c-10.26 2.53-6.45 13.41-12.42 15.54a11.88 11.88 0 0 0 10.68-3.81c3.26-3.82 3.6-8.91 1.74-11.73z"/><path d="M498.78 148.16H487.2a.46.46 0 0 0-.45.46v.38a.45.45 0 0 0 .45.45h8.67a1.3 1.3 0 0 1 .08.42h-6.12a.47.47 0 0 0-.46.46v.35a.46.46 0 0 0 .46.45h5.88c-.17.24-.33.49-.48.73h-3.47a.46.46 0 0 0-.45.46v.35a.45.45 0 0 0 .45.45h2.82a12.62 12.62 0 0 0-1 4.43h-3.95a.47.47 0 0 0-.46.46v.35a.46.46 0 0 0 .46.45h4a6.19 6.19 0 0 0 0 .63h-1.89a.46.46 0 0 0-.45.46v.35a.45.45 0 0 0 .45.45h1.72a1.51 1.51 0 0 1-.08.9h-5.32a.46.46 0 0 0-.45.46v.35a.45.45 0 0 0 .45.45h6.65a3.34 3.34 0 0 0 .7.78 3.49 3.49 0 0 0 .74.42c6.68-1.46 3.24-13.18 12.81-16.05-2.89-2.39-6.89-2.07-10.18.15z"/><text class="cls-24" transform="translate(497.86 161.66)">7</text><rect width="2.24" height="1.26" x="344.41" y="284.75" rx=".51"/><rect width="3.08" height="1.26" x="345.82" y="294.32" rx=".51"/><path d="M368.87 283.78c-10.26 2.53-6.45 13.41-12.42 15.54a11.89 11.89 0 0 0 10.68-3.81c3.25-3.82 3.59-8.91 1.74-11.73z"/><path d="M357.8 283.07h-11.57a.46.46 0 0 0-.45.46v.35a.45.45 0 0 0 .45.45h8.67a1.28 1.28 0 0 1 .07.42h-6.12a.45.45 0 0 0-.45.45v.36a.45.45 0 0 0 .45.45h5.89a8.46 8.46 0 0 0-.49.73h-3.46a.47.47 0 0 0-.46.46v.35a.46.46 0 0 0 .46.45h2.82a12.86 12.86 0 0 0-1 4.43h-3.95a.46.46 0 0 0-.45.46v.35a.45.45 0 0 0 .45.45h4c0 .22 0 .43.05.63h-1.88a.47.47 0 0 0-.46.46v.35a.46.46 0 0 0 .46.45h1.71a1.59 1.59 0 0 1-.07.9h-5.37a.45.45 0 0 0-.45.45v.36a.45.45 0 0 0 .45.45h6.66a3.34 3.34 0 0 0 .7.78 3.49 3.49 0 0 0 .74.42c6.68-1.46 3.24-13.18 12.8-16.05-2.9-2.36-6.9-2.04-10.2.18z"/><text class="cls-24" transform="translate(356.89 296.57)">4</text><rect width="2.24" height="1.26" x="194.1" y="233.77" class="cls-25" rx=".51"/><rect width="3.08" height="1.26" x="195.51" y="243.34" class="cls-25" rx=".51"/><path d="M218.57 232.8c-10.27 2.53-6.46 13.41-12.43 15.54a11.88 11.88 0 0 0 10.68-3.81c3.26-3.82 3.6-8.91 1.75-11.73z"/><path d="M207.5 232.09h-11.58a.45.45 0 0 0-.45.45v.36a.45.45 0 0 0 .45.45h8.67a1 1 0 0 1 .08.42h-6.12a.45.45 0 0 0-.45.45v.36a.45.45 0 0 0 .45.45h5.88c-.17.24-.33.48-.48.73h-3.47a.46.46 0 0 0-.45.46v.35a.45.45 0 0 0 .45.45h2.82a12.62 12.62 0 0 0-1 4.43h-3.95a.45.45 0 0 0-.45.45v.36a.45.45 0 0 0 .45.45h4c0 .22 0 .43.05.63h-1.89a.46.46 0 0 0-.45.46v.35a.45.45 0 0 0 .45.45h1.72a1.51 1.51 0 0 1-.08.9h-5.35a.45.45 0 0 0-.45.45v.36a.45.45 0 0 0 .45.45h6.65a3.58 3.58 0 0 0 .7.78 3.76 3.76 0 0 0 .74.42c6.68-1.47 3.24-13.18 12.81-16.05-2.91-2.36-6.9-2.04-10.2.18z"/><text class="cls-24" transform="translate(206.58 245.59)">2</text><rect width="2.24" height="1.26" x="168.52" y="321.47" rx=".51"/><rect width="3.08" height="1.26" x="169.92" y="331.04" rx=".51"/><path d="M193 320.49c-10.27 2.54-6.46 13.42-12.42 15.55a11.87 11.87 0 0 0 10.67-3.81c3.24-3.82 3.58-8.91 1.75-11.74z"/><path d="M181.91 319.79h-11.57a.46.46 0 0 0-.46.45v.36a.46.46 0 0 0 .46.45H179a1.23 1.23 0 0 1 .07.42H173a.45.45 0 0 0-.45.45v.36a.45.45 0 0 0 .45.45h5.88c-.17.24-.33.48-.48.73h-3.47a.45.45 0 0 0-.45.45v.36a.45.45 0 0 0 .45.45h2.83a12.42 12.42 0 0 0-1 4.43h-3.95a.45.45 0 0 0-.45.45v.4a.45.45 0 0 0 .45.45h4c0 .21 0 .42.05.63h-1.89a.45.45 0 0 0-.45.45v.36a.45.45 0 0 0 .45.45h1.72a1.59 1.59 0 0 1-.07.9h-5.33a.45.45 0 0 0-.45.45v.31a.45.45 0 0 0 .45.45h6.66a2.92 2.92 0 0 0 .7.77 3.51 3.51 0 0 0 .74.43c6.67-1.47 3.24-13.18 12.8-16.05-2.98-2.35-6.98-2.03-10.28.19z"/><text class="cls-24" transform="translate(181 333.29)">3</text><rect width="2.24" height="1.26" x="28.09" y="266.65" rx=".51"/><rect width="3.08" height="1.26" x="29.49" y="276.22" rx=".51"/><path d="M52.55 265.68c-10.27 2.53-6.46 13.41-12.42 15.54a11.87 11.87 0 0 0 10.67-3.81c3.26-3.82 3.6-8.91 1.75-11.73z"/><path d="M41.48 265H29.91a.47.47 0 0 0-.46.46v.35a.46.46 0 0 0 .46.45h8.67a1.28 1.28 0 0 1 .07.42h-6.12a.46.46 0 0 0-.45.46v.35a.45.45 0 0 0 .45.45h5.88c-.17.24-.33.48-.48.73h-3.47a.46.46 0 0 0-.45.46v.35a.45.45 0 0 0 .45.45h2.83a12.42 12.42 0 0 0-1 4.43h-3.95a.46.46 0 0 0-.45.46v.35a.45.45 0 0 0 .45.45h4c0 .22 0 .43.05.63h-1.93a.46.46 0 0 0-.45.46v.29a.45.45 0 0 0 .45.45h1.72a1.51 1.51 0 0 1-.08.9h-5.32a.46.46 0 0 0-.45.46v.35a.45.45 0 0 0 .45.45h6.66a3.14 3.14 0 0 0 .7.78 3.67 3.67 0 0 0 .73.42c6.68-1.46 3.25-13.18 12.81-16-2.9-2.38-6.9-2.06-10.2.19z"/><text class="cls-24" transform="translate(40.57 278.47)">1</text><ellipse cx="394.63" cy="417.81" class="cls-1" rx="5.14" ry="4.8"/><path d="M393.71 415.4v2.4h3.05l1.05 1.95.8-.37" class="cls-26"/><path d="M392.92 417.34s-1.95 1.71-.18 3.09c2.19 1.7 3.48-1.44 3.48-1.44m-2.51-1.94h1.85" class="cls-26"/><ellipse cx="393.85" cy="414.66" class="cls-26" rx=".78" ry=".73"/><ellipse cx="406.41" cy="394.86" class="cls-1" rx="5.14" ry="4.8"/><path d="M405.49 392.46v2.4h3.06l1.05 1.95.8-.38" class="cls-26"/><path d="M404.71 394.4s-1.95 1.7-.18 3.08c2.19 1.7 3.48-1.44 3.48-1.44m-2.52-1.93h1.85" class="cls-26"/><ellipse cx="405.64" cy="391.71" class="cls-26" rx=".78" ry=".73"/><ellipse cx="398.61" cy="368.55" class="cls-1" rx="5.14" ry="4.8"/><path d="M397.69 366.14v2.4h3.06l1.04 1.95.81-.38" class="cls-26"/><path d="M396.91 368.08s-2 1.71-.18 3.08c2.19 1.7 3.48-1.44 3.48-1.44m-2.52-1.93h1.85" class="cls-26"/><ellipse cx="397.83" cy="365.39" class="cls-26" rx=".78" ry=".73"/><ellipse cx="440.79" cy="350.86" class="cls-1" rx="5.14" ry="4.8"/><path d="M439.87 348.45v2.4h3.06l1.04 1.95.81-.38" class="cls-26"/><path d="M439.09 350.39s-1.95 1.71-.18 3.08c2.19 1.71 3.48-1.44 3.48-1.44m-2.52-1.93h1.85" class="cls-26"/><ellipse cx="440.01" cy="347.7" class="cls-26" rx=".78" ry=".73"/><ellipse cx="464.45" cy="358.77" class="cls-1" rx="5.14" ry="4.8"/><path d="M463.53 356.37v2.4h3.05l1.05 1.95.8-.38" class="cls-26"/><path d="M462.74 358.31s-1.95 1.71-.18 3.08c2.19 1.7 3.48-1.44 3.48-1.44m-2.51-1.93h1.85" class="cls-26"/><ellipse cx="463.67" cy="355.62" class="cls-26" rx=".78" ry=".73"/><ellipse cx="440.79" cy="329.43" class="cls-1" rx="5.14" ry="4.8"/><path d="M439.87 327.03v2.4h3.06l1.04 1.95.81-.38" class="cls-26"/><path d="M439.09 329s-1.95 1.71-.18 3.08c2.19 1.7 3.48-1.44 3.48-1.44m-2.52-1.96h1.85" class="cls-26"/><ellipse cx="440.01" cy="326.28" class="cls-26" rx=".78" ry=".73"/><ellipse cx="386.9" cy="332.51" class="cls-1" rx="5.14" ry="4.8"/><path d="M385.98 330.11v2.39h3.05l1.05 1.95.8-.37" class="cls-26"/><path d="M385.19 332s-1.95 1.71-.18 3.09c2.19 1.7 3.48-1.44 3.48-1.44m-2.51-1.9h1.85" class="cls-26"/><ellipse cx="386.12" cy="329.36" class="cls-26" rx=".78" ry=".73"/><ellipse cx="551.41" cy="322.73" class="cls-1" rx="5.14" ry="4.8"/><path d="M550.49 320.32v2.4h3.05l1.05 1.95.8-.37" class="cls-26"/><path d="M549.7 322.26s-1.94 1.71-.18 3.09c2.19 1.7 3.48-1.44 3.48-1.44m-2.51-1.94h1.85" class="cls-26"/><ellipse cx="550.63" cy="319.58" class="cls-26" rx=".78" ry=".73"/><ellipse cx="621.88" cy="318.32" class="cls-1" rx="5.14" ry="4.8"/><path d="M620.97 315.92v2.39h3.05l1.05 1.95.8-.37" class="cls-26"/><path d="M620.18 317.85s-1.95 1.71-.18 3.09c2.19 1.7 3.48-1.44 3.48-1.44m-2.52-1.93h1.85" class="cls-26"/><ellipse cx="621.11" cy="315.17" class="cls-26" rx=".78" ry=".73"/><ellipse cx="809.07" cy="304.24" class="cls-1" rx="5.14" ry="4.8"/><path d="M808.15 301.83v2.4h3.05l1.05 1.95.8-.37" class="cls-26"/><path d="M807.36 303.77s-2 1.71-.18 3.09c2.19 1.7 3.48-1.44 3.48-1.44m-2.51-1.94H810" class="cls-26"/><ellipse cx="808.29" cy="301.08" class="cls-26" rx=".78" ry=".73"/><ellipse cx="573.81" cy="344.32" class="cls-1" rx="5.14" ry="4.8"/><path d="M572.89 341.91v2.4h3.06l1.04 1.95.81-.37" class="cls-26"/><path d="M572.11 343.85s-2 1.71-.18 3.09c2.19 1.7 3.48-1.44 3.48-1.44m-2.52-1.94h1.85" class="cls-26"/><ellipse cx="573.03" cy="341.17" class="cls-26" rx=".78" ry=".73"/><ellipse cx="346.65" cy="410.47" class="cls-1" rx="5.14" ry="4.8"/><path d="M345.73 408.06v2.4h3.06l1.04 1.95.8-.37" class="cls-26"/><path d="M345 410s-1.95 1.71-.18 3.09c2.19 1.7 3.47-1.44 3.47-1.44m-2.56-1.94h1.85" class="cls-26"/><ellipse cx="345.87" cy="407.32" class="cls-26" rx=".78" ry=".73"/><ellipse cx="317.75" cy="402.77" class="cls-1" rx="5.14" ry="4.8"/><path d="M316.83 400.37v2.4h3.05l1.05 1.95.8-.38" class="cls-26"/><path d="M316 402.31s-2 1.71-.18 3.08c2.19 1.7 3.48-1.44 3.48-1.44m-2.47-1.93h1.85" class="cls-26"/><ellipse cx="316.97" cy="399.62" class="cls-26" rx=".78" ry=".73"/><ellipse cx="235.4" cy="375.28" class="cls-1" rx="5.14" ry="4.8"/><path d="M234.47 372.88v2.39h3.06l1.05 1.95.8-.37" class="cls-26"/><path d="M233.69 374.81s-1.95 1.71-.18 3.09c2.19 1.7 3.48-1.44 3.48-1.44m-2.52-1.93h1.85" class="cls-26"/><ellipse cx="234.62" cy="372.13" class="cls-26" rx=".78" ry=".73"/><ellipse cx="206.14" cy="392.59" class="cls-1" rx="5.14" ry="4.8"/><path d="M205.22 390.18v2.4h3.06l1.04 1.95.81-.37" class="cls-26"/><path d="M204.44 392.12s-1.95 1.71-.18 3.09c2.19 1.7 3.48-1.44 3.48-1.44m-2.52-1.94h1.85" class="cls-26"/><ellipse cx="205.36" cy="389.44" class="cls-26" rx=".78" ry=".73"/><ellipse cx="180.55" cy="366.12" class="cls-1" rx="5.14" ry="4.8"/><path d="M179.63 363.71v2.4h3.06l1.04 1.95.81-.37" class="cls-26"/><path d="M178.85 365.65s-1.95 1.71-.18 3.09c2.19 1.7 3.47-1.44 3.47-1.44m-2.51-1.94h1.85" class="cls-26"/><ellipse cx="179.77" cy="362.97" class="cls-26" rx=".78" ry=".73"/><ellipse cx="43.2" cy="346.47" class="cls-1" rx="5.14" ry="4.8"/><path d="M42.28 344.06v2.4h3.06l1.04 1.95.8-.37" class="cls-26"/><path d="M41.49 346s-1.94 1.71-.18 3.09c2.19 1.7 3.48-1.44 3.48-1.44m-2.51-1.94h1.85" class="cls-26"/><ellipse cx="42.42" cy="343.32" class="cls-26" rx=".78" ry=".73"/><ellipse cx="47.47" cy="223.35" class="cls-1" rx="5.14" ry="4.8"/><path d="M46.55 220.95v2.39h3.05l1.05 1.95.8-.37" class="cls-26"/><path d="M45.76 222.88s-1.95 1.71-.18 3.09c2.19 1.7 3.48-1.44 3.48-1.44m-2.52-1.93h1.85" class="cls-26"/><ellipse cx="46.69" cy="220.2" class="cls-26" rx=".78" ry=".73"/><ellipse cx="187.51" cy="237.01" class="cls-1" rx="5.14" ry="4.8"/><path d="M186.59 234.6v2.4h3.06l1.04 1.95.81-.37" class="cls-26"/><path d="M185.81 236.54s-1.95 1.71-.18 3.09c2.19 1.7 3.47-1.44 3.47-1.44m-2.51-1.94h1.85" class="cls-26"/><ellipse cx="186.73" cy="233.86" class="cls-26" rx=".78" ry=".73"/><ellipse cx="350.64" cy="209.41" class="cls-1" rx="5.14" ry="4.8"/><path d="M349.71 207.01v2.4h3.06l1.05 1.94.8-.37" class="cls-26"/><path d="M348.93 209s-1.95 1.7-.18 3.08c2.19 1.7 3.48-1.44 3.48-1.44m-2.52-1.98h1.85" class="cls-26"/><ellipse cx="349.86" cy="206.26" class="cls-26" rx=".78" ry=".73"/><ellipse cx="398.62" cy="204.62" class="cls-1" rx="5.14" ry="4.8"/><path d="M397.7 202.21v2.4h3.05l1.05 1.95.8-.38" class="cls-26"/><path d="M396.91 204.15s-2 1.71-.18 3.08c2.19 1.71 3.48-1.43 3.48-1.43m-2.51-1.94h1.85" class="cls-26"/><ellipse cx="397.84" cy="201.46" class="cls-26" rx=".78" ry=".73"/><ellipse cx="449" cy="168.83" class="cls-1" rx="5.14" ry="4.8"/><path d="M448.08 166.42v2.4h3.06l1.04 1.95.81-.37" class="cls-26"/><path d="M447.3 168.36s-1.95 1.71-.18 3.09c2.19 1.7 3.48-1.44 3.48-1.44m-2.52-1.94h1.85" class="cls-26"/><ellipse cx="448.22" cy="165.68" class="cls-26" rx=".78" ry=".73"/><ellipse cx="497.42" cy="77.91" class="cls-1" rx="5.14" ry="4.8"/><path d="M496.5 75.5v2.4h3.06l1.04 1.95.81-.38" class="cls-26"/><path d="M495.72 77.44s-2 1.71-.18 3.08c2.19 1.71 3.47-1.43 3.47-1.43m-2.51-1.94h1.85" class="cls-26"/><ellipse cx="496.64" cy="74.75" class="cls-26" rx=".78" ry=".73"/><path d="M401.05 389.17c-8.87 2.19-5.58 11.58-10.73 13.42a10.27 10.27 0 0 0 9.22-3.29c2.81-3.3 3.11-7.69 1.51-10.13z"/><path d="M391.49 388.56h-10a.39.39 0 0 0-.39.39v.31a.38.38 0 0 0 .39.39H389a.92.92 0 0 1 .07.36h-5.29a.4.4 0 0 0-.39.39v.31a.39.39 0 0 0 .39.39h5.08c-.15.21-.28.42-.41.63h-3a.4.4 0 0 0-.39.39v.31a.4.4 0 0 0 .39.39h2.44a10.73 10.73 0 0 0-.86 3.82h-3.43a.4.4 0 0 0-.39.39v.31a.39.39 0 0 0 .39.39h3.4v.55h-1.63a.39.39 0 0 0-.39.39v.3a.39.39 0 0 0 .39.39h1.49a1.35 1.35 0 0 1-.07.78h-4.6a.39.39 0 0 0-.39.39v.31a.4.4 0 0 0 .39.39H388a2.84 2.84 0 0 0 .61.67 3.15 3.15 0 0 0 .63.36C395 401 392 390.88 400.3 388.41c-2.51-2.04-5.96-1.77-8.81.15z"/><text class="cls-27" transform="translate(389.64 400.19)">6</text><circle cx="384.27" cy="340.68" r="6.4" class="cls-28"/><path d="M384.27 340.68l2 .03" class="cls-29"/><path d="M391.43 340.78l7.74.11" class="cls-30"/><path d="M401.76 340.92l2 .03.19-1.99" class="cls-29"/><path d="M404.34 334.81l1.15-12.08 33.77-28.47" class="cls-31"/><path d="M440.86 292.92l1.53-1.29-.89-1.79" class="cls-29"/><path d="M439.57 285.98l-14.42-28.97" class="cls-32"/><path d="M424.19 255.08l-.89-1.79-2 .08" class="cls-29"/><path d="M417.96 253.5l-11.69.46" class="cls-33"/><path d="M404.6 254.02l-2 .08.28-1.98" class="cls-29"/><path d="M403.35 248.76l1.63-11.75" class="cls-34"/><path d="M405.22 235.33l.27-1.98" class="cls-29"/><rect width="2.24" height="1.26" x="387.19" y="230.13" rx=".51"/><rect width="3.08" height="1.26" x="388.6" y="239.7" rx=".51"/><path d="M411.65 229.16c-10.26 2.53-6.45 13.41-12.42 15.54a11.89 11.89 0 0 0 10.68-3.81c3.25-3.82 3.59-8.89 1.74-11.73z"/><path d="M400.58 228.45H389a.45.45 0 0 0-.45.45v.36a.45.45 0 0 0 .45.45h8.67a1.23 1.23 0 0 1 .07.42h-6.12a.45.45 0 0 0-.45.45v.36a.45.45 0 0 0 .45.45h5.89a8.46 8.46 0 0 0-.49.73h-3.46a.46.46 0 0 0-.46.45v.36a.46.46 0 0 0 .46.45h2.82a12.86 12.86 0 0 0-1 4.43h-3.95a.45.45 0 0 0-.45.45v.36a.45.45 0 0 0 .45.45h4c0 .22 0 .43.05.63h-1.88a.46.46 0 0 0-.46.45v.36a.46.46 0 0 0 .46.45h1.71a1.59 1.59 0 0 1-.07.9h-5.33a.45.45 0 0 0-.45.45v.36a.45.45 0 0 0 .45.45h6.66a3.34 3.34 0 0 0 .7.78 3.49 3.49 0 0 0 .74.42c6.68-1.47 3.24-13.18 12.8-16-2.93-2.41-6.93-2.09-10.23.13z"/><text class="cls-24" transform="translate(399.67 241.95)">5</text></svg>