<svg xmlns="http://www.w3.org/2000/svg" id="Layer_1" viewBox="0 0 662.9 454.18" width="662.9" height="454.18"><defs><style>.cls-1,.cls-12,.cls-13,.cls-14,.cls-15,.cls-16,.cls-9{fill:none}.cls-1{stroke:#fff}.cls-1,.cls-12,.cls-13,.cls-14,.cls-15,.cls-16,.cls-2,.cls-3,.cls-9{stroke-miterlimit:10}.cls-2{fill:#d8e6ea}.cls-2,.cls-3{stroke:#515354;stroke-width:.75px}.cls-10,.cls-3,.cls-6{fill:#fff}.cls-4{font-size:15px;fill:#515354}.cls-10,.cls-4,.cls-6{font-family:MyriadPro-Regular,Myriad Pro}.cls-5{letter-spacing:0}.cls-6{font-size:18.57px}.cls-7{fill:#150c0a}.cls-8{fill:#2668ad}.cls-9{stroke:#fdfefe;stroke-width:.44px}.cls-10{font-size:17.81px}.cls-11{fill:#f05455}.cls-12,.cls-13,.cls-14,.cls-15,.cls-16{stroke:#f05455}.cls-13{stroke-dasharray:3.75 3.75}.cls-14{stroke-dasharray:4.05 4.05}.cls-15{stroke-dasharray:3.65 3.65}.cls-16{stroke-dasharray:4.1 4.1}</style></defs><path d="M35.16 206.43L24.42 343.28l14.33 1.26v-3.48l8.74 1.58v3.17h11.06l3.16-27.5 2.85.63 4.42-20.54 54.04 5.06 2.85-.32v-4.42l-57.2-5.28 5.58-64.21-4.22-29.51-34.87 6.71zm2.76 72.98V205.9" class="cls-1"/><path d="M31.89 297.3l-.77 5.99h3.23v-5.22l-2.46-.77z" class="cls-1"/><path d="M28.12 296.14l13.9 1.09v2.15l-7.67-.31m-6.87 5.22l10.44-1.23v2.15h7.32l-.92 7.37h4.3l-1.07 17.96 12.56 1.67" class="cls-1"/><path d="M573.52 104.06l4.71-31.94-49.94-1.29-1.71 6 3.43.43-.64 7.5-2.79.43v14.15h-5.36v63.23l-74.8-2.79 1.71-64.94h2.15l.21-28.72s-1.72-2.79-.64-4.72 5.57 0 5.57 0l1.5-2.57 30.44 1.71v-3.42L583.81 59v5.15l9.64.43-6 38.58-7.07-.86-1.07 2.36z" class="cls-2"/><path d="M514.07 78.46l-14.16-1.28V73.1l-16.72-1.28-1.93 4.5-16.94-1.18v19.19h-3.43v54.04l45.24 1.5 2.15-39.03 4.5-1.07 1.29-31.31z" class="cls-3"/><path d="M533.44 128.9v20.08l30.63.89v-20.46l-30.63-.51zm-129.82-.32v31.67l13.68-.26v-2.59l16.81.37v-29.19h-10.9l-.55-3.14h-2.22l-.19 3.32H416v-3.32h-2.77l-.18 3.32-9.43-.18zm-16.73 58.86s20.2 17.25 41.63 26.85l-13.79 30.05L431 283h-4l1 19.21h-34v6.41h-10.31v-18.71l3.7.88-.5-23.79-7.89 3.45v2.71l-6.4-.25v45h-47.5l-.41 15h-2.57v-18.16h-4.5v-9.92h4.22v-20.5h-4.22v-9.74h4v-2.76h-18.53v-2.21h15.81v-4.32h3.31v-35.66l3.22-2.3-.18-7.17H329s11-13 26.2-13.33l13 7.27v6.06h3.58v10h2.3v23.53h2.48v5.3l7.54-3.68v-2.39h3.22z" class="cls-2"/><path d="M294.13 239.69v-25.94h-16.34v23.41h6.24v3.04h-10.87v27.79h-5.22v-16.34h1.09v-1.51h-1.09v-2.78h1.51v-2.61h-2.02v-7.33h1.94v-7.67h-1.94v-5.31h2.36v-7.66h-1.94v-12.72h28.05v-25.27h-58.03v40.6h-4.81v-5.64h-10.1v-4.64h9.68v-31.25H209.9v31.08h10.11v4.64H209.9v5.73h-4.8v-38.33h-17.19v31h-21.14v53.43h11.04v33.44h25.83v2.29h3.87v1.14h1.18v-4.6h-1.74v-6.52h-2.3v-5.86h45.8v8.02h-1.84v4.06h1.16v3.38h-2.22v31.12h2.71v10.63h-30.25v-11.32h-15.62l-.23-25.58h9.85v-2.94h-38.59v-9.96h-3.96v-3.52h-22.98v-4.29H126.3v16.41h5.77v12.56h11.88l-2.37 3.29 2.6 3.17 2.38-3.17v12.45h12.22l-2.6 2.94 2.6 1.92 2.83-2.37v12.33h12.45l-2.15 2.83 2.04 2.27 3.28-2.04v12.11H189v3.62h4.64v-3.4h3.28v3.4h16.52V357h36.9v13.8h29.77v-28.86h-9.73v-4.64h83.35l1.8 6.93 3.31-.15h23.45v21.94h17.89v10.23h3.91v-9.93l7.96-3.45v-34.73l-7.51-2.55h-50.06l.15 7.36h-89.6v-1.8h31.87v-29.62h-27.72v-3.6h14.64v-13.68h6.17v-12.93h12.78V239.9l-8.64-.21zM171.14 405.05l-3.69 7.01 8.98 4.92-1.97 3.57-15.26-7.75-3.69 7.75 11.94 6.39-1.48 3.57h-2.22l-4.55 9.1 21.04 11.2 5.29-9.47-9.72-5.29 1.85-3.57 14.88 7.01 4.06-7.13-9.84-5.29 1.97-3.94 1.59.74 3.82-6.77-23-12.05z" class="cls-2"/><path d="M226.41 396.78l-17.59-10.34s-8.59-6.18-3.76-14.91 40.42-4.29 40.42-4.29v15.58l-3.76-.14-.27-1.23h-15.57l-.41 10.09h1.35zm96.34-64.22v4.75h-1.32v6.2h1.32v55.77h6.33v1.84h4.74v-1.18h8.84V338.1l-8.18-5.54h-11.73zM350.44 377v37.44h64.6v-37.97h-45.22v-1.85h-7.52v-2.63l-11.86 1.58-7.78-.13v3.42l7.78.14zm61.43-43.38v3.88h37.31v13.73h50.83l1.99 3.14h5.25v-2.93h4.82v1.36h30.92v2.83h33.33v-12.78h18.76v4.82h6.6v2.72h14.26v2.31h45.17v-12.58h-20.12v-26.1h-38.58v2.73h-7.12v23.48h-16.77v-19.81H539v2.3h-24.84v6.5h-1.78v2.83h-5.03v-2.41h-6.39v3.25h-44.02v-2.2h-7.45v3.25l-37.62-.32zM513.73 74.29v-2.57s-4.12-2.07-1.55-6c0 0 1.89-2.06 3.61-1.2v-7.4m-4.45 44.66h8.92m-59.78 44.31h-6.35l-1.89-2.75h-6.02m-256.55 90.81h3.77v19.48h-16.39v12.62m26.57 18.38v-65.98m32.9 3.05h-32.9m28.18 7.08h-17.62v-7.08 11.01h-7.24v12.27h6.77m59.77.79h8.81v6.68h-8.81zm-8.18 26.89h8.18v7.71h-8.18zm24.54-2.04v-30.83h3.62m-10.23 44.04h-15.25v21.71h-2.68v2.52h16.99v-2.05h2.2v-5.98m-29.26.16v-15.57h-5.03m32.09 51.59v-3.46m-29.57 2.83h5.98v8.18h-5.98zm16.67 5.66h-10.07m-10.06 14.16v-14.15h3.46m-51.91 6.29h4.25v1.89h-4.25z" class="cls-2"/><path d="M196.09 358.7v-12.42h-1.57v-3.62h8.41v-12.11m-10.14-14.31h6.92v-11.96h-11.8v1.57h-4.25v6.14h4.57l4.56 4.25z" class="cls-2"/><path d="M192.47 319.54l.32-3.3-4.56-4.25h-20.29v5.03l19.19 18.56h3.77v-16.51l1.57.47z" class="cls-2"/><path d="M174.86 301.45v3.46h-15.89l-1.57 1.57v7.08l3.77 4.56 6.77-1.1 4.95 4.79-.86 3.55 6.6 6.6h4.75l3.75 3.62v8.18l3.93 3.78 3.46-1.26 1.1 3.14h-4.88l-.13-1.88m4.58 7.86h-8m2.81 0h2.79v7.58H190z" class="cls-2"/><path d="M173.29 349.42l-2.52-2.72 2.52-2.07v-9.05h6.18l4.19 4.8v6.32l-7.58-.49-2.79 3.21zm-14.54-14.72l-2.53-2.72 2.53-2.07v-9.05h6.18l4.19 4.8v6.32l-7.59-.49-2.78 3.21zm-15.11-14.59l-2.52-2.72 2.52-2.07v-9.05h6.18l4.19 4.8v6.32l-7.58-.49-2.79 3.21zm25.48-19.22v-8.77h5.38l.36 12.79h-5.74v-1.69l-2.11-.26v-2.32l2.11.25zm-6.45-3.22v-7.49h-7.92v8.33l7.92-.84zm-22.26-3.32v-8.17h-8.39v8.78l8.39-.61zm-14.59 3.58h6.2v3.52h-6.2zm49.33 118.22l11.93 6.65m-10.55 8.61l-11.13-5.51m8.95 9.29l-10.67-5.16m174.89-154.89v9.59h10.41v-10.25l-10.41.66zm-13.71-49.07v23.04h28.75v15.95h6.61v-17.02h4.63v-30.23h-7.44v-9.92h-7.77v9.09h-4.79v3.8h-7.6v4.79l-12.39.5zm5.29 113.68s-8.6-.16-5.79 14.21 5.79 12.89 5.79 12.89 7.27 1.2 7.43-13.53-7.43-13.57-7.43-13.57zm51.55-13.71v11.07h20.66v-6.28l1.11 1.11v-5.9m6.82 7.43v2.15m-57.51-2.15v2.15m11.08 41.14h5.12v5.12h-5.12zm15.03 1.16v22.8h17.02v8.1h3.97v-27.76h-3.64v-3.14h-17.35zm68.74-44.45v3.64m62.79-1.49l-4.96-.33v8.1h-2.15v8.26h7.94l-.83-16.03zm.83-3.3v4.79m30.73-2.4v19.58h33.54v-14.04h-9.25v-6.78l-24.29 1.24z" class="cls-2"/><text class="cls-4" transform="translate(541.58 68.84)">R</text><text class="cls-4" transform="translate(463.52 71.84)">R</text><text class="cls-4" transform="translate(480.61 160.22)">R</text><text class="cls-4" transform="translate(542.81 144.94)">G</text><text class="cls-4" transform="translate(413.24 150.4)">F</text><text class="cls-4" transform="translate(394.05 255.3)">E</text><text class="cls-4" transform="translate(336.58 244.02)">H</text><text class="cls-4" transform="translate(332.22 303.67)">D</text><text class="cls-4" transform="translate(244.56 244.02)">A</text><text class="cls-4" transform="translate(258.93 363.69)">C</text><text class="cls-4" transform="translate(147.56 346.05)">B</text><text class="cls-4" transform="translate(212.14 382.05)">K</text><text class="cls-4" transform="translate(170.95 431.7)">M</text><text class="cls-4" transform="translate(327.94 358.23)">J</text><text class="cls-4" transform="translate(362.41 404.06)">T</text><text class="cls-4" transform="translate(518.08 344.41)">P</text><text class="cls-4" transform="translate(383.62 358.23)">N</text><text class="cls-4" transform="translate(609.37 339.68)">S</text><path d="M41.32 204.29L30.57 341.13l14.34 1.27v-3.48l8.74 1.58v3.16h11.06l3.16-27.49 2.84.63 4.43-20.54 54.04 5.05 2.84-.31v-4.43l-57.2-5.28 5.59-64.2-4.22-29.51-34.87 6.71zm2.75 72.98v-73.51" class="cls-2"/><path d="M38.04 295.16l-.76 5.99h3.22v-5.22l-2.46-.77z" class="cls-2"/><path d="M34.28 293.99l13.9 1.1v2.15l-7.68-.31m-6.86 5.22l10.43-1.23v2.15h7.33l-.92 7.37h4.3L53.7 328.4l12.57 1.67" class="cls-2"/><text class="cls-4" transform="translate(49.95 265.22)"><tspan class="cls-5">C</tspan><tspan x="8.76" y="0">A</tspan></text><rect width="2.24" height="1.26" x="487.87" y="148.19" rx=".51"/><rect width="3.08" height="1.26" x="489.28" y="157.76" rx=".51"/><path d="M512.33 147.22c-10.26 2.53-6.45 13.41-12.42 15.54a11.89 11.89 0 0 0 10.68-3.76c3.25-3.87 3.6-9 1.74-11.78z"/><path d="M501.27 146.51h-11.58a.46.46 0 0 0-.45.46v.35a.45.45 0 0 0 .45.45h8.67a1.56 1.56 0 0 1 .08.42h-6.13a.45.45 0 0 0-.45.45v.36a.45.45 0 0 0 .45.45h5.89a6.54 6.54 0 0 0-.48.73h-3.47a.46.46 0 0 0-.45.46v.36a.45.45 0 0 0 .45.45h2.82a12.86 12.86 0 0 0-1 4.43h-3.95a.46.46 0 0 0-.45.46v.35a.45.45 0 0 0 .45.45h4c0 .22 0 .43.06.63h-1.89a.46.46 0 0 0-.45.46v.35a.45.45 0 0 0 .45.45H496a1.5 1.5 0 0 1-.07.9h-5.32a.46.46 0 0 0-.46.45v.36a.46.46 0 0 0 .46.45h6.65a3.34 3.34 0 0 0 .7.78 3.49 3.49 0 0 0 .74.42c6.68-1.47 3.24-13.18 12.81-16-2.95-2.39-6.95-2.1-10.24.12z"/><text class="cls-6" transform="translate(500.35 160.01)">7</text><rect width="2.24" height="1.26" x="389.68" y="228.48" rx=".51"/><rect width="3.08" height="1.26" x="391.08" y="238.05" rx=".51"/><path d="M414.14 227.5c-10.27 2.54-6.46 13.42-12.42 15.55a11.87 11.87 0 0 0 10.67-3.81c3.26-3.82 3.61-8.91 1.75-11.74z"/><path d="M403.07 226.8H391.5a.46.46 0 0 0-.46.45v.36a.46.46 0 0 0 .46.45h8.67a1.23 1.23 0 0 1 .07.42h-6.12a.45.45 0 0 0-.45.45v.36a.45.45 0 0 0 .45.45H400c-.17.24-.33.48-.48.73h-3.47a.45.45 0 0 0-.45.45v.36a.45.45 0 0 0 .45.45h2.83a12.42 12.42 0 0 0-1 4.43h-3.95a.45.45 0 0 0-.45.45v.39a.45.45 0 0 0 .45.45h4c0 .21 0 .43.05.63h-1.89a.45.45 0 0 0-.45.45v.36a.45.45 0 0 0 .45.45h1.72a1.59 1.59 0 0 1-.07.9h-5.33a.45.45 0 0 0-.45.45v.31a.45.45 0 0 0 .45.45H399a3.14 3.14 0 0 0 .7.78 3.49 3.49 0 0 0 .74.42c6.67-1.47 3.24-13.18 12.8-16-2.87-2.39-6.87-2.07-10.17.15z"/><text class="cls-6" transform="translate(402.16 240.3)">5</text><rect width="2.24" height="1.26" x="346.9" y="283.1" rx=".51"/><rect width="3.08" height="1.26" x="348.3" y="292.67" rx=".51"/><path d="M371.36 282.13c-10.27 2.53-6.46 13.41-12.42 15.54a11.87 11.87 0 0 0 10.67-3.81c3.26-3.86 3.6-8.86 1.75-11.73z"/><path d="M360.29 281.42h-11.57a.46.46 0 0 0-.46.45v.36a.46.46 0 0 0 .46.45h8.67a1.23 1.23 0 0 1 .07.42h-6.12a.45.45 0 0 0-.45.45v.36a.45.45 0 0 0 .45.45h5.88c-.17.24-.33.48-.48.73h-3.47a.45.45 0 0 0-.45.45v.36a.45.45 0 0 0 .45.45h2.83a12.42 12.42 0 0 0-1 4.43h-4a.45.45 0 0 0-.45.45v.36a.45.45 0 0 0 .45.45h4c0 .22 0 .43.05.63h-1.89a.45.45 0 0 0-.45.45v.36a.45.45 0 0 0 .45.45H355a1.59 1.59 0 0 1-.07.9h-5.33a.45.45 0 0 0-.45.45v.36a.45.45 0 0 0 .45.45h6.66a3.14 3.14 0 0 0 .7.78 3.49 3.49 0 0 0 .74.42c6.67-1.47 3.24-13.18 12.8-16.05-2.91-2.36-6.91-2.04-10.21.18z"/><text class="cls-6" transform="translate(359.38 294.92)">4</text><rect width="2.24" height="1.26" x="196.59" y="232.12" class="cls-7" rx=".51"/><rect width="3.08" height="1.26" x="198" y="241.69" class="cls-7" rx=".51"/><path d="M221.05 231.14c-10.26 2.54-6.45 13.42-12.42 15.55a11.89 11.89 0 0 0 10.68-3.81c3.25-3.82 3.6-8.88 1.74-11.74z"/><path d="M210 230.44h-11.59a.45.45 0 0 0-.45.45v.36a.45.45 0 0 0 .45.45h8.67a1.56 1.56 0 0 1 .08.42H201a.46.46 0 0 0-.46.45v.36a.46.46 0 0 0 .46.45h5.88c-.17.24-.33.48-.48.73H203a.45.45 0 0 0-.45.45v.36a.45.45 0 0 0 .45.45h2.82a12.62 12.62 0 0 0-1 4.43h-4a.46.46 0 0 0-.46.45v.36a.46.46 0 0 0 .46.45h4c0 .21 0 .43.06.63H203a.45.45 0 0 0-.45.45v.36a.45.45 0 0 0 .45.45h1.71a1.43 1.43 0 0 1-.07.9h-5.32a.46.46 0 0 0-.46.45v.36a.46.46 0 0 0 .46.45h6.65a3.34 3.34 0 0 0 .7.78 3.49 3.49 0 0 0 .74.42c6.68-1.47 3.24-13.18 12.81-16.05-2.94-2.36-6.94-2.04-10.22.18z"/><text class="cls-6" transform="translate(209.07 243.94)">2</text><rect width="2.24" height="1.26" x="171.01" y="319.82" rx=".51"/><rect width="3.08" height="1.26" x="172.41" y="329.39" rx=".51"/><path d="M195.47 318.84c-10.27 2.54-6.47 13.42-12.47 15.55a11.87 11.87 0 0 0 10.68-3.82c3.32-3.81 3.64-8.9 1.79-11.73z"/><path d="M184.4 318.14h-11.58a.45.45 0 0 0-.45.45v.41a.45.45 0 0 0 .45.45h8.68a1.23 1.23 0 0 1 .07.42h-6.12a.45.45 0 0 0-.45.45v.36a.45.45 0 0 0 .45.45h5.88c-.17.24-.33.48-.48.73h-3.47a.45.45 0 0 0-.45.45v.36a.45.45 0 0 0 .45.45h2.83a12.42 12.42 0 0 0-1 4.43h-4a.45.45 0 0 0-.45.45v.36a.45.45 0 0 0 .45.45h4c0 .21 0 .42.05.63h-1.89a.45.45 0 0 0-.45.45v.36a.45.45 0 0 0 .45.45h1.72a1.52 1.52 0 0 1-.08.9h-5.31a.45.45 0 0 0-.45.45v.36a.45.45 0 0 0 .45.45h6.66a2.92 2.92 0 0 0 .7.77 3.43 3.43 0 0 0 .73.43c6.68-1.47 3.25-13.19 12.81-16.05-2.9-2.42-6.9-2.09-10.2.13z"/><text class="cls-6" transform="translate(183.49 331.64)">3</text><rect width="2.24" height="1.26" x="30.57" y="265" rx=".51"/><rect width="3.08" height="1.26" x="31.98" y="274.57" rx=".51"/><path d="M55 264c-10.27 2.53-6.46 13.41-12.43 15.54a11.88 11.88 0 0 0 10.68-3.81c3.3-3.79 3.64-8.88 1.75-11.73z"/><path d="M44 263.32H32.39a.45.45 0 0 0-.45.45v.36a.45.45 0 0 0 .45.45h8.67a1 1 0 0 1 .08.42H35a.45.45 0 0 0-.45.45v.36a.45.45 0 0 0 .45.45h5.9c-.17.24-.33.48-.48.73H37a.45.45 0 0 0-.45.45v.36a.45.45 0 0 0 .45.45h2.82a12.62 12.62 0 0 0-1 4.43h-4a.45.45 0 0 0-.45.45v.36a.45.45 0 0 0 .45.45h4c0 .22 0 .43.05.63H37a.45.45 0 0 0-.45.45v.36a.45.45 0 0 0 .45.45h1.72a1.51 1.51 0 0 1-.08.9h-5.37a.45.45 0 0 0-.45.45v.36a.45.45 0 0 0 .45.45h6.66a3.14 3.14 0 0 0 .7.78 3.41 3.41 0 0 0 .73.42C48 277.72 44.6 266 54.17 263.14c-2.9-2.36-6.9-2.04-10.17.18z"/><text class="cls-6" transform="translate(43.06 276.82)">1</text><ellipse cx="397.12" cy="416.16" class="cls-8" rx="5.14" ry="4.8"/><path d="M396.2 413.75v2.4h3.05l1.05 1.95.8-.37" class="cls-9"/><path d="M395.41 415.69s-2 1.71-.18 3.09c2.19 1.7 3.48-1.44 3.48-1.44m-2.51-1.94h1.85" class="cls-9"/><ellipse cx="396.34" cy="413.01" class="cls-9" rx=".78" ry=".73"/><ellipse cx="408.9" cy="393.21" class="cls-8" rx="5.14" ry="4.8"/><path d="M407.98 390.81v2.39h3.06l1.04 1.95.81-.37" class="cls-9"/><path d="M407.2 392.74s-1.95 1.71-.18 3.09c2.19 1.7 3.48-1.44 3.48-1.44m-2.52-1.94h1.85" class="cls-9"/><ellipse cx="408.12" cy="390.06" class="cls-9" rx=".78" ry=".73"/><ellipse cx="401.1" cy="366.89" class="cls-8" rx="5.14" ry="4.8"/><path d="M400.18 364.49v2.4h3.06l1.04 1.94.81-.37" class="cls-9"/><path d="M399.4 366.43s-1.95 1.7-.18 3.08c2.19 1.7 3.47-1.44 3.47-1.44m-2.51-1.93h1.85" class="cls-9"/><ellipse cx="400.32" cy="363.74" class="cls-9" rx=".78" ry=".73"/><ellipse cx="443.28" cy="349.2" class="cls-8" rx="5.14" ry="4.8"/><path d="M442.36 346.8v2.4h3.06l1.04 1.95.81-.38" class="cls-9"/><path d="M441.58 348.74s-1.95 1.71-.18 3.08c2.19 1.7 3.47-1.44 3.47-1.44m-2.51-1.93h1.85" class="cls-9"/><ellipse cx="442.5" cy="346.05" class="cls-9" rx=".78" ry=".73"/><ellipse cx="466.93" cy="357.12" class="cls-8" rx="5.14" ry="4.8"/><path d="M466.01 354.71v2.41h3.06l1.05 1.94.8-.37" class="cls-9"/><path d="M465.23 356.65s-2 1.71-.18 3.09c2.19 1.7 3.48-1.44 3.48-1.44m-2.52-1.94h1.85" class="cls-9"/><ellipse cx="466.15" cy="353.97" class="cls-9" rx=".78" ry=".73"/><ellipse cx="443.28" cy="327.78" class="cls-8" rx="5.14" ry="4.8"/><path d="M442.36 325.38v2.39h3.06l1.04 1.96.81-.38" class="cls-9"/><path d="M441.58 327.32s-1.95 1.7-.18 3.08c2.19 1.7 3.47-1.44 3.47-1.44m-2.51-1.93h1.85" class="cls-9"/><ellipse cx="442.5" cy="324.63" class="cls-9" rx=".78" ry=".73"/><ellipse cx="389.38" cy="330.86" class="cls-8" rx="5.14" ry="4.8"/><path d="M388.46 328.45v2.4h3.06l1.04 1.95.81-.37" class="cls-9"/><path d="M387.68 330.39s-1.95 1.71-.18 3.09c2.19 1.7 3.48-1.44 3.48-1.44m-2.52-1.94h1.85" class="cls-9"/><ellipse cx="388.6" cy="327.71" class="cls-9" rx=".78" ry=".73"/><ellipse cx="553.9" cy="321.08" class="cls-8" rx="5.14" ry="4.8"/><path d="M552.98 318.67v2.4h3.05l1.05 1.95.8-.38" class="cls-9"/><path d="M552.19 320.61s-2 1.71-.18 3.08c2.19 1.71 3.48-1.43 3.48-1.43m-2.51-1.94h1.85" class="cls-9"/><ellipse cx="553.12" cy="317.92" class="cls-9" rx=".78" ry=".73"/><ellipse cx="624.37" cy="316.67" class="cls-8" rx="5.14" ry="4.8"/><path d="M623.45 314.26v2.4h3.06l1.04 1.95.81-.37" class="cls-9"/><path d="M622.67 316.2s-1.95 1.71-.18 3.09c2.19 1.7 3.48-1.44 3.48-1.44m-2.52-1.94h1.85" class="cls-9"/><ellipse cx="623.59" cy="313.52" class="cls-9" rx=".78" ry=".73"/><ellipse cx="576.3" cy="342.67" class="cls-8" rx="5.14" ry="4.8"/><path d="M575.38 340.26v2.4h3.06l1.04 1.95.81-.37" class="cls-9"/><path d="M574.6 342.2s-2 1.71-.18 3.09c2.19 1.7 3.47-1.44 3.47-1.44m-2.51-1.94h1.85" class="cls-9"/><ellipse cx="575.52" cy="339.52" class="cls-9" rx=".78" ry=".73"/><ellipse cx="349.14" cy="408.82" class="cls-8" rx="5.14" ry="4.8"/><path d="M348.22 406.41v2.4h3.05l1.05 1.95.8-.37" class="cls-9"/><path d="M347.43 408.35s-1.95 1.71-.18 3.09c2.19 1.7 3.48-1.44 3.48-1.44m-2.51-1.94h1.85" class="cls-9"/><ellipse cx="348.36" cy="405.67" class="cls-9" rx=".78" ry=".73"/><ellipse cx="320.24" cy="401.12" class="cls-8" rx="5.14" ry="4.8"/><path d="M319.31 398.71v2.41h3.06l1.05 1.94.8-.37" class="cls-9"/><path d="M318.53 400.65s-1.95 1.71-.18 3.09c2.19 1.7 3.48-1.44 3.48-1.44m-2.52-1.94h1.85" class="cls-9"/><ellipse cx="319.46" cy="397.97" class="cls-9" rx=".78" ry=".73"/><ellipse cx="237.88" cy="373.63" class="cls-8" rx="5.14" ry="4.8"/><path d="M236.96 371.22v2.4h3.06l1.04 1.95.81-.37" class="cls-9"/><path d="M236.18 373.16s-2 1.71-.18 3.09c2.19 1.7 3.48-1.44 3.48-1.44m-2.52-1.94h1.85" class="cls-9"/><ellipse cx="237.1" cy="370.48" class="cls-9" rx=".78" ry=".73"/><ellipse cx="208.63" cy="390.94" class="cls-8" rx="5.14" ry="4.8"/><path d="M207.71 388.53v2.4h3.06l1.04 1.95.81-.37" class="cls-9"/><path d="M206.92 390.47s-1.94 1.71-.17 3.09c2.19 1.7 3.47-1.44 3.47-1.44m-2.51-1.94h1.85" class="cls-9"/><ellipse cx="207.85" cy="387.79" class="cls-9" rx=".78" ry=".73"/><ellipse cx="183.04" cy="364.47" class="cls-8" rx="5.14" ry="4.8"/><path d="M182.12 362.06v2.4h3.06l1.04 1.95.81-.37" class="cls-9"/><path d="M181.33 364s-1.94 1.71-.18 3.09c2.2 1.7 3.48-1.44 3.48-1.44m-2.51-1.94h1.85" class="cls-9"/><ellipse cx="182.26" cy="361.32" class="cls-9" rx=".78" ry=".73"/><ellipse cx="45.69" cy="344.82" class="cls-8" rx="5.14" ry="4.8"/><path d="M44.77 342.41v2.4h3.05l1.05 1.95.8-.37" class="cls-9"/><path d="M44 344.35s-1.95 1.71-.18 3.09c2.19 1.7 3.48-1.44 3.48-1.44m-2.53-1.94h1.85" class="cls-9"/><ellipse cx="44.91" cy="341.67" class="cls-9" rx=".78" ry=".73"/><ellipse cx="49.95" cy="221.7" class="cls-8" rx="5.14" ry="4.8"/><path d="M49.03 219.29v2.4h3.06l1.04 1.95.81-.37" class="cls-9"/><path d="M48.25 221.23s-2 1.71-.18 3.09c2.19 1.7 3.48-1.44 3.48-1.44m-2.52-1.94h1.85" class="cls-9"/><ellipse cx="49.17" cy="218.55" class="cls-9" rx=".78" ry=".73"/><ellipse cx="190" cy="235.36" class="cls-8" rx="5.14" ry="4.8"/><path d="M189.08 232.95v2.4h3.05l1.05 1.95.8-.37" class="cls-9"/><path d="M188.29 234.89s-1.95 1.71-.18 3.09c2.19 1.7 3.48-1.44 3.48-1.44m-2.51-1.94h1.85" class="cls-9"/><ellipse cx="189.22" cy="232.2" class="cls-9" rx=".78" ry=".73"/><ellipse cx="353.12" cy="207.76" class="cls-8" rx="5.14" ry="4.8"/><path d="M352.2 205.35v2.4h3.06l1.04 1.95.81-.37" class="cls-9"/><path d="M351.42 207.29s-1.95 1.71-.18 3.09c2.19 1.7 3.48-1.44 3.48-1.44M352.2 207h1.85" class="cls-9"/><ellipse cx="352.34" cy="204.61" class="cls-9" rx=".78" ry=".73"/><ellipse cx="401.11" cy="202.97" class="cls-8" rx="5.14" ry="4.8"/><path d="M400.19 200.56v2.4h3.05l1.05 1.95.8-.38" class="cls-9"/><path d="M399.4 202.5s-1.95 1.71-.18 3.08c2.19 1.71 3.48-1.44 3.48-1.44m-2.51-1.93h1.84" class="cls-9"/><ellipse cx="400.33" cy="199.81" class="cls-9" rx=".78" ry=".73"/><ellipse cx="451.49" cy="167.18" class="cls-8" rx="5.14" ry="4.8"/><path d="M450.57 164.77v2.4h3.06l1.04 1.95.81-.37" class="cls-9"/><path d="M449.79 166.71s-2 1.71-.18 3.08c2.19 1.71 3.47-1.43 3.47-1.43m-2.51-1.94h1.85" class="cls-9"/><ellipse cx="450.71" cy="164.02" class="cls-9" rx=".78" ry=".73"/><ellipse cx="499.91" cy="76.26" class="cls-8" rx="5.14" ry="4.8"/><path d="M498.99 73.85v2.4h3.06l1.04 1.95.8-.38" class="cls-9"/><path d="M498.2 75.79s-1.94 1.71-.18 3.08c2.2 1.71 3.48-1.44 3.48-1.44m-2.51-1.93h1.85" class="cls-9"/><ellipse cx="499.13" cy="73.1" class="cls-9" rx=".78" ry=".73"/><path d="M403.53 387.52c-8.86 2.19-5.57 11.58-10.72 13.42a10.27 10.27 0 0 0 9.22-3.29c2.81-3.3 3.1-7.65 1.5-10.13z"/><path d="M394 386.91h-10a.39.39 0 0 0-.39.39v.31a.38.38 0 0 0 .39.39h7.48a1.15 1.15 0 0 1 .07.36h-5.29a.4.4 0 0 0-.39.39v.31a.4.4 0 0 0 .39.39h5.08a6.16 6.16 0 0 0-.41.63h-3a.4.4 0 0 0-.39.39v.31a.4.4 0 0 0 .39.39h2.44a10.73 10.73 0 0 0-.86 3.82h-3.41a.39.39 0 0 0-.39.39v.31a.38.38 0 0 0 .39.39h3.42v.54h-1.63a.4.4 0 0 0-.39.39v.31a.39.39 0 0 0 .39.39h1.48a1.34 1.34 0 0 1-.06.78h-4.6a.39.39 0 0 0-.39.39v.31a.4.4 0 0 0 .39.39h5.75a2.57 2.57 0 0 0 .6.66 3.06 3.06 0 0 0 .64.37c5.77-1.26 2.8-11.38 11.06-13.86-2.48-2.03-5.93-1.75-8.76.16z"/><text class="cls-10" transform="translate(392.13 398.54)">6</text><circle cx="385.41" cy="339.15" r="6.4" class="cls-11"/><path d="M44.07 277.27l.98 1.74" class="cls-12"/><path d="M46.89 282.28l2.76 4.91" class="cls-13"/><path d="M50.57 288.82l.98 1.75 1.98.22" class="cls-12"/><path d="M57.56 291.25l86.53 9.9 51.53 48.27 59.05 1.04" class="cls-14"/><path d="M256.69 350.5l2 .03v-2" class="cls-12"/><path d="M258.69 344.88v-5.47" class="cls-15"/><path d="M258.69 337.58v-2l2 .03" class="cls-12"/><path d="M264.8 335.66l112.85 1.4" class="cls-16"/><path d="M379.7 337.08l2 .03" class="cls-12"/></svg>