<svg xmlns="http://www.w3.org/2000/svg" width="8.9in" height="5.6in" viewBox="0 0 637.6 403.5"><path fill="none" stroke="#fff" stroke-miterlimit="10" d="M11.3 158.7L.5 295.5l14.4 1.3v-3.5l8.7 1.6v3.1h11.1l3.1-27.5 2.9.7 4.4-20.6 54 5.1 2.9-.3v-4.5l-57.2-5.2 5.6-64.3-4.2-29.5-34.9 6.8zm2.7 72.9v-73.5"/><path fill="none" stroke="#fff" stroke-miterlimit="10" d="M8 249.5l-.8 6h3.3v-5.2l-2.5-.8z"/><path fill="none" stroke="#fff" stroke-miterlimit="10" d="M4.2 248.4l13.9 1v2.2l-7.6-.3m-6.9 5.2l10.4-1.2v2.1h7.4l-1 7.4h4.3l-1 18 12.5 1.6"/><path fill="#22adce" stroke="#90d7e9" stroke-miterlimit="10" stroke-width=".75" d="M549.6 56.3l4.8-32-50-1.3-1.7 6.1 3.4.4-.6 7.5-2.8.4v14.2h-5.4v63.2l-74.8-2.8 1.7-64.9h2.2l.2-28.8s-1.7-2.8-.6-4.7 5.5 0 5.5 0L433 11l30.5 1.8V9.3l96.4 2v5.1l9.7.4-6 38.6-7.1-.8-1.1 2.3z"/><path fill="#fff" stroke="#90d7e9" stroke-miterlimit="10" stroke-width=".75" d="M490.2 30.7L476 29.4v-4.1L459.3 24l-1.9 4.5-17-1.1v19.1H437v54.1l45.2 1.5 2.2-39 4.5-1.1 1.3-31.3z"/><path fill="#22adce" stroke="#90d7e9" stroke-miterlimit="10" stroke-width=".75" d="M509.6 81.1v20.1l30.6.9V81.6l-30.6-.5zm-129.9-.3v31.7l13.7-.3v-2.6l16.8.4V80.8h-10.9l-.5-3.1h-2.2l-.2 3.3h-4.3v-3.3h-2.8l-.1 3.3-9.5-.2zM363 137.7s20.2 17.2 41.6 26.8l-13.8 30.1 16.3 38.6h-3.9l.9 19.2h-33.9v6.4h-10.4v-18.7l3.7.9-.5-23.8-7.9 3.5v2.7l-6.4-.3v45h-47.5l-.4 15h-2.6V265h-4.5v-10h4.3v-20.5h-4.3v-9.7h4.1V222h-18.6v-2.2H295v-4.3h3.3v-35.6l3.2-2.3v-7.2h3.7s11.1-13.1 26.2-13.3l13 7.2v6.1h3.6v10h2.3v23.5h2.5v5.3l7.5-3.7v-2.4h3.2z"/><path fill="#22adce" stroke="#90d7e9" stroke-miterlimit="10" stroke-width=".75" d="M270.3 191.9V166h-16.4v23.4h6.2v3h-10.8v27.8h-5.2v-16.3h1.1v-1.5h-1.1v-2.8h1.5V197h-2.1v-7.4h2V182h-2v-5.3h2.4V169H244v-12.7h28V131h-58v40.6h-4.8V166h-10.1v-4.7h9.7v-31.2H186v31.1h10.1v4.6H186v5.7h-4.8v-38.3H164v31h-21.1v53.4h11v33.5h25.9v2.3h3.8v1.1h1.2v-4.6h-1.7v-6.5h-2.3v-5.9h45.8v8h-1.9v4.1h1.2v3.4h-2.2v31.1h2.7v10.6h-30.3v-11.3h-15.6l-.2-25.6h9.8v-2.9h-38.6v-10h-3.9v-3.5h-23v-4.3h-22.2v16.4h5.8v12.6h11.9l-2.4 3.3 2.6 3.1 2.4-3.1v12.4h12.2l-2.6 3 2.6 1.9 2.8-2.4v12.3h12.5l-2.2 2.9 2.1 2.2 3.2-2v12.1h11.8v3.6h4.7V312h3.2v3.4h16.6v-6.2h36.9V323h29.7v-28.8h-9.7v-4.7h83.3l1.8 6.9 3.4-.1h23.4v21.9h17.9v10.3h3.9v-10l8-3.4v-34.7l-7.5-2.6h-50.1l.1 7.4h-89.5v-1.8H273v-29.7h-27.7v-3.6h14.6v-13.6h6.2v-13h12.8v-31.4l-8.6-.2zm-123 165.4l-3.7 7 8.9 4.9-1.9 3.6-15.3-7.8-3.7 7.8 12 6.4-1.5 3.5h-2.2l-4.6 9.1 21.1 11.2 5.2-9.4-9.7-5.3 1.9-3.6 14.9 7 4-7.1-9.8-5.3 1.9-4 1.6.8 3.9-6.8-23-12z"/><path fill="#22adce" stroke="#90d7e9" stroke-miterlimit="10" stroke-width=".75" d="M202.5 349l-17.6-10.3s-8.6-6.2-3.7-15 40.4-4.2 40.4-4.2V335h-3.8l-.2-1.2H202l-.4 10.1h1.3zm96.4-64.2v4.7h-1.4v6.2h1.4v55.8h6.3v1.8h4.7v-1.1h8.9v-61.9l-8.2-5.5h-11.7zm27.7 44.4v37.5h64.6v-38h-45.3v-1.9h-7.5v-2.6l-11.8 1.6-7.8-.1v3.4l7.8.1zm61.4-43.4v3.9h37.3v13.7h50.8l2 3.2h5.3v-2.9h4.8v1.3h30.9v2.8h33.3v-12.7h18.8v4.8h6.6v2.7h14.3v2.3h45.1v-12.6h-20.1v-26.1h-38.6v2.8h-7.1v23.4h-16.8v-19.8h-39.5v2.3h-24.8v6.5h-1.8v2.9h-5v-2.4h-6.4v3.2h-44v-2.2h-7.5v3.3l-37.6-.4zM489.8 26.5v-2.6s-4.1-2-1.5-6c0 0 1.9-2 3.6-1.2V9.3M487.5 54h8.9m-59.8 44.3h-6.4l-1.8-2.7h-6.1m-256.5 90.8h3.8v19.4h-16.4v12.7m26.5 18.3v-65.9m32.9 3h-32.9m28.2 7.1h-17.6v-7.1 11h-7.2v12.3h6.7m59.8.8h8.8v6.68h-8.8zm-8.2 26.9h8.2v7.71h-8.2zm24.6-2.1V192h3.6m-10.3 44h-15.2v21.8h-2.7v2.5h17v-2.1h2.2v-6m-29.2.2v-15.6h-5.1m32.1 51.6V285m-29.6 2.8h6v8.18h-6zm16.7 5.7h-10.1m-10 14.1v-14.1h3.4m-51.9 6.3h4.2v1.89h-4.2z"/><path fill="#22adce" stroke="#90d7e9" stroke-miterlimit="10" stroke-width=".75" d="M172.2 310.9v-12.4h-1.6v-3.6h8.5v-12.1m-10.2-14.3h6.9v-12H164v1.6h-4.2v6.1h4.5l4.6 4.3z"/><path fill="#22adce" stroke="#90d7e9" stroke-miterlimit="10" stroke-width=".75" d="M168.6 271.8l.3-3.3-4.6-4.3h-20.2v5l19.1 18.6h3.8v-16.5l1.6.5z"/><path fill="#22adce" stroke="#90d7e9" stroke-miterlimit="10" stroke-width=".75" d="M151 253.7v3.4h-15.9l-1.6 1.6v7.1l3.8 4.5 6.8-1.1 4.9 4.8-.9 3.6 6.6 6.6h4.8l3.7 3.6v8.2l4 3.8 3.4-1.3 1.1 3.1h-4.8l-.2-1.8m4.6 7.8h-8m2.8 0h2.8v7.58h-2.8z"/><path fill="#22adce" stroke="#90d7e9" stroke-miterlimit="10" stroke-width=".75" d="M149.4 301.6l-2.5-2.7 2.5-2.1v-9h6.2l4.2 4.8v6.3l-7.6-.5-2.8 3.2zm-14.5-14.7l-2.6-2.7 2.6-2.1v-9h6.1l4.2 4.8v6.3l-7.5-.5-2.8 3.2zm-15.1-14.6l-2.6-2.7 2.6-2.1v-9h6.1l4.2 4.8v6.3l-7.6-.5-2.7 3.2zm25.4-19.2v-8.8h5.4l.4 12.8h-5.8v-1.7l-2.1-.2v-2.3l2.1.2zm-6.4-3.2v-7.5h-7.9v8.3l7.9-.8zm-22.3-3.3v-8.2h-8.4v8.8l8.4-.6zm-14.6 3.5h6.2v3.52h-6.2zm49.4 118.3l11.9 6.6m-10.6 8.6l-11.1-5.5m9 9.3l-10.7-5.2m174.9-154.8v9.5h10.4v-10.2l-10.4.7zM301 178.3v23h28.7v16h6.6v-17h4.7V170h-7.5v-9.9h-7.7v9.1H321v3.8h-7.6v4.8l-12.4.5zm5.3 113.7s-8.6-.2-5.8 14.2 5.8 12.9 5.8 12.9 7.2 1.2 7.4-13.6-7.4-13.5-7.4-13.5zm51.5-13.7v11h20.7V283l1.1 1.2v-5.9m6.8 7.4v2.1m-57.5-2.1v2.1M340 329h5.1v5.12H340zm15 1.1v22.8h17v8.1h4v-27.7h-3.6v-3.2H355zm68.7-44.4v3.6m62.8-1.5l-4.9-.3v8.1h-2.2v8.3h8l-.9-16.1zm.9-3.3v4.8m30.7-2.4v19.6h33.5v-14h-9.2v-6.8l-24.3 1.2z"/><text fill="#fff" font-family="MyriadPro-Regular, Myriad Pro" font-size="15" transform="translate(517.7 21.1)">R</text><text fill="#fff" font-family="MyriadPro-Regular, Myriad Pro" font-size="15" transform="translate(439.6 24.1)">R</text><text fill="#fff" font-family="MyriadPro-Regular, Myriad Pro" font-size="15" transform="translate(451.6 112.4)">R</text><text fill="#fff" font-family="MyriadPro-Regular, Myriad Pro" font-size="15" transform="translate(518.9 97.2)">G</text><text fill="#fff" font-family="MyriadPro-Regular, Myriad Pro" font-size="15" transform="translate(389.4 102.6)">F</text><text fill="#fff" font-family="MyriadPro-Regular, Myriad Pro" font-size="15" transform="translate(370.2 212.4)">E</text><text fill="#fff" font-family="MyriadPro-Regular, Myriad Pro" font-size="15" transform="translate(312.7 196.2)">H</text><text fill="#fff" font-family="MyriadPro-Regular, Myriad Pro" font-size="15" transform="translate(308.3 255.9)">D</text><text fill="#fff" font-family="MyriadPro-Regular, Myriad Pro" font-size="15" transform="translate(220.7 196.2)">A</text><text fill="#fff" font-family="MyriadPro-Regular, Myriad Pro" font-size="15" transform="translate(235 315.9)">C</text><text fill="#fff" font-family="MyriadPro-Regular, Myriad Pro" font-size="15" transform="translate(114.7 255.9)">B</text><text fill="#fff" font-family="MyriadPro-Regular, Myriad Pro" font-size="15" transform="translate(188.3 334.3)">K</text><text fill="#fff" font-family="MyriadPro-Regular, Myriad Pro" font-size="15" transform="translate(147.1 383.9)">M</text><text fill="#fff" font-family="MyriadPro-Regular, Myriad Pro" font-size="15" transform="translate(304.1 310.4)">J</text><text fill="#fff" font-family="MyriadPro-Regular, Myriad Pro" font-size="15" transform="translate(338.5 356.3)">T</text><text fill="#fff" font-family="MyriadPro-Regular, Myriad Pro" font-size="15" transform="translate(494.2 296.6)">P</text><text fill="#fff" font-family="MyriadPro-Regular, Myriad Pro" font-size="15" transform="translate(365.4 306.9)">N</text><text fill="#fff" font-family="MyriadPro-Regular, Myriad Pro" font-size="15" transform="translate(585.5 291.9)">S</text><path fill="#22adce" stroke="#90d7e9" stroke-miterlimit="10" stroke-width=".75" d="M17.4 156.5L6.7 293.3l14.3 1.3v-3.5l8.8 1.6v3.2h11l3.2-27.5 2.8.6 4.5-20.5 54 5 2.8-.3v-4.4l-57.2-5.3 5.6-64.2-4.2-29.5-34.9 6.7zm2.8 73V156"/><path fill="#22adce" stroke="#90d7e9" stroke-miterlimit="10" stroke-width=".75" d="M14.2 247.4l-.8 6h3.2v-5.3l-2.4-.7z"/><path fill="#22adce" stroke="#90d7e9" stroke-miterlimit="10" stroke-width=".75" d="M10.4 246.2l13.9 1.1v2.2l-7.7-.4m-6.8 5.3l10.4-1.3v2.2h7.3l-.9 7.4h4.3l-1.1 17.9 12.6 1.7"/><text fill="#fff" font-family="MyriadPro-Regular, Myriad Pro" font-size="15" transform="translate(27.3 205.7)"><tspan letter-spacing="0em">C</tspan><tspan x="8.8" y="0">A</tspan></text><ellipse cx="373.2" cy="366.7" fill="#2668ad" rx="5.1" ry="4.8"/><path fill="none" stroke="#fdfefe" stroke-miterlimit="10" stroke-width=".44" d="M372.3 364.3v2.3h3.1l1 2 .8-.4"/><path fill="none" stroke="#fdfefe" stroke-miterlimit="10" stroke-width=".44" d="M371.5 366.2s-1.9 1.7-.2 3.1 3.5-1.5 3.5-1.5m-2.5-1.9h1.9"/><ellipse cx="372.5" cy="363.5" fill="none" stroke="#fdfefe" stroke-miterlimit="10" stroke-width=".44" rx=".8" ry=".7"/><ellipse cx="385" cy="343.7" fill="#2668ad" rx="5.1" ry="4.8"/><path fill="none" stroke="#fdfefe" stroke-miterlimit="10" stroke-width=".44" d="M384.1 341.3v2.4h3.1l1 2 .8-.4"/><path fill="none" stroke="#fdfefe" stroke-miterlimit="10" stroke-width=".44" d="M383.3 343.2s-1.9 1.8-.2 3.1 3.5-1.4 3.5-1.4m-2.5-1.9h1.8"/><ellipse cx="384.2" cy="340.6" fill="none" stroke="#fdfefe" stroke-miterlimit="10" stroke-width=".44" rx=".8" ry=".7"/><ellipse cx="377.2" cy="317.4" fill="#2668ad" rx="5.1" ry="4.8"/><path fill="none" stroke="#fdfefe" stroke-miterlimit="10" stroke-width=".44" d="M376.3 315v2.4h3.1l1 1.9.8-.3"/><path fill="none" stroke="#fdfefe" stroke-miterlimit="10" stroke-width=".44" d="M375.5 316.9s-1.9 1.7-.2 3.1 3.5-1.4 3.5-1.4m-2.5-2h1.8"/><ellipse cx="376.4" cy="314.2" fill="none" stroke="#fdfefe" stroke-miterlimit="10" stroke-width=".44" rx=".8" ry=".7"/><ellipse cx="419.4" cy="299.7" fill="#2668ad" rx="5.1" ry="4.8"/><path fill="none" stroke="#fdfefe" stroke-miterlimit="10" stroke-width=".44" d="M418.5 297.3v2.4h3l1.1 1.9.8-.3"/><path fill="none" stroke="#fdfefe" stroke-miterlimit="10" stroke-width=".44" d="M417.7 299.2s-2 1.7-.2 3.1 3.5-1.4 3.5-1.4m-2.5-2h1.8"/><ellipse cx="418.6" cy="296.5" fill="none" stroke="#fdfefe" stroke-miterlimit="10" stroke-width=".44" rx=".8" ry=".7"/><ellipse cx="443.1" cy="307.6" fill="#2668ad" rx="5.1" ry="4.8"/><path fill="none" stroke="#fdfefe" stroke-miterlimit="10" stroke-width=".44" d="M442.1 305.2v2.4h3.1l1 2 .8-.4"/><path fill="none" stroke="#fdfefe" stroke-miterlimit="10" stroke-width=".44" d="M441.3 307.2s-1.9 1.7-.1 3 3.4-1.4 3.4-1.4m-2.5-1.9h1.9"/><ellipse cx="442.3" cy="304.5" fill="none" stroke="#fdfefe" stroke-miterlimit="10" stroke-width=".44" rx=".8" ry=".7"/><ellipse cx="419.4" cy="278.3" fill="#2668ad" rx="5.1" ry="4.8"/><path fill="none" stroke="#fdfefe" stroke-miterlimit="10" stroke-width=".44" d="M418.5 275.9v2.4h3l1.1 1.9.8-.4"/><path fill="none" stroke="#fdfefe" stroke-miterlimit="10" stroke-width=".44" d="M417.7 277.8s-2 1.7-.2 3.1 3.5-1.4 3.5-1.4m-2.5-2h1.8"/><ellipse cx="418.6" cy="275.1" fill="none" stroke="#fdfefe" stroke-miterlimit="10" stroke-width=".44" rx=".8" ry=".7"/><ellipse cx="365.5" cy="281.4" fill="#2668ad" rx="5.1" ry="4.8"/><path fill="none" stroke="#fdfefe" stroke-miterlimit="10" stroke-width=".44" d="M364.6 279v2.4h3l1.1 1.9.8-.4"/><path fill="none" stroke="#fdfefe" stroke-miterlimit="10" stroke-width=".44" d="M363.8 280.9s-2 1.7-.2 3.1 3.5-1.5 3.5-1.5m-2.5-1.9h1.8"/><ellipse cx="364.7" cy="278.2" fill="none" stroke="#fdfefe" stroke-miterlimit="10" stroke-width=".44" rx=".8" ry=".7"/><ellipse cx="530" cy="271.6" fill="#2668ad" rx="5.1" ry="4.8"/><path fill="none" stroke="#fdfefe" stroke-miterlimit="10" stroke-width=".44" d="M529.1 269.2v2.4h3l1.1 1.9.8-.4"/><path fill="none" stroke="#fdfefe" stroke-miterlimit="10" stroke-width=".44" d="M528.3 271.1s-1.9 1.7-.2 3.1 3.5-1.4 3.5-1.4m-2.5-2h1.8"/><ellipse cx="529.2" cy="268.4" fill="none" stroke="#fdfefe" stroke-miterlimit="10" stroke-width=".44" rx=".8" ry=".7"/><ellipse cx="600.5" cy="267.2" fill="#2668ad" rx="5.1" ry="4.8"/><path fill="none" stroke="#fdfefe" stroke-miterlimit="10" stroke-width=".44" d="M599.6 264.8v2.4h3l1.1 1.9.8-.4"/><path fill="none" stroke="#fdfefe" stroke-miterlimit="10" stroke-width=".44" d="M598.8 266.7s-2 1.7-.2 3.1 3.5-1.5 3.5-1.5m-2.5-1.9h1.8"/><ellipse cx="599.7" cy="264" fill="none" stroke="#fdfefe" stroke-miterlimit="10" stroke-width=".44" rx=".8" ry=".7"/><ellipse cx="552.4" cy="293.2" fill="#2668ad" rx="5.1" ry="4.8"/><path fill="none" stroke="#fdfefe" stroke-miterlimit="10" stroke-width=".44" d="M551.5 290.8v2.4h3.1l1 1.9.8-.4"/><path fill="none" stroke="#fdfefe" stroke-miterlimit="10" stroke-width=".44" d="M550.7 292.7s-1.9 1.7-.2 3.1 3.5-1.5 3.5-1.5m-2.5-1.9h1.8"/><ellipse cx="551.6" cy="290" fill="none" stroke="#fdfefe" stroke-miterlimit="10" stroke-width=".44" rx=".8" ry=".7"/><ellipse cx="325.3" cy="359.3" fill="#2668ad" rx="5.1" ry="4.8"/><path fill="none" stroke="#fdfefe" stroke-miterlimit="10" stroke-width=".44" d="M324.3 356.9v2.4h3.1l1 2 .8-.4"/><path fill="none" stroke="#fdfefe" stroke-miterlimit="10" stroke-width=".44" d="M323.5 358.8s-1.9 1.8-.1 3.1 3.4-1.4 3.4-1.4m-2.5-1.9h1.9"/><ellipse cx="324.5" cy="356.2" fill="none" stroke="#fdfefe" stroke-miterlimit="10" stroke-width=".44" rx=".8" ry=".7"/><ellipse cx="296.4" cy="351.6" fill="#2668ad" rx="5.1" ry="4.8"/><path fill="none" stroke="#fdfefe" stroke-miterlimit="10" stroke-width=".44" d="M295.4 349.2v2.4h3.1l1 2 .8-.4"/><path fill="none" stroke="#fdfefe" stroke-miterlimit="10" stroke-width=".44" d="M294.6 351.2s-1.9 1.7-.1 3 3.4-1.4 3.4-1.4m-2.5-1.9h1.9"/><ellipse cx="295.6" cy="348.5" fill="none" stroke="#fdfefe" stroke-miterlimit="10" stroke-width=".44" rx=".8" ry=".7"/><ellipse cx="214" cy="324.1" fill="#2668ad" rx="5.1" ry="4.8"/><path fill="none" stroke="#fdfefe" stroke-miterlimit="10" stroke-width=".44" d="M213.1 321.7v2.4h3l1.1 2 .8-.4"/><path fill="none" stroke="#fdfefe" stroke-miterlimit="10" stroke-width=".44" d="M212.3 323.7s-2 1.7-.2 3 3.5-1.4 3.5-1.4m-2.5-1.9h1.8"/><ellipse cx="213.2" cy="321" fill="none" stroke="#fdfefe" stroke-miterlimit="10" stroke-width=".44" rx=".8" ry=".7"/><ellipse cx="184.7" cy="341.4" fill="#2668ad" rx="5.1" ry="4.8"/><path fill="none" stroke="#fdfefe" stroke-miterlimit="10" stroke-width=".44" d="M183.8 339v2.4h3.1l1 2 .8-.4"/><path fill="none" stroke="#fdfefe" stroke-miterlimit="10" stroke-width=".44" d="M183 341s-1.9 1.7-.1 3.1 3.4-1.5 3.4-1.5m-2.5-1.9h1.9"/><ellipse cx="184" cy="338.3" fill="none" stroke="#fdfefe" stroke-miterlimit="10" stroke-width=".44" rx=".8" ry=".7"/><ellipse cx="159.2" cy="315" fill="#2668ad" rx="5.1" ry="4.8"/><path fill="none" stroke="#fdfefe" stroke-miterlimit="10" stroke-width=".44" d="M158.2 312.6v2.4h3.1l1 1.9.8-.4"/><path fill="none" stroke="#fdfefe" stroke-miterlimit="10" stroke-width=".44" d="M157.5 314.5s-2 1.7-.2 3.1 3.4-1.5 3.4-1.5m-2.5-1.9h1.9"/><ellipse cx="158.4" cy="311.8" fill="none" stroke="#fdfefe" stroke-miterlimit="10" stroke-width=".44" rx=".8" ry=".7"/><ellipse cx="21.8" cy="295.3" fill="#2668ad" rx="5.1" ry="4.8"/><path fill="none" stroke="#fdfefe" stroke-miterlimit="10" stroke-width=".44" d="M20.9 292.9v2.4h3l1.1 2 .8-.4"/><path fill="none" stroke="#fdfefe" stroke-miterlimit="10" stroke-width=".44" d="M20.1 294.8s-1.9 1.8-.2 3.1 3.5-1.4 3.5-1.4m-2.5-1.9h1.8"/><ellipse cx="21" cy="292.2" fill="none" stroke="#fdfefe" stroke-miterlimit="10" stroke-width=".44" rx=".8" ry=".7"/><ellipse cx="26.1" cy="172.2" fill="#2668ad" rx="5.1" ry="4.8"/><path fill="none" stroke="#fdfefe" stroke-miterlimit="10" stroke-width=".44" d="M25.1 169.8v2.4h3.1l1.1 1.9.8-.3"/><path fill="none" stroke="#fdfefe" stroke-miterlimit="10" stroke-width=".44" d="M24.4 171.7s-2 1.7-.2 3.1 3.5-1.4 3.5-1.4m-2.6-2H27"/><ellipse cx="25.3" cy="169" fill="none" stroke="#fdfefe" stroke-miterlimit="10" stroke-width=".44" rx=".8" ry=".7"/><ellipse cx="166.1" cy="185.9" fill="#2668ad" rx="5.1" ry="4.8"/><path fill="none" stroke="#fdfefe" stroke-miterlimit="10" stroke-width=".44" d="M165.2 183.4v2.4h3.1l1 2 .8-.4"/><path fill="none" stroke="#fdfefe" stroke-miterlimit="10" stroke-width=".44" d="M164.4 185.4s-1.9 1.7-.2 3.1 3.5-1.5 3.5-1.5m-2.5-1.9h1.8"/><ellipse cx="165.3" cy="182.7" fill="none" stroke="#fdfefe" stroke-miterlimit="10" stroke-width=".44" rx=".8" ry=".7"/><ellipse cx="329.2" cy="158.3" fill="#2668ad" rx="5.1" ry="4.8"/><path fill="none" stroke="#fdfefe" stroke-miterlimit="10" stroke-width=".44" d="M328.3 155.9v2.4h3.1l1 1.9.8-.4"/><path fill="none" stroke="#fdfefe" stroke-miterlimit="10" stroke-width=".44" d="M327.5 157.8s-1.9 1.7-.1 3.1 3.4-1.5 3.4-1.5m-2.5-1.9h1.9"/><ellipse cx="328.5" cy="155.1" fill="none" stroke="#fdfefe" stroke-miterlimit="10" stroke-width=".44" rx=".8" ry=".7"/><ellipse cx="377.2" cy="153.5" fill="#2668ad" rx="5.1" ry="4.8"/><path fill="none" stroke="#fdfefe" stroke-miterlimit="10" stroke-width=".44" d="M376.3 151.1v2.4h3.1l1 1.9.8-.4"/><path fill="none" stroke="#fdfefe" stroke-miterlimit="10" stroke-width=".44" d="M375.5 153s-1.9 1.7-.2 3.1 3.5-1.5 3.5-1.5m-2.5-1.9h1.9"/><ellipse cx="376.4" cy="150.3" fill="none" stroke="#fdfefe" stroke-miterlimit="10" stroke-width=".44" rx=".8" ry=".7"/><ellipse cx="427.6" cy="117.7" fill="#2668ad" rx="5.1" ry="4.8"/><path fill="none" stroke="#fdfefe" stroke-miterlimit="10" stroke-width=".44" d="M426.7 115.3v2.4h3l1.1 1.9.8-.4"/><path fill="none" stroke="#fdfefe" stroke-miterlimit="10" stroke-width=".44" d="M425.9 117.2s-1.9 1.7-.2 3.1 3.5-1.4 3.5-1.4m-2.5-2h1.8"/><ellipse cx="426.8" cy="114.5" fill="none" stroke="#fdfefe" stroke-miterlimit="10" stroke-width=".44" rx=".8" ry=".7"/><ellipse cx="476" cy="26.8" fill="#2668ad" rx="5.1" ry="4.8"/><path fill="none" stroke="#fdfefe" stroke-miterlimit="10" stroke-width=".44" d="M475.1 24.3v2.4h3.1l1 2 .8-.4"/><path fill="none" stroke="#fdfefe" stroke-miterlimit="10" stroke-width=".44" d="M474.3 26.3s-1.9 1.7-.2 3.1 3.5-1.5 3.5-1.5m-2.5-1.9h1.9"/><ellipse cx="475.2" cy="23.6" fill="none" stroke="#fdfefe" stroke-miterlimit="10" stroke-width=".44" rx=".8" ry=".7"/><circle cx="475.5" cy="106.2" r="12.1" fill="#fff" stroke="#973531" stroke-miterlimit="10" stroke-width=".83"/><rect width="1.5" height=".85" x="466.6" y="102.8" fill="#963531" rx=".3"/><rect width="2.1" height=".85" x="467.6" y="109.2" fill="#963531" rx=".3"/><path fill="#c16c6c" d="M483.1 102.1c-6.9 1.7-4.4 9-8.4 10.5a8.1 8.1 0 0 0 7.2-2.6c2.2-2.6 2.4-6 1.2-7.9z"/><path fill="#963531" d="M475.6 101.6h-7.8a.5.5 0 0 0-.3.3v.3a.5.5 0 0 0 .3.3h5.9v.3h-4.1a.3.3 0 0 0-.3.3v.2a.3.3 0 0 0 .3.3h4l-.4.5h-2.3a.3.3 0 0 0-.3.3v.2a.3.3 0 0 0 .3.3h1.9a11.8 11.8 0 0 0-.7 3h-2.6a.3.3 0 0 0-.3.3v.3a.3.3 0 0 0 .3.3h2.6a.6.6 0 0 1 .1.4h-1.3a.3.3 0 0 0-.3.3v.2a.3.3 0 0 0 .3.3h1.2a2 2 0 0 1-.1.7h-3.6a.3.3 0 0 0-.3.3v.2a.3.3 0 0 0 .3.3h4.5l.5.5.5.3c4.5-1 2.2-8.9 8.6-10.8-2-1.6-4.6-1.4-6.9.1z"/><circle cx="336" cy="241.1" r="12.1" fill="#fff" stroke="#973531" stroke-miterlimit="10" stroke-width=".83"/><rect width="1.5" height=".85" x="327.1" y="237.7" fill="#963531" rx=".3"/><rect width="2.1" height=".85" x="328" y="244.2" fill="#963531" rx=".3"/><path fill="#c16c6c" d="M343.5 237.1c-6.9 1.7-4.3 9-8.3 10.4a8 8 0 0 0 7.2-2.5c2.2-2.6 2.4-6 1.1-7.9z"/><path fill="#963531" d="M336.1 236.6h-7.8a.3.3 0 0 0-.3.3v.2a.3.3 0 0 0 .3.3h5.8a.4.4 0 0 1 .1.3h-4.1a.3.3 0 0 0-.3.3v.3a.3.3 0 0 0 .3.3h3.9l-.3.5h-2.3a.3.3 0 0 0-.3.3v.2a.3.3 0 0 0 .3.3h1.9a8.2 8.2 0 0 0-.7 3h-2.7a.3.3 0 0 0-.3.3v.2a.3.3 0 0 0 .3.3h2.7v.5h-1.2a.3.3 0 0 0-.3.3v.2a.3.3 0 0 0 .3.3h1.1a.6.6 0 0 1 0 .6h-3.6a.3.3 0 0 0-.3.3v.3a.3.3 0 0 0 .3.3h4.5l.4.5.5.3c4.5-1 2.2-8.9 8.7-10.8a5.7 5.7 0 0 0-6.9.1z"/><circle cx="366.9" cy="342.4" r="12.1" fill="#fff" stroke="#973531" stroke-miterlimit="10" stroke-width=".83"/><rect width="1.5" height=".85" x="358" y="339" fill="#963531" rx=".3"/><rect width="2.1" height=".85" x="358.9" y="345.4" fill="#963531" rx=".3"/><path fill="#c16c6c" d="M374.4 338.3c-6.9 1.7-4.3 9.1-8.3 10.5a8.1 8.1 0 0 0 7.2-2.6c2.2-2.5 2.4-6 1.1-7.9z"/><path fill="#963531" d="M367 337.9h-7.8a.3.3 0 0 0-.3.3v.2a.3.3 0 0 0 .3.3h5.8a.4.4 0 0 1 .1.3H361a.3.3 0 0 0-.3.3v.2a.3.3 0 0 0 .3.3h3.9l-.3.5h-2.3a.3.3 0 0 0-.3.3v.3a.3.3 0 0 0 .3.3h1.9a7.8 7.8 0 0 0-.7 3h-2.6c-.2 0-.4.1-.4.3v.2c0 .2.2.3.4.3h2.6v.4h-1.2a.3.3 0 0 0-.3.3v.3a.3.3 0 0 0 .3.3h1.1a.6.6 0 0 1 0 .6h-3.6a.3.3 0 0 0-.3.3v.2a.3.3 0 0 0 .3.3h4.5a1.2 1.2 0 0 0 .5.5c.1.2.3.2.4.3 4.5-1 2.2-8.8 8.7-10.8-2-1.6-4.7-1.3-6.9.2z"/><circle cx="164.7" cy="276.6" r="12.1" fill="#fff" stroke="#973531" stroke-miterlimit="10" stroke-width=".83"/><rect width="1.5" height=".85" x="155.8" y="273.2" fill="#963531" rx=".3"/><rect width="2.1" height=".85" x="156.7" y="279.7" fill="#963531" rx=".3"/><path fill="#c16c6c" d="M172.3 272.6c-6.9 1.7-4.4 9-8.4 10.4a8 8 0 0 0 7.2-2.5c2.2-2.6 2.4-6 1.2-7.9z"/><path fill="#963531" d="M164.8 272.1H157a.3.3 0 0 0-.3.3v.2a.3.3 0 0 0 .3.3h5.9v.3h-4.1a.3.3 0 0 0-.3.3v.3a.3.3 0 0 0 .3.3h3.9l-.3.5h-2.3a.3.3 0 0 0-.3.3v.2a.3.3 0 0 0 .3.3h1.9a10.9 10.9 0 0 0-.7 3h-2.6a.3.3 0 0 0-.3.3v.2a.3.3 0 0 0 .3.3h2.6a.9.9 0 0 0 .1.5h-1.3a.3.3 0 0 0-.3.3v.2a.3.3 0 0 0 .3.3h1.1a.6.6 0 0 1 0 .6h-3.6a.3.3 0 0 0-.3.3v.3a.3.3 0 0 0 .3.3h4.5l.5.5.5.3c4.5-1 2.1-8.9 8.6-10.8a5.7 5.7 0 0 0-6.9.1z"/><circle cx="188.4" cy="188.2" r="12.1" fill="#fff" stroke="#973531" stroke-miterlimit="10" stroke-width=".83"/><rect width="1.5" height=".85" x="179.5" y="184.8" fill="#963531" rx=".3"/><rect width="2.1" height=".85" x="180.5" y="191.3" fill="#963531" rx=".3"/><path fill="#c16c6c" d="M196 184.2c-6.9 1.7-4.4 9-8.4 10.4a7.9 7.9 0 0 0 7.2-2.5c2.2-2.6 2.4-6 1.2-7.9z"/><path fill="#963531" d="M188.5 183.7h-7.7a.3.3 0 0 0-.3.3v.3a.3.3 0 0 0 .3.3h5.8v.2h-4.1l-.3.3v.3a.3.3 0 0 0 .3.3h4l-.3.5h-2.4a.3.3 0 0 0-.3.3v.2a.3.3 0 0 0 .3.3h1.9a8 8 0 0 0-.6 3h-2.7a.3.3 0 0 0-.3.3v.3a.3.3 0 0 0 .3.3h2.7v.4h-1.3a.3.3 0 0 0-.3.3v.2a.3.3 0 0 0 .3.3h1.2a1.3 1.3 0 0 1-.1.6h-3.6a.5.5 0 0 0-.3.3v.3a.5.5 0 0 0 .3.3h4.5c.2.2.3.4.5.5l.5.3c4.5-1 2.2-8.9 8.6-10.8-1.9-1.6-4.6-1.4-6.9.1z"/><path fill="#e62227" d="M375.9 262.1a6.8 6.8 0 0 0-7.1 6.6s-.4 5.9 7 13.5c0 0 5.7-5.4 6.9-12a3.9 3.9 0 0 0 .2-1.5 6.8 6.8 0 0 0-7-6.6zm-.1 10.3a3.7 3.7 0 0 1-3.7-3.7 3.7 3.7 0 0 1 7.4 0 3.7 3.7 0 0 1-3.7 3.7z"/><circle cx="383.1" cy="187.1" r="12.1" fill="#fff" stroke="#973531" stroke-miterlimit="10" stroke-width=".83"/><rect width="1.5" height=".85" x="374.2" y="183.7" fill="#963531" rx=".3"/><rect width="2.1" height=".85" x="375.2" y="190.2" fill="#963531" rx=".3"/><path fill="#c16c6c" d="M390.7 183.1c-6.9 1.7-4.4 9-8.4 10.4a8 8 0 0 0 7.2-2.5c2.2-2.6 2.4-6 1.2-7.9z"/><path fill="#963531" d="M383.2 182.6h-7.8a.3.3 0 0 0-.3.3v.2a.4.4 0 0 0 .3.4h5.9v.2h-4.1a.3.3 0 0 0-.3.3v.3a.3.3 0 0 0 .3.3h4a1 1 0 0 0-.4.5h-2.3a.3.3 0 0 0-.3.3v.2a.3.3 0 0 0 .3.3h1.9a10.9 10.9 0 0 0-.7 3h-2.6a.3.3 0 0 0-.3.3v.2c0 .2.1.4.3.4h2.6c0 .1.1.2.1.4h-1.3a.3.3 0 0 0-.3.3v.2a.3.3 0 0 0 .3.3h1.2a1.3 1.3 0 0 1-.1.6H376a.5.5 0 0 0-.3.3v.3a.5.5 0 0 0 .3.3h4.5l.5.5.5.3c4.5-1 2.1-8.9 8.6-10.8a5.7 5.7 0 0 0-6.9.1z"/><path fill="none" stroke="#e81e25" stroke-dasharray="4" stroke-miterlimit="10" stroke-width="2" d="M375.5 287H231.4v13.4h-54.5l-67.7-48.6-87.9-9.4.4-13.6"/><circle cx="23.3" cy="222.7" r="12.1" fill="#fff" stroke="#973531" stroke-miterlimit="10" stroke-width=".83"/><rect width="1.5" height=".85" x="14.5" y="219.3" fill="#963531" rx=".3"/><rect width="2.1" height=".85" x="15.4" y="225.7" fill="#963531" rx=".3"/><path fill="#c16c6c" d="M30.9 218.6c-6.9 1.7-4.3 9.1-8.3 10.5a7.9 7.9 0 0 0 7.1-2.6c2.2-2.5 2.5-6 1.2-7.9z"/><path fill="#963531" d="M23.5 218.2h-7.8a.3.3 0 0 0-.3.3v.2a.3.3 0 0 0 .3.3h5.8a.4.4 0 0 1 .1.3h-4.1c-.2 0-.4.1-.4.3v.2c0 .2.2.3.4.3h3.9l-.3.5h-2.3a.4.4 0 0 0-.4.3v.3a.4.4 0 0 0 .4.3h1.9a6.3 6.3 0 0 0-.7 3h-2.7a.3.3 0 0 0-.3.3v.2a.3.3 0 0 0 .3.3H20v.4h-1.2a.4.4 0 0 0-.4.3v.3a.4.4 0 0 0 .4.3h1.1c0 .1.1.4 0 .6h-3.6a.3.3 0 0 0-.3.3v.2a.3.3 0 0 0 .3.3h4.5l.4.6.5.2c4.5-.9 2.2-8.8 8.6-10.8-1.9-1.6-4.6-1.3-6.8.2z"/></svg>