<svg xmlns="http://www.w3.org/2000/svg" id="Layer_1" width="906.84" height="628.93" viewBox="0 0 906.84 628.93"><defs><style>.cls-1{fill:#2668ad}.cls-2,.cls-26,.cls-29,.cls-3,.cls-30,.cls-31,.cls-32,.cls-33,.cls-34,.cls-35,.cls-36{fill:none}.cls-2,.cls-26{stroke:#fdfefe}.cls-2,.cls-26,.cls-29,.cls-3,.cls-30,.cls-31,.cls-32,.cls-33,.cls-34,.cls-35,.cls-36,.cls-4,.cls-5,.cls-6{stroke-miterlimit:10}.cls-2{stroke-width:.26px}.cls-3{stroke:#fff}.cls-24,.cls-27,.cls-4,.cls-6{fill:#fff}.cls-4,.cls-5,.cls-6{stroke:#515354}.cls-4{stroke-width:2px}.cls-5{fill:#d8e6ea}.cls-5,.cls-6{stroke-width:.75px}.cls-7{font-size:15px;fill:#515354}.cls-24,.cls-27,.cls-7{font-family:MyriadPro-Regular,Myriad Pro}.cls-8{letter-spacing:0}.cls-9{letter-spacing:-.01em}.cls-10{letter-spacing:-.03em}.cls-11{letter-spacing:-.01em}.cls-12{letter-spacing:0}.cls-13{letter-spacing:.02em}.cls-14{letter-spacing:-.01em}.cls-15{letter-spacing:-.04em}.cls-16{letter-spacing:-.01em}.cls-17{letter-spacing:.01em}.cls-18{letter-spacing:0}.cls-19,.cls-20{letter-spacing:-.01em}.cls-21{letter-spacing:-.02em}.cls-22{letter-spacing:0}.cls-23{letter-spacing:-.03em}.cls-24{font-size:18.57px}.cls-25{fill:#150c0a}.cls-26{stroke-width:.44px}.cls-27{font-size:17.81px}.cls-28{fill:#f05455}.cls-29,.cls-30,.cls-31,.cls-32,.cls-33,.cls-34,.cls-35,.cls-36{stroke:#f05455}.cls-30{stroke-dasharray:5.16 5.16}.cls-31{stroke-dasharray:4.17 4.17}.cls-32{stroke-dasharray:3.89 3.89}.cls-33,.cls-34{stroke-dasharray:3.84 3.84}.cls-35{stroke-dasharray:2.41 2.41}.cls-36{stroke-dasharray:3.16 3.16}</style></defs><ellipse cx="572.89" cy="625.63" class="cls-1" rx="3.01" ry="2.8"/><path d="M572.36 624.22v1.4h1.78l.61 1.14.47-.22" class="cls-2"/><path d="M571.9 625.35s-1.14 1-.11 1.81c1.28 1 2-.84 2-.84m-1.44-1.14h1.09" class="cls-2"/><ellipse cx="572.44" cy="623.78" class="cls-2" rx=".46" ry=".43"/><path d="M36.98 207.26L26.24 344.1l14.33 1.27v-3.48l8.74 1.58v3.16h11.06l3.16-27.49 2.84.63 4.43-20.54 54.04 5.05 2.84-.31v-4.43l-57.2-5.28 5.59-64.2-4.22-29.51-34.87 6.71zm2.75 72.98v-73.51" class="cls-3"/><path d="M33.71 298.13l-.77 5.99h3.22v-5.22l-2.45-.77z" class="cls-3"/><path d="M29.94 296.96l13.9 1.1v2.14l-7.68-.3m-6.86 5.22l10.43-1.23v2.15h7.33l-.92 7.37h4.3l-1.07 17.96 12.56 1.67" class="cls-3"/><path d="M99.34 158.72s224.81 16.22 256.4-47.33 133.38-82.47 186.59-68.95S614.48-.83 634.76.52 697-13 682.08 122.21c0 0 0 42.92 58.14 38.36S916 123 906.52 190.89s-12 113.85.54 157.11-68.14 66.26-142.5 40.57-187.94 2.7-204.16 23-60.27 46-198.47 32.45-191.45 12.17-191.45 12.17-129.11 46-121-33.8-136.72-225.82 49.86-263.67z" class="cls-4"/><path d="M575.34 104.88l4.71-31.94-49.94-1.28-1.71 6 3.43.43-.65 7.5-2.78.41v14.15H523v63.22l-74.81-2.78 1.72-65h2.14l.22-28.72s-1.72-2.78-.65-4.71 5.58 0 5.58 0l1.5-2.57 30.43 1.71v-3.36l96.45 1.93V65l9.65.43-6 38.58-7.08-.85-1.07 2.35z" class="cls-5"/><path d="M515.88 79.29L501.73 78v-4.07l-16.72-1.29-1.93 4.5-16.94-1.17v19.19h-3.44v54.03l45.25 1.5 2.14-39.02 4.51-1.07 1.28-31.31z" class="cls-6"/><path d="M535.26 129.72v20.08l30.63.89v-20.46l-30.63-.51zm-129.82-.32v31.68l13.68-.26v-2.59l16.81.37v-29.2h-10.9l-.56-3.14h-2.21l-.19 3.33h-4.25v-3.33h-2.77l-.19 3.33-9.42-.19zm-16.73 56.87s20.2 17.24 41.63 26.85l-13.8 30 16.26 38.67h-3.94l1 19.21h-34v6.4h-10.35v-18.67l3.69.89-.49-23.79-7.88 3.45V272l-6.41-.25v45h-47.5l-.41 15h-2.57v-18.17h-4.51v-9.93h4.23v-20.5h-4.23v-9.74h4.05v-2.76h-18.57v-2.2h15.81v-4.32H324v-35.67l3.22-2.29-.19-7.17h3.77s11-13.05 26.2-13.33l13 7.26V219h3.58v10h2.3v23.53h2.48v5.24l7.54-3.68v-2.39h3.22z" class="cls-5"/><path d="M295.95 240.52v-25.95h-16.34v23.42h6.23v3.03h-10.86v27.8h-5.23v-16.34h1.1v-1.52h-1.1v-2.78h1.52v-2.61h-2.02v-7.33h1.94v-7.66h-1.94v-5.31h2.36v-7.67h-1.94v-12.72h28.05v-25.27h-58.04v40.61h-4.8v-5.65h-10.11v-4.63h9.69v-31.25h-22.74v31.08h10.1v4.63h-10.1v5.73h-4.8v-38.32h-17.19v30.99h-21.14v53.44h11.03v33.43h25.84v2.3h3.87v1.14h1.18v-4.61h-1.74v-6.51h-2.3v-5.86h45.8v8.02h-1.84v4.06h1.16v3.38h-2.22v31.11h2.7v10.63h-30.24v-11.31h-15.62l-.23-25.58h9.85v-2.94h-38.6v-9.96h-3.96v-3.53H150.3v-4.28h-22.19v16.41h5.78v12.56h11.88l-2.38 3.28 2.61 3.17 2.37-3.17v12.45h12.23l-2.61 2.95 2.61 1.92 2.83-2.38v12.34h12.45l-2.15 2.83 2.03 2.26 3.28-2.04v12.12h11.78v3.62h4.64v-3.4h3.28v3.4h16.52v-6.23h36.9v13.81h29.77v-28.86h-9.74v-4.64h83.35l1.81 6.92 3.3-.15h23.46v21.95H402v10.22h3.9v-9.92l7.97-3.46v-34.72l-7.52-2.56H356.3l.15 7.37h-89.6v-1.81h31.87v-29.61h-27.73v-3.61h14.65v-13.68h6.17v-12.93h12.77v-31.42l-8.63-.2zm-123 165.36l-3.69 7.01 8.98 4.92-1.97 3.56-15.25-7.75-3.69 7.75 11.93 6.4-1.47 3.57h-2.22l-4.55 9.1 21.04 11.19 5.28-9.47-9.71-5.29 1.84-3.56 14.89 7.01 4.06-7.14-9.85-5.29 1.97-3.93 1.6.73 3.82-6.76-23.01-12.05z" class="cls-5"/><path d="M228.23 397.61l-17.59-10.34s-8.6-6.18-3.76-14.91 40.42-4.3 40.42-4.3v15.58l-3.76-.13-.27-1.24h-15.58l-.4 10.1h1.34zm96.34-64.22v4.75h-1.32v6.19h1.32v55.77h6.32v1.85h4.75v-1.19h8.83v-61.83l-8.17-5.54h-11.73zm27.68 44.43v37.44h64.61v-37.97h-45.23v-1.84h-7.51v-2.64l-11.87 1.58-7.78-.13v3.43l7.78.13zm61.43-43.37v3.87H451v13.74h50.83l1.99 3.14h5.24v-2.94h4.82v1.37h30.92v2.83h33.33v-12.79h18.76v4.82h6.61v2.73h14.25v2.3h45.18v-12.58H642.8v-26.09h-38.57v2.72h-7.12v23.48h-16.77v-19.81h-39.52v2.31h-24.84v6.5h-1.78v2.83h-5.03v-2.42h-6.4v3.25h-44.02v-2.2h-7.44v3.25l-37.63-.31zm404.83-45.12v28.17l17.73-1.16 7.79.49 1-14.58-3.32-.66.33-7.62-13.75-1.33-.33-2.58-9.45-.73zm17.07-83.67l-3.81-1v12.1l-7.79 3.81h-3.14l-2.33-2.82v-9.61l2.49-3.48 1.82-18.39h5.14l.17 3.98h5.63v9.77l-1 1.99 2.82.17 1.16-6.3 44.74 4.31-3.81 61.97-45.9-3.32 3.81-53.18zM515.55 75.12v-2.58s-4.13-2.06-1.55-6c0 0 1.89-2.06 3.61-1.2v-7.4m-4.46 44.66h8.92m-59.77 44.32h-6.36l-1.89-2.75h-6.01m-256.55 90.8h3.76v19.49h-16.38v12.62m26.57 18.38v-65.99m32.89 3.06h-32.89m28.17 7.07H216v-7.07 11.01h-7.24v12.27h6.77m59.77.78h8.81v6.68h-8.81zm-8.18 26.9h8.18v7.71h-8.18zm24.54-2.04v-30.83h3.61m-10.22 44.04h-15.26v21.71h-2.67v2.51h16.99v-2.04h2.2v-5.98m-29.26.16v-15.58h-5.03m32.09 51.6v-3.46m-29.58 2.83h5.98v8.18h-5.98zm16.68 5.66h-10.07m-10.07 14.16v-14.16h3.46m-51.9 6.29h4.25v1.89h-4.25z" class="cls-5"/><path d="M197.91 359.53V347.1h-1.57v-3.61h8.41v-12.12m-10.14-14.31h6.92v-11.95h-11.8v1.57h-4.25v6.13h4.56l4.57 4.25z" class="cls-5"/><path d="M194.29 320.36l.32-3.3-4.57-4.25h-20.29v5.04l19.19 18.56h3.78v-16.52l1.57.47z" class="cls-5"/><path d="M176.67 302.27v3.47h-15.88l-1.58 1.57v7.08l3.78 4.56 6.76-1.1 4.96 4.79-.87 3.54 6.61 6.61h4.75l3.74 3.62v8.18l3.94 3.77 3.46-1.26 1.1 3.15h-4.88l-.13-1.89m4.58 7.87h-8m2.81 0h2.79v7.58h-2.79z" class="cls-5"/><path d="M175.11 350.25l-2.53-2.73 2.53-2.07v-9.04h6.18l4.19 4.8v6.31l-7.59-.48-2.78 3.21zm-14.54-14.72l-2.53-2.72 2.53-2.08v-9.04h6.17l4.2 4.8v6.32l-7.59-.49-2.78 3.21zm-15.11-14.59l-2.53-2.73 2.53-2.07v-9.04h6.18l4.19 4.8v6.31l-7.59-.48-2.78 3.21zm25.48-19.22v-8.78h5.38l.35 12.8h-5.73v-1.69l-2.11-.26v-2.33l2.11.26zm-6.45-3.23V291h-7.93v8.34l7.93-.85zm-22.26-3.32V287h-8.39v8.78l8.39-.61zm-14.59 3.58h6.2v3.52h-6.2zm49.33 118.22l11.93 6.66m-10.56 8.6l-11.13-5.5m8.95 9.29l-10.67-5.16m174.9-154.89v9.58h10.41v-10.24l-10.41.66zm-13.71-49.07v23.04h28.75v15.95h6.61v-17.02h4.62v-30.24h-7.43v-9.91h-7.77v9.09h-4.79v3.8h-7.6v4.79l-12.39.5zM332 340.58s-8.59-.17-5.78 14.21 5.78 12.89 5.78 12.89 7.27 1.2 7.44-13.53-7.44-13.57-7.44-13.57zm51.52-13.72v11.07h20.65v-6.28l1.12 1.12v-5.91m6.81 7.44v2.15m-57.5-2.15v2.15m11.07 41.14h5.12v5.12h-5.12zm15.04 1.16v22.8h17.02v8.1h3.96v-27.76h-3.63v-3.14h-17.35zm68.74-44.45v3.63m62.79-1.48l-4.96-.33v8.09h-2.15v8.26h7.93l-.82-16.02zm.82-3.31v4.79m30.74-2.39v19.58h33.54v-14.05h-9.25v-6.77l-24.29 1.24z" class="cls-5"/><text class="cls-7" transform="translate(543.4 69.66)">R</text><text class="cls-7" transform="translate(465.34 72.66)">R</text><text class="cls-7" transform="translate(482.43 161.04)">R</text><text class="cls-7" transform="translate(544.63 145.77)">G</text><text class="cls-7" transform="translate(415.05 151.22)">F</text><text class="cls-7" transform="translate(395.87 256.12)">E</text><text class="cls-7" transform="translate(338.4 244.85)">H</text><text class="cls-7" transform="translate(334.04 304.5)">D</text><text class="cls-7" transform="translate(246.38 244.85)">A</text><text class="cls-7" transform="translate(260.75 364.51)">C</text><text class="cls-7" transform="translate(140.4 304.5)">B</text><text class="cls-7" transform="translate(213.96 382.88)">K</text><text class="cls-7" transform="translate(172.77 432.53)">M</text><text class="cls-7" transform="translate(329.76 359.06)">J</text><text class="cls-7" transform="translate(364.22 404.88)">T</text><text class="cls-7" transform="translate(519.89 345.23)">P</text><text class="cls-7" transform="translate(385.44 359.05)">N</text><text class="cls-7" transform="translate(611.19 340.51)">S</text><text class="cls-7" transform="translate(826.54 310.33)">V</text><text class="cls-7" transform="translate(821.81 208.59)">Z</text><path d="M43.14 205.12L32.39 341.96l14.34 1.26v-3.47l8.73 1.58v3.16h11.06l3.16-27.5 2.85.63 4.42-20.54 54.05 5.06 2.84-.32v-4.42l-57.2-5.28 5.58-64.21-4.21-29.51-34.87 6.72zm2.75 72.98v-73.51" class="cls-5"/><path d="M39.86 295.99l-.77 5.98h3.23v-5.22l-2.46-.76z" class="cls-5"/><path d="M36.09 294.82l13.9 1.09v2.15l-7.67-.31m-6.87 5.22l10.44-1.22v2.14h7.33l-.92 7.37h4.29l-1.07 17.96 12.57 1.67" class="cls-5"/><text class="cls-7" transform="translate(51.77 266.05)"><tspan class="cls-8">C</tspan><tspan x="8.76" y="0">A</tspan></text><text class="cls-7" transform="translate(721.03 477.83)">1.<tspan x="10.8" y="0" class="cls-9">T</tspan><tspan x="18.15" y="0">he </tspan><tspan x="37.17" y="0" class="cls-10">F</tspan><tspan x="44.08" y="0">ix</tspan><tspan x="0" y="18">2.</tspan><tspan x="10.8" y="18" class="cls-11">T</tspan><tspan x="18.07" y="18" class="cls-12">im Ho</tspan><tspan x="55.29" y="18" class="cls-13">r</tspan><tspan x="60.55" y="18" class="cls-14">t</tspan><tspan x="65.43" y="18">ons</tspan><tspan x="0" y="36">3.</tspan><tspan x="0" y="54">4.</tspan><tspan x="10.8" y="54" class="cls-15"> </tspan><tspan x="13.36" y="54" class="cls-16">T</tspan><tspan x="20.71" y="54">he </tspan><tspan x="39.73" y="54" class="cls-17">M</tspan><tspan x="51.88" y="54" class="cls-12">a</tspan><tspan x="59.11" y="54" class="cls-8">r</tspan><tspan x="64.08" y="54">ketpla</tspan><tspan x="102.9" y="54" class="cls-14">c</tspan><tspan x="109.53" y="54">e</tspan><tspan x="0" y="72">5. </tspan><tspan x="13.98" y="72" class="cls-18">S</tspan><tspan x="21.33" y="72">ta</tspan><tspan x="33.52" y="72" class="cls-8">r</tspan><tspan x="38.49" y="72">bucks</tspan><tspan x="0" y="90">6. Bits and </tspan><tspan x="66.9" y="90" class="cls-8">B</tspan><tspan x="75.09" y="90" class="cls-12">y</tspan><tspan x="82.15" y="90" class="cls-14">t</tspan><tspan x="87.03" y="90">es</tspan><tspan x="0" y="108">7. 35th </tspan><tspan x="45.84" y="108" class="cls-18">S</tspan><tspan x="53.19" y="108">t</tspan><tspan x="58.15" y="108" class="cls-19">r</tspan><tspan x="62.91" y="108" class="cls-12">eet </tspan><tspan x="86.08" y="108" class="cls-17">M</tspan><tspan x="98.23" y="108" class="cls-12">a</tspan><tspan x="105.46" y="108" class="cls-8">r</tspan><tspan x="110.43" y="108">ket </tspan><tspan x="133.12" y="108" class="cls-9">C</tspan><tspan x="141.72" y="108" class="cls-12">a</tspan><tspan x="148.95" y="108" class="cls-20">f</tspan><tspan x="153.13" y="108" class="cls-12">e</tspan></text><text class="cls-7" transform="translate(734.23 514.41)"><tspan class="cls-21">P</tspan><tspan x="7.61" y="0" class="cls-22">o</tspan><tspan x="15.84" y="0" class="cls-13">r</tspan><tspan x="21.1" y="0">table </tspan><tspan x="56.07" y="0" class="cls-23">F</tspan><tspan x="62.91" y="0">east</tspan></text><rect width="2.24" height="1.26" x="391.49" y="229.31" rx=".51"/><rect width="3.08" height="1.26" x="392.9" y="238.88" rx=".51"/><path d="M416 228.33c-10.27 2.54-6.46 13.42-12.43 15.55a11.87 11.87 0 0 0 10.68-3.82c3.22-3.82 3.56-8.9 1.75-11.73z"/><path d="M404.89 227.63h-11.58a.45.45 0 0 0-.45.45v.35a.46.46 0 0 0 .45.46H402a1 1 0 0 1 .08.42h-6.12a.45.45 0 0 0-.45.45v.35a.46.46 0 0 0 .45.46h5.88c-.17.23-.33.48-.48.73h-3.47a.45.45 0 0 0-.45.45v.35a.46.46 0 0 0 .45.46h2.82a12.57 12.57 0 0 0-1 4.43h-3.95a.45.45 0 0 0-.45.45v.35a.46.46 0 0 0 .45.46h4c0 .21 0 .42.05.63h-1.89a.45.45 0 0 0-.45.45v.35a.46.46 0 0 0 .45.46h1.72a1.52 1.52 0 0 1-.08.9h-5.32a.45.45 0 0 0-.45.45v.35a.46.46 0 0 0 .45.46h6.66a3.08 3.08 0 0 0 .7.77 3.9 3.9 0 0 0 .73.43c6.68-1.47 3.24-13.19 12.81-16.06-2.95-2.36-6.95-2.04-10.25.19z"/><text class="cls-24" transform="translate(403.98 241.13)">5</text><rect width="2.24" height="1.26" x="348.71" y="283.93" rx=".51"/><rect width="3.08" height="1.26" x="350.12" y="293.5" rx=".51"/><path d="M373.18 283c-10.27 2.54-6.46 13.42-12.43 15.55a11.87 11.87 0 0 0 10.68-3.82c3.26-3.87 3.57-8.95 1.75-11.73z"/><path d="M362.11 282.25h-11.58a.45.45 0 0 0-.45.45v.36a.45.45 0 0 0 .45.45h8.67a1 1 0 0 1 .08.42h-6.12a.45.45 0 0 0-.45.45v.35a.46.46 0 0 0 .45.46H359c-.17.23-.33.48-.48.73h-3.47a.45.45 0 0 0-.45.45v.36a.45.45 0 0 0 .45.45h2.82a12.57 12.57 0 0 0-1 4.43H353a.45.45 0 0 0-.45.45v.36a.45.45 0 0 0 .45.45h4c0 .21 0 .42.05.63h-1.89a.45.45 0 0 0-.45.45v.36a.45.45 0 0 0 .45.45h1.72a1.52 1.52 0 0 1-.08.9h-5.32a.45.45 0 0 0-.45.45v.35a.46.46 0 0 0 .45.46h6.66a3.08 3.08 0 0 0 .7.77 3.9 3.9 0 0 0 .73.43c6.68-1.47 3.24-13.19 12.81-16.06-2.97-2.36-6.97-2.06-10.27.19z"/><text class="cls-24" transform="translate(361.2 295.75)">4</text><rect width="2.24" height="1.26" x="198.41" y="232.95" class="cls-25" rx=".51"/><rect width="3.08" height="1.26" x="199.81" y="242.52" class="cls-25" rx=".51"/><path d="M222.87 232c-10.27 2.54-6.45 13.42-12.42 15.55a11.88 11.88 0 0 0 10.68-3.82c3.25-3.85 3.59-8.93 1.74-11.73z"/><path d="M211.8 231.27h-11.57a.45.45 0 0 0-.45.45v.35a.46.46 0 0 0 .45.46h8.67a1.2 1.2 0 0 1 .07.42h-6.12a.45.45 0 0 0-.45.45v.35a.46.46 0 0 0 .45.46h5.88c-.17.23-.33.48-.48.73h-3.46a.46.46 0 0 0-.46.45v.35a.47.47 0 0 0 .46.46h2.82a12.58 12.58 0 0 0-1 4.43h-4a.45.45 0 0 0-.45.45v.35a.46.46 0 0 0 .45.46h4v.63h-1.88a.46.46 0 0 0-.46.45v.35a.47.47 0 0 0 .46.46h1.71a1.59 1.59 0 0 1-.07.9h-5.27a.45.45 0 0 0-.45.45v.35a.46.46 0 0 0 .45.46h6.66a3.29 3.29 0 0 0 .7.77 4 4 0 0 0 .74.43c6.68-1.47 3.24-13.19 12.8-16.06-2.9-2.36-6.9-2.08-10.2.19z"/><text class="cls-24" transform="translate(210.89 244.77)">2</text><rect width="2.24" height="1.26" x="172.82" y="320.64" rx=".51"/><rect width="3.08" height="1.26" x="174.23" y="330.22" rx=".51"/><path d="M197.28 319.67c-10.26 2.53-6.45 13.41-12.42 15.54a11.88 11.88 0 0 0 10.68-3.81c3.26-3.82 3.6-8.91 1.74-11.73z"/><path d="M186.22 319h-11.58a.45.45 0 0 0-.45.45v.35a.45.45 0 0 0 .45.45h8.67a1.63 1.63 0 0 1 .08.42h-6.12a.47.47 0 0 0-.46.46v.35a.46.46 0 0 0 .46.45h5.88c-.17.24-.33.49-.48.74h-3.47a.45.45 0 0 0-.45.45v.35a.45.45 0 0 0 .45.45h2.8a12.62 12.62 0 0 0-1 4.44h-3.95a.46.46 0 0 0-.46.45v.35a.46.46 0 0 0 .46.45h4c0 .22 0 .43.05.64h-1.9a.45.45 0 0 0-.45.45v.3a.45.45 0 0 0 .45.45h1.72a1.51 1.51 0 0 1-.08.9h-5.32a.46.46 0 0 0-.45.46v.35a.45.45 0 0 0 .45.45h6.65a3.34 3.34 0 0 0 .7.78 3.49 3.49 0 0 0 .74.42c6.68-1.46 3.24-13.18 12.81-16.05-2.91-2.34-6.91-2.02-10.2.24z"/><text class="cls-24" transform="translate(185.3 332.46)">3</text><rect width="2.24" height="1.26" x="32.39" y="265.83" rx=".51"/><rect width="3.08" height="1.26" x="33.8" y="275.4" rx=".51"/><path d="M56.85 264.85c-10.26 2.54-6.45 13.42-12.42 15.55a11.88 11.88 0 0 0 10.68-3.82c3.25-3.81 3.6-8.9 1.74-11.73z"/><path d="M45.79 264.15H34.21a.45.45 0 0 0-.45.45v.4a.45.45 0 0 0 .45.45h8.67a1.49 1.49 0 0 1 .08.42h-6.12a.46.46 0 0 0-.46.45v.35a.47.47 0 0 0 .46.46h5.88c-.17.23-.33.48-.48.73h-3.47a.45.45 0 0 0-.45.45v.36a.45.45 0 0 0 .45.45h2.82a12.62 12.62 0 0 0-1 4.43h-4a.46.46 0 0 0-.46.45v.36a.46.46 0 0 0 .46.45h4c0 .21 0 .42.06.63h-1.88a.45.45 0 0 0-.45.45v.36a.45.45 0 0 0 .45.45h1.72a1.52 1.52 0 0 1-.08.9h-5.32a.46.46 0 0 0-.46.45v.35a.47.47 0 0 0 .46.46h6.65a3.1 3.1 0 0 0 .7.77 4 4 0 0 0 .74.43c6.68-1.51 3.24-13.23 12.82-16.06-2.92-2.4-6.92-2.08-10.21.15z"/><text class="cls-24" transform="translate(44.87 277.65)">1</text><ellipse cx="398.93" cy="416.99" class="cls-1" rx="5.14" ry="4.8"/><path d="M398.01 414.58v2.4h3.06l1.04 1.95.81-.38" class="cls-26"/><path d="M397.23 416.52s-2 1.71-.18 3.08c2.19 1.71 3.48-1.44 3.48-1.44m-2.52-1.93h1.85" class="cls-26"/><ellipse cx="398.15" cy="413.83" class="cls-26" rx=".78" ry=".73"/><ellipse cx="410.72" cy="394.04" class="cls-1" rx="5.14" ry="4.8"/><path d="M409.8 391.63v2.4h3.06l1.04 1.95.8-.37" class="cls-26"/><path d="M409 393.57s-1.94 1.71-.18 3.08c2.2 1.71 3.48-1.43 3.48-1.43m-2.5-1.94h1.85" class="cls-26"/><ellipse cx="409.94" cy="390.88" class="cls-26" rx=".78" ry=".73"/><ellipse cx="402.92" cy="367.72" class="cls-1" rx="5.14" ry="4.8"/><path d="M402 365.31v2.4h3.05l1.05 1.95.8-.37" class="cls-26"/><path d="M401.21 367.25s-1.95 1.71-.18 3.09c2.19 1.7 3.48-1.44 3.48-1.44m-2.51-1.94h1.85" class="cls-26"/><ellipse cx="402.14" cy="364.57" class="cls-26" rx=".78" ry=".73"/><ellipse cx="445.1" cy="350.03" class="cls-1" rx="5.14" ry="4.8"/><path d="M444.18 347.62v2.4h3.05l1.05 1.95.8-.37" class="cls-26"/><path d="M443.39 349.56s-1.95 1.71-.18 3.09c2.19 1.7 3.48-1.44 3.48-1.44m-2.51-1.94h1.85" class="cls-26"/><ellipse cx="444.32" cy="346.88" class="cls-26" rx=".78" ry=".73"/><ellipse cx="468.75" cy="357.95" class="cls-1" rx="5.14" ry="4.8"/><path d="M467.83 355.54v2.4h3.06l1.04 1.95.81-.38" class="cls-26"/><path d="M467.05 357.48s-1.95 1.71-.18 3.08c2.19 1.71 3.47-1.43 3.47-1.43m-2.51-1.94h1.85" class="cls-26"/><ellipse cx="467.97" cy="354.79" class="cls-26" rx=".78" ry=".73"/><ellipse cx="445.1" cy="328.61" class="cls-1" rx="5.14" ry="4.8"/><path d="M444.18 326.2v2.4h3.05l1.05 1.95.8-.37" class="cls-26"/><path d="M443.39 328.14s-1.95 1.71-.18 3.09c2.19 1.7 3.48-1.44 3.48-1.44m-2.51-1.94h1.85" class="cls-26"/><ellipse cx="444.32" cy="325.46" class="cls-26" rx=".78" ry=".73"/><ellipse cx="391.2" cy="331.69" class="cls-1" rx="5.14" ry="4.8"/><path d="M390.28 329.28v2.4h3.06l1.04 1.95.81-.38" class="cls-26"/><path d="M389.5 331.22s-1.95 1.71-.18 3.08c2.19 1.71 3.47-1.44 3.47-1.44m-2.51-1.93h1.85" class="cls-26"/><ellipse cx="390.42" cy="328.53" class="cls-26" rx=".78" ry=".73"/><ellipse cx="555.71" cy="321.9" class="cls-1" rx="5.14" ry="4.8"/><path d="M554.79 319.5v2.4h3.06l1.04 1.95.81-.38" class="cls-26"/><path d="M554 321.44s-2 1.7-.18 3.08c2.19 1.7 3.48-1.44 3.48-1.44m-2.51-1.93h1.85" class="cls-26"/><ellipse cx="554.93" cy="318.75" class="cls-26" rx=".78" ry=".73"/><ellipse cx="626.19" cy="317.5" class="cls-1" rx="5.14" ry="4.8"/><path d="M625.27 315.09v2.4h3.06l1.04 1.95.8-.38" class="cls-26"/><path d="M624.48 317s-1.94 1.71-.18 3.08c2.2 1.71 3.48-1.44 3.48-1.44m-2.51-1.9h1.85" class="cls-26"/><ellipse cx="625.41" cy="314.34" class="cls-26" rx=".78" ry=".73"/><ellipse cx="813.37" cy="303.41" class="cls-1" rx="5.14" ry="4.8"/><path d="M812.45 301.01v2.39h3.06l1.04 1.96.81-.38" class="cls-26"/><path d="M811.67 303s-1.95 1.7-.18 3.08c2.19 1.7 3.48-1.44 3.48-1.44m-2.52-1.98h1.85" class="cls-26"/><ellipse cx="812.59" cy="300.26" class="cls-26" rx=".78" ry=".73"/><ellipse cx="578.12" cy="343.5" class="cls-1" rx="5.14" ry="4.8"/><path d="M577.2 341.09v2.4h3.05l1.05 1.95.8-.38" class="cls-26"/><path d="M576.41 343s-1.95 1.71-.18 3.08c2.19 1.71 3.48-1.44 3.48-1.44m-2.51-1.9h1.85" class="cls-26"/><ellipse cx="577.34" cy="340.34" class="cls-26" rx=".78" ry=".73"/><ellipse cx="350.96" cy="409.65" class="cls-1" rx="5.14" ry="4.8"/><path d="M350.04 407.24v2.4h3.05l1.05 1.95.8-.38" class="cls-26"/><path d="M349.25 409.18s-1.95 1.71-.18 3.08c2.19 1.71 3.48-1.44 3.48-1.44m-2.51-1.93h1.84" class="cls-26"/><ellipse cx="350.18" cy="406.49" class="cls-26" rx=".78" ry=".73"/><ellipse cx="322.05" cy="401.95" class="cls-1" rx="5.14" ry="4.8"/><path d="M321.13 399.54v2.4h3.06l1.04 1.95.81-.38" class="cls-26"/><path d="M320.35 401.48s-2 1.71-.18 3.08c2.19 1.71 3.47-1.43 3.47-1.43m-2.51-1.94h1.85" class="cls-26"/><ellipse cx="321.27" cy="398.79" class="cls-26" rx=".78" ry=".73"/><ellipse cx="239.7" cy="374.46" class="cls-1" rx="5.14" ry="4.8"/><path d="M238.78 372.05v2.4h3.06l1.04 1.95.81-.38" class="cls-26"/><path d="M238 374s-1.94 1.71-.17 3.08c2.19 1.71 3.47-1.44 3.47-1.44m-2.52-1.94h1.85" class="cls-26"/><ellipse cx="238.92" cy="371.3" class="cls-26" rx=".78" ry=".73"/><ellipse cx="210.45" cy="391.76" class="cls-1" rx="5.14" ry="4.8"/><path d="M209.53 389.36v2.4h3.05l1.05 1.95.8-.38" class="cls-26"/><path d="M208.74 391.3s-2 1.71-.18 3.08c2.19 1.7 3.48-1.44 3.48-1.44m-2.51-1.93h1.85" class="cls-26"/><ellipse cx="209.67" cy="388.61" class="cls-26" rx=".78" ry=".73"/><ellipse cx="184.86" cy="365.3" class="cls-1" rx="5.14" ry="4.8"/><path d="M183.94 362.89v2.4h3.05l1.05 1.95.8-.38" class="cls-26"/><path d="M183.15 364.83s-2 1.71-.18 3.08c2.19 1.71 3.48-1.44 3.48-1.44m-2.51-1.93h1.85" class="cls-26"/><ellipse cx="184.08" cy="362.14" class="cls-26" rx=".78" ry=".73"/><ellipse cx="47.5" cy="345.65" class="cls-1" rx="5.14" ry="4.8"/><path d="M46.58 343.24v2.4h3.06l1.05 1.95.8-.38" class="cls-26"/><path d="M45.8 345.18s-1.95 1.71-.18 3.08c2.19 1.71 3.48-1.44 3.48-1.44m-2.52-1.93h1.85" class="cls-26"/><ellipse cx="46.73" cy="342.49" class="cls-26" rx=".78" ry=".73"/><ellipse cx="51.77" cy="222.53" class="cls-1" rx="5.14" ry="4.8"/><path d="M50.85 220.12v2.4h3.06l1.04 1.95.81-.38" class="cls-26"/><path d="M50.06 222.06s-1.94 1.71-.18 3.08c2.2 1.71 3.48-1.43 3.48-1.43m-2.51-1.94h1.85" class="cls-26"/><ellipse cx="50.99" cy="219.37" class="cls-26" rx=".78" ry=".73"/><ellipse cx="191.82" cy="236.18" class="cls-1" rx="5.14" ry="4.8"/><path d="M190.9 233.78v2.4h3.05l1.05 1.95.8-.38" class="cls-26"/><path d="M190.11 235.72s-2 1.71-.18 3.08c2.19 1.7 3.48-1.44 3.48-1.44m-2.51-1.93h1.84" class="cls-26"/><ellipse cx="191.04" cy="233.03" class="cls-26" rx=".78" ry=".73"/><ellipse cx="354.94" cy="208.59" class="cls-1" rx="5.14" ry="4.8"/><path d="M354.02 206.18v2.4h3.05l1.05 1.95.81-.38" class="cls-26"/><path d="M353.23 208.12s-1.94 1.71-.17 3.08c2.19 1.71 3.47-1.43 3.47-1.43m-2.51-1.94h1.85" class="cls-26"/><ellipse cx="354.16" cy="205.43" class="cls-26" rx=".78" ry=".73"/><ellipse cx="402.92" cy="203.79" class="cls-1" rx="5.14" ry="4.8"/><path d="M402 201.38v2.4h3.06l1.04 1.95.81-.37" class="cls-26"/><path d="M401.22 203.32s-2 1.71-.18 3.09c2.19 1.7 3.48-1.44 3.48-1.44m-2.52-1.94h1.85" class="cls-26"/><ellipse cx="402.14" cy="200.64" class="cls-26" rx=".78" ry=".73"/><ellipse cx="453.31" cy="168" class="cls-1" rx="5.14" ry="4.8"/><path d="M452.39 165.6v2.4h3.05l1.05 1.95.8-.38" class="cls-26"/><path d="M451.6 167.54s-2 1.71-.18 3.08c2.19 1.7 3.48-1.44 3.48-1.44m-2.51-1.93h1.85" class="cls-26"/><ellipse cx="452.53" cy="164.85" class="cls-26" rx=".78" ry=".73"/><ellipse cx="501.73" cy="77.08" class="cls-1" rx="5.14" ry="4.8"/><path d="M500.81 74.67v2.41h3.05l1.05 1.94.8-.37" class="cls-26"/><path d="M500 76.61s-1.95 1.71-.18 3.09c2.19 1.7 3.48-1.44 3.48-1.44m-2.49-1.94h1.85" class="cls-26"/><ellipse cx="500.95" cy="73.93" class="cls-26" rx=".78" ry=".73"/><path d="M405.35 388.35c-8.86 2.18-5.57 11.58-10.72 13.42a10.23 10.23 0 0 0 9.21-3.3c2.82-3.29 3.16-7.69 1.51-10.12z"/><path d="M395.8 387.74h-10a.39.39 0 0 0-.39.39v.31a.4.4 0 0 0 .39.39h7.49a1.09 1.09 0 0 1 .06.36h-5.28a.38.38 0 0 0-.39.39v.3a.38.38 0 0 0 .39.39h5.08a8.8 8.8 0 0 0-.42.64h-3a.38.38 0 0 0-.39.39v.3a.38.38 0 0 0 .39.39h2.44a10.78 10.78 0 0 0-.86 3.83h-3.41a.38.38 0 0 0-.39.39v.31a.39.39 0 0 0 .39.39h3.41c0 .18 0 .36.05.54h-1.63a.39.39 0 0 0-.39.39v.31a.39.39 0 0 0 .39.39h1.48a1.31 1.31 0 0 1-.06.77h-4.6a.39.39 0 0 0-.39.39v.3a.38.38 0 0 0 .39.39h5.75a2.63 2.63 0 0 0 .6.67 3.26 3.26 0 0 0 .64.37c5.76-1.27 2.8-11.38 11.05-13.86-2.49-2.03-5.95-1.75-8.79.17z"/><text class="cls-27" transform="translate(393.95 399.36)">6</text><circle cx="388.57" cy="340.12" r="6.4" class="cls-28"/><path d="M389.64 339.08l2 .03" class="cls-29"/><path d="M396.8 339.18l7.74.11" class="cls-30"/><path d="M407.13 339.33l2 .02.18-1.99" class="cls-29"/><path d="M409.71 333.21l1.15-12.08 33.77-28.46" class="cls-31"/><path d="M446.23 291.32l1.52-1.28-.89-1.79" class="cls-29"/><path d="M445.13 284.76l-16.46-33.07-3.42-7.01" class="cls-32"/><path d="M424.4 242.93l-.87-1.8.82-1.82" class="cls-29"/><path d="M425.94 235.81l30.89-68.12" class="cls-33"/><path d="M457.63 165.94l.82-1.82 2 .1" class="cls-29"/><path d="M464.28 164.4l21.1 1.01" class="cls-34"/><path d="M487.3 165.5l2 .1v-2" class="cls-29"/><path d="M489.29 161.19v-3.62" class="cls-35"/><path d="M489.3 156.37v-2h2" class="cls-29"/><path d="M494.46 154.37h11.06" class="cls-36"/><path d="M507.1 154.37h2" class="cls-29"/><rect width="2.24" height="1.26" x="489.69" y="149.02" rx=".51"/><rect width="3.08" height="1.26" x="491.09" y="158.59" rx=".51"/><path d="M514.15 148c-10.27 2.54-6.46 13.42-12.42 15.55a11.85 11.85 0 0 0 10.67-3.82c3.26-3.73 3.6-8.86 1.75-11.73z"/><path d="M503.08 147.34h-11.57a.45.45 0 0 0-.45.45v.36a.45.45 0 0 0 .45.45h8.67a1.23 1.23 0 0 1 .07.42h-6.12a.45.45 0 0 0-.45.45v.36a.45.45 0 0 0 .45.45H500c-.17.24-.33.48-.48.73h-3.47a.45.45 0 0 0-.45.45v.36a.45.45 0 0 0 .45.45h2.83a12.42 12.42 0 0 0-1 4.43h-3.95a.45.45 0 0 0-.45.45v.36a.45.45 0 0 0 .45.45h4c0 .21 0 .42.05.63h-1.89a.45.45 0 0 0-.45.45v.36a.45.45 0 0 0 .45.45h1.72a1.59 1.59 0 0 1-.07.9h-5.33a.45.45 0 0 0-.45.45v.36a.45.45 0 0 0 .45.45H499a2.92 2.92 0 0 0 .7.77 3.51 3.51 0 0 0 .74.43c6.68-1.47 3.24-13.19 12.8-16.05-2.86-2.37-6.86-2.04-10.16.18z"/><text class="cls-24" transform="translate(502.17 160.84)">7</text></svg>