<svg xmlns="http://www.w3.org/2000/svg" width="256" height="256" viewBox="0 0 256 256"><path fill="#fff" d="M128 2.6A125.4 125.4 0 1 0 253.4 128 125.3 125.3 0 0 0 128 2.6zm0 235.1A109.7 109.7 0 1 1 237.7 128 109.7 109.7 0 0 1 128 237.7z"/><path fill="#fff" d="M94.1 174.1l1.4-1c1.5-1.2 2.8-1.1 4 .5 3.2 4.2 11.2 12.1 25.5 12.1 18.3 0 32.6-13.2 32.6-30.8s-14.3-31.1-32.6-31.1a42.1 42.1 0 0 0-21 5.9 4.8 4.8 0 0 1-3.8.5l-1.1-.3c-1.5-.5-2.1-1.7-2-3.4l6.1-50.7c.1-1.9 1.2-2.7 3-2.7h49.1a2.6 2.6 0 0 1 2.8 2.9v1a2.5 2.5 0 0 1-2.8 2.8h-45.4l-4.2 35.1a52.4 52.4 0 0 1-1.2 7.2h.4a40.1 40.1 0 0 1 20.1-5.3c22.5 0 40.2 16.9 40.2 38.1s-18 37.8-40.2 37.8a40.1 40.1 0 0 1-31.4-14.6 2.6 2.6 0 0 1 .5-4z"/></svg>