<svg xmlns="http://www.w3.org/2000/svg" width="32" height="32" viewBox="0 0 32 32"><path fill="#956957" d="M29.9 8.1c-12.2 3.1-7.7 16-14.8 18.6a14.1 14.1 0 0 0 12.7-4.6c3.9-4.5 4.3-10.6 2.1-14z"/><rect width="2.7" height="1.5" x=".7" y="9.3" fill="#632918" rx=".8"/><rect width="3.7" height="1.5" x="2.4" y="20.7" fill="#632918" rx=".8"/><path fill="#632918" d="M16.7 7.3H2.9a.5.5 0 0 0-.5.5v.5a.5.5 0 0 0 .5.5h10.4v.5H6a.5.5 0 0 0-.5.5v.5a.5.5 0 0 0 .5.5h7.1a4.7 4.7 0 0 0-.6.9H8.3a.5.5 0 0 0-.5.5v.4a.6.6 0 0 0 .5.6h3.4a16.3 16.3 0 0 0-1.2 5.3H5.8a.5.5 0 0 0-.5.5v.4a.6.6 0 0 0 .5.6h4.7c0 .2.1.5.1.7H8.3a.6.6 0 0 0-.5.6v.4a.5.5 0 0 0 .5.5h2.1a2.2 2.2 0 0 1-.1 1.1H3.9a.5.5 0 0 0-.5.5v.5a.5.5 0 0 0 .5.5h8a2.4 2.4 0 0 0 .8.9l.9.5c8-1.7 3.9-15.7 15.3-19.1-3.5-2.8-8.2-2.5-12.2.2z"/></svg>