<svg xmlns="http://www.w3.org/2000/svg" width="256" height="256" viewBox="0 0 256 256"><path fill="#632918" d="M97.6 203.1a20.1 20.1 0 0 1 7.2 9 33.3 33.3 0 0 1 0 25.3 20.1 20.1 0 0 1-7.2 9 19.7 19.7 0 0 1-11.5 3.3H68.6a3.3 3.3 0 0 1-2.5-1 3.7 3.7 0 0 1-1-2.4v-43.2a3.7 3.7 0 0 1 1-2.4 3.7 3.7 0 0 1 2.5-1h17.5a19.1 19.1 0 0 1 11.5 3.4zm-1.3 34.8c2.5-3.4 3.7-7.8 3.7-13.2a22.8 22.8 0 0 0-3.7-13.2c-2.5-3.5-6.1-5.2-10.9-5.2H72.2v36.8h13.2c4.9 0 8.5-1.7 10.9-5.2zm48-34.8a20.1 20.1 0 0 1 7.2 9 33.3 33.3 0 0 1 0 25.3 20.1 20.1 0 0 1-7.2 9 19.7 19.7 0 0 1-11.5 3.3h-17.5a3.3 3.3 0 0 1-2.5-1 3.7 3.7 0 0 1-1-2.4v-43.2a3.7 3.7 0 0 1 1-2.4 3.7 3.7 0 0 1 2.5-1h17.5a19.1 19.1 0 0 1 11.5 3.4zm-1.3 34.8c2.5-3.4 3.7-7.8 3.7-13.2a22.8 22.8 0 0 0-3.7-13.2c-2.5-3.5-6.1-5.2-10.9-5.2h-13.2v36.8h13.2c4.9 0 8.5-1.7 10.9-5.2zm48.2-34.8a20.1 20.1 0 0 1 7.2 9 34.5 34.5 0 0 1 0 25.3 20.1 20.1 0 0 1-7.2 9 19.7 19.7 0 0 1-11.5 3.3h-17.6a3.4 3.4 0 0 1-3.4-3.4v-43.2a3.3 3.3 0 0 1 1-2.4 3.7 3.7 0 0 1 2.4-1h17.6a19.1 19.1 0 0 1 11.5 3.4zm-1.3 34.8q3.6-5.1 3.6-13.2t-3.6-13.2c-2.5-3.5-6.1-5.2-10.9-5.2h-13.2v36.8H179c4.8 0 8.5-1.7 10.9-5.2z"/><path fill="#956957" d="M242.2 31C141.7 55.8 179 162.3 120.6 183.1c29.4 5.8 75.9-3.7 104.5-37.3C257 108.4 260.4 58.6 242.2 31z"/><rect width="21.9" height="12.33" x="2.8" y="40.5" fill="#632918" rx="6.2"/><rect width="30.1" height="12.33" x="16.5" y="134.2" fill="#632918" rx="6.2"/><path fill="#632918" d="M133.9 24.1H20.6a4.4 4.4 0 0 0-4.4 4.4V32a4.4 4.4 0 0 0 4.4 4.4h84.9a12.2 12.2 0 0 1 .7 4.1H46.3a4.4 4.4 0 0 0-4.4 4.5v3.4a4.4 4.4 0 0 0 4.4 4.5h57.6c-1.7 2.3-3.3 4.7-4.8 7.1H65.2a4.4 4.4 0 0 0-4.4 4.4v3.5a4.4 4.4 0 0 0 4.4 4.4h27.6a123.3 123.3 0 0 0-9.7 43.4H44.4a4.4 4.4 0 0 0-4.4 4.4v3.5a4.4 4.4 0 0 0 4.4 4.4h38.8c.1 2.1.3 4.2.5 6.2H65.2a4.4 4.4 0 0 0-4.4 4.4v3.5a4.4 4.4 0 0 0 4.4 4.4H82c.4 2.3.7 5.9-.7 8.8H29.2a4.5 4.5 0 0 0-4.5 4.5v3.4a4.5 4.5 0 0 0 4.5 4.5h65.1a32 32 0 0 0 6.9 7.6 34.9 34.9 0 0 0 7.2 4.1c65.4-14.3 31.7-129 125.3-157.1-28.4-23.1-67.5-20-99.8 1.8z"/></svg>