<svg xmlns="http://www.w3.org/2000/svg" width="64" height="64" viewBox="0 0 64 64"><path fill="#956957" d="M60.2 15c-24.8 6.2-15.6 32.5-30 37.6 7.2 1.5 18.7-.9 25.8-9.2s8.7-21.5 4.2-28.4z"/><rect width="5.4" height="3.05" x="1.1" y="17.4" fill="#632918" rx="1.5"/><rect width="7.4" height="3.05" x="4.5" y="40.5" fill="#632918" rx="1.5"/><path fill="#632918" d="M33.5 13.3h-28a1 1 0 0 0-1.1 1.1v.9a1 1 0 0 0 1.1 1.1h20.9a1.8 1.8 0 0 1 .2 1H11.8a1.1 1.1 0 0 0-1.1 1.1v.8a1.1 1.1 0 0 0 1.1 1.1H26a17.4 17.4 0 0 0-1.1 1.8h-8.4a1.1 1.1 0 0 0-1.1 1.1v.9a1 1 0 0 0 1.1 1h6.8A30.1 30.1 0 0 0 20.9 36h-9.6a1.1 1.1 0 0 0-1.1 1.1v.8a1.1 1.1 0 0 0 1.1 1.1h9.6c0 .5.1 1 .1 1.5h-4.5a1.1 1.1 0 0 0-1.1 1.1v.9a1.1 1.1 0 0 0 1.1 1.1h4.1a3.5 3.5 0 0 1-.2 2.2H7.6a1.1 1.1 0 0 0-1.1 1.1v.8a1.1 1.1 0 0 0 1.1 1.1h16.1a7.9 7.9 0 0 0 1.7 1.9 9.5 9.5 0 0 0 1.7 1c16.2-3.5 7.9-31.9 31-38.8-7-5.7-16.7-5-24.6.4z"/></svg>