<svg id="Layer_1" data-name="Layer 1" xmlns="http://www.w3.org/2000/svg" width="256" height="256" viewBox="0 0 256 256"><title>marketplace</title><path d="M128,2.6A125.4,125.4,0,1,0,253.4,128,125.3,125.3,0,0,0,128,2.6Zm0,235.1A109.7,109.7,0,1,1,237.7,128,109.7,109.7,0,0,1,128,237.7Z" fill="#fff"/><path d="M51.6,186.8a2.5,2.5,0,0,1,2.8-2.8H78.3V88.2c0-3,.2-5.9.2-5.9h-.4s-1.1,2.2-6.2,7.3L60,101.5c-1.4,1.3-2.7,1.3-4,0l-.9-.9c-1.5-1.3-1.5-2.6-.2-4l21.9-22a4.9,4.9,0,0,1,3.5-1.5h2.4A2.6,2.6,0,0,1,85.5,76V184h23.2a2.6,2.6,0,0,1,2.9,2.8v1a2.6,2.6,0,0,1-2.9,2.9H54.4a2.6,2.6,0,0,1-2.8-2.9Z" fill="#fff"/><path d="M127.5,131.9c0-33.9,9.8-60.8,39.7-60.8s39.6,26.9,39.6,60.8-9.7,60.8-39.6,60.8S127.5,166,127.5,131.9Zm71.8,0c0-30.2-7.1-53.8-32.1-53.8s-32.1,23.6-32.1,53.8,7,53.8,32.1,53.8S199.3,162.3,199.3,131.9Z" fill="#fff"/></svg>