<svg xmlns="http://www.w3.org/2000/svg" width="256" height="256" viewBox="0 0 256 256"><path fill="#fff" d="M128 2.6A125.4 125.4 0 1 0 253.4 128 125.3 125.3 0 0 0 128 2.6zm0 235.1A109.7 109.7 0 1 1 237.7 128 109.7 109.7 0 0 1 128 237.7z"/><path fill="#fff" d="M56.6 186.8a2.6 2.6 0 0 1 2.9-2.8h23.8V88.2c0-3 .2-5.9.2-5.9h-.3S82 84.5 77 89.6l-12 11.9a2.5 2.5 0 0 1-4 0l-.9-.9c-1.5-1.3-1.5-2.6-.1-4l21.8-22a4.9 4.9 0 0 1 3.5-1.5h2.4a2.6 2.6 0 0 1 2.9 2.9v108h23.1a2.6 2.6 0 0 1 2.9 2.8v1a2.6 2.6 0 0 1-2.9 2.9H59.5a2.6 2.6 0 0 1-2.9-2.9zm72.6-12.4l1.3-1.3c1.4-1.4 2.7-1.2 4.1 0 4.2 4 14.8 12.6 29.5 12.6s29.4-11.6 29.4-28.9-15.4-28.1-31.4-28.1h-5.7a3.1 3.1 0 0 1-3.2-2.2l-.3-.7a3.4 3.4 0 0 1 .7-3.8L185 85.2a56.8 56.8 0 0 1 5.2-5.4v-.3s-3.2.3-9.1.3h-45.4a2.5 2.5 0 0 1-2.8-2.8v-1a2.6 2.6 0 0 1 2.8-2.9h61.7c1.9 0 2.9.8 2.9 2.5v.5a4.5 4.5 0 0 1-1.4 3.5L162.3 122c14.1 0 38.8 7 38.8 34.8 0 20.1-17 35.9-37.3 35.9-17.5 0-29.9-9.9-34.6-14.3a2.5 2.5 0 0 1 0-4z"/></svg>