<svg id="Layer_1" data-name="Layer 1" xmlns="http://www.w3.org/2000/svg" width="256" height="256" viewBox="0 0 256 256"><title>portable feast</title><path d="M128,2.6A125.4,125.4,0,1,0,253.4,128,125.3,125.3,0,0,0,128,2.6Zm0,235.1A109.7,109.7,0,1,1,237.7,128,109.7,109.7,0,0,1,128,237.7Z" fill="#fff"/><path d="M56.6,186.8a2.6,2.6,0,0,1,2.9-2.8H83.3V88.2c0-3,.2-5.9.2-5.9h-.3S82,84.5,77,89.6L65,101.5a2.5,2.5,0,0,1-4,0l-.9-.9c-1.5-1.3-1.5-2.6-.1-4l21.8-22a4.9,4.9,0,0,1,3.5-1.5h2.4A2.6,2.6,0,0,1,90.6,76V184h23.1a2.6,2.6,0,0,1,2.9,2.8v1a2.6,2.6,0,0,1-2.9,2.9H59.5a2.6,2.6,0,0,1-2.9-2.9Z" fill="#fff"/><path d="M129.2,174.4l1.3-1.3c1.4-1.4,2.7-1.2,4.1,0,4.2,4,14.8,12.6,29.5,12.6s29.4-11.6,29.4-28.9-15.4-28.1-31.4-28.1h-5.7a3.1,3.1,0,0,1-3.2-2.2l-.3-.7a3.4,3.4,0,0,1,.7-3.8L185,85.2a56.8,56.8,0,0,1,5.2-5.4v-.3s-3.2.3-9.1.3H135.7a2.5,2.5,0,0,1-2.8-2.8V76a2.6,2.6,0,0,1,2.8-2.9h61.7c1.9,0,2.9.8,2.9,2.5v.5a4.5,4.5,0,0,1-1.4,3.5L162.3,122c14.1,0,38.8,7,38.8,34.8,0,20.1-17,35.9-37.3,35.9-17.5,0-29.9-9.9-34.6-14.3A2.5,2.5,0,0,1,129.2,174.4Z" fill="#fff"/></svg>