<svg xmlns="http://www.w3.org/2000/svg" id="Layer_1" width="906.84" height="628.93" viewBox="0 0 906.84 628.93"><defs><style>.cls-1{fill:#2668ad}.cls-2,.cls-26,.cls-29,.cls-3,.cls-30,.cls-31,.cls-32{fill:none}.cls-2,.cls-26{stroke:#fdfefe}.cls-2,.cls-26,.cls-29,.cls-3,.cls-30,.cls-31,.cls-32,.cls-4,.cls-5,.cls-6{stroke-miterlimit:10}.cls-2{stroke-width:.26px}.cls-3{stroke:#fff}.cls-24,.cls-27,.cls-4,.cls-6{fill:#fff}.cls-4,.cls-5,.cls-6{stroke:#515354}.cls-4{stroke-width:2px}.cls-5{fill:#d8e6ea}.cls-5,.cls-6{stroke-width:.75px}.cls-7{font-size:15px;fill:#515354}.cls-24,.cls-27,.cls-7{font-family:MyriadPro-Regular,Myriad Pro}.cls-8{letter-spacing:0}.cls-9{letter-spacing:-.01em}.cls-10{letter-spacing:-.03em}.cls-11{letter-spacing:-.01em}.cls-12{letter-spacing:0}.cls-13{letter-spacing:.02em}.cls-14{letter-spacing:-.01em}.cls-15{letter-spacing:-.04em}.cls-16{letter-spacing:-.01em}.cls-17{letter-spacing:.01em}.cls-18{letter-spacing:0}.cls-19,.cls-20{letter-spacing:-.01em}.cls-21{letter-spacing:-.02em}.cls-22{letter-spacing:0}.cls-23{letter-spacing:-.03em}.cls-24{font-size:18.57px}.cls-25{fill:#150c0a}.cls-26{stroke-width:.44px}.cls-27{font-size:17.81px}.cls-28{fill:#f05455}.cls-29,.cls-30,.cls-31,.cls-32{stroke:#f05455}.cls-30{stroke-dasharray:3.79 3.79}.cls-31{stroke-dasharray:4.15 4.15}.cls-32{stroke-dasharray:4.21 4.21}</style></defs><ellipse cx="568.59" cy="626.07" class="cls-1" rx="3.01" ry="2.8"/><path d="M568.05 624.66v1.41h1.79l.61 1.14.47-.22" class="cls-2"/><path d="M567.59 625.8s-1.14 1-.1 1.8c1.28 1 2-.84 2-.84m-1.44-1.13h1.08" class="cls-2"/><ellipse cx="568.13" cy="624.23" class="cls-2" rx=".46" ry=".43"/><path d="M32.68 207.7L21.93 344.55l14.34 1.26v-3.48l8.73 1.58v3.16h11.06l3.16-27.49 2.85.63 4.42-20.54 54.04 5.06 2.85-.32v-4.42l-57.2-5.28 5.58-64.21-4.21-29.51-34.87 6.71zm2.75 72.98v-73.51" class="cls-3"/><path d="M29.4 298.57l-.77 5.99h3.23v-5.22l-2.46-.77z" class="cls-3"/><path d="M25.63 297.41l13.9 1.09v2.15l-7.67-.31m-6.87 5.22l10.44-1.23v2.15h7.33l-.92 7.37h4.29l-1.07 17.96 12.57 1.67" class="cls-3"/><path d="M95 159.16s224.81 16.22 256.4-47.32S484.81 29.36 538 42.88 610.17-.38 630.45 1s62.2-13.52 47.33 121.68c0 0 0 42.92 58.14 38.36s175.76-37.56 166.3 30.32-12 113.85.54 157.12S834.62 414.7 760.25 389s-187.93 2.7-204.16 23-60.26 46-198.46 32.44-191.46 12.17-191.46 12.17-129.11 46-121-33.8S-91.55 197 95 159.16z" class="cls-4"/><path d="M571 105.32l4.72-31.93-49.91-1.29-1.72 6 3.43.43-.64 7.5-2.79.43v14.15h-5.36v63.23l-74.8-2.79 1.71-64.94h2.15l.21-28.72s-1.71-2.79-.64-4.72 5.57 0 5.57 0l1.5-2.57 30.44 1.71v-3.43l96.45 1.93v5.15l9.64.43-6 38.58-7.07-.86-1.07 2.39z" class="cls-5"/><path d="M511.58 79.73l-14.15-1.28v-4.08l-16.73-1.28-1.93 4.5-16.94-1.18V95.6h-3.43v54.04l45.24 1.5 2.15-39.03 4.5-1.07 1.29-31.31z" class="cls-6"/><path d="M530.95 130.17v20.08l30.63.89v-20.46l-30.63-.51zm-129.82-.32v31.67l13.68-.26v-2.59l16.82.37v-29.19h-10.91l-.55-3.15h-2.22l-.18 3.33h-4.25v-3.33h-2.78l-.18 3.33-9.43-.18zm-16.72 58.86S404.6 206 426 215.56l-13.79 30.05 16.25 38.67h-3.94l1 19.21h-34v6.41H381.2v-18.72l3.7.88-.49-23.79-7.89 3.45v2.71l-6.4-.25v45h-47.51l-.4 15h-2.58V316h-4.5v-9.9h4.23v-20.5h-4.23v-9.74h4v-2.76h-18.52v-2.21h15.81v-4.32h3.3v-35.66l3.22-2.3-.18-7.17h3.77s11-13.05 26.19-13.33l13 7.26v6.07h3.59v10h2.29V255h2.49v5.24l7.53-3.68v-2.39h3.22z" class="cls-5"/><path d="M291.65 240.96v-25.94h-16.34v23.41h6.23v3.04h-10.87v27.79h-5.22v-16.34h1.1v-1.51h-1.1v-2.78h1.52v-2.62h-2.03v-7.32h1.94v-7.67h-1.94v-5.31h2.36v-7.66h-1.93v-12.72h28.05v-25.27h-58.04v40.6h-4.8v-5.64h-10.11v-4.64h9.69v-31.25h-22.75v31.08h10.11v4.64h-10.11v5.72h-4.8v-38.32h-17.18v31h-21.15v53.43h11.04v33.43h25.83v2.3h3.87v1.14h1.18v-4.6h-1.74v-6.52h-2.3v-5.86h45.8v8.02h-1.83v4.06h1.15v3.38h-2.22v31.12h2.71v10.63h-30.25v-11.32H201.9l-.22-25.58h9.84v-2.94h-38.59v-9.96h-3.96v-3.52h-22.98v-4.29h-22.18v16.41h5.77v12.56h11.89l-2.38 3.29 2.6 3.17 2.38-3.17v12.45h12.22l-2.6 2.94 2.6 1.92 2.83-2.37v12.33h12.45l-2.15 2.83 2.04 2.27 3.28-2.04v12.11h11.77v3.62h4.64v-3.39h3.28v3.39h16.53v-6.23h36.89v13.81h29.77v-28.86h-9.73v-4.64h83.35l1.8 6.93 3.31-.15h23.45v21.94h17.89v10.22h3.91v-9.92l7.97-3.45v-34.73l-7.52-2.55h-50.06l.15 7.36h-89.59v-1.8h31.87V302.8h-27.73v-3.61h14.65v-13.68h6.16v-12.92h12.78v-31.42l-8.63-.21zm-123 165.36l-3.69 7.01 8.98 4.92-1.97 3.57-15.25-7.75-3.69 7.75 11.93 6.39-1.48 3.57h-2.21l-4.55 9.1 21.03 11.2 5.29-9.47-9.72-5.29 1.85-3.57 14.88 7.01 4.06-7.13-9.84-5.29 1.97-3.94 1.6.74 3.81-6.77-23-12.05z" class="cls-5"/><path d="M223.93 398.05l-17.6-10.34s-8.59-6.18-3.76-14.91 40.43-4.29 40.43-4.29v15.57l-3.77-.13-.26-1.23h-15.58l-.4 10.09h1.34zm96.33-64.22v4.75h-1.32v6.2h1.32v55.77h6.33v1.84h4.75v-1.18h8.83v-61.84l-8.17-5.54h-11.74zm27.69 44.43v37.45h64.6v-37.97h-45.22v-1.85h-7.52v-2.64l-11.86 1.59-7.78-.13v3.42l7.78.13zm61.43-43.37v3.88h37.31v13.73h50.83l2 3.14h5.24v-2.93h4.82v1.36h30.92v2.83h33.33v-12.79h18.76v4.83h6.6v2.72h14.26v2.31h45.17v-12.58H638.5v-26.1h-38.57v2.73h-7.13v23.47h-16.77v-19.81h-39.52v2.31h-24.83v6.5h-1.79v2.83h-5.03v-2.41h-6.39v3.25h-44.02v-2.2H447v3.24l-37.62-.31zm404.83-45.12v28.17l17.73-1.16 7.79.5.99-14.58-3.31-.67.33-7.62-13.75-1.32-.34-2.59-9.44-.73zm17.07-83.67l-3.81-1v12.1l-7.79 3.81h-3.15l-2.32-2.82v-9.61l2.49-3.48 1.82-18.39h5.13l.17 3.98h5.63v9.78l-.99 1.98 2.82.17 1.16-6.3 44.73 4.31-3.81 61.97-45.89-3.31 3.81-53.19zM511.24 76.56V74s-4.12-2.07-1.55-6c0 0 1.89-2.06 3.61-1.2v-7.42m-4.45 44.66h8.92m-59.78 44.32h-6.35l-1.89-2.75h-6.01m-256.56 90.81h3.77v19.48h-16.39v12.62m26.57 18.38v-65.99m32.9 3.06h-32.9m28.18 7.08h-17.62v-7.08 11.01h-7.23v12.27h6.76m59.77.79h8.81v6.68h-8.81zm-8.18 26.89h8.18v7.71h-8.18zm24.54-2.04v-30.83h3.62m-10.23 44.04h-15.25v21.71h-2.68v2.51h16.99v-2.04h2.2v-5.98m-29.25.16v-15.57h-5.04m32.09 51.59v-3.46m-29.57 2.83h5.98v8.18h-5.98zm16.67 5.66h-10.06m-10.07 14.16v-14.16h3.46m-51.91 6.3h4.25v1.89h-4.25z" class="cls-5"/><path d="M193.6 360.97v-12.42h-1.57v-3.62h8.42v-12.11M190.3 318.5h6.92v-11.95h-11.8v1.57h-4.24v6.14h4.56l4.56 4.24z" class="cls-5"/><path d="M189.99 321.81l.31-3.31-4.56-4.24h-20.29v5.03l19.19 18.56h3.77v-16.51l1.58.47z" class="cls-5"/><path d="M172.37 303.72v3.46h-15.89l-1.57 1.57v7.08l3.77 4.56 6.77-1.1 4.95 4.79-.86 3.55 6.6 6.6h4.76l3.74 3.62v8.18l3.93 3.78 3.46-1.26 1.1 3.14h-4.87l-.13-1.88m4.58 7.86h-8.01m2.81 0h2.79v7.58h-2.79z" class="cls-5"/><path d="M170.81 351.69l-2.53-2.72 2.53-2.07v-9.05h6.17l4.2 4.8v6.32l-7.59-.49-2.78 3.21zm-14.55-14.72l-2.52-2.72 2.52-2.07v-9.05h6.18l4.19 4.8v6.32l-7.59-.49-2.78 3.21zm-15.1-14.59l-2.53-2.72 2.53-2.07v-9.05h6.17l4.2 4.8v6.32l-7.59-.49-2.78 3.21zm25.47-19.21v-8.79h5.38l.36 12.8h-5.74v-1.69l-2.1-.26v-2.32l2.1.26zm-6.45-3.23v-7.49h-7.92v8.33l7.92-.84zm-22.25-3.32v-8.18h-8.4v8.79l8.4-.61zm-14.59 3.57h6.2v3.52h-6.2zm49.32 118.23l11.94 6.65m-10.56 8.61l-11.13-5.51m8.95 9.29l-10.67-5.16m174.9-154.89V287h10.41v-10.25l-10.41.66zm-13.72-49.07v23.04h28.75v15.95h6.61v-17.02h4.63v-30.23h-7.44v-9.92h-7.76v9.09h-4.79v3.8h-7.61v4.79l-12.39.5zM327.66 342s-8.59-.16-5.78 14.21 5.78 12.89 5.78 12.89 7.27 1.2 7.43-13.53-7.43-13.57-7.43-13.57zm51.55-13.69v11.07h20.66v-6.28l1.11 1.11v-5.9m6.82 7.43v2.15m-57.5-2.15v2.15m11.07 41.14h5.12v5.12h-5.12zm15.03 1.16v22.8h17.02v8.1h3.97v-27.76h-3.64v-3.14H376.4zm68.74-44.45v3.64m62.79-1.49l-4.96-.33v8.1h-2.14v8.26h7.93l-.83-16.03zm.83-3.3v4.79m30.73-2.4v19.58h33.54v-14.04h-9.25v-6.78l-24.29 1.24z" class="cls-5"/><text class="cls-7" transform="translate(539.09 70.1)">R</text><text class="cls-7" transform="translate(461.03 73.1)">R</text><text class="cls-7" transform="translate(478.13 161.49)">R</text><text class="cls-7" transform="translate(540.32 146.21)">G</text><text class="cls-7" transform="translate(410.75 151.67)">F</text><text class="cls-7" transform="translate(391.56 256.57)">E</text><text class="cls-7" transform="translate(334.1 245.29)">H</text><text class="cls-7" transform="translate(329.73 304.94)">D</text><text class="cls-7" transform="translate(242.08 245.29)">A</text><text class="cls-7" transform="translate(256.44 364.95)">C</text><text class="cls-7" transform="translate(136.1 304.94)">B</text><text class="cls-7" transform="translate(209.66 383.32)">K</text><text class="cls-7" transform="translate(168.47 432.97)">M</text><text class="cls-7" transform="translate(325.46 359.5)">J</text><text class="cls-7" transform="translate(359.92 405.33)">T</text><text class="cls-7" transform="translate(515.59 345.68)">P</text><text class="cls-7" transform="translate(381.13 359.5)">N</text><text class="cls-7" transform="translate(606.88 340.95)">S</text><text class="cls-7" transform="translate(822.23 310.77)">V</text><text class="cls-7" transform="translate(817.5 209.03)">Z</text><path d="M38.83 205.56L28.09 342.4l14.33 1.27v-3.48l8.74 1.58v3.16h11.06l3.16-27.49 2.84.63 4.43-20.54 54.04 5.05 2.84-.31v-4.43l-57.2-5.28 5.59-64.2-4.22-29.51-34.87 6.71zm2.75 72.98v-73.51" class="cls-5"/><path d="M35.56 296.43l-.77 5.99h3.22v-5.22l-2.45-.77z" class="cls-5"/><path d="M31.79 295.26l13.9 1.1v2.14l-7.68-.3m-6.86 5.22l10.43-1.23v2.15h7.33l-.92 7.37h4.3l-1.07 17.96 12.56 1.67" class="cls-5"/><text class="cls-7" transform="translate(47.47 266.49)"><tspan class="cls-8">C</tspan><tspan x="8.76" y="0">A</tspan></text><text class="cls-7" transform="translate(716.73 478.27)">1.<tspan x="10.8" y="0" class="cls-9">T</tspan><tspan x="18.15" y="0">he </tspan><tspan x="37.17" y="0" class="cls-10">F</tspan><tspan x="44.08" y="0">ix</tspan><tspan x="0" y="18">2.</tspan><tspan x="10.8" y="18" class="cls-11">T</tspan><tspan x="18.07" y="18" class="cls-12">im Ho</tspan><tspan x="55.29" y="18" class="cls-13">r</tspan><tspan x="60.55" y="18" class="cls-14">t</tspan><tspan x="65.43" y="18">ons</tspan><tspan x="0" y="36">3.</tspan><tspan x="0" y="54">4.</tspan><tspan x="10.8" y="54" class="cls-15"> </tspan><tspan x="13.36" y="54" class="cls-16">T</tspan><tspan x="20.71" y="54">he </tspan><tspan x="39.73" y="54" class="cls-17">M</tspan><tspan x="51.88" y="54" class="cls-12">a</tspan><tspan x="59.11" y="54" class="cls-8">r</tspan><tspan x="64.08" y="54">ketpla</tspan><tspan x="102.9" y="54" class="cls-14">c</tspan><tspan x="109.53" y="54">e</tspan><tspan x="0" y="72">5. </tspan><tspan x="13.98" y="72" class="cls-18">S</tspan><tspan x="21.33" y="72">ta</tspan><tspan x="33.52" y="72" class="cls-8">r</tspan><tspan x="38.49" y="72">bucks</tspan><tspan x="0" y="90">6. Bits and </tspan><tspan x="66.9" y="90" class="cls-8">B</tspan><tspan x="75.09" y="90" class="cls-12">y</tspan><tspan x="82.15" y="90" class="cls-14">t</tspan><tspan x="87.03" y="90">es</tspan><tspan x="0" y="108">7. 35th </tspan><tspan x="45.84" y="108" class="cls-18">S</tspan><tspan x="53.19" y="108">t</tspan><tspan x="58.15" y="108" class="cls-19">r</tspan><tspan x="62.91" y="108" class="cls-12">eet </tspan><tspan x="86.08" y="108" class="cls-17">M</tspan><tspan x="98.23" y="108" class="cls-12">a</tspan><tspan x="105.46" y="108" class="cls-8">r</tspan><tspan x="110.43" y="108">ket </tspan><tspan x="133.12" y="108" class="cls-9">C</tspan><tspan x="141.72" y="108" class="cls-12">a</tspan><tspan x="148.95" y="108" class="cls-20">f</tspan><tspan x="153.13" y="108" class="cls-12">e</tspan></text><text class="cls-7" transform="translate(729.92 514.86)"><tspan class="cls-21">P</tspan><tspan x="7.61" y="0" class="cls-22">o</tspan><tspan x="15.84" y="0" class="cls-13">r</tspan><tspan x="21.1" y="0">table </tspan><tspan x="56.07" y="0" class="cls-23">F</tspan><tspan x="62.91" y="0">east</tspan></text><rect width="2.24" height="1.26" x="485.38" y="149.46" rx=".51"/><rect width="3.08" height="1.26" x="486.79" y="159.03" rx=".51"/><path d="M509.84 148.49c-10.26 2.51-6.45 13.41-12.42 15.51a11.88 11.88 0 0 0 10.68-3.81c3.26-3.79 3.6-8.88 1.74-11.7z"/><path d="M498.78 147.78H487.2a.45.45 0 0 0-.45.45v.36a.45.45 0 0 0 .45.45h8.67a1.25 1.25 0 0 1 .08.42h-6.12a.46.46 0 0 0-.46.45v.36a.46.46 0 0 0 .46.45h5.88c-.17.24-.33.48-.48.73h-3.47a.45.45 0 0 0-.45.45v.36a.45.45 0 0 0 .45.45h2.82a12.62 12.62 0 0 0-1 4.43h-3.95a.46.46 0 0 0-.46.45v.41a.46.46 0 0 0 .46.45h4a6.19 6.19 0 0 0 0 .63h-1.89a.45.45 0 0 0-.45.45v.36a.45.45 0 0 0 .45.45h1.72a1.51 1.51 0 0 1-.08.9h-5.32a.45.45 0 0 0-.45.45v.31a.45.45 0 0 0 .45.45h6.65a3.34 3.34 0 0 0 .7.78 3.49 3.49 0 0 0 .74.42c6.68-1.47 3.24-13.18 12.81-16.05-2.89-2.36-6.89-2.04-10.18.18z"/><text class="cls-24" transform="translate(497.86 161.28)">7</text><rect width="2.24" height="1.26" x="387.19" y="229.75" rx=".51"/><rect width="3.08" height="1.26" x="388.6" y="239.32" rx=".51"/><path d="M411.65 228.77c-10.26 2.54-6.45 13.42-12.42 15.55a11.89 11.89 0 0 0 10.68-3.81c3.25-3.82 3.59-8.91 1.74-11.74z"/><path d="M400.58 228.07H389a.45.45 0 0 0-.45.45v.36a.45.45 0 0 0 .45.45h8.67a1.23 1.23 0 0 1 .07.42h-6.12a.45.45 0 0 0-.45.45v.36a.45.45 0 0 0 .45.45h5.89a8.46 8.46 0 0 0-.49.73h-3.46a.46.46 0 0 0-.46.45v.36a.46.46 0 0 0 .46.45h2.82a12.86 12.86 0 0 0-1 4.43h-3.95a.45.45 0 0 0-.45.45v.36a.45.45 0 0 0 .45.45h4c0 .21 0 .42.05.63h-1.88a.46.46 0 0 0-.46.45v.36a.46.46 0 0 0 .46.45h1.71a1.59 1.59 0 0 1-.07.9h-5.33a.45.45 0 0 0-.45.45v.36a.45.45 0 0 0 .45.45h6.66a3.11 3.11 0 0 0 1.44 1.2c6.68-1.47 3.24-13.18 12.8-16.05-2.93-2.36-6.93-2.04-10.23.18z"/><text class="cls-24" transform="translate(399.67 241.57)">5</text><rect width="2.24" height="1.26" x="194.1" y="233.39" class="cls-25" rx=".51"/><rect width="3.08" height="1.26" x="195.51" y="242.96" class="cls-25" rx=".51"/><path d="M218.57 232.41c-10.27 2.59-6.46 13.42-12.43 15.59a11.88 11.88 0 0 0 10.68-3.81c3.26-3.86 3.6-8.95 1.75-11.78z"/><path d="M207.5 231.71h-11.58a.45.45 0 0 0-.45.45v.36a.45.45 0 0 0 .45.45h8.67a1 1 0 0 1 .08.42h-6.12a.45.45 0 0 0-.45.45v.36a.45.45 0 0 0 .45.45h5.88c-.17.24-.33.48-.48.73h-3.47a.45.45 0 0 0-.45.45v.36a.45.45 0 0 0 .45.45h2.82a12.62 12.62 0 0 0-1 4.43h-3.95a.45.45 0 0 0-.45.45v.36a.45.45 0 0 0 .45.45h4c0 .21 0 .42.05.63h-1.89a.45.45 0 0 0-.45.45v.36a.45.45 0 0 0 .45.45h1.72a1.51 1.51 0 0 1-.08.9h-5.35a.45.45 0 0 0-.45.45v.36a.45.45 0 0 0 .45.45h6.65a3.3 3.3 0 0 0 .7.77 3.34 3.34 0 0 0 .74.43c6.68-1.47 3.24-13.18 12.81-16.05-2.91-2.36-6.9-2.04-10.2.18z"/><text class="cls-24" transform="translate(206.58 245.21)">2</text><rect width="2.24" height="1.26" x="168.52" y="321.09" rx=".51"/><rect width="3.08" height="1.26" x="169.92" y="330.66" rx=".51"/><path d="M193 320.11c-10.27 2.54-6.46 13.42-12.42 15.55a11.85 11.85 0 0 0 10.67-3.82c3.24-3.84 3.58-8.9 1.75-11.73z"/><path d="M181.91 319.41h-11.57a.46.46 0 0 0-.46.45v.36a.46.46 0 0 0 .46.45H179a1.23 1.23 0 0 1 .07.42H173a.45.45 0 0 0-.45.45v.36a.45.45 0 0 0 .45.45h5.88c-.17.24-.33.48-.48.73h-3.47a.45.45 0 0 0-.45.45v.36a.45.45 0 0 0 .45.45h2.83a12.42 12.42 0 0 0-1 4.43h-3.95a.45.45 0 0 0-.45.45v.36a.45.45 0 0 0 .45.45h4c0 .21 0 .42.05.63h-1.89a.45.45 0 0 0-.45.45v.36a.45.45 0 0 0 .45.45h1.72a1.59 1.59 0 0 1-.07.9h-5.33a.45.45 0 0 0-.45.45v.36a.45.45 0 0 0 .45.45h6.66a2.92 2.92 0 0 0 .7.77 3.51 3.51 0 0 0 .74.43c6.67-1.47 3.24-13.19 12.8-16-2.98-2.42-6.98-2.09-10.28.13z"/><text class="cls-24" transform="translate(181 332.91)">3</text><rect width="2.24" height="1.26" x="28.09" y="266.27" rx=".51"/><rect width="3.08" height="1.26" x="29.49" y="275.84" rx=".51"/><path d="M52.55 265.3c-10.27 2.53-6.46 13.41-12.42 15.54A11.87 11.87 0 0 0 50.8 277c3.26-3.79 3.6-8.88 1.75-11.7z"/><path d="M41.48 264.59H29.91a.46.46 0 0 0-.46.45v.36a.46.46 0 0 0 .46.45h8.67a1.23 1.23 0 0 1 .07.42h-6.12a.45.45 0 0 0-.45.45v.36a.45.45 0 0 0 .45.45h5.88c-.17.24-.33.48-.48.73h-3.47a.45.45 0 0 0-.45.45v.36a.45.45 0 0 0 .45.45h2.83a12.42 12.42 0 0 0-1 4.43h-3.95a.45.45 0 0 0-.45.45v.36a.45.45 0 0 0 .45.45h4c0 .22 0 .43.05.63h-1.93a.45.45 0 0 0-.45.45v.36a.45.45 0 0 0 .45.45h1.72a1.51 1.51 0 0 1-.08.9h-5.32a.45.45 0 0 0-.45.45v.36a.45.45 0 0 0 .45.45h6.66a3.14 3.14 0 0 0 .7.78 3.67 3.67 0 0 0 .73.42c6.68-1.47 3.25-13.18 12.81-16-2.9-2.41-6.9-2.09-10.2.13z"/><text class="cls-24" transform="translate(40.57 278.09)">1</text><ellipse cx="394.63" cy="417.43" class="cls-1" rx="5.14" ry="4.8"/><path d="M393.71 415.02v2.4h3.05l1.05 1.95.8-.37" class="cls-26"/><path d="M392.92 417s-1.95 1.71-.18 3.09c2.19 1.7 3.48-1.44 3.48-1.44m-2.51-1.98h1.85" class="cls-26"/><ellipse cx="393.85" cy="414.28" class="cls-26" rx=".78" ry=".73"/><ellipse cx="406.41" cy="394.48" class="cls-1" rx="5.14" ry="4.8"/><path d="M405.49 392.07v2.4h3.06l1.05 1.95.8-.37" class="cls-26"/><path d="M404.71 394s-1.95 1.71-.18 3.09c2.19 1.7 3.48-1.44 3.48-1.44m-2.52-1.93h1.85" class="cls-26"/><ellipse cx="405.64" cy="391.33" class="cls-26" rx=".78" ry=".73"/><ellipse cx="398.61" cy="368.16" class="cls-1" rx="5.14" ry="4.8"/><path d="M397.69 365.76v2.39h3.06l1.04 1.96.81-.38" class="cls-26"/><path d="M396.91 367.7s-2 1.7-.18 3.08c2.19 1.7 3.48-1.44 3.48-1.44m-2.52-1.93h1.85" class="cls-26"/><ellipse cx="397.83" cy="365.01" class="cls-26" rx=".78" ry=".73"/><ellipse cx="440.79" cy="350.47" class="cls-1" rx="5.14" ry="4.8"/><path d="M439.87 348.07v2.4h3.06l1.04 1.95.81-.38" class="cls-26"/><path d="M439.09 350s-1.95 1.7-.18 3.08c2.19 1.7 3.48-1.44 3.48-1.44m-2.52-1.92h1.85" class="cls-26"/><ellipse cx="440.01" cy="347.32" class="cls-26" rx=".78" ry=".73"/><ellipse cx="464.45" cy="358.39" class="cls-1" rx="5.14" ry="4.8"/><path d="M463.53 355.99v2.39h3.05l1.05 1.95.8-.37" class="cls-26"/><path d="M462.74 357.92s-1.95 1.71-.18 3.09c2.19 1.7 3.48-1.44 3.48-1.44m-2.51-1.94h1.85" class="cls-26"/><ellipse cx="463.67" cy="355.24" class="cls-26" rx=".78" ry=".73"/><ellipse cx="440.79" cy="329.05" class="cls-1" rx="5.14" ry="4.8"/><path d="M439.87 326.65v2.4h3.06l1.04 1.95.81-.38" class="cls-26"/><path d="M439.09 328.58s-1.95 1.71-.18 3.09c2.19 1.7 3.48-1.44 3.48-1.44m-2.52-1.93h1.85" class="cls-26"/><ellipse cx="440.01" cy="325.9" class="cls-26" rx=".78" ry=".73"/><ellipse cx="386.9" cy="332.13" class="cls-1" rx="5.14" ry="4.8"/><path d="M385.98 329.72v2.4h3.05l1.05 1.95.8-.37" class="cls-26"/><path d="M385.19 331.66s-1.95 1.71-.18 3.09c2.19 1.7 3.48-1.44 3.48-1.44m-2.51-1.94h1.85" class="cls-26"/><ellipse cx="386.12" cy="328.98" class="cls-26" rx=".78" ry=".73"/><ellipse cx="551.41" cy="322.35" class="cls-1" rx="5.14" ry="4.8"/><path d="M550.49 319.94v2.4h3.05l1.05 1.95.8-.38" class="cls-26"/><path d="M549.7 321.88s-1.94 1.71-.18 3.08c2.19 1.71 3.48-1.43 3.48-1.43m-2.51-1.94h1.85" class="cls-26"/><ellipse cx="550.63" cy="319.19" class="cls-26" rx=".78" ry=".73"/><ellipse cx="621.88" cy="317.94" class="cls-1" rx="5.14" ry="4.8"/><path d="M620.97 315.53v2.4h3.05l1.05 1.95.8-.37" class="cls-26"/><path d="M620.18 317.47s-1.95 1.71-.18 3.09c2.19 1.7 3.48-1.44 3.48-1.44m-2.52-1.94h1.85" class="cls-26"/><ellipse cx="621.11" cy="314.79" class="cls-26" rx=".78" ry=".73"/><ellipse cx="809.07" cy="303.86" class="cls-1" rx="5.14" ry="4.8"/><path d="M808.15 301.45v2.4h3.05l1.05 1.95.8-.38" class="cls-26"/><path d="M807.36 303.39s-2 1.71-.18 3.08c2.19 1.71 3.48-1.44 3.48-1.44m-2.51-1.93H810" class="cls-26"/><ellipse cx="808.29" cy="300.7" class="cls-26" rx=".78" ry=".73"/><ellipse cx="573.81" cy="343.94" class="cls-1" rx="5.14" ry="4.8"/><path d="M572.89 341.53v2.4h3.06l1.04 1.95.81-.37" class="cls-26"/><path d="M572.11 343.47s-2 1.71-.18 3.09c2.19 1.7 3.48-1.44 3.48-1.44m-2.52-1.94h1.85" class="cls-26"/><ellipse cx="573.03" cy="340.79" class="cls-26" rx=".78" ry=".73"/><ellipse cx="346.65" cy="410.09" class="cls-1" rx="5.14" ry="4.8"/><path d="M345.73 407.68v2.4h3.06l1.04 1.95.8-.37" class="cls-26"/><path d="M345 409.62s-1.95 1.71-.18 3.09c2.19 1.7 3.47-1.44 3.47-1.44m-2.56-1.94h1.85" class="cls-26"/><ellipse cx="345.87" cy="406.94" class="cls-26" rx=".78" ry=".73"/><ellipse cx="317.75" cy="402.39" class="cls-1" rx="5.14" ry="4.8"/><path d="M316.83 399.99v2.39h3.05l1.05 1.95.8-.37" class="cls-26"/><path d="M316 401.92s-2 1.71-.18 3.09c2.19 1.7 3.48-1.44 3.48-1.44m-2.47-1.94h1.85" class="cls-26"/><ellipse cx="316.97" cy="399.24" class="cls-26" rx=".78" ry=".73"/><ellipse cx="235.4" cy="374.9" class="cls-1" rx="5.14" ry="4.8"/><path d="M234.47 372.49v2.4h3.06l1.05 1.95.8-.37" class="cls-26"/><path d="M233.69 374.43s-1.95 1.71-.18 3.09c2.19 1.7 3.48-1.44 3.48-1.44m-2.52-1.94h1.85" class="cls-26"/><ellipse cx="234.62" cy="371.75" class="cls-26" rx=".78" ry=".73"/><ellipse cx="206.14" cy="392.21" class="cls-1" rx="5.14" ry="4.8"/><path d="M205.22 389.8v2.4h3.06l1.04 1.95.81-.37" class="cls-26"/><path d="M204.44 391.74s-1.95 1.71-.18 3.09c2.19 1.7 3.48-1.44 3.48-1.44m-2.52-1.94h1.85" class="cls-26"/><ellipse cx="205.36" cy="389.05" class="cls-26" rx=".78" ry=".73"/><ellipse cx="180.55" cy="365.74" class="cls-1" rx="5.14" ry="4.8"/><path d="M179.63 363.33v2.4h3.06l1.04 1.95.81-.37" class="cls-26"/><path d="M178.85 365.27s-1.95 1.71-.18 3.09c2.19 1.7 3.47-1.44 3.47-1.44m-2.51-1.94h1.85" class="cls-26"/><ellipse cx="179.77" cy="362.59" class="cls-26" rx=".78" ry=".73"/><ellipse cx="43.2" cy="346.09" class="cls-1" rx="5.14" ry="4.8"/><path d="M42.28 343.68v2.4h3.06l1.04 1.95.8-.37" class="cls-26"/><path d="M41.49 345.62s-1.94 1.71-.18 3.09c2.19 1.7 3.48-1.44 3.48-1.44m-2.51-1.94h1.85" class="cls-26"/><ellipse cx="42.42" cy="342.94" class="cls-26" rx=".78" ry=".73"/><ellipse cx="47.47" cy="222.97" class="cls-1" rx="5.14" ry="4.8"/><path d="M46.55 220.56v2.4h3.05l1.05 1.95.8-.37" class="cls-26"/><path d="M45.76 222.5s-1.95 1.71-.18 3.09c2.19 1.7 3.48-1.44 3.48-1.44m-2.52-1.94h1.85" class="cls-26"/><ellipse cx="46.69" cy="219.82" class="cls-26" rx=".78" ry=".73"/><ellipse cx="187.51" cy="236.63" class="cls-1" rx="5.14" ry="4.8"/><path d="M186.59 234.22v2.4h3.06l1.04 1.95.81-.38" class="cls-26"/><path d="M185.81 236.16s-1.95 1.71-.18 3.08c2.19 1.71 3.47-1.43 3.47-1.43m-2.51-1.94h1.85" class="cls-26"/><ellipse cx="186.73" cy="233.47" class="cls-26" rx=".78" ry=".73"/><ellipse cx="350.64" cy="209.03" class="cls-1" rx="5.14" ry="4.8"/><path d="M349.71 206.62v2.4h3.06l1.05 1.95.8-.37" class="cls-26"/><path d="M348.93 208.56s-1.95 1.71-.18 3.09c2.19 1.7 3.48-1.44 3.48-1.44m-2.52-1.94h1.85" class="cls-26"/><ellipse cx="349.86" cy="205.88" class="cls-26" rx=".78" ry=".73"/><ellipse cx="398.62" cy="204.24" class="cls-1" rx="5.14" ry="4.8"/><path d="M397.7 201.83v2.4h3.05l1.05 1.95.8-.38" class="cls-26"/><path d="M396.91 203.77s-2 1.71-.18 3.08c2.19 1.71 3.48-1.44 3.48-1.44m-2.51-1.93h1.85" class="cls-26"/><ellipse cx="397.84" cy="201.08" class="cls-26" rx=".78" ry=".73"/><ellipse cx="449" cy="168.45" class="cls-1" rx="5.14" ry="4.8"/><path d="M448.08 166.04v2.4h3.06l1.04 1.95.81-.38" class="cls-26"/><path d="M447.3 168s-1.95 1.71-.18 3.08c2.19 1.71 3.48-1.43 3.48-1.43m-2.52-1.96h1.85" class="cls-26"/><ellipse cx="448.22" cy="165.29" class="cls-26" rx=".78" ry=".73"/><ellipse cx="497.42" cy="77.53" class="cls-1" rx="5.14" ry="4.8"/><path d="M496.5 75.12v2.4h3.06l1.04 1.95.81-.38" class="cls-26"/><path d="M495.72 77.06s-2 1.71-.18 3.08c2.19 1.71 3.47-1.44 3.47-1.44m-2.51-1.93h1.85" class="cls-26"/><ellipse cx="496.64" cy="74.37" class="cls-26" rx=".78" ry=".73"/><path d="M401.05 388.79c-8.87 2.19-5.58 11.58-10.73 13.42a10.27 10.27 0 0 0 9.22-3.29c2.81-3.3 3.11-7.69 1.51-10.13z"/><path d="M391.49 388.18h-10a.39.39 0 0 0-.39.39v.31a.39.39 0 0 0 .39.39H389a.92.92 0 0 1 .07.36h-5.29a.4.4 0 0 0-.39.39v.31a.4.4 0 0 0 .39.39h5.08c-.15.2-.28.42-.41.63h-3a.4.4 0 0 0-.39.39v.31a.4.4 0 0 0 .39.39h2.44a10.73 10.73 0 0 0-.86 3.82h-3.43a.4.4 0 0 0-.39.39v.35a.4.4 0 0 0 .39.39h3.4v.54h-1.63a.4.4 0 0 0-.39.39v.31a.39.39 0 0 0 .39.39h1.49a1.36 1.36 0 0 1-.07.78h-4.6a.39.39 0 0 0-.39.39v.3a.4.4 0 0 0 .39.4H388a2.6 2.6 0 0 0 .61.66 2.75 2.75 0 0 0 .63.37C395 400.61 392 390.5 400.3 388c-2.51-2-5.96-1.74-8.81.18z"/><text class="cls-27" transform="translate(389.64 399.81)">6</text><circle cx="384.27" cy="340.94" r="6.4" class="cls-28"/><path d="M381.11 338.33l-2-.09" class="cls-29"/><path d="M375.32 338.07l-51.17-2.31" class="cls-30"/><path d="M322.26 335.67l-2-.09.07-2" class="cls-29"/><path d="M320.48 329.43l1.11-31.14" class="cls-31"/><path d="M321.66 296.21l.07-2 1.98-.28" class="cls-29"/><path d="M327.88 293.33l31.28-4.5" class="cls-32"/><path d="M361.24 288.53l1.98-.28" class="cls-29"/><rect width="2.24" height="1.26" x="344.41" y="284.37" rx=".51"/><rect width="3.08" height="1.26" x="345.82" y="293.94" rx=".51"/><path d="M368.87 283.39c-10.26 2.54-6.45 13.42-12.42 15.55a11.89 11.89 0 0 0 10.68-3.81c3.25-3.82 3.59-8.91 1.74-11.74z"/><path d="M357.8 282.69h-11.57a.45.45 0 0 0-.45.45v.36a.45.45 0 0 0 .45.45h8.67a1.23 1.23 0 0 1 .07.42h-6.12a.45.45 0 0 0-.45.45v.36a.45.45 0 0 0 .45.45h5.89a8.46 8.46 0 0 0-.49.73h-3.46a.46.46 0 0 0-.46.45v.36a.46.46 0 0 0 .46.45h2.82a12.86 12.86 0 0 0-1 4.43h-3.95a.45.45 0 0 0-.45.45v.36a.45.45 0 0 0 .45.45h4c0 .21 0 .43.05.63h-1.88a.46.46 0 0 0-.46.45v.36a.46.46 0 0 0 .46.45h1.71a1.59 1.59 0 0 1-.07.9h-5.37a.45.45 0 0 0-.45.45v.36a.45.45 0 0 0 .45.45h6.66a3.34 3.34 0 0 0 .7.78 3.49 3.49 0 0 0 .74.42c6.68-1.47 3.24-13.18 12.8-16.05-2.9-2.36-6.9-2.04-10.2.18z"/><text class="cls-24" transform="translate(356.89 296.19)">4</text></svg>