<svg id="Layer_1" data-name="Layer 1" xmlns="http://www.w3.org/2000/svg" width="256" height="256" viewBox="0 0 256 256"><title>Artboard 1</title><path d="M128,2.6A125.4,125.4,0,1,0,253.4,128,125.3,125.3,0,0,0,128,2.6Zm0,235.1A109.7,109.7,0,1,1,237.7,128,109.7,109.7,0,0,1,128,237.7Z" fill="#fff"/><path d="M89.5,131.9c0-33.9,9.7-60.8,39.6-60.8s39.7,26.9,39.7,60.8-9.8,60.8-39.7,60.8S89.5,166,89.5,131.9Zm71.7,0c0-30.2-7-53.8-32.1-53.8S97,101.7,97,131.9s7.1,53.8,32.1,53.8S161.2,162.3,161.2,131.9Z" fill="#fff"/></svg>