<svg id="Layer_1" data-name="Layer 1" xmlns="http://www.w3.org/2000/svg" width="64" height="64" viewBox="0 0 64 64"><title>logo-64</title><path d="M60.2,15c-24.8,6.2-15.6,32.5-30,37.6,7.2,1.5,18.7-.9,25.8-9.2S64.7,21.9,60.2,15Z" fill="#956957"/><rect x="1.1" y="17.4" width="5.4" height="3.05" rx="1.5" fill="#632918"/><rect x="4.5" y="40.5" width="7.4" height="3.05" rx="1.5" fill="#632918"/><path d="M33.5,13.3H5.5a1,1,0,0,0-1.1,1.1v.9a1,1,0,0,0,1.1,1.1H26.4a1.8,1.8,0,0,1,.2,1H11.8a1.1,1.1,0,0,0-1.1,1.1v.8a1.1,1.1,0,0,0,1.1,1.1H26a17.4,17.4,0,0,0-1.1,1.8H16.5a1.1,1.1,0,0,0-1.1,1.1v.9a1,1,0,0,0,1.1,1h6.8A30.1,30.1,0,0,0,20.9,36H11.3a1.1,1.1,0,0,0-1.1,1.1v.8A1.1,1.1,0,0,0,11.3,39h9.6c0,.5.1,1,.1,1.5H16.5a1.1,1.1,0,0,0-1.1,1.1v.9a1.1,1.1,0,0,0,1.1,1.1h4.1a3.5,3.5,0,0,1-.2,2.2H7.6a1.1,1.1,0,0,0-1.1,1.1v.8a1.1,1.1,0,0,0,1.1,1.1H23.7a7.9,7.9,0,0,0,1.7,1.9,9.5,9.5,0,0,0,1.7,1c16.2-3.5,7.9-31.9,31-38.8C51.1,7.2,41.4,7.9,33.5,13.3Z" fill="#632918"/></svg>