<svg id="Layer_1" data-name="Layer 1" xmlns="http://www.w3.org/2000/svg" width="256" height="256" viewBox="0 0 256 256"><title>logo-256</title><path d="M97.6,203.1a20.1,20.1,0,0,1,7.2,9,33.3,33.3,0,0,1,0,25.3,20.1,20.1,0,0,1-7.2,9,19.7,19.7,0,0,1-11.5,3.3H68.6a3.3,3.3,0,0,1-2.5-1,3.7,3.7,0,0,1-1-2.4V203.1a3.7,3.7,0,0,1,1-2.4,3.7,3.7,0,0,1,2.5-1H86.1A19.1,19.1,0,0,1,97.6,203.1Zm-1.3,34.8c2.5-3.4,3.7-7.8,3.7-13.2a22.8,22.8,0,0,0-3.7-13.2c-2.5-3.5-6.1-5.2-10.9-5.2H72.2v36.8H85.4C90.3,243.1,93.9,241.4,96.3,237.9Z" fill="#632918"/><path d="M144.3,203.1a20.1,20.1,0,0,1,7.2,9,33.3,33.3,0,0,1,0,25.3,20.1,20.1,0,0,1-7.2,9,19.7,19.7,0,0,1-11.5,3.3H115.3a3.3,3.3,0,0,1-2.5-1,3.7,3.7,0,0,1-1-2.4V203.1a3.7,3.7,0,0,1,1-2.4,3.7,3.7,0,0,1,2.5-1h17.5A19.1,19.1,0,0,1,144.3,203.1ZM143,237.9c2.5-3.4,3.7-7.8,3.7-13.2a22.8,22.8,0,0,0-3.7-13.2c-2.5-3.5-6.1-5.2-10.9-5.2H118.9v36.8h13.2C137,243.1,140.6,241.4,143,237.9Z" fill="#632918"/><path d="M191.2,203.1a20.1,20.1,0,0,1,7.2,9,34.5,34.5,0,0,1,0,25.3,20.1,20.1,0,0,1-7.2,9,19.7,19.7,0,0,1-11.5,3.3H162.1a3.4,3.4,0,0,1-3.4-3.4V203.1a3.3,3.3,0,0,1,1-2.4,3.7,3.7,0,0,1,2.4-1h17.6A19.1,19.1,0,0,1,191.2,203.1Zm-1.3,34.8q3.6-5.1,3.6-13.2t-3.6-13.2c-2.5-3.5-6.1-5.2-10.9-5.2H165.8v36.8H179C183.8,243.1,187.5,241.4,189.9,237.9Z" fill="#632918"/><path d="M242.2,31C141.7,55.8,179,162.3,120.6,183.1c29.4,5.8,75.9-3.7,104.5-37.3C257,108.4,260.4,58.6,242.2,31Z" fill="#956957"/><rect x="2.8" y="40.5" width="21.9" height="12.33" rx="6.2" fill="#632918"/><rect x="16.5" y="134.2" width="30.1" height="12.33" rx="6.2" fill="#632918"/><path d="M133.9,24.1H20.6a4.4,4.4,0,0,0-4.4,4.4V32a4.4,4.4,0,0,0,4.4,4.4h84.9a12.2,12.2,0,0,1,.7,4.1H46.3A4.4,4.4,0,0,0,41.9,45v3.4a4.4,4.4,0,0,0,4.4,4.5h57.6c-1.7,2.3-3.3,4.7-4.8,7.1H65.2a4.4,4.4,0,0,0-4.4,4.4v3.5a4.4,4.4,0,0,0,4.4,4.4H92.8a123.3,123.3,0,0,0-9.7,43.4H44.4a4.4,4.4,0,0,0-4.4,4.4v3.5a4.4,4.4,0,0,0,4.4,4.4H83.2c.1,2.1.3,4.2.5,6.2H65.2a4.4,4.4,0,0,0-4.4,4.4v3.5a4.4,4.4,0,0,0,4.4,4.4H82c.4,2.3.7,5.9-.7,8.8H29.2a4.5,4.5,0,0,0-4.5,4.5v3.4a4.5,4.5,0,0,0,4.5,4.5H94.3a32,32,0,0,0,6.9,7.6,34.9,34.9,0,0,0,7.2,4.1c65.4-14.3,31.7-129,125.3-157.1C205.3-.8,166.2,2.3,133.9,24.1Z" fill="#632918"/></svg>