<svg id="Layer_1" data-name="Layer 1" xmlns="http://www.w3.org/2000/svg" width="32" height="32" viewBox="0 0 32 32"><title>logo-32</title><path d="M29.9,8.1c-12.2,3.1-7.7,16-14.8,18.6a14.1,14.1,0,0,0,12.7-4.6C31.7,17.6,32.1,11.5,29.9,8.1Z" fill="#956957"/><rect x="0.7" y="9.3" width="2.7" height="1.5" rx="0.8" fill="#632918"/><rect x="2.4" y="20.7" width="3.7" height="1.5" rx="0.8" fill="#632918"/><path d="M16.7,7.3H2.9a.5.5,0,0,0-.5.5v.5a.5.5,0,0,0,.5.5H13.3v.5H6a.5.5,0,0,0-.5.5v.5a.5.5,0,0,0,.5.5h7.1a4.7,4.7,0,0,0-.6.9H8.3a.5.5,0,0,0-.5.5v.4a.6.6,0,0,0,.5.6h3.4a16.3,16.3,0,0,0-1.2,5.3H5.8a.5.5,0,0,0-.5.5v.4a.6.6,0,0,0,.5.6h4.7c0,.2.1.5.1.7H8.3a.6.6,0,0,0-.5.6v.4a.5.5,0,0,0,.5.5h2.1a2.2,2.2,0,0,1-.1,1.1H3.9a.5.5,0,0,0-.5.5v.5a.5.5,0,0,0,.5.5h8a2.4,2.4,0,0,0,.8.9l.9.5c8-1.7,3.9-15.7,15.3-19.1C25.4,4.3,20.7,4.6,16.7,7.3Z" fill="#632918"/></svg>