<svg id="Layer_1" data-name="Layer 1" xmlns="http://www.w3.org/2000/svg" width="16" height="16" viewBox="0 0 16 16"><title>logo-16</title><path d="M14.6,4.2c-5.8,1.5-3.6,7.7-7,8.9a6.6,6.6,0,0,0,6-2.2C15.5,8.8,15.7,5.9,14.6,4.2Z" fill="#956957"/><rect x="0.7" y="4.8" width="1.3" height="0.72" rx="0.4" fill="#632918"/><rect x="1.5" y="10.2" width="1.8" height="0.72" rx="0.4" fill="#632918"/><path d="M8.3,3.8H1.8a.3.3,0,0,0-.3.3v.2a.3.3,0,0,0,.3.3H6.7v.2H3.2c-.1,0-.2.1-.2.3v.2a.2.2,0,0,0,.2.2H6.6l-.3.4h-2c-.1,0-.2.2-.2.3v.2c0,.1.1.3.2.3H6a5.4,5.4,0,0,0-.6,2.5H3.1a.2.2,0,0,0-.2.2v.2c0,.2.1.3.2.3H5.4v.3H4.3c-.1,0-.2.2-.2.3v.2c0,.2.1.3.2.3h1c0,.1.1.3,0,.5h-3c-.2,0-.3.1-.3.2v.2a.3.3,0,0,0,.3.3H6l.4.4.5.3c3.8-.9,1.8-7.5,7.2-9.2C12.5,2.4,10.2,2.6,8.3,3.8Z" fill="#632918"/></svg>